<svg width="167" height="39" viewBox="0 0 167 39" fill="none" xmlns="http://www.w3.org/2000/svg">
<g clip-path="url(#clip0_8_3936)">
<path d="M84.8182 2.03613H92.4012L104.483 30.8898H96.0509L94.0229 25.7329H83.0365L81.0085 30.8898H72.7773L84.8182 2.03613ZM91.7128 19.5534L88.5491 11.4499L85.3466 19.5534H91.7128Z" fill="#1C1C1B"/>
<path d="M104.204 2.24121H111.543L123.218 17.3844V2.24121H131.002V30.8905H124.151L111.988 15.1741V30.8905H104.204V2.24121Z" fill="#1C1C1B"/>
<path d="M49.1888 30.7223C48.9696 30.7223 48.7386 30.6781 48.4785 30.5984L46.4651 30.0001V30.7223L44.9428 30.2598V29.5375L43.5688 29.1199V26.976L44.9428 27.3943V25.9727L46.4651 26.4352V27.8569L48.1781 28.3755C48.3067 28.4095 48.4273 28.4316 48.5084 28.4316C48.7277 28.4316 48.849 28.2848 48.849 27.9469C48.849 27.7101 48.7978 27.4504 48.697 27.1346L50.2704 27.6083C50.4012 27.9919 50.4699 28.4323 50.4699 28.8728C50.4699 30.1137 49.9898 30.7231 49.1874 30.7231L49.1888 30.7223Z" fill="#1C1C1B"/>
<path d="M43.0493 24.1785V22.0456L45.5626 22.8018C45.1723 22.3843 44.8208 21.7749 44.8208 21.0526C44.8208 19.9474 45.4427 19.2812 46.444 19.2812C46.7355 19.2812 47.0761 19.3609 47.4152 19.462L50.3611 20.3421V22.4861L47.5263 21.6281C47.3765 21.5823 47.196 21.5484 47.0761 21.5484C46.7144 21.5484 46.5039 21.7852 46.5039 22.2367C46.5039 22.835 46.8751 23.1847 47.4861 23.3773L50.3619 24.2456V26.3895L43.0493 24.1785Z" fill="#1C1C1B"/>
<path d="M43.0493 16.7559V14.522L44.4518 14.9499V17.1838L43.0493 16.7559ZM44.9429 17.2856V15.1528L50.3619 16.7891V18.933L44.9429 17.2856Z" fill="#1C1C1B"/>
<path d="M44.9428 13.6529V11.5089L45.5626 11.7007C45.1723 11.2832 44.8208 10.6738 44.8208 9.95153C44.8208 8.84637 45.4427 8.18018 46.4439 8.18018C46.7355 8.18018 47.0761 8.25985 47.4152 8.36093L50.3611 9.24107V11.385L47.5263 10.527C47.3765 10.4812 47.1959 10.4473 47.0761 10.4473C46.7143 10.4473 46.5039 10.6841 46.5039 11.1356C46.5039 11.7339 46.8751 12.0836 47.4861 12.2762L50.3618 13.1445V15.2885L44.9428 13.6521V13.6529Z" fill="#1C1C1B"/>
<path d="M43.0496 5.67556V3.5427L46.6247 4.62573L44.9431 2.58436V0L47.156 2.81011L50.3621 1.61347V3.90421L48.4276 4.55933L49.0686 5.3598L50.3614 5.7545V7.89842L43.0488 5.67482L43.0496 5.67556Z" fill="#1C1C1B"/>
<path d="M121.907 36.0429L125.047 31.6562C127.238 33.0565 129.83 33.7573 132.021 33.7573C133.884 33.7573 135.125 33.2778 136.147 32.2464C136.877 31.5094 137.389 30.4765 137.753 29.0394L137.899 28.5598C136.111 30.1822 134.322 31.0306 131.875 31.0306C128.333 31.0306 124.864 28.5975 124.864 24.137C124.864 20.7463 126.178 17.5761 128.333 15.402C130.159 13.559 132.568 12.4524 135.197 12.4524C138.228 12.4524 140.09 13.9272 141.185 15.6956L141.952 12.8574L148.923 12.4155L144.653 28.7074C143.704 32.2826 142.754 34.2361 141.148 35.8585C139.176 37.8482 136.438 38.7704 132.312 38.7704C128.515 38.7704 124.498 37.7014 121.906 36.0422L121.907 36.0429ZM138.192 24.6173C139.141 23.6589 139.653 22.4793 139.653 21.152C139.653 19.273 138.375 17.9826 136.331 17.9826C135.089 17.9826 134.03 18.4614 133.226 19.3091C132.24 20.2675 131.729 21.5209 131.729 22.9219C131.729 24.801 133.008 25.9806 134.943 25.9806C136.222 25.9806 137.352 25.4657 138.192 24.6173Z" fill="#FFD600"/>
<path d="M132.314 39.0001C128.483 39.0001 124.449 37.9407 121.786 36.2365L121.583 36.1074L124.989 31.3504L125.168 31.4654C127.191 32.7587 129.753 33.5312 132.021 33.5312C133.797 33.5312 134.983 33.0988 135.987 32.0866C136.644 31.4241 137.117 30.513 137.469 29.2308C135.724 30.6465 134.013 31.2596 131.876 31.2596C128.279 31.2596 124.639 28.8132 124.639 24.1381C124.639 20.751 125.928 17.5086 128.174 15.2414C130.101 13.296 132.596 12.2255 135.198 12.2255C138.284 12.2255 140.086 13.732 141.099 15.1551L141.778 12.6416L149.223 12.1694L144.873 28.7675C143.906 32.4083 142.94 34.3744 141.309 36.0218C139.267 38.0824 136.493 39.0001 132.314 39.0001ZM122.233 35.9783C124.827 37.5645 128.661 38.5435 132.314 38.5435C136.364 38.5435 139.041 37.6663 140.991 35.6987C142.559 34.1147 143.494 32.2039 144.438 28.6502L148.628 12.6645L142.13 13.0761L141.269 16.2596L140.995 15.8176C139.706 13.7364 137.757 12.6814 135.199 12.6814C132.717 12.6814 130.336 13.7047 128.494 15.5638C126.332 17.7461 125.092 20.8713 125.092 24.1381C125.092 28.5137 128.505 30.8029 131.876 30.8029C134.129 30.8029 135.885 30.0814 137.749 28.3912L138.354 27.8408L137.97 29.1068C137.593 30.5919 137.064 31.644 136.307 32.4083C135.225 33.4994 133.903 33.9864 132.021 33.9864C129.703 33.9864 127.195 33.2508 125.106 31.9634L122.231 35.9783H122.233ZM134.943 26.2089C132.854 26.2089 131.503 24.9186 131.503 22.9215C131.503 21.4467 132.045 20.1409 133.069 19.1449C133.929 18.2375 135.059 17.7542 136.331 17.7542C138.453 17.7542 139.88 19.1198 139.88 21.1516C139.88 22.5157 139.351 23.7699 138.353 24.7784C137.44 25.7006 136.229 26.2082 134.944 26.2082L134.943 26.2089ZM136.33 18.2109C135.185 18.2109 134.168 18.6455 133.389 19.4673C132.449 20.3821 131.955 21.5751 131.955 22.9222C131.955 24.6678 133.099 25.753 134.942 25.753C136.106 25.753 137.203 25.2926 138.031 24.4568C138.957 23.5228 139.426 22.411 139.426 21.1524C139.426 19.3655 138.211 18.2109 136.33 18.2109Z" fill="#F6F6F6"/>
<path d="M166.774 21.668C166.774 24.7274 165.496 27.6394 163.378 29.8143C161.297 31.9154 158.412 33.2788 155.163 33.2788C149.102 33.2788 145.45 29.2617 145.45 23.9904C145.45 20.9678 146.728 18.019 148.882 15.881C150.963 13.7806 153.811 12.4165 157.097 12.4165C163.122 12.4165 166.773 16.4336 166.773 21.668H166.774ZM158.449 26.1653C159.544 25.0963 160.165 23.401 160.165 21.9269C160.165 19.6414 158.778 18.2404 156.696 18.2404C155.565 18.2404 154.578 18.7199 153.812 19.4938C152.717 20.599 152.096 22.2582 152.096 23.7322C152.096 26.0547 153.483 27.4557 155.528 27.4557C156.66 27.4557 157.681 26.9392 158.449 26.1653Z" fill="#FFD600"/>
<path d="M155.164 33.5067C149.219 33.5067 145.225 29.6821 145.225 23.9904C145.225 20.9405 146.501 17.9253 148.725 15.7179C150.979 13.4427 153.953 12.1885 157.098 12.1885C163.021 12.1885 167 15.9982 167 21.6686C167 24.734 165.771 27.6828 163.54 29.9743C161.282 32.2532 158.308 33.5074 155.163 33.5074L155.164 33.5067ZM157.098 12.6451C154.074 12.6451 151.214 13.8514 149.043 16.0425C146.903 18.165 145.676 21.0622 145.676 23.9904C145.676 29.4092 149.489 33.05 155.163 33.05C158.187 33.05 161.047 31.8438 163.218 29.6526C165.365 27.449 166.548 24.613 166.548 21.6679C166.548 16.2705 162.75 12.6451 157.098 12.6451ZM155.528 27.6836C153.307 27.6836 151.871 26.1321 151.871 23.7321C151.871 22.1283 152.553 20.4425 153.653 19.3322C154.509 18.4683 155.561 18.0116 156.698 18.0116C158.943 18.0116 160.393 19.5483 160.393 21.9261C160.393 23.5418 159.693 25.2696 158.609 26.3276C157.741 27.2011 156.648 27.6828 155.529 27.6828L155.528 27.6836ZM156.696 18.4683C155.683 18.4683 154.741 18.8784 153.972 19.6546C152.954 20.6815 152.322 22.2448 152.322 23.7314C152.322 25.8871 153.551 27.2262 155.528 27.2262C156.527 27.2262 157.507 26.7916 158.29 26.003L158.293 26C159.294 25.024 159.94 23.4245 159.94 21.9254C159.94 19.7918 158.698 18.4668 156.698 18.4668L156.696 18.4683Z" fill="#F6F6F6"/>
<path d="M64.7041 2.24121L57.9339 13.3326L51.1636 2.24121H51.0576V15.2582L57.7709 25.6517H57.9339L65.1916 14.4378V30.8905H73.0142V2.24121H64.7041Z" fill="#1C1C1B"/>
<path d="M18.4093 25.3241C16.3725 25.3241 14.5104 25.3469 12.6504 25.3123C11.9496 25.299 11.5447 25.541 11.2984 26.2168C10.8731 27.3876 10.3644 28.5267 9.91499 29.6886C9.46992 30.8395 9.66286 31.1745 10.8439 31.1789C16.0151 31.1959 21.1871 31.1988 26.3591 31.1811C27.4589 31.1774 27.684 30.7923 27.2441 29.7491C24.0636 22.1989 20.8662 14.6569 17.6967 7.10223C17.4036 6.40432 16.9761 6.12544 16.2431 6.13799C14.6324 6.16602 13.0195 6.17266 11.4088 6.13356C10.6093 6.11438 10.1993 6.46407 9.90037 7.19076C8.98174 9.42543 8.00464 11.6357 7.04946 13.8549C4.77955 19.1262 2.50306 24.3938 0.244841 29.6695C-0.254305 30.8358 -0.0233679 31.1686 1.2446 31.1892C2.44386 31.2092 3.64679 31.1354 4.84094 31.2151C5.89477 31.2859 6.45677 30.9015 6.87187 29.8989C9.02339 24.7014 11.2436 19.5327 13.4456 14.3566C13.5639 14.0785 13.732 13.8225 13.9739 13.3783C15.3325 17.0081 16.6034 20.401 17.8714 23.7947C18.0292 24.2167 18.171 24.6439 18.4093 25.3241Z" fill="#9D9D9C"/>
<path d="M25.4033 11.8491C26.9183 12.0379 28.3003 12.0755 29.6091 12.4083C31.2425 12.8236 32.3994 13.9443 33.1456 15.4973C34.8469 19.0378 33.6169 25.0394 27.7668 25.3087C26.6077 25.3618 26.4549 25.6532 26.8927 26.737C27.3736 27.927 27.9158 29.0912 28.3982 30.2804C28.6547 30.9119 29.0515 31.0942 29.718 31.0064C36.0177 30.1771 40.3265 25.4747 40.5977 19.0997C40.8652 12.814 36.9619 7.59368 30.7061 6.57484C27.2625 6.01414 23.691 6.23473 20.1758 6.14472C18.8026 6.11005 18.5841 6.48852 19.1227 7.78918C20.6092 11.3821 22.1066 14.9705 23.6011 18.5604C23.7027 18.8046 23.7604 19.0909 23.9263 19.2783C24.215 19.6051 24.5724 19.8707 24.9005 20.1614C25.0679 19.7836 25.3675 19.4096 25.3792 19.0267C25.4325 17.3638 25.4026 15.6987 25.4026 14.0343C25.4026 13.402 25.4026 12.7698 25.4026 11.8483L25.4033 11.8491Z" fill="#9D9D9C"/>
</g>
<defs>
<clipPath id="clip0_8_3936">
<rect width="167" height="39" fill="white"/>
</clipPath>
</defs>
</svg>
