<svg width="37" height="41" viewBox="0 0 37 41" fill="none" xmlns="http://www.w3.org/2000/svg">
<g clip-path="url(#clip0_721_1017)">
<path d="M18.5001 15.5991C22.8607 15.5991 26.4181 12.0949 26.4181 7.79953C26.4181 3.50414 22.8607 0 18.5001 0C14.1394 0 10.582 3.50414 10.582 7.79953C10.582 12.0949 14.1394 15.5991 18.5001 15.5991ZM18.5001 3.22962C21.0574 3.22962 23.1394 5.28043 23.1394 7.79953C23.1394 10.3186 21.0574 12.3694 18.5001 12.3694C15.9427 12.3694 13.8607 10.3186 13.8607 7.79953C13.8607 5.28043 15.9427 3.22962 18.5001 3.22962Z" fill="#318CE2"/>
<path d="M36.4676 27.7585C36.4676 23.3662 33.1889 18.8448 27.7135 18.8448H9.27084C3.79543 18.8286 0.516746 23.3662 0.516746 27.7585V39.3851C0.500352 39.8211 0.664287 40.2248 0.975762 40.5317C1.28724 40.8385 1.69707 40.9999 2.1397 40.9999H27.7954C27.7954 40.9999 27.7954 40.9999 27.8118 40.9999H34.861C35.3036 40.9999 35.7135 40.8223 36.0249 40.5317C36.3364 40.2248 36.5004 39.8211 36.5004 39.3851V27.7585H36.4676ZM29.4512 37.7703V27.7585C29.4348 26.8704 28.6971 26.1437 27.7954 26.1437C26.8938 26.1437 26.1561 26.8704 26.1561 27.7585V37.7703H10.8446V27.7585C10.8446 26.8704 10.1069 26.1437 9.20527 26.1437C8.30363 26.1437 7.56593 26.8704 7.56593 27.7585V37.7703H3.77904V27.7585C3.79543 24.9649 5.84461 22.0744 9.27084 22.0744H27.7135C31.1397 22.0744 33.1889 24.9649 33.1889 27.7747V37.7865H29.4348L29.4512 37.7703Z" fill="#318CE2"/>
</g>
<defs>
<clipPath id="clip0_721_1017">
<rect width="36" height="41" fill="white" transform="translate(0.5)"/>
</clipPath>
</defs>
</svg>
