<svg width="81" height="116" viewBox="0 0 81 116" fill="none" xmlns="http://www.w3.org/2000/svg">
<g clip-path="url(#clip0_701_993)">
<path d="M30.7419 82.2278C30.1815 82.2278 29.6346 82.1574 29.1144 82.0196C26.2705 81.2638 24.6535 78.7779 23.2278 76.5839C22.4551 75.3965 21.5802 74.0495 20.8381 73.6227C20.3877 73.3641 19.6457 73.2272 18.8195 73.1426L3.43359 107.786L16.7942 103.397L22.479 116L38.8288 79.2884C38.1566 79.5632 37.4337 79.9291 36.7557 80.2723C34.8576 81.2334 32.8953 82.2278 30.7429 82.2278H30.7419Z" fill="#318CE2"/>
<path d="M60.1621 73.6228C59.4201 74.0497 58.5451 75.3958 57.7725 76.584C56.3458 78.7781 54.7297 81.264 51.8859 82.0198C51.3657 82.1576 50.8178 82.2279 50.2584 82.2279C48.1059 82.2279 46.1427 81.2336 44.2455 80.2725C43.6976 79.9949 43.12 79.7031 42.5645 79.4559L58.3319 116L64.3591 103.398L77.472 107.787L62.5011 73.1133C61.5496 73.1941 60.6718 73.331 60.1641 73.6228H60.1621Z" fill="#318CE2"/>
<path d="M80.3833 29.1426C79.494 25.8353 73.8952 24.4645 72.2093 21.5689C70.4996 18.6315 72.0879 13.132 69.6897 10.7479C67.2914 8.36367 61.7596 9.94267 58.8048 8.24294C55.8921 6.56697 54.5132 1.00102 51.1864 0.116928C50.8833 0.036124 50.5744 0 50.2589 0C47.2247 0 43.6598 3.3738 40.5004 3.3738C37.341 3.3738 33.7761 0 30.742 0C30.4264 0 30.1176 0.036124 29.8144 0.116928C26.4877 1.00102 25.1088 6.56697 22.1961 8.24294C19.2413 9.94267 13.7094 8.36367 11.3112 10.7479C8.91295 13.132 10.5013 18.6315 8.79151 21.5689C7.10566 24.4645 1.50783 25.8353 0.618523 29.1426C-0.241137 32.3396 3.8946 36.299 3.8946 39.765C3.8946 43.231 -0.242093 47.1913 0.617567 50.3883C1.50687 53.6965 7.10566 55.0663 8.79151 57.962C10.5013 60.8994 8.91295 66.3988 11.3112 68.783C13.1883 70.6491 16.9836 70.0882 19.9623 70.5702C20.7894 70.7043 21.5544 70.9191 22.1961 71.2879C25.1088 72.9639 26.4877 78.5289 29.8144 79.413C30.1176 79.4938 30.4264 79.5299 30.742 79.5299C33.6863 79.5299 37.1306 76.3529 40.2183 76.1656C40.312 76.1599 40.4067 76.1561 40.4995 76.1561C40.7175 76.1561 40.9384 76.1732 41.1602 76.2037C44.1485 76.6077 47.4332 79.5299 50.2569 79.5299C50.5725 79.5299 50.8814 79.4938 51.1845 79.413C54.5113 78.5289 55.8902 72.963 58.8029 71.287C59.5325 70.8668 60.4199 70.6472 61.378 70.5189C64.2993 70.1263 67.8814 70.5769 69.6877 68.7821C72.086 66.3979 70.4977 60.8985 72.2074 57.961C73.8933 55.0654 79.4911 53.6946 80.3804 50.3873C81.2401 47.1904 77.1043 43.231 77.1043 39.765C77.1043 36.299 81.2401 32.3396 80.3804 29.1426H80.3833ZM68.371 51.472C66.8477 55.053 64.6665 58.269 61.8896 61.0297C60.8339 62.0792 59.7113 63.0422 58.5284 63.9177C56.5997 65.3446 54.5084 66.5348 52.2756 67.4731C49.338 68.7079 46.257 69.4618 43.0871 69.727C42.2312 69.7983 41.3687 69.8373 40.5004 69.8373C39.7899 69.8373 39.0842 69.8116 38.3824 69.7641C35.047 69.5359 31.8073 68.7697 28.7253 67.4731C26.6216 66.588 24.6441 65.4796 22.809 64.161C21.5019 63.2218 20.2664 62.178 19.1112 61.0297C16.3343 58.269 14.1531 55.053 12.6299 51.472C11.0521 47.7626 10.2517 43.8242 10.2517 39.7659C10.2517 35.7077 11.0521 31.7692 12.6299 28.0598C14.1531 24.4788 16.3343 21.2628 19.1112 18.5022C21.8882 15.7415 25.1231 13.5731 28.7253 12.0588C32.4565 10.4902 36.4182 9.69455 40.5004 9.69455C44.5826 9.69455 48.5443 10.4902 52.2756 12.0588C55.8777 13.5731 59.1127 15.7415 61.8896 18.5022C64.6665 21.2628 66.8477 24.4788 68.371 28.0598C69.9488 31.7692 70.7492 35.7077 70.7492 39.7659C70.7492 43.8242 69.9488 47.7626 68.371 51.472Z" fill="#318CE2"/>
<path d="M59.871 24.8305C58.931 24.1347 57.7749 23.8428 56.6159 24.012C55.456 24.1803 54.4319 24.7868 53.7319 25.7213L36.4699 48.7437L36.0013 49.3692L34.2122 47.7503L26.7066 40.9561C25.8403 40.1718 24.7186 39.7707 23.5472 39.8239C22.3768 39.8781 21.2972 40.3829 20.5083 41.2441C18.8798 43.0228 19.0099 45.7863 20.799 47.4061L27.5405 53.5092L33.6719 59.059C33.7197 59.1027 33.7685 59.1446 33.8182 59.1854C34.6061 59.8385 35.5958 60.196 36.6257 60.196C36.7653 60.196 36.9069 60.1893 37.0455 60.176C38.2752 60.0581 39.4046 59.4259 40.1437 58.4411L44.6983 52.3665L48.6208 47.1343L60.766 30.9355C61.466 30.001 61.7586 28.8517 61.5893 27.6995C61.4201 26.5464 60.81 25.5283 59.87 24.8324L59.871 24.8305Z" fill="#318CE2"/>
</g>
<defs>
<clipPath id="clip0_701_993">
<rect width="80" height="116" fill="white" transform="translate(0.5)"/>
</clipPath>
</defs>
</svg>
