<svg width="58" height="67" viewBox="0 0 58 67" fill="none" xmlns="http://www.w3.org/2000/svg">
<g clip-path="url(#clip0_695_1648)">
<path d="M29.001 25.4911C36.0265 25.4911 41.7578 19.7649 41.7578 12.7456C41.7578 5.72627 36.0265 0 29.001 0C21.9755 0 16.2441 5.72627 16.2441 12.7456C16.2441 19.7649 21.9755 25.4911 29.001 25.4911ZM29.001 5.27767C33.1212 5.27767 36.4755 8.62899 36.4755 12.7456C36.4755 16.8622 33.1212 20.2135 29.001 20.2135C24.8808 20.2135 21.5265 16.8622 21.5265 12.7456C21.5265 8.62899 24.8808 5.27767 29.001 5.27767Z" fill="#318CE2"/>
<path d="M57.948 45.3616C57.948 38.184 52.6656 30.7952 43.8441 30.7952H14.131C5.30953 30.7688 0.0271964 38.184 0.0271964 45.3616V64.3612C0.000784755 65.0737 0.264901 65.7334 0.766723 66.2348C1.26854 66.7362 1.92884 67 2.64195 67H43.9762C43.9762 67 43.9762 67 44.0026 67H55.3596C56.0727 67 56.733 66.7098 57.2348 66.2348C57.7367 65.7334 58.0008 65.0737 58.0008 64.3612V45.3616H57.948ZM46.6438 61.7224V45.3616C46.6174 43.9102 45.4288 42.7228 43.9762 42.7228C42.5236 42.7228 41.335 43.9102 41.335 45.3616V61.7224H16.6665V45.3616C16.6665 43.9102 15.478 42.7228 14.0254 42.7228C12.5727 42.7228 11.3842 43.9102 11.3842 45.3616V61.7224H5.28312V45.3616C5.30953 40.7964 8.61098 36.0729 14.131 36.0729H43.8441C49.3642 36.0729 52.6656 40.7964 52.6656 45.388V61.7488H46.6174L46.6438 61.7224Z" fill="#318CE2"/>
</g>
<defs>
<clipPath id="clip0_695_1648">
<rect width="58" height="67" fill="white"/>
</clipPath>
</defs>
</svg>
