<svg width="262" height="54" viewBox="0 0 262 54" fill="none" xmlns="http://www.w3.org/2000/svg">
<g clip-path="url(#clip0_695_595)">
<path d="M66.0914 48.4804V39.4282H67.472V43.7473H67.5921L71.3909 39.4282H73.1255L69.4638 43.5035L73.1379 48.4804H71.4694L68.5495 44.4403L67.4705 45.673V48.4804H66.0898H66.0914Z" fill="white"/>
<path d="M76.5314 48.6184C75.8988 48.6184 75.3401 48.4728 74.8583 48.1815C74.3766 47.8901 74.0025 47.4792 73.7393 46.9503C73.4761 46.4213 73.3438 45.8111 73.3438 45.1181C73.3438 44.4251 73.4746 43.8056 73.7393 43.2751C74.0025 42.7447 74.375 42.3337 74.8583 42.0424C75.3401 41.7511 75.8988 41.6055 76.5314 41.6055C77.1641 41.6055 77.7212 41.7511 78.2015 42.0424C78.6817 42.3337 79.0542 42.7447 79.3159 43.2751C79.5775 43.8056 79.7084 44.4205 79.7084 45.1181C79.7084 45.8157 79.5775 46.4213 79.3159 46.9503C79.0542 47.4792 78.6832 47.8901 78.2015 48.1815C77.7212 48.4728 77.1641 48.6184 76.5314 48.6184ZM76.5345 47.5038C76.9316 47.5038 77.2656 47.398 77.5396 47.1849C77.8136 46.9717 78.0183 46.685 78.1538 46.3232C78.2892 45.9613 78.3585 45.5566 78.3585 45.1119C78.3585 44.6673 78.2907 44.2625 78.1538 43.9007C78.0183 43.5389 77.8121 43.2491 77.5396 43.0344C77.2672 42.8198 76.9316 42.7125 76.5345 42.7125C76.1374 42.7125 75.7926 42.8198 75.5156 43.0344C75.2385 43.2491 75.0323 43.5389 74.8968 43.9007C74.7614 44.2625 74.6921 44.6673 74.6921 45.1119C74.6921 45.5566 74.7598 45.9613 74.8968 46.3232C75.0323 46.685 75.2385 46.9733 75.5156 47.1849C75.7926 47.3964 76.1312 47.5038 76.5345 47.5038Z" fill="white"/>
<path d="M81.0367 48.4804V41.6913H82.3327V42.7737H82.4035C82.4866 42.5315 82.6128 42.3214 82.7822 42.142C82.9515 41.9627 83.1531 41.8247 83.3855 41.7311C83.6179 41.6376 83.8658 41.5901 84.129 41.5901C84.2229 41.5901 84.3214 41.5916 84.4245 41.5962C84.5261 41.6008 84.6184 41.6085 84.7015 41.6207V42.8933C84.6246 42.8749 84.5199 42.8581 84.386 42.8397C84.2536 42.8213 84.1259 42.8136 84.0043 42.8136C83.6934 42.8136 83.4148 42.878 83.1685 43.0083C82.9222 43.1386 82.7283 43.3196 82.5867 43.5541C82.4466 43.7887 82.3758 44.0509 82.3758 44.3437V48.4819H81.0352L81.0367 48.4804Z" fill="white"/>
<path d="M88.4235 48.6183C87.7601 48.6183 87.1844 48.4757 86.695 48.189C86.2055 47.9038 85.8299 47.4975 85.5683 46.9716C85.3066 46.4457 85.1758 45.8324 85.1758 45.1302C85.1758 44.428 85.3066 43.8285 85.5683 43.2934C85.8299 42.7583 86.1993 42.3428 86.675 42.0469C87.1506 41.751 87.7016 41.6023 88.3265 41.6023C88.8776 41.6023 89.3809 41.7204 89.838 41.958C90.2952 42.1957 90.663 42.5682 90.9401 43.0788C91.2187 43.5893 91.3572 44.2333 91.3572 45.0152V45.4875H85.9254V44.4878H90.0397C90.0397 44.1428 89.9689 43.8362 89.8288 43.5679C89.6887 43.2996 89.4886 43.088 89.2316 42.9316C88.9745 42.7752 88.679 42.697 88.3435 42.697C87.9817 42.697 87.6631 42.7859 87.3845 42.9623C87.1059 43.1386 86.8904 43.3732 86.7396 43.6645C86.5872 43.9558 86.5087 44.2732 86.5072 44.6151V45.3893C86.5072 45.834 86.5872 46.2173 86.7473 46.5393C86.9074 46.8612 87.1321 47.105 87.4215 47.2706C87.7108 47.4377 88.0479 47.5205 88.4327 47.5205C88.6759 47.5205 88.8945 47.4883 89.09 47.4239C89.2855 47.3595 89.4517 47.2706 89.5887 47.1587C89.7257 47.0468 89.8334 46.918 89.9104 46.7738H91.2679C91.1679 47.1418 90.9863 47.4653 90.7261 47.7444C90.466 48.0234 90.1382 48.2381 89.7457 48.3899C89.3516 48.5416 88.9114 48.6168 88.4235 48.6168V48.6183Z" fill="white"/>
<path d="M96.8005 45.4093C96.7682 45.4093 96.7112 45.4123 96.6297 45.4184C96.5481 45.4246 96.448 45.4307 96.3295 45.4368C96.1079 45.4522 95.8847 45.466 95.6615 45.4813C95.4383 45.4966 95.2521 45.5089 95.1043 45.5212C94.6518 45.5534 94.3008 45.6576 94.053 45.8324C93.8052 46.0072 93.6805 46.2571 93.6805 46.5822C93.6805 46.7937 93.736 46.9747 93.8452 47.1219C93.9545 47.269 94.1069 47.381 94.3008 47.4561C94.4948 47.5312 94.718 47.5696 94.9689 47.5696C95.3244 47.5696 95.6323 47.499 95.8939 47.358C96.1556 47.2169 96.3572 47.0283 96.5004 46.7937C96.642 46.5592 96.7128 46.3062 96.7128 46.0363L96.7082 43.8929C96.7082 43.6368 96.6558 43.4176 96.5512 43.2367C96.4465 43.0558 96.2895 42.9178 96.0832 42.8258C95.8754 42.7322 95.6215 42.6863 95.3198 42.6863C95.0658 42.6863 94.8411 42.723 94.6456 42.7951C94.4501 42.8672 94.2916 42.9684 94.1685 43.0972C94.0453 43.2275 93.9622 43.3777 93.9176 43.5479H92.5816C92.6262 43.1738 92.7678 42.8396 93.0048 42.5452C93.2434 42.2508 93.5651 42.0208 93.9699 41.8552C94.3747 41.6897 94.8411 41.6084 95.3675 41.6084C95.8046 41.6084 96.2218 41.6743 96.6189 41.8077C97.016 41.9396 97.3515 42.1834 97.6286 42.5375C97.9057 42.8917 98.0442 43.3716 98.0442 43.9788V48.488H96.7389V47.5604H96.6851C96.5896 47.7489 96.4557 47.9237 96.2818 48.0863C96.1079 48.2488 95.8831 48.3806 95.6122 48.4834C95.3398 48.5861 95.0258 48.6382 94.6718 48.6382C94.2362 48.6382 93.8452 48.557 93.4958 48.3944C93.1464 48.2319 92.8709 47.9958 92.6708 47.6845C92.4692 47.3733 92.3691 47.0023 92.3691 46.5684C92.3691 45.8692 92.6077 45.3709 93.0864 45.0704C93.5636 44.7699 94.1746 44.5936 94.9165 44.5399C95.1243 44.5246 95.3675 44.5108 95.6461 44.4954C95.9262 44.4801 96.1879 44.4679 96.4342 44.4556C96.5204 44.4495 96.5927 44.4464 96.6543 44.4449C96.7143 44.4449 96.7589 44.4433 96.7851 44.4433L96.8036 45.4154L96.8005 45.4093Z" fill="white"/>
<path d="M102.906 48.4804V39.4282H106.243C106.867 39.4282 107.395 39.5309 107.826 39.7349C108.257 39.9403 108.578 40.2224 108.791 40.5812C109.003 40.9415 109.111 41.3493 109.111 41.8062C109.111 42.1681 109.043 42.4809 108.909 42.7415C108.774 43.0022 108.594 43.2107 108.366 43.3671C108.138 43.5235 107.875 43.64 107.576 43.7166V43.8056C107.893 43.824 108.195 43.9221 108.484 44.1045C108.774 44.287 109.009 44.543 109.192 44.8788C109.376 45.2131 109.468 45.6025 109.468 46.0487C109.468 46.5255 109.356 46.9471 109.132 47.3105C108.909 47.6739 108.567 47.9606 108.109 48.1706C107.65 48.3807 107.079 48.485 106.396 48.485H102.908L102.906 48.4804ZM106.12 43.3395C106.428 43.3395 106.707 43.2812 106.954 43.1631C107.202 43.0451 107.398 42.8795 107.541 42.6633C107.682 42.4487 107.753 42.1972 107.753 41.912C107.753 41.6591 107.695 41.4337 107.576 41.2359C107.458 41.0381 107.279 40.8832 107.039 40.7713C106.799 40.6594 106.505 40.6027 106.156 40.6027H104.287V43.3395H106.12ZM106.262 47.3013C106.685 47.3013 107.033 47.2446 107.304 47.1311C107.576 47.0177 107.776 46.8628 107.903 46.665C108.029 46.4672 108.093 46.2388 108.093 45.9797C108.093 45.6914 108.019 45.4277 107.872 45.1885C107.724 44.9493 107.515 44.7608 107.247 44.6228C106.977 44.4848 106.665 44.4158 106.311 44.4158H104.287V47.3028H106.262V47.3013Z" fill="white"/>
<path d="M113.773 48.6183C113.11 48.6183 112.534 48.4757 112.045 48.189C111.555 47.9038 111.18 47.4975 110.918 46.9716C110.656 46.4457 110.525 45.8324 110.525 45.1302C110.525 44.428 110.656 43.8285 110.918 43.2934C111.18 42.7583 111.549 42.3428 112.025 42.0469C112.5 41.751 113.051 41.6023 113.675 41.6023C114.226 41.6023 114.729 41.7204 115.186 41.958C115.643 42.1957 116.011 42.5682 116.29 43.0788C116.568 43.5893 116.707 44.2333 116.707 45.0152V45.4875H111.275V44.4878H115.389C115.389 44.1428 115.318 43.8362 115.178 43.5679C115.038 43.2996 114.838 43.088 114.581 42.9316C114.324 42.7752 114.029 42.697 113.693 42.697C113.333 42.697 113.013 42.7859 112.734 42.9623C112.456 43.1386 112.24 43.3732 112.089 43.6645C111.937 43.9558 111.858 44.2732 111.857 44.6151V45.3893C111.857 45.834 111.937 46.2173 112.097 46.5393C112.257 46.8612 112.482 47.105 112.771 47.2706C113.06 47.4377 113.399 47.5205 113.782 47.5205C114.026 47.5205 114.244 47.4883 114.44 47.4239C114.635 47.3595 114.801 47.2706 114.938 47.1587C115.075 47.0468 115.183 46.918 115.26 46.7738H116.618C116.518 47.1418 116.336 47.4653 116.076 47.7444C115.816 48.0234 115.488 48.2381 115.095 48.3899C114.701 48.5416 114.261 48.6168 113.773 48.6168V48.6183Z" fill="white"/>
<path d="M122.146 45.4093C122.114 45.4093 122.057 45.4123 121.975 45.4184C121.894 45.4246 121.794 45.4307 121.675 45.4368C121.454 45.4522 121.23 45.466 121.007 45.4813C120.784 45.4966 120.598 45.5089 120.45 45.5212C119.997 45.5534 119.647 45.6576 119.399 45.8324C119.151 46.0072 119.026 46.2571 119.026 46.5822C119.026 46.7937 119.082 46.9747 119.191 47.1219C119.3 47.269 119.453 47.381 119.647 47.4561C119.84 47.5312 120.064 47.5696 120.315 47.5696C120.67 47.5696 120.978 47.499 121.24 47.358C121.501 47.2169 121.703 47.0283 121.846 46.7937C121.988 46.5592 122.058 46.3062 122.058 46.0363L122.054 43.8929C122.054 43.6368 122.002 43.4176 121.897 43.2367C121.792 43.0558 121.635 42.9178 121.429 42.8258C121.221 42.7322 120.967 42.6863 120.665 42.6863C120.412 42.6863 120.187 42.723 119.991 42.7951C119.796 42.8672 119.637 42.9684 119.514 43.0972C119.391 43.2275 119.308 43.3777 119.263 43.5479H117.927C117.972 43.1738 118.113 42.8396 118.351 42.5452C118.589 42.2508 118.911 42.0208 119.316 41.8552C119.72 41.6897 120.187 41.6084 120.713 41.6084C121.15 41.6084 121.567 41.6743 121.965 41.8077C122.362 41.9396 122.697 42.1834 122.974 42.5375C123.251 42.8917 123.39 43.3716 123.39 43.9788V48.488H122.085V47.5604H122.031C121.935 47.7489 121.801 47.9237 121.627 48.0863C121.454 48.2488 121.23 48.3806 120.958 48.4834C120.685 48.5861 120.372 48.6382 120.017 48.6382C119.582 48.6382 119.191 48.557 118.842 48.3944C118.492 48.2319 118.217 47.9958 118.017 47.6845C117.815 47.3733 117.715 47.0023 117.715 46.5684C117.715 45.8692 117.953 45.3709 118.432 45.0704C118.909 44.7699 119.52 44.5936 120.262 44.5399C120.47 44.5246 120.713 44.5108 120.992 44.4954C121.272 44.4801 121.534 44.4679 121.78 44.4556C121.866 44.4495 121.938 44.4464 122 44.4449C122.06 44.4449 122.105 44.4433 122.131 44.4433L122.149 45.4154L122.146 45.4093Z" fill="white"/>
<path d="M129.335 45.6607V41.6912H130.666V48.4803H129.358V47.3043H129.287C129.181 47.5512 129.032 47.772 128.841 47.9636C128.65 48.1553 128.421 48.304 128.151 48.4098C127.882 48.5156 127.582 48.5693 127.251 48.5693C126.808 48.5693 126.417 48.4711 126.08 48.2749C125.742 48.0786 125.479 47.7888 125.291 47.404C125.104 47.0192 125.01 46.5546 125.01 46.0088V41.6897H126.35V45.8447C126.35 46.1483 126.409 46.4135 126.523 46.642C126.638 46.8704 126.801 47.0468 127.011 47.171C127.22 47.2951 127.462 47.3565 127.734 47.3565C128.007 47.3565 128.251 47.2936 128.498 47.1664C128.742 47.0391 128.944 46.8474 129.101 46.5914C129.258 46.3354 129.336 46.0241 129.336 45.6592L129.335 45.6607Z" fill="white"/>
<path d="M135.486 41.6912V42.7568H131.758V41.6912H135.486ZM132.757 40.0645H134.097V46.4825C134.097 46.7248 134.133 46.9103 134.204 47.0421C134.274 47.174 134.37 47.2645 134.488 47.3135C134.607 47.3641 134.748 47.3886 134.915 47.3886C134.986 47.3886 135.066 47.3886 135.156 47.384C135.247 47.381 135.335 47.3764 135.42 47.3702C135.449 47.3672 135.478 47.3656 135.504 47.3641C135.53 47.3641 135.557 47.3626 135.58 47.3626V48.5125C135.336 48.5508 135.061 48.5708 134.75 48.5708C134.387 48.5708 134.053 48.5033 133.751 48.3699C133.449 48.2365 133.208 48.0326 133.028 47.7597C132.848 47.4868 132.757 47.1541 132.757 46.7585V40.066V40.0645Z" fill="white"/>
<path d="M137.618 51.027C137.48 51.027 137.346 51.0255 137.22 51.0209C137.094 51.0163 136.986 51.0102 136.9 51.001L136.909 49.8833C136.944 49.8833 136.981 49.8833 137.018 49.8879C137.055 49.8925 137.095 49.8925 137.135 49.8925C137.28 49.8986 137.405 49.9017 137.508 49.9017C137.678 49.9017 137.822 49.8863 137.934 49.8557C138.046 49.825 138.159 49.7437 138.27 49.6149C138.38 49.4846 138.487 49.2868 138.587 49.0185L138.756 48.577L136.258 41.6943H137.691L139.409 46.9594H139.479L141.205 41.6943H142.638L139.829 49.3865C139.63 49.9323 139.352 50.3417 138.99 50.6177C138.628 50.8937 138.171 51.0316 137.618 51.0316V51.027Z" fill="white"/>
<path d="M153.12 42.2878C153.008 41.9306 152.843 41.6239 152.626 41.3663C152.409 41.1088 152.143 40.9094 151.83 40.7699C151.516 40.6304 151.162 40.5599 150.765 40.5599C150.248 40.5599 149.785 40.6933 149.377 40.957C148.969 41.2222 148.647 41.6101 148.412 42.1191C148.176 42.6297 148.059 43.2384 148.059 43.9498C148.059 44.6612 148.176 45.2791 148.41 45.7881C148.644 46.2987 148.971 46.6851 149.389 46.9503C149.808 47.2156 150.287 47.3474 150.825 47.3474C151.31 47.3474 151.738 47.2478 152.107 47.0469C152.477 46.8461 152.763 46.5624 152.963 46.196C153.165 45.8295 153.265 45.4018 153.265 44.9111L153.62 44.9771H151.024V43.8456H154.606V44.8713C154.606 45.6195 154.445 46.2757 154.124 46.8399C153.802 47.4042 153.356 47.8396 152.782 48.1432C152.207 48.4483 151.553 48.6001 150.821 48.6001C150.002 48.6001 149.28 48.4115 148.655 48.0343C148.03 47.6571 147.547 47.119 147.204 46.4183C146.86 45.7192 146.689 44.8973 146.689 43.9544C146.689 43.0115 146.863 42.1835 147.211 41.4813C147.559 40.7791 148.041 40.2394 148.658 39.8638C149.275 39.4881 149.976 39.2996 150.759 39.2996C151.404 39.2996 151.995 39.4253 152.534 39.6752C153.073 39.9251 153.516 40.2778 153.865 40.7301C154.215 41.1824 154.441 41.7006 154.544 42.2832H153.123L153.12 42.2878Z" fill="white"/>
<path d="M159.023 48.6183C158.36 48.6183 157.784 48.4757 157.295 48.189C156.805 47.9038 156.43 47.4975 156.168 46.9716C155.906 46.4457 155.775 45.8324 155.775 45.1302C155.775 44.428 155.906 43.8285 156.168 43.2934C156.43 42.7583 156.799 42.3428 157.275 42.0469C157.75 41.751 158.301 41.6023 158.925 41.6023C159.476 41.6023 159.979 41.7204 160.436 41.958C160.893 42.1957 161.261 42.5682 161.54 43.0788C161.818 43.5893 161.957 44.2333 161.957 45.0152V45.4875H156.525V44.4878H160.639C160.639 44.1428 160.568 43.8362 160.428 43.5679C160.288 43.2996 160.088 43.088 159.831 42.9316C159.574 42.7752 159.279 42.697 158.943 42.697C158.583 42.697 158.263 42.7859 157.984 42.9623C157.706 43.1386 157.49 43.3732 157.339 43.6645C157.187 43.9558 157.108 44.2732 157.107 44.6151V45.3893C157.107 45.834 157.187 46.2173 157.347 46.5393C157.507 46.8612 157.732 47.105 158.021 47.2706C158.31 47.4377 158.649 47.5205 159.032 47.5205C159.276 47.5205 159.494 47.4883 159.69 47.4239C159.885 47.3595 160.051 47.2706 160.188 47.1587C160.325 47.0468 160.433 46.918 160.51 46.7738H161.868C161.768 47.1418 161.586 47.4653 161.326 47.7444C161.066 48.0234 160.738 48.2381 160.345 48.3899C159.951 48.5416 159.511 48.6168 159.023 48.6168V48.6183Z" fill="white"/>
<path d="M164.622 44.4543V48.4805H163.281V41.6914H164.568V42.8014H164.653C164.762 42.5561 164.91 42.3445 165.094 42.1652C165.279 41.9858 165.504 41.8462 165.767 41.7497C166.03 41.6531 166.329 41.604 166.663 41.604C167.131 41.604 167.539 41.7021 167.888 41.8984C168.237 42.0946 168.507 42.3844 168.698 42.7677C168.889 43.151 168.984 43.6171 168.984 44.1645V48.4836H167.643V44.3285C167.643 44.005 167.585 43.7244 167.471 43.4868C167.356 43.2491 167.191 43.0698 166.977 42.9456C166.763 42.8214 166.506 42.7601 166.207 42.7601C165.909 42.7601 165.622 42.8275 165.387 42.9609C165.15 43.0958 164.964 43.289 164.828 43.5451C164.693 43.7996 164.623 44.1047 164.623 44.4573L164.622 44.4543Z" fill="white"/>
<path d="M173.55 48.6183C172.887 48.6183 172.311 48.4757 171.822 48.189C171.332 47.9038 170.957 47.4975 170.695 46.9716C170.434 46.4457 170.303 45.8324 170.303 45.1302C170.303 44.428 170.434 43.8285 170.695 43.2934C170.957 42.7583 171.326 42.3428 171.802 42.0469C172.278 41.751 172.829 41.6023 173.452 41.6023C174.003 41.6023 174.506 41.7204 174.963 41.958C175.421 42.1957 175.788 42.5682 176.067 43.0788C176.346 43.5893 176.484 44.2333 176.484 45.0152V45.4875H171.052V44.4878H175.167C175.167 44.1428 175.096 43.8362 174.956 43.5679C174.816 43.2996 174.616 43.088 174.359 42.9316C174.102 42.7752 173.806 42.697 173.47 42.697C173.11 42.697 172.79 42.7859 172.512 42.9623C172.233 43.1386 172.017 43.3732 171.867 43.6645C171.714 43.9558 171.636 44.2732 171.634 44.6151V45.3893C171.634 45.834 171.714 46.2173 171.874 46.5393C172.034 46.8612 172.259 47.105 172.548 47.2706C172.838 47.4377 173.176 47.5205 173.56 47.5205C173.803 47.5205 174.021 47.4883 174.217 47.4239C174.412 47.3595 174.579 47.2706 174.716 47.1587C174.853 47.0468 174.96 46.918 175.037 46.7738H176.395C176.295 47.1418 176.113 47.4653 175.853 47.7444C175.593 48.0234 175.265 48.2381 174.873 48.3899C174.479 48.5416 174.038 48.6168 173.55 48.6168V48.6183Z" fill="white"/>
<path d="M177.812 48.4804V41.6913H179.108V42.7737H179.179C179.262 42.5315 179.388 42.3214 179.558 42.142C179.727 41.9627 179.928 41.8247 180.161 41.7311C180.393 41.6376 180.641 41.5901 180.904 41.5901C181 41.5901 181.097 41.5916 181.2 41.5962C181.301 41.6008 181.394 41.6085 181.477 41.6207V42.8933C181.4 42.8749 181.295 42.8581 181.161 42.8397C181.027 42.8213 180.901 42.8136 180.78 42.8136C180.469 42.8136 180.19 42.878 179.944 43.0083C179.696 43.1386 179.504 43.3196 179.362 43.5541C179.222 43.7887 179.151 44.0509 179.151 44.3437V48.4819H177.811L177.812 48.4804Z" fill="white"/>
<path d="M186.523 45.4093C186.491 45.4093 186.434 45.4123 186.352 45.4184C186.271 45.4246 186.171 45.4307 186.052 45.4368C185.831 45.4522 185.607 45.466 185.384 45.4813C185.161 45.4966 184.975 45.5089 184.827 45.5212C184.374 45.5534 184.023 45.6576 183.776 45.8324C183.528 46.0072 183.403 46.2571 183.403 46.5822C183.403 46.7937 183.459 46.9747 183.568 47.1219C183.677 47.269 183.83 47.381 184.023 47.4561C184.217 47.5312 184.441 47.5696 184.692 47.5696C185.047 47.5696 185.355 47.499 185.617 47.358C185.878 47.2169 186.08 47.0283 186.223 46.7937C186.365 46.5592 186.435 46.3062 186.435 46.0363L186.431 43.8929C186.431 43.6368 186.378 43.4176 186.274 43.2367C186.169 43.0558 186.012 42.9178 185.806 42.8258C185.598 42.7322 185.344 42.6863 185.042 42.6863C184.788 42.6863 184.564 42.723 184.368 42.7951C184.173 42.8672 184.014 42.9684 183.891 43.0972C183.768 43.2275 183.685 43.3777 183.64 43.5479H182.304C182.349 43.1738 182.49 42.8396 182.727 42.5452C182.966 42.2508 183.288 42.0208 183.693 41.8552C184.097 41.6897 184.564 41.6084 185.09 41.6084C185.527 41.6084 185.944 41.6743 186.342 41.8077C186.739 41.9396 187.074 42.1834 187.351 42.5375C187.628 42.8917 187.767 43.3716 187.767 43.9788V48.488H186.462V47.5604H186.408C186.312 47.7489 186.178 47.9237 186.004 48.0863C185.831 48.2488 185.607 48.3806 185.335 48.4834C185.062 48.5861 184.748 48.6382 184.394 48.6382C183.959 48.6382 183.568 48.557 183.218 48.3944C182.869 48.2319 182.594 47.9958 182.393 47.6845C182.192 47.3733 182.092 47.0023 182.092 46.5684C182.092 45.8692 182.33 45.3709 182.809 45.0704C183.286 44.7699 183.897 44.5936 184.639 44.5399C184.847 44.5246 185.09 44.5108 185.369 44.4954C185.649 44.4801 185.911 44.4679 186.157 44.4556C186.243 44.4495 186.315 44.4464 186.377 44.4449C186.437 44.4449 186.482 44.4433 186.508 44.4433L186.526 45.4154L186.523 45.4093Z" fill="white"/>
<path d="M190.727 39.4282V48.4804H189.387V39.4282H190.727Z" fill="white"/>
<path d="M196.376 48.4804H194.912L198.178 39.4282H199.781L203.047 48.4804H201.578L199.014 41.081H198.943L196.379 48.4804H196.376ZM196.616 44.9355H201.343V46.0885H196.616V44.9355Z" fill="white"/>
<path d="M207.867 43.5434C207.802 43.2658 207.661 43.0497 207.444 42.8917C207.227 42.7338 206.937 42.6556 206.576 42.6556C206.325 42.6556 206.1 42.6955 205.901 42.7767C205.703 42.858 205.547 42.9669 205.434 43.1033C205.32 43.2398 205.264 43.3946 205.267 43.5648C205.264 43.7687 205.349 43.942 205.523 44.0846C205.695 44.2272 205.966 44.3422 206.332 44.4265L207.424 44.6733C208.049 44.8175 208.513 45.0413 208.821 45.3434C209.129 45.6454 209.283 46.0348 209.283 46.5132C209.283 46.9226 209.171 47.2875 208.948 47.6079C208.724 47.9284 208.403 48.1752 207.982 48.3531C207.562 48.5294 207.067 48.6183 206.496 48.6183C205.957 48.6183 205.489 48.5416 205.093 48.3868C204.696 48.2319 204.384 48.0066 204.154 47.7076C203.925 47.4101 203.782 47.0483 203.727 46.6251H205.098C205.155 46.9348 205.298 47.1664 205.531 47.3197C205.763 47.473 206.08 47.5497 206.482 47.5497C206.771 47.5497 207.024 47.5113 207.236 47.4347C207.448 47.358 207.615 47.2491 207.733 47.1096C207.852 46.9701 207.91 46.806 207.91 46.6205C207.91 46.3997 207.825 46.2173 207.655 46.0747C207.484 45.9321 207.219 45.8186 206.859 45.7359L205.794 45.5013C205.184 45.3679 204.721 45.1425 204.402 44.8251C204.084 44.5077 203.925 44.1122 203.925 43.6399C203.925 43.2428 204.036 42.8887 204.256 42.579C204.476 42.2692 204.787 42.0301 205.186 41.8583C205.584 41.6866 206.045 41.6023 206.566 41.6023C207.088 41.6023 207.499 41.682 207.876 41.8415C208.252 42.0009 208.549 42.2263 208.766 42.5176C208.983 42.8089 209.112 43.1508 209.154 43.5434H207.867Z" fill="white"/>
<path d="M214.426 43.5434C214.361 43.2658 214.219 43.0497 214.002 42.8917C213.785 42.7338 213.496 42.6556 213.134 42.6556C212.883 42.6556 212.659 42.6955 212.46 42.7767C212.261 42.858 212.106 42.9669 211.992 43.1033C211.878 43.2398 211.823 43.3946 211.826 43.5648C211.823 43.7687 211.907 43.942 212.081 44.0846C212.254 44.2272 212.525 44.3422 212.891 44.4265L213.982 44.6733C214.607 44.8175 215.072 45.0413 215.38 45.3434C215.688 45.6454 215.842 46.0348 215.842 46.5132C215.842 46.9226 215.729 47.2875 215.506 47.6079C215.283 47.9284 214.961 48.1752 214.541 48.3531C214.121 48.5294 213.625 48.6183 213.054 48.6183C212.515 48.6183 212.048 48.5416 211.652 48.3868C211.255 48.2319 210.942 48.0066 210.713 47.7076C210.484 47.4101 210.341 47.0483 210.285 46.6251H211.657C211.714 46.9348 211.857 47.1664 212.089 47.3197C212.322 47.473 212.639 47.5497 213.04 47.5497C213.33 47.5497 213.582 47.5113 213.795 47.4347C214.007 47.358 214.173 47.2491 214.292 47.1096C214.41 46.9701 214.469 46.806 214.469 46.6205C214.469 46.3997 214.384 46.2173 214.213 46.0747C214.042 45.9321 213.778 45.8186 213.417 45.7359L212.352 45.5013C211.743 45.3679 211.279 45.1425 210.961 44.8251C210.642 44.5077 210.484 44.1122 210.484 43.6399C210.484 43.2428 210.595 42.8887 210.815 42.579C211.035 42.2692 211.346 42.0301 211.744 41.8583C212.143 41.6866 212.603 41.6023 213.125 41.6023C213.647 41.6023 214.058 41.682 214.435 41.8415C214.81 42.0009 215.107 42.2263 215.325 42.5176C215.542 42.8089 215.671 43.1508 215.712 43.5434H214.426Z" fill="white"/>
<path d="M220.04 48.6184C219.407 48.6184 218.848 48.4728 218.367 48.1815C217.885 47.8901 217.512 47.4792 217.249 46.9503C216.986 46.4213 216.854 45.8111 216.854 45.1181C216.854 44.4251 216.986 43.8056 217.249 43.2751C217.512 42.7447 217.885 42.3337 218.367 42.0424C218.848 41.7511 219.407 41.6055 220.04 41.6055C220.672 41.6055 221.229 41.7511 221.71 42.0424C222.19 42.3337 222.562 42.7447 222.824 43.2751C223.086 43.8056 223.217 44.4205 223.217 45.1181C223.217 45.8157 223.086 46.4213 222.824 46.9503C222.562 47.4792 222.191 47.8901 221.71 48.1815C221.229 48.4728 220.672 48.6184 220.04 48.6184ZM220.043 47.5038C220.44 47.5038 220.774 47.398 221.048 47.1849C221.322 46.9733 221.527 46.685 221.662 46.3232C221.797 45.9613 221.867 45.5566 221.867 45.1119C221.867 44.6673 221.799 44.2625 221.662 43.9007C221.527 43.5389 221.322 43.2491 221.048 43.0344C220.774 42.8198 220.438 42.7125 220.043 42.7125C219.647 42.7125 219.301 42.8198 219.024 43.0344C218.747 43.2491 218.54 43.5389 218.405 43.9007C218.27 44.2625 218.2 44.6673 218.2 45.1119C218.2 45.5566 218.268 45.9613 218.405 46.3232C218.54 46.685 218.747 46.9733 219.024 47.1849C219.301 47.3964 219.639 47.5038 220.043 47.5038Z" fill="white"/>
<path d="M227.422 48.6183C226.774 48.6183 226.21 48.4696 225.729 48.1737C225.249 47.8778 224.88 47.4638 224.623 46.9333C224.366 46.4028 224.236 45.7972 224.236 45.1164C224.236 44.4357 224.367 43.8209 224.629 43.2888C224.89 42.7568 225.261 42.3428 225.74 42.0469C226.219 41.751 226.776 41.6023 227.409 41.6023C227.92 41.6023 228.381 41.6974 228.794 41.8859C229.205 42.0745 229.534 42.3428 229.784 42.6909C230.031 43.0389 230.179 43.4376 230.222 43.8883H228.922C228.874 43.6706 228.785 43.4728 228.654 43.298C228.521 43.1232 228.352 42.9822 228.146 42.8779C227.94 42.7737 227.7 42.7215 227.427 42.7215C227.061 42.7215 226.739 42.8181 226.462 43.0113C226.185 43.2045 225.969 43.479 225.816 43.8362C225.662 44.1934 225.585 44.6105 225.585 45.0873C225.585 45.5641 225.66 45.998 225.811 46.3583C225.962 46.7186 226.176 46.9977 226.454 47.1939C226.733 47.3902 227.056 47.4883 227.426 47.4883C227.68 47.4883 227.91 47.4423 228.115 47.3488C228.32 47.2553 228.492 47.1234 228.629 46.9517C228.766 46.78 228.863 46.573 228.92 46.3307H230.221C230.173 46.7723 230.028 47.1664 229.788 47.5129C229.548 47.8594 229.223 48.1307 228.819 48.3255C228.414 48.5217 227.947 48.6198 227.421 48.6198L227.422 48.6183Z" fill="white"/>
<path d="M232.176 40.6487C232.025 40.6487 231.884 40.6134 231.753 40.5398C231.621 40.4678 231.517 40.3712 231.442 40.25C231.367 40.1289 231.328 39.9986 231.328 39.856C231.328 39.7134 231.367 39.5785 231.442 39.4589C231.517 39.3378 231.621 39.2427 231.753 39.1722C231.884 39.1017 232.025 39.0664 232.176 39.0664C232.327 39.0664 232.463 39.1017 232.593 39.1722C232.724 39.2427 232.826 39.3393 232.901 39.4589C232.977 39.58 233.015 39.7119 233.015 39.856C233.015 40.0001 232.977 40.1289 232.901 40.25C232.826 40.3712 232.723 40.4678 232.593 40.5398C232.463 40.6119 232.324 40.6487 232.176 40.6487ZM231.496 48.4804V41.6913H232.837V48.4804H231.496Z" fill="white"/>
<path d="M238.584 45.4093C238.551 45.4093 238.494 45.4123 238.413 45.4184C238.331 45.4246 238.231 45.4307 238.113 45.4368C237.891 45.4522 237.668 45.466 237.445 45.4813C237.222 45.4966 237.035 45.5089 236.888 45.5212C236.435 45.5534 236.084 45.6576 235.836 45.8324C235.588 46.0072 235.464 46.2571 235.464 46.5822C235.464 46.7937 235.519 46.9747 235.628 47.1219C235.738 47.269 235.89 47.381 236.084 47.4561C236.278 47.5312 236.501 47.5696 236.752 47.5696C237.108 47.5696 237.415 47.499 237.677 47.358C237.939 47.2169 238.14 47.0283 238.284 46.7937C238.425 46.5592 238.496 46.3062 238.496 46.0363L238.491 43.8929C238.491 43.6368 238.439 43.4176 238.334 43.2367C238.23 43.0558 238.073 42.9178 237.866 42.8258C237.659 42.7322 237.405 42.6863 237.103 42.6863C236.849 42.6863 236.624 42.723 236.429 42.7951C236.233 42.8672 236.075 42.9684 235.952 43.0972C235.829 43.2275 235.745 43.3777 235.701 43.5479H234.365C234.409 43.1738 234.551 42.8396 234.788 42.5452C235.027 42.2508 235.348 42.0208 235.753 41.8552C236.158 41.6897 236.624 41.6084 237.151 41.6084C237.588 41.6084 238.005 41.6743 238.402 41.8077C238.799 41.9396 239.135 42.1834 239.412 42.5375C239.689 42.8917 239.827 43.3716 239.827 43.9788V48.488H238.522V47.5604H238.468C238.373 47.7489 238.239 47.9237 238.065 48.0863C237.891 48.2488 237.668 48.3806 237.395 48.4834C237.123 48.5861 236.809 48.6382 236.455 48.6382C236.019 48.6382 235.628 48.557 235.279 48.3944C234.93 48.2319 234.654 47.9958 234.454 47.6845C234.252 47.3733 234.152 47.0023 234.152 46.5684C234.152 45.8692 234.391 45.3709 234.87 45.0704C235.347 44.7699 235.958 44.5936 236.7 44.5399C236.908 44.5246 237.151 44.5108 237.429 44.4954C237.709 44.4801 237.971 44.4679 238.217 44.4556C238.304 44.4495 238.376 44.4464 238.437 44.4449C238.498 44.4449 238.542 44.4433 238.568 44.4433L238.587 45.4154L238.584 45.4093Z" fill="white"/>
<path d="M244.632 41.6912V42.7568H240.904V41.6912H244.632ZM241.903 40.0645H243.244V46.4825C243.244 46.7248 243.279 46.9103 243.35 47.0421C243.421 47.174 243.516 47.2645 243.635 47.3135C243.753 47.3641 243.895 47.3886 244.061 47.3886C244.132 47.3886 244.212 47.3886 244.303 47.384C244.394 47.381 244.481 47.3764 244.566 47.3702C244.595 47.3672 244.625 47.3656 244.651 47.3641C244.677 47.3641 244.703 47.3626 244.726 47.3626V48.5125C244.483 48.5508 244.207 48.5708 243.897 48.5708C243.533 48.5708 243.199 48.5033 242.898 48.3699C242.596 48.2365 242.354 48.0326 242.174 47.7597C241.994 47.4868 241.903 47.1541 241.903 46.7585V40.066V40.0645Z" fill="white"/>
<path d="M246.62 40.6487C246.469 40.6487 246.327 40.6134 246.196 40.5398C246.064 40.4678 245.961 40.3712 245.885 40.25C245.81 40.1289 245.771 39.9986 245.771 39.856C245.771 39.7134 245.81 39.5785 245.885 39.4589C245.961 39.3378 246.064 39.2427 246.196 39.1722C246.327 39.1017 246.469 39.0664 246.62 39.0664C246.77 39.0664 246.906 39.1017 247.037 39.1722C247.168 39.2427 247.269 39.3393 247.345 39.4589C247.42 39.58 247.458 39.7119 247.458 39.856C247.458 40.0001 247.42 40.1289 247.345 40.25C247.269 40.3712 247.166 40.4678 247.037 40.5398C246.906 40.6119 246.767 40.6487 246.62 40.6487ZM245.941 48.4804V41.6913H247.281V48.4804H245.941Z" fill="white"/>
<path d="M251.794 48.6184C251.161 48.6184 250.602 48.4728 250.12 48.1815C249.639 47.8901 249.266 47.4792 249.003 46.9503C248.74 46.4213 248.607 45.8111 248.607 45.1181C248.607 44.4251 248.74 43.8056 249.003 43.2751C249.266 42.7447 249.639 42.3337 250.12 42.0424C250.602 41.7511 251.161 41.6055 251.794 41.6055C252.426 41.6055 252.983 41.7511 253.464 42.0424C253.944 42.3337 254.316 42.7447 254.578 43.2751C254.84 43.8056 254.97 44.4205 254.97 45.1181C254.97 45.8157 254.84 46.4213 254.578 46.9503C254.316 47.4792 253.945 47.8901 253.464 48.1815C252.983 48.4728 252.426 48.6184 251.794 48.6184ZM251.798 47.5038C252.195 47.5038 252.529 47.398 252.803 47.1849C253.077 46.9733 253.282 46.685 253.417 46.3232C253.553 45.9613 253.622 45.5566 253.622 45.1119C253.622 44.6673 253.554 44.2625 253.417 43.9007C253.282 43.5389 253.077 43.2491 252.803 43.0344C252.529 42.8198 252.194 42.7125 251.798 42.7125C251.403 42.7125 251.056 42.8198 250.779 43.0344C250.502 43.2491 250.296 43.5389 250.16 43.9007C250.025 44.2625 249.956 44.6673 249.956 45.1119C249.956 45.5566 250.023 45.9613 250.16 46.3232C250.296 46.685 250.502 46.9733 250.779 47.1849C251.056 47.3964 251.395 47.5038 251.798 47.5038Z" fill="white"/>
<path d="M257.638 44.4543V48.4805H256.297V41.6914H257.584V42.8014H257.668C257.778 42.5561 257.925 42.3445 258.11 42.1652C258.295 41.9858 258.519 41.8462 258.783 41.7497C259.046 41.6531 259.344 41.604 259.678 41.604C260.146 41.604 260.554 41.7021 260.904 41.8984C261.253 42.0946 261.522 42.3844 261.713 42.7677C261.904 43.151 262 43.6171 262 44.1645V48.4836H260.659V44.3285C260.659 44.005 260.6 43.7244 260.487 43.4868C260.371 43.2491 260.206 43.0698 259.993 42.9456C259.779 42.8214 259.522 42.7601 259.223 42.7601C258.924 42.7601 258.638 42.8275 258.403 42.9609C258.165 43.0958 257.979 43.289 257.844 43.5451C257.708 43.7996 257.639 44.1047 257.639 44.4573L257.638 44.4543Z" fill="white"/>
<path d="M77.4586 14.1732V16.3565H62.1543V14.1732H77.4586ZM69.8164 17.5907C71.0417 17.5907 72.1222 17.7916 73.0595 18.1918C73.9969 18.5935 74.728 19.1607 75.2514 19.8952C75.7762 20.6296 76.041 21.479 76.0487 22.4434C76.0425 23.394 75.7762 24.2311 75.2514 24.9563C74.7265 25.6815 73.9969 26.2396 73.0595 26.6352C72.1222 27.0292 71.0417 27.227 69.8164 27.227C68.5912 27.227 67.4861 27.0292 66.5379 26.6352C65.5913 26.2412 64.8571 25.6815 64.3353 24.9563C63.8136 24.2311 63.5534 23.394 63.5534 22.4434C63.5534 21.4928 63.8136 20.6311 64.3353 19.8952C64.8556 19.1607 65.5898 18.5935 66.5379 18.1918C67.4846 17.7916 68.5774 17.5907 69.8164 17.5907ZM68.7405 28.8323V34.9682H66.03V28.8323H68.7405ZM83.4261 34.0299V36.2546H66.03V34.0299H83.4261ZM69.8164 19.6943C69.093 19.6943 68.4527 19.8047 67.8986 20.0224C67.3445 20.2417 66.9181 20.5606 66.6195 20.9776C66.3209 21.3962 66.1762 21.8837 66.1824 22.4434C66.1762 22.9892 66.3209 23.4645 66.6195 23.8693C66.9166 24.274 67.3429 24.5837 67.8986 24.7999C68.4527 25.0161 69.093 25.1204 69.8164 25.1127C70.5399 25.1188 71.1771 25.0146 71.7251 24.7999C72.273 24.5837 72.6994 24.274 73.0041 23.8693C73.3089 23.4645 73.4644 22.9892 73.4705 22.4434C73.4644 21.8837 73.3074 21.3962 73.0041 20.9776C72.6994 20.559 72.273 20.2417 71.7251 20.0224C71.1771 19.8032 70.5414 19.6943 69.8164 19.6943ZM71.1771 11.1711V15.2756H68.4666V11.1711H71.1771ZM82.3302 11.1819V30.3594H79.5996V11.1819H82.3302ZM86.055 19.4214V21.686H81.5082V19.4214H86.055Z" fill="white"/>
<path d="M111.073 21.4021V23.6053H87.5371V21.4021H111.073ZM108.201 27.9735V36.7788H105.461V30.1568H89.9429V27.9735H108.201ZM107.105 12.3638V14.5578H90.4801V12.3638H107.105ZM100.61 22.9077V28.7815H97.899V22.9077H100.61ZM108.089 14.2742V14.3754C108.089 15.3183 108.075 16.1631 108.049 16.9082C108.021 17.6534 107.945 18.4997 107.821 19.4503C107.696 20.4009 107.504 21.4113 107.247 22.483L104.578 22.1902C104.821 21.1461 105.002 20.1633 105.121 19.2433C105.239 18.3234 105.312 17.5093 105.34 16.8024C105.367 16.0941 105.38 15.28 105.38 14.3554V12.3638H108.089V14.2742Z" fill="white"/>
<path d="M126.438 13.6182V30.4514H114.371V13.6182H126.438ZM117.071 15.7708V28.2665H123.789V15.7708H117.071ZM134.253 11.1604V36.8296H131.513V11.1604H134.253Z" fill="white"/>
<path d="M161.808 23.656V25.8593H138.363V23.656H161.808ZM150.066 11.6064C151.941 11.6126 153.568 11.8073 154.948 12.1875C156.329 12.5678 157.389 13.1197 158.13 13.8403C158.87 14.561 159.241 15.4242 159.241 16.4284C159.241 17.4327 158.87 18.2714 158.13 18.9858C157.389 19.7003 156.33 20.2446 154.953 20.6187C153.575 20.9928 151.947 21.1799 150.066 21.1799C148.185 21.1799 146.544 20.9928 145.163 20.6187C143.783 20.2446 142.722 19.7003 141.982 18.9858C141.242 18.2714 140.871 17.4189 140.871 16.4284C140.871 15.438 141.242 14.561 141.982 13.8403C142.722 13.1197 143.784 12.5678 145.168 12.1875C146.552 11.8073 148.183 11.6126 150.066 11.6064ZM150.057 27.6194C151.904 27.6133 153.492 27.7865 154.822 28.1407C156.152 28.4949 157.169 29.01 157.877 29.6877C158.584 30.3654 158.941 31.1887 158.949 32.1593C158.942 33.1359 158.585 33.9654 157.877 34.6461C157.171 35.3269 156.152 35.8436 154.822 36.1978C153.492 36.5519 151.904 36.7283 150.057 36.7283C148.21 36.7283 146.598 36.5519 145.26 36.1978C143.924 35.8436 142.902 35.3269 142.196 34.6461C141.489 33.9654 141.135 33.1359 141.135 32.1593C141.135 31.1826 141.489 30.3654 142.196 29.6877C142.902 29.01 143.924 28.4949 145.26 28.1407C146.596 27.7865 148.196 27.6133 150.057 27.6194ZM150.066 13.7192C148.733 13.7192 147.589 13.825 146.635 14.0381C145.681 14.2512 144.951 14.561 144.448 14.9688C143.943 15.3766 143.695 15.8642 143.701 16.43C143.695 16.9957 143.943 17.4802 144.448 17.8804C144.951 18.2821 145.679 18.5841 146.63 18.7896C147.582 18.995 148.727 19.0978 150.066 19.0978C151.405 19.0978 152.542 18.995 153.497 18.7896C154.451 18.5841 155.182 18.2806 155.689 17.8804C156.196 17.4802 156.45 16.9957 156.45 16.43C156.45 15.8642 156.196 15.3766 155.689 14.9688C155.181 14.561 154.448 14.2512 153.491 14.0381C152.533 13.8265 151.391 13.7192 150.066 13.7192ZM150.057 29.6816C148.751 29.6877 147.637 29.7874 146.718 29.9806C145.798 30.1722 145.097 30.4528 144.617 30.8192C144.137 31.1872 143.9 31.6334 143.906 32.1593C143.9 32.6852 144.135 33.1344 144.617 33.5085C145.097 33.8826 145.798 34.1678 146.718 34.3625C147.639 34.5572 148.751 34.6523 150.057 34.6461C151.35 34.6523 152.455 34.5587 153.375 34.3625C154.296 34.1678 154.999 33.8826 155.487 33.5085C155.975 33.1344 156.221 32.6852 156.227 32.1593C156.221 31.6334 155.973 31.1872 155.487 30.8192C154.999 30.4513 154.297 30.1722 153.381 29.9806C152.464 29.7889 151.357 29.6892 150.058 29.6816H150.057ZM146.727 19.8245V24.6066H143.988V19.8245H146.727ZM156.126 19.8245V24.6066H153.415V19.8245H156.126Z" fill="white"/>
<path d="M187.222 24.2832V26.4971H163.777V24.2832H187.222ZM176.363 15.4073C176.363 16.7351 175.914 17.9065 175.014 18.9199C174.113 19.9349 172.874 20.7537 171.293 21.3762C169.714 22.0002 167.901 22.4065 165.858 22.5951L165.016 20.5022C166.782 20.3612 168.344 20.0561 169.7 19.5869C171.056 19.1193 172.109 18.5228 172.857 17.7976C173.605 17.074 173.979 16.2767 173.979 15.4073V14.952H176.365V15.4073H176.363ZM184.867 13.5981V15.7722H166.132V13.5981H184.867ZM175.469 28.1852C177.336 28.1852 178.934 28.3508 180.259 28.6804C181.586 29.0101 182.599 29.4946 183.299 30.1309C183.999 30.7671 184.353 31.5445 184.36 32.4613C184.353 33.3782 183.999 34.1571 183.299 34.7964C182.599 35.4358 181.586 35.9203 180.259 36.2469C178.932 36.5734 177.336 36.7375 175.469 36.7375C173.602 36.7375 172.001 36.5734 170.668 36.2469C169.335 35.9203 168.315 35.4358 167.608 34.7964C166.902 34.1556 166.548 33.3782 166.548 32.4613C166.548 31.5445 166.902 30.7687 167.608 30.1309C168.315 29.4946 169.335 29.0101 170.668 28.6804C172.001 28.3508 173.602 28.1852 175.469 28.1852ZM175.469 30.2182C174.15 30.2182 173.029 30.3026 172.109 30.4712C171.189 30.6399 170.491 30.8944 170.019 31.2348C169.545 31.5751 169.312 31.9845 169.318 32.4629C169.312 32.9412 169.545 33.3475 170.019 33.6818C170.493 34.016 171.189 34.2659 172.109 34.4346C173.029 34.6033 174.148 34.6845 175.469 34.6768C176.782 34.683 177.896 34.6033 178.814 34.4346C179.731 34.2659 180.428 34.0145 180.91 33.6818C181.39 33.3475 181.634 32.9428 181.641 32.4629C181.635 31.9845 181.39 31.5751 180.91 31.2348C180.43 30.8944 179.731 30.6399 178.814 30.4712C177.896 30.3026 176.782 30.2182 175.469 30.2182ZM176.819 11.1511V14.7803H174.139V11.1511H176.819ZM176.819 21.3317V25.3043H174.139V21.3317H176.819ZM176.982 15.4073C176.976 16.2767 177.344 17.074 178.089 17.7976C178.834 18.5228 179.885 19.1193 181.246 19.5869C182.606 20.0561 184.172 20.3596 185.945 20.5022L185.123 22.5951C183.073 22.4065 181.257 22.0002 179.673 21.3762C178.089 20.7521 176.848 19.9334 175.948 18.9199C175.047 17.905 174.598 16.7351 174.598 15.4073V14.952H176.984V15.4073H176.982Z" fill="white"/>
<path d="M196.296 12.7488C197.542 12.755 198.673 13.0371 199.692 13.5936C200.711 14.1502 201.513 14.9214 202.102 15.9088C202.69 16.8962 202.989 18.0093 202.995 19.2497C202.989 20.4824 202.69 21.594 202.102 22.5814C201.513 23.5688 200.711 24.3384 199.692 24.8919C198.673 25.4439 197.542 25.7214 196.296 25.7214C195.051 25.7214 193.874 25.4454 192.845 24.8919C191.817 24.34 191.012 23.5688 190.43 22.5814C189.849 21.594 189.561 20.4839 189.569 19.2497C189.562 18.0093 189.849 16.8962 190.43 15.9088C191.012 14.9214 191.817 14.1502 192.845 13.5936C193.874 13.0371 195.023 12.7565 196.296 12.7488ZM196.296 15.1652C195.505 15.1713 194.794 15.3476 194.165 15.6911C193.535 16.0345 193.042 16.5175 192.688 17.1369C192.333 17.7563 192.156 18.4616 192.156 19.2497C192.156 20.0378 192.333 20.7522 192.688 21.3732C193.044 21.9926 193.537 22.474 194.165 22.8144C194.794 23.1548 195.504 23.325 196.296 23.325C197.089 23.325 197.763 23.1548 198.382 22.8144C199.001 22.474 199.49 21.9942 199.849 21.3732C200.207 20.7538 200.388 20.0454 200.388 19.2497C200.388 18.4539 200.207 17.7563 199.849 17.1369C199.49 16.5175 199.001 16.0345 198.382 15.6911C197.763 15.3476 197.067 15.1729 196.296 15.1652ZM196.65 28.1056V35.0403H193.931V28.1056H196.65ZM211.307 34.0299V36.2546H193.931V34.0299H211.307ZM208.861 15.0533V17.2672H201.106V15.0533H208.861ZM208.861 21.1892V23.4139H201.106V21.1892H208.861ZM210.626 11.1819V30.0466H207.907V11.1819H210.626Z" fill="white"/>
<path d="M229.939 13.6779V15.8612H214.635V13.6779H229.939ZM222.297 16.9037C223.522 16.9037 224.604 17.0893 225.545 17.4603C226.485 17.8313 227.216 18.3572 227.736 19.038C228.257 19.7187 228.521 20.5068 228.528 21.4037C228.521 22.3068 228.257 23.0964 227.736 23.7741C227.215 24.4518 226.485 24.9761 225.545 25.3457C224.604 25.7167 223.522 25.9022 222.297 25.9022C221.072 25.9022 219.967 25.7167 219.018 25.3457C218.072 24.9746 217.338 24.4503 216.816 23.7741C216.294 23.098 216.034 22.3068 216.034 21.4037C216.034 20.5007 216.294 19.7187 216.816 19.038C217.336 18.3572 218.069 17.8313 219.014 17.4603C219.957 17.0893 221.052 16.9037 222.297 16.9037ZM221.049 27.1549V29.6417H232.08V27.1549H234.811V36.4554H218.349V27.1549H221.049ZM222.297 18.9353C221.573 18.9291 220.933 19.0257 220.379 19.2281C219.823 19.4305 219.399 19.7203 219.1 20.0974C218.803 20.4746 218.657 20.91 218.664 21.4022C218.658 21.9005 218.803 22.3375 219.1 22.7116C219.397 23.0857 219.823 23.3739 220.379 23.5763C220.933 23.7787 221.573 23.8799 222.297 23.8799C223.02 23.8799 223.658 23.7787 224.206 23.5763C224.753 23.3739 225.18 23.0857 225.485 22.7116C225.789 22.3375 225.945 21.9005 225.951 21.4022C225.945 20.91 225.788 20.4761 225.485 20.0974C225.18 19.7203 224.753 19.4305 224.206 19.2281C223.658 19.0257 223.022 18.9276 222.297 18.9353ZM223.656 10.938V14.8814H220.945V10.938H223.656ZM221.049 34.2813H232.08V31.7545H221.049V34.2813ZM234.811 11.1603V26.0816H232.08V11.1603H234.811ZM238.536 17.5906V19.8751H233.675V17.5906H238.536Z" fill="white"/>
<path d="M240.15 29.8136H240.596C242.85 29.7998 244.795 29.7752 246.431 29.7384C248.069 29.7016 249.818 29.6296 251.679 29.5207C253.54 29.4134 255.302 29.2478 256.966 29.0255L257.169 31.0677C255.403 31.3575 253.558 31.5783 251.632 31.7301C249.707 31.8819 247.874 31.9785 246.131 32.0183C244.389 32.0582 242.523 32.0796 240.533 32.0796L240.148 29.8151L240.15 29.8136ZM256.389 14.2146V16.3887H240.687V14.2146H256.389ZM248.523 17.6919C249.761 17.6919 250.86 17.8928 251.817 18.2929C252.775 18.6946 253.516 19.2558 254.044 19.9764C254.572 20.697 254.836 21.5326 254.836 22.4832C254.836 23.4338 254.572 24.248 254.044 24.9655C253.516 25.6831 252.775 26.2396 251.817 26.6337C250.86 27.0277 249.762 27.2255 248.523 27.2255C247.284 27.2255 246.193 27.0277 245.245 26.6337C244.297 26.2396 243.565 25.6831 243.047 24.9655C242.53 24.248 242.274 23.42 242.28 22.4832C242.274 21.5326 242.53 20.697 243.047 19.9764C243.564 19.2558 244.297 18.6946 245.245 18.2929C246.191 17.8928 247.284 17.6919 248.523 17.6919ZM248.523 19.7955C247.806 19.7955 247.167 19.9074 246.605 20.1297C246.044 20.3521 245.61 20.6648 245.302 21.0696C244.994 21.4744 244.843 21.9451 244.851 22.4848C244.845 23.0168 244.994 23.4829 245.302 23.88C245.61 24.2771 246.044 24.5837 246.605 24.7999C247.167 25.0161 247.806 25.1204 248.523 25.1127C249.254 25.1188 249.899 25.0146 250.461 24.7999C251.023 24.5837 251.458 24.2771 251.771 23.88C252.082 23.4829 252.237 23.0168 252.237 22.4848C252.237 21.9527 252.082 21.4744 251.771 21.0696C251.46 20.6648 251.023 20.3521 250.461 20.1297C249.899 19.9074 249.253 19.7955 248.523 19.7955ZM249.935 11.211V15.4059H247.204V11.211H249.935ZM249.924 26.5785V30.7948H247.204V26.5785H249.924ZM261.282 11.1604V36.779H258.562V11.1604H261.282Z" fill="white"/>
<path d="M33.9723 25.4623C35.6818 25.4623 37.0676 24.0818 37.0676 22.379C37.0676 20.6761 35.6818 19.2957 33.9723 19.2957C32.2628 19.2957 30.877 20.6761 30.877 22.379C30.877 24.0818 32.2628 25.4623 33.9723 25.4623Z" fill="#ECD531"/>
<path d="M48.311 27.0455C49.8217 26.8146 50.8586 25.4076 50.6269 23.9027C50.3952 22.3978 48.9826 21.3649 47.4718 21.5957C45.9611 21.8266 44.9242 23.2336 45.1559 24.7385C45.3876 26.2434 46.8002 27.2763 48.311 27.0455Z" fill="#E62766"/>
<path d="M22.0114 26.266C23.0921 25.1894 23.0921 23.4439 22.0114 22.3673C20.9306 21.2908 19.1783 21.2908 18.0975 22.3673C17.0168 23.4439 17.0168 25.1894 18.0975 26.266C19.1783 27.3425 20.9306 27.3425 22.0114 26.266Z" fill="#2BB286"/>
<path d="M40.5996 33.5823L40.6396 33.5439L41.5924 32.5964L44.817 29.3843C45.679 28.5257 46.8241 28.0535 48.0417 28.0535C49.2592 28.0535 50.4059 28.5257 51.2678 29.3843C52.1236 30.2368 52.5685 31.3468 52.5992 32.4661V32.4783C52.5992 32.4783 52.5992 32.4906 52.5992 32.4967C52.5992 32.5627 52.5992 32.6286 52.5992 32.6945C52.5992 32.7007 52.5992 32.7068 52.5992 32.7129V32.7252C52.5669 34.7904 51.7619 36.8449 50.1827 38.418C49.3561 39.2429 48.3834 39.87 47.3244 40.2794C46.3855 40.6412 45.3758 40.8313 44.3368 40.8313C44.2414 40.8313 44.1475 40.8298 44.0536 40.8267C45.0848 40.7853 46.0622 40.4419 46.8842 39.8424C47.0997 39.686 47.3028 39.5112 47.4952 39.3211C48.4342 38.3858 48.9698 37.1424 49.0052 35.8177C49.0052 35.8177 49.0052 35.8162 49.0052 35.8146C49.0052 35.8024 49.0067 35.7916 49.0067 35.7809V35.6015C48.9883 35.2381 48.8374 34.8993 48.5804 34.6417C48.5527 34.6141 48.5265 34.588 48.4973 34.5651C48.4788 34.5482 48.4588 34.5313 48.4388 34.5175C48.4295 34.5099 48.4218 34.5037 48.4126 34.4976C48.3988 34.4869 48.3849 34.4761 48.371 34.4685C48.3618 34.4623 48.3526 34.4562 48.3433 34.4501C48.3326 34.4439 48.3233 34.4363 48.3126 34.4301C48.3126 34.4301 48.311 34.4286 48.3079 34.4286C48.3018 34.424 48.2941 34.4209 48.2879 34.4163C48.2648 34.4025 48.2418 34.3903 48.2187 34.378C48.2079 34.3719 48.1956 34.3657 48.1833 34.3611C48.1709 34.355 48.1602 34.3489 48.1479 34.3443C48.1355 34.3381 48.1248 34.3335 48.1125 34.3289C48.1001 34.3243 48.0878 34.3197 48.0755 34.3151C48.0586 34.309 48.0417 34.3029 48.0247 34.2967C47.9909 34.2845 47.9585 34.2753 47.9247 34.2661C47.9139 34.263 47.9031 34.2599 47.8924 34.2584C47.8677 34.2523 47.8431 34.2477 47.8185 34.2431C47.8 34.24 47.7815 34.2369 47.7631 34.2339C47.7631 34.2339 47.7615 34.2339 47.76 34.2339C47.76 34.2339 47.7584 34.2339 47.7569 34.2339C47.7554 34.2339 47.7523 34.2339 47.7492 34.2339C47.7246 34.2308 47.6984 34.2277 47.6722 34.2262C47.663 34.2262 47.6553 34.2247 47.6461 34.2247C47.6338 34.2247 47.6199 34.2231 47.6061 34.2231C47.5784 34.2216 47.5507 34.2216 47.5229 34.2216H47.5106C47.5106 34.2216 47.4983 34.2216 47.4922 34.2216C47.4675 34.2216 47.4444 34.2231 47.4214 34.2262C47.4029 34.2262 47.386 34.2293 47.369 34.2308C47.0396 34.2676 46.7441 34.4102 46.5055 34.6478L44.0844 37.0581L40.6012 33.5884L40.5996 33.5823Z" fill="url(#paint0_linear_695_595)"/>
<path d="M27.0117 40.1076C27.1518 40.0447 27.2888 39.9773 27.4242 39.9067C27.8829 39.6691 28.3216 39.387 28.7325 39.0619L30.7905 37.012L32.5098 38.7231C32.6252 38.8381 32.7514 38.9378 32.8853 39.0205C33.2178 39.226 33.5964 39.3272 33.9751 39.3272C34.3537 39.3272 34.7308 39.226 35.0648 39.0205C35.1987 38.9378 35.325 38.8396 35.4404 38.7231L37.1597 37.0105L39.2176 39.0604C39.6286 39.3855 40.0672 39.6676 40.5259 39.9067C40.6614 39.9773 40.7999 40.0432 40.9384 40.1076L38.6404 42.3967C37.3521 43.68 35.6636 44.3209 33.9751 44.3194C32.2866 44.3194 30.5981 43.68 29.3097 42.3967L27.0117 40.1076Z" fill="url(#paint1_linear_695_595)"/>
<path d="M15.3477 32.6945C15.3477 32.6286 15.3477 32.5627 15.3477 32.4967C15.3477 32.4906 15.3477 32.4845 15.3477 32.4783V32.4661C15.3784 31.3468 15.8233 30.2368 16.6791 29.3843C17.5395 28.5257 18.6862 28.0535 19.9052 28.0535C21.1243 28.0535 22.2695 28.5257 23.1299 29.3843L26.3545 32.5964L27.3073 33.5455L27.3473 33.5838L23.8641 37.0535L21.4429 34.6432C21.2028 34.4041 20.9073 34.2615 20.5794 34.2262C20.5625 34.2247 20.544 34.2216 20.5271 34.2216C20.504 34.2201 20.4794 34.217 20.4563 34.217C20.4501 34.217 20.444 34.217 20.4378 34.217H20.4255C20.3978 34.217 20.3685 34.217 20.3424 34.2185C20.3285 34.2185 20.3162 34.2185 20.3023 34.2201C20.2931 34.2201 20.2854 34.2216 20.2762 34.2216C20.25 34.2231 20.2239 34.2262 20.1992 34.2293C20.1977 34.2293 20.1946 34.2293 20.1915 34.2293C20.1915 34.2293 20.19 34.2293 20.1884 34.2293C20.1884 34.2293 20.1869 34.2293 20.1854 34.2293C20.1669 34.2323 20.1484 34.2354 20.13 34.2385C20.1053 34.2431 20.0807 34.2477 20.0561 34.2538C20.0453 34.2553 20.0345 34.2584 20.0238 34.2615C19.9899 34.2691 19.956 34.2799 19.9237 34.2921C19.9068 34.2983 19.8898 34.3044 19.8745 34.3105C19.8621 34.3151 19.8498 34.3197 19.8375 34.3243C19.8252 34.3289 19.8129 34.3351 19.8021 34.3397C19.7898 34.3443 19.7775 34.3504 19.7667 34.3565C19.7544 34.3611 19.7436 34.3673 19.7313 34.3734C19.7082 34.3857 19.6851 34.3979 19.662 34.4117C19.6559 34.4163 19.6482 34.4194 19.642 34.424C19.6405 34.424 19.639 34.424 19.6374 34.4255C19.6266 34.4317 19.6159 34.4378 19.6066 34.4455C19.5974 34.4516 19.5882 34.4577 19.5789 34.4639C19.5651 34.4731 19.5512 34.4823 19.5374 34.493C19.5281 34.4991 19.5204 34.5053 19.5112 34.5129C19.4912 34.5283 19.4712 34.5436 19.4527 34.5605C19.4235 34.5834 19.3958 34.6095 19.3696 34.6371C19.1125 34.8932 18.9617 35.2335 18.9432 35.5969V35.7763C18.9432 35.787 18.9432 35.7993 18.9448 35.81C18.9448 35.81 18.9448 35.8116 18.9448 35.8131C18.9786 37.1393 19.5143 38.3812 20.4547 39.3165C20.6471 39.5081 20.8503 39.6814 21.0658 39.8378C21.8877 40.4373 22.8651 40.7792 23.8964 40.8221C23.8025 40.8252 23.7086 40.8267 23.6132 40.8267C22.5758 40.8267 21.566 40.6366 20.6256 40.2748C19.5651 39.8669 18.5938 39.2383 17.7673 38.4134C16.1881 36.8403 15.3831 34.7858 15.3507 32.7206V32.7083C15.3507 32.7083 15.3507 32.6961 15.3507 32.6899L15.3477 32.6945Z" fill="url(#paint2_linear_695_595)"/>
<path d="M18.9414 35.816C18.9445 35.9004 18.9553 35.9908 18.9722 36.0828C19.3539 38.1695 21.9644 38.9423 23.4697 37.4428L23.8638 37.0503L32.1093 28.8368C32.1154 28.8322 32.1201 28.8292 32.1262 28.8246C33.2252 28.0334 34.7213 28.0334 35.8218 28.8246C35.828 28.8292 35.8326 28.8322 35.8388 28.8368L40.6011 33.5806L44.0843 37.0503L44.4783 37.4428C45.9852 38.9438 48.5941 38.1695 48.9759 36.0828C48.9928 35.9893 49.0036 35.9004 49.0067 35.816C48.9728 37.1423 48.4371 38.3842 47.4967 39.3194C47.3043 39.5111 47.1011 39.6844 46.8856 39.8407C46.0637 40.4402 45.0863 40.7821 44.055 40.8251C43.3547 40.8021 42.6713 40.6917 42.0141 40.5016C42.0141 40.5016 42.0141 40.5016 42.0125 40.5016C41.6462 40.3958 41.286 40.2624 40.9382 40.106C40.7981 40.0431 40.6611 39.9757 40.5256 39.9051C40.067 39.6675 39.6283 39.3854 39.2173 39.0603L37.1594 37.0104L37.1209 36.9706L34.6998 34.5588C34.6998 34.5588 34.6951 34.5542 34.6936 34.5527C34.2996 34.1632 33.6531 34.1632 33.2591 34.5527C33.2575 34.5542 33.2544 34.5573 33.2529 34.5588L30.8317 36.9706L30.7933 37.0089L28.7354 39.0588C28.3244 39.3838 27.8857 39.666 27.427 39.9051C27.2916 39.9757 27.1531 40.0416 27.0145 40.106C26.6667 40.2624 26.3065 40.3942 25.9402 40.5016C25.9402 40.5016 25.9402 40.5016 25.9386 40.5016C25.2814 40.6917 24.598 40.8021 23.8976 40.8251C22.8664 40.7837 21.889 40.4402 21.067 39.8407C20.8516 39.6844 20.6484 39.5096 20.456 39.3194C19.5171 38.3842 18.9814 37.1407 18.946 35.816H18.9414Z" fill="url(#paint3_radial_695_595)"/>
<path d="M22.752 52.9313V46.8291H23.8494V49.6395H23.931L26.326 46.8291H27.6743L25.2993 49.5674L27.6928 52.9313H26.366L24.5343 50.3095L23.8494 51.1145V52.9313H22.752Z" fill="white"/>
<path d="M28.3765 52.9313V46.8291H30.7192C31.1502 46.8291 31.5134 46.8966 31.809 47.03C32.1045 47.1633 32.3277 47.3504 32.4754 47.5896C32.6247 47.8288 32.6986 48.1032 32.6986 48.4129C32.6986 48.6506 32.6524 48.8591 32.5586 49.0369C32.4662 49.2148 32.34 49.3589 32.1799 49.4708C32.0198 49.5828 31.8367 49.661 31.6289 49.7085V49.7683C31.8521 49.7806 32.0645 49.848 32.2646 49.9707C32.4647 50.0933 32.6263 50.2666 32.751 50.4904C32.8741 50.7143 32.9357 50.9734 32.9357 51.2662C32.9357 51.5897 32.8572 51.8765 32.7002 52.1279C32.5447 52.3778 32.3092 52.5741 31.9983 52.7151C31.6858 52.8577 31.3026 52.9282 30.8485 52.9282H28.375L28.3765 52.9313ZM30.5822 49.4279C30.7746 49.4279 30.9501 49.3911 31.104 49.3191C31.2595 49.247 31.3795 49.1458 31.4688 49.0139C31.5565 48.8836 31.6012 48.7288 31.6012 48.5524C31.6012 48.3945 31.5642 48.2535 31.4873 48.1308C31.4118 48.0082 31.2995 47.9131 31.1486 47.8426C30.9993 47.7736 30.8177 47.7383 30.6038 47.7383H29.4725V49.4279H30.5791H30.5822ZM30.6776 52.0129C30.9393 52.0129 31.1548 51.9777 31.3257 51.9087C31.4965 51.8397 31.6212 51.7431 31.7028 51.6204C31.7843 51.4978 31.8228 51.3521 31.8228 51.185C31.8228 51.0025 31.7766 50.8385 31.6843 50.6913C31.5919 50.5456 31.4611 50.4306 31.2933 50.3463C31.1256 50.262 30.9316 50.2191 30.71 50.2191H29.474V52.0129H30.6761H30.6776Z" fill="white"/>
<path d="M37.9375 48.7779C37.8698 48.5602 37.7698 48.3716 37.6374 48.2168C37.505 48.0604 37.3419 47.9408 37.1479 47.858C36.9555 47.7752 36.737 47.7323 36.4938 47.7323C36.1613 47.7323 35.8658 47.8166 35.6087 47.9837C35.3517 48.1508 35.15 48.3961 35.0054 48.7181C34.8607 49.0401 34.7868 49.4265 34.7868 49.8742C34.7868 50.3219 34.8591 50.719 35.0023 51.041C35.1454 51.3645 35.3486 51.6098 35.6103 51.7769C35.8719 51.9456 36.1751 52.0283 36.5184 52.0283C36.8293 52.0283 37.1002 51.9686 37.328 51.849C37.5574 51.7294 37.7344 51.5576 37.859 51.3384C37.9837 51.1176 38.0468 50.86 38.0468 50.5641L38.2946 50.6025H36.6292V49.7408H39.115V50.4706C39.115 50.9842 39.0042 51.435 38.7826 51.8183C38.5609 52.2031 38.2546 52.4975 37.8606 52.7045C37.4665 52.9115 37.0186 53.0142 36.5169 53.0142C35.955 53.0142 35.4594 52.887 35.0315 52.634C34.6036 52.381 34.2712 52.0176 34.0357 51.5454C33.8002 51.0732 33.6816 50.5197 33.6816 49.8864C33.6816 49.2532 33.8017 48.6875 34.0434 48.2137C34.285 47.7399 34.6175 47.3766 35.0408 47.1236C35.464 46.8721 35.9443 46.7449 36.4799 46.7449C36.9247 46.7449 37.3326 46.8307 37.702 47.0025C38.0714 47.1742 38.3747 47.4134 38.6132 47.72C38.8503 48.0266 39.0011 48.3793 39.0658 48.7764H37.9406L37.9375 48.7779Z" fill="white"/>
<path d="M40.6966 52.9313H39.5176L41.6771 46.8291H43.0347L45.1942 52.9313H44.0182L42.379 48.0756H42.3312L40.6951 52.9313H40.6966ZM40.7412 50.5395H43.969V51.4211H40.7412V50.5395Z" fill="white"/>
<path d="M15.0492 47.8381L14.8414 47.9822L14.4535 47.6035L11.6614 49.5384L11.8831 50.0321L11.6753 50.1763L10.7548 48.8577C10.5424 48.5541 10.4454 48.2582 10.4655 47.973C10.4855 47.6878 10.6178 47.4594 10.8641 47.2877C11.0488 47.1604 11.2412 47.1021 11.4429 47.1144C11.6445 47.1267 11.843 47.2033 12.0401 47.3444C11.9693 47.1773 11.9354 47.0071 11.9354 46.8354C11.9354 46.6636 11.9723 46.5011 12.0431 46.3478C12.1155 46.196 12.2232 46.0688 12.3695 45.9676C12.6542 45.7698 12.9482 45.7115 13.2499 45.7882C13.5516 45.8664 13.8317 46.0902 14.0903 46.4613L15.0507 47.8366L15.0492 47.8381ZM12.6419 48.3119L12.4387 48.0205C12.2448 47.7446 12.037 47.579 11.8123 47.5268C11.5875 47.4747 11.3536 47.533 11.1104 47.7016C10.7625 47.9423 10.7579 48.3027 11.0935 48.7841C11.1319 48.8393 11.1796 48.9021 11.2366 48.9727C11.2935 49.0432 11.3505 49.1076 11.4075 49.1659L12.6419 48.3103V48.3119ZM13.8502 46.6744C13.6932 46.449 13.5115 46.3125 13.3037 46.2635C13.0975 46.2144 12.8835 46.265 12.665 46.4168C12.4356 46.5763 12.3187 46.7602 12.3125 46.9688C12.3063 47.1788 12.4095 47.4333 12.6188 47.7338L12.8974 48.134L14.1888 47.2386C14.158 47.1727 14.1103 47.0868 14.0456 46.9795C13.981 46.8722 13.9148 46.771 13.8471 46.6744H13.8502Z" fill="white"/>
<path d="M13.4275 45.5274L13.2028 45.6455L12.8626 45.2238L9.85812 46.8138L10.0182 47.3305L9.79347 47.4485L8.45898 44.9479L9.34403 44.4787L9.47486 44.724L8.92844 45.1564L9.2763 45.8095L9.63801 46.4198L10.9663 45.7175L10.4507 44.7516L10.0982 44.8451L9.9828 44.6274L10.8678 44.1583L10.9833 44.376L10.7139 44.6121L11.228 45.578L12.5964 44.8543C12.5779 44.7639 12.5394 44.6504 12.4825 44.514C12.4255 44.3775 12.3655 44.2487 12.3024 44.1291L11.9622 43.4928L11.325 43.686L11.1911 43.4346L12.0592 42.9746L13.4198 45.5259L13.4275 45.5274Z" fill="white"/>
<path d="M12.2969 43.5451L12.0537 43.6386L11.849 43.3182L7.79323 43.3611L7.70703 43.1372L10.7239 40.4035L10.6531 40.011L10.8963 39.9175L11.3996 41.2222L11.1564 41.3158L10.8978 40.8589L10.2113 41.4737L10.7962 42.9901L11.7043 42.9471L11.5951 42.4534L11.8383 42.3599L12.2954 43.5466L12.2969 43.5451ZM10.453 42.9977L9.95427 41.7052L8.65518 42.8659L8.44585 43.0268L8.45662 43.056L8.71829 43.0299L10.453 42.9962V42.9977Z" fill="white"/>
<path d="M10.7554 38.7796C10.8447 39.1568 10.8432 39.4619 10.7524 39.6934C10.6615 39.9249 10.4907 40.1074 10.2383 40.2392C9.98738 40.3711 9.6703 40.483 9.28704 40.5719L7.34149 41.0273L7.37381 41.5517L7.11984 41.6114L6.77352 40.1411L7.02749 40.0813L7.23528 40.5781L9.18083 40.1227C9.54716 40.0368 9.8273 39.9402 10.0182 39.8329C10.209 39.7256 10.3275 39.5799 10.3722 39.3959C10.4168 39.212 10.4014 38.9666 10.3291 38.66C10.2629 38.381 10.1582 38.1801 10.0151 38.0574C9.87194 37.9348 9.68723 37.8704 9.46405 37.8612C9.24086 37.8535 8.97612 37.8842 8.67136 37.9562L6.73812 38.4085L6.76583 38.9406L6.5057 39.0019L6.18555 37.6419L6.44567 37.5821L6.65808 38.0651L8.59132 37.6128C8.87915 37.5453 9.14082 37.507 9.37323 37.4978C9.60565 37.4886 9.81191 37.5223 9.99046 37.5975C10.169 37.6726 10.3214 37.806 10.4491 37.9961C10.5769 38.1878 10.68 38.4484 10.7585 38.7811L10.7554 38.7796Z" fill="white"/>
<path d="M10.2159 36.3373L9.95732 36.3619L9.81879 35.8482L6.3956 36.1763L6.48641 37.1208L7.17444 37.1821L7.2006 37.4596L6.2032 37.5547L5.89844 34.4085L6.89584 34.3135L6.92355 34.5971L6.25861 34.775L6.35096 35.7317L9.77415 35.4036L9.81263 34.8731L10.0712 34.8486L10.2159 36.3404V36.3373Z" fill="white"/>
<path d="M10.0258 33.6588L9.76563 33.6542L9.68559 33.1283L8.57582 33.1099L6.23777 34.3994L6.13003 34.7321L5.89453 34.7275L5.91916 33.2801L6.15466 33.2847L6.24701 33.8367H6.36707L8.21873 32.8385V32.8201L6.39477 31.7975H6.28087L6.17159 32.3065L5.93763 32.3019L5.95764 31.0447L6.19314 31.0493L6.27779 31.3345L8.54042 32.6546L9.69482 32.673L9.79179 32.1563L10.0519 32.1609L10.0273 33.6588H10.0258Z" fill="white"/>
<path d="M10.4758 29.1312C10.3726 29.7076 10.1341 30.1262 9.76157 30.3853C9.38908 30.6444 8.83805 30.7088 8.10847 30.58C7.82064 30.5294 7.55743 30.4359 7.31732 30.301C7.0772 30.1661 6.87403 29.9974 6.70779 29.795C6.54156 29.5927 6.42458 29.3611 6.35532 29.1005C6.28605 28.8398 6.27836 28.5577 6.33223 28.2557C6.39072 27.9276 6.45998 27.6654 6.54156 27.4676C6.6216 27.2698 6.68625 27.1456 6.73396 27.0935L7.66518 27.2591L7.619 27.5136L6.89712 27.5841C6.85248 27.6654 6.8063 27.7819 6.75705 27.9322C6.70933 28.0824 6.67239 28.2235 6.6493 28.3553C6.56003 28.8567 6.63391 29.2385 6.87403 29.4961C7.11414 29.7552 7.53742 29.9376 8.14541 30.0465C8.51636 30.1124 8.84421 30.1262 9.12742 30.0863C9.41217 30.0465 9.64305 29.9407 9.82314 29.7674C10.0032 29.5942 10.1233 29.3366 10.1833 28.9962C10.211 28.8429 10.2264 28.7157 10.2295 28.6129C10.2326 28.5102 10.2264 28.4182 10.2126 28.3339C10.1972 28.2496 10.1725 28.1606 10.1387 28.064L8.97042 27.857L8.7811 28.2664L8.53175 28.222L8.72877 27.1211L9.03507 27.1748L9.02275 27.4231L10.6728 27.716L10.6374 27.9153L10.4434 28.0226L10.4265 28.1162C10.4558 28.1898 10.485 28.3047 10.5127 28.4596C10.5404 28.6145 10.5281 28.8398 10.4758 29.1342V29.1312Z" fill="white"/>
<path d="M10.675 27.7268L10.4318 27.6517L10.4933 27.115L7.24716 26.1031L6.99165 26.58L6.75 26.5048L7.5981 23.8018L8.55548 24.1007L8.47237 24.366L7.77973 24.2832L7.55808 24.9885L7.37646 25.6738L8.81253 26.1215L9.14038 25.0774L8.82638 24.8934L8.90027 24.6588L9.85765 24.9563L9.78377 25.1909L9.42667 25.1648L9.09882 26.2089L10.5765 26.6689C10.6273 26.5922 10.6811 26.4849 10.7396 26.3484C10.7981 26.212 10.8474 26.0801 10.8874 25.9513L11.1029 25.2629L10.5164 24.9486L10.6011 24.6772L11.54 24.9701L10.675 27.7268Z" fill="white"/>
<path d="M11.4458 25.1263L11.2272 25.0236L11.3119 24.608L8.21348 23.15L7.96567 23.4658L7.73633 23.3585L8.08573 22.621L12.0215 22.0614L12.2093 22.0522L12.2169 22.0353L9.37558 20.6999L9.11084 21.0234L8.89227 20.9207L9.38789 19.875L9.60646 19.9777L9.52488 20.3871L12.9342 21.9908L12.7357 22.4079L8.84455 22.9614L8.6737 22.9644L8.66601 22.9813L11.4612 24.2953L11.7321 23.961L11.9507 24.0638L11.4473 25.1278L11.4458 25.1263Z" fill="white"/>
<path d="M13.053 21.7963L12.8406 21.6583L13.0468 21.1584L10.2008 19.3032L9.82374 19.6927L9.61133 19.5547L11.1675 17.1843L12.0063 17.7317L11.8539 17.9647L11.2106 17.6964L10.8042 18.3158L10.441 18.9261L11.7 19.7463L12.3019 18.831L12.0494 18.5688L12.1849 18.3618L13.0237 18.9092L12.8883 19.1162L12.5512 18.9951L11.9494 19.9104L13.2454 20.7552C13.3162 20.6954 13.3978 20.608 13.4901 20.4915C13.584 20.3765 13.6671 20.2615 13.741 20.1496L14.1366 19.547L13.6594 19.0855L13.8149 18.8479L14.6384 19.3845L13.0499 21.8024L13.053 21.7963Z" fill="white"/>
<path d="M14.5376 19.5087L14.3436 19.3462L14.6099 18.8755L12.0102 16.6907L11.5885 17.031L11.3945 16.8685L12.5489 15.507C12.6828 15.3491 12.8352 15.2249 13.0076 15.1314C13.18 15.0394 13.3586 14.9965 13.5417 15.0011C13.7249 15.0072 13.9004 15.0793 14.0697 15.2219C14.2344 15.3598 14.3544 15.4963 14.4283 15.6266C14.5022 15.7585 14.5453 15.8873 14.5561 16.0161C14.5668 16.1433 14.5607 16.269 14.5376 16.3902C14.5145 16.5113 14.4868 16.6309 14.456 16.7474L16.1676 17.0111L16.5416 16.7551L16.7356 16.9176L16.4077 17.304C16.3508 17.3714 16.2969 17.4144 16.2446 17.4312C16.1938 17.4496 16.1276 17.4542 16.046 17.4466L14.2636 17.1399L13.8388 17.6428L14.9008 18.5351L15.3226 18.1948L15.5165 18.3588L14.5376 19.5133V19.5087ZM13.5956 17.4358L13.8911 17.0878C14.022 16.9329 14.1081 16.7704 14.1466 16.6002C14.1866 16.43 14.182 16.2644 14.1343 16.105C14.0866 15.9455 13.9942 15.8091 13.8588 15.6956C13.7141 15.573 13.5787 15.5024 13.454 15.4825C13.3293 15.4626 13.2169 15.4764 13.1154 15.5208C13.0138 15.5653 12.9245 15.6236 12.846 15.6956C12.7675 15.7677 12.7013 15.8367 12.6474 15.9011C12.5951 15.9624 12.5382 16.0345 12.4766 16.1173C12.415 16.2 12.3581 16.2782 12.3073 16.3518L13.5971 17.4358H13.5956Z" fill="white"/>
<path d="M16.1172 17.5507L15.9402 17.3605L16.1634 17.0524L14.6211 13.3144L14.7981 13.1519L18.4645 14.9319L18.8046 14.7219L18.9817 14.912L17.9519 15.8611L17.7749 15.6709L18.1058 15.2631L17.2778 14.8553L16.0803 15.9576L16.4558 16.7825L16.876 16.4989L17.053 16.689L16.1172 17.5522V17.5507ZM15.9448 15.6433L16.9653 14.7035L15.4015 13.9307L15.1737 13.7958L15.1506 13.8173L15.2722 14.0503L15.9463 15.6418L15.9448 15.6433Z" fill="white"/>
<path d="M18.5839 15.2862L18.433 15.0823L18.8024 14.6867L16.7907 11.9545L16.3012 12.1876L16.1504 11.9836L17.4249 11.053L17.5942 11.283L17.1663 11.7061L19.1595 14.4138L19.7583 14.0397L20.3324 13.6211L20.04 13.0109L20.2708 12.8422L20.8527 13.6319L18.5854 15.2877L18.5839 15.2862Z" fill="white"/>
<path d="M19.7944 14.3035L19.662 14.0812L19.9453 13.8251L19.2188 9.84946L19.4265 9.72681L22.6404 12.2275L23.0175 12.0926L23.1499 12.3149L21.9447 13.0294L21.8123 12.807L22.2202 12.4774L21.4952 11.907L20.093 12.7381L20.2885 13.6227L20.758 13.4326L20.8903 13.6549L19.7944 14.305V14.3035ZM20.0253 12.4007L21.2197 11.6924L19.8514 10.613L19.6559 10.4352L19.6282 10.4505L19.6974 10.7035L20.0238 12.4007H20.0253Z" fill="white"/>
<path d="M23.7733 12.1675C23.6271 12.2335 23.4747 12.284 23.3162 12.3178C23.1576 12.3515 23.0114 12.3699 22.8775 12.373C22.7436 12.3745 22.6374 12.3638 22.5558 12.3408L22.2033 11.5634L22.4758 11.4408L22.8375 11.9927C22.9498 12.0157 23.0822 12.0173 23.2346 11.9943C23.387 11.9728 23.5163 11.936 23.6255 11.8885C23.9334 11.7505 24.1273 11.5895 24.2058 11.4101C24.2843 11.2292 24.2751 11.0314 24.1766 10.8168C24.1058 10.6588 24.0103 10.5515 23.8903 10.4917C23.7702 10.4319 23.6348 10.3982 23.4824 10.3905C23.33 10.3829 23.1699 10.3844 23.0037 10.3936C22.8544 10.4013 22.7005 10.4043 22.545 10.4028C22.3896 10.4028 22.2387 10.3844 22.094 10.3522C21.9494 10.32 21.8185 10.2617 21.7015 10.1789C21.5846 10.0946 21.4907 9.97655 21.4214 9.8217C21.326 9.61011 21.2937 9.40773 21.3229 9.21454C21.3537 9.02136 21.4399 8.84351 21.583 8.68098C21.7262 8.52 21.9186 8.38507 22.1618 8.27468C22.2849 8.21948 22.4157 8.17042 22.5543 8.12596C22.6928 8.08303 22.819 8.0493 22.9329 8.02477C23.0468 8.00023 23.1299 7.9895 23.1807 7.9895L23.5517 8.80824L23.2977 8.92323L22.9375 8.4188C22.8698 8.41267 22.7728 8.42187 22.6466 8.44487C22.5204 8.4694 22.3896 8.5108 22.2557 8.57213C22.0017 8.68712 21.8308 8.82357 21.7446 8.9815C21.6584 9.14095 21.66 9.31727 21.7493 9.51352C21.8278 9.68678 21.9355 9.80177 22.074 9.86003C22.2126 9.91829 22.368 9.94589 22.5435 9.94436C22.719 9.94129 22.899 9.93516 23.0853 9.92596C23.2746 9.91523 23.4624 9.91676 23.644 9.93056C23.8272 9.94589 23.9934 9.99495 24.1443 10.0808C24.2936 10.1651 24.4152 10.3108 24.5075 10.5147C24.5983 10.714 24.6399 10.8996 24.6337 11.0713C24.6276 11.243 24.5845 11.3978 24.5044 11.5389C24.4244 11.6784 24.3197 11.8026 24.192 11.9084C24.0642 12.0142 23.9241 12.1016 23.7733 12.1691V12.1675Z" fill="white"/>
<path d="M25.9496 11.3121C25.7972 11.3627 25.6402 11.398 25.4786 11.4149C25.3169 11.4333 25.1707 11.4363 25.0368 11.4256C24.9029 11.4149 24.7982 11.3934 24.7213 11.3612L24.4488 10.5517L24.732 10.4581L25.0353 11.0438C25.1445 11.0776 25.2769 11.0929 25.4308 11.0852C25.5848 11.0791 25.7171 11.0561 25.8295 11.0193C26.1496 10.912 26.359 10.7724 26.4544 10.6007C26.5498 10.429 26.5606 10.2312 26.4852 10.0074C26.4298 9.84331 26.3467 9.72679 26.2328 9.65472C26.1204 9.5842 25.988 9.53667 25.8372 9.51367C25.6863 9.49067 25.5278 9.47534 25.36 9.4692C25.2107 9.46154 25.0584 9.44927 24.9029 9.43241C24.7474 9.41554 24.5997 9.38334 24.4596 9.33735C24.3195 9.29135 24.1949 9.21929 24.0871 9.12423C23.9794 9.02917 23.8978 8.90191 23.8455 8.74246C23.7716 8.52321 23.7593 8.31776 23.8101 8.12764C23.8593 7.93752 23.964 7.7704 24.1225 7.62321C24.2811 7.47755 24.4873 7.36256 24.7397 7.27823C24.8675 7.2353 25.0029 7.20004 25.1445 7.16937C25.2862 7.13871 25.4154 7.11878 25.5324 7.10651C25.6494 7.09425 25.7325 7.09118 25.7833 7.09578L26.0696 7.94672L25.8049 8.03564L25.497 7.49748C25.4308 7.48369 25.3323 7.48369 25.2046 7.49442C25.0768 7.50668 24.9429 7.53428 24.8028 7.58181C24.5381 7.67074 24.3549 7.7888 24.2534 7.93752C24.1518 8.08624 24.1348 8.26409 24.2041 8.46801C24.2641 8.6474 24.3596 8.77312 24.4919 8.84518C24.6228 8.91725 24.7767 8.96018 24.9506 8.97551C25.1245 8.99084 25.3046 9.00311 25.4909 9.0123C25.6802 9.01997 25.8664 9.0399 26.0465 9.07363C26.2266 9.10736 26.3882 9.17329 26.5283 9.27295C26.6684 9.37261 26.7746 9.529 26.8454 9.74058C26.9146 9.9491 26.9393 10.1377 26.9146 10.3079C26.8915 10.4781 26.8331 10.6283 26.7392 10.7602C26.6453 10.892 26.5283 11.004 26.3898 11.096C26.2512 11.1895 26.1035 11.2615 25.948 11.3137L25.9496 11.3121Z" fill="white"/>
<path d="M28.815 10.5747C28.2055 10.6958 27.7084 10.6085 27.3251 10.3079C26.9418 10.009 26.6863 9.549 26.5616 8.92957C26.4831 8.53707 26.4847 8.1645 26.5663 7.81339C26.6494 7.46228 26.8172 7.16024 27.0696 6.90726C27.3236 6.65428 27.6699 6.48409 28.1085 6.3967C28.4733 6.3231 28.8012 6.3415 29.0936 6.45189C29.3861 6.56228 29.6308 6.74934 29.8294 7.01765C30.0279 7.28596 30.168 7.62174 30.2496 8.02651C30.3081 8.31629 30.3296 8.5984 30.3142 8.87438C30.2988 9.15036 30.2373 9.40487 30.1311 9.63639C30.0249 9.8679 29.8632 10.0657 29.6493 10.2297C29.4338 10.3938 29.1567 10.5088 28.8166 10.5763L28.815 10.5747ZM28.8766 10.2328C29.1706 10.1745 29.3938 10.058 29.5446 9.88324C29.6955 9.70998 29.7847 9.48307 29.8124 9.20402C29.8401 8.92497 29.8171 8.603 29.7432 8.23503C29.6678 7.85939 29.5723 7.56194 29.46 7.34423C29.3476 7.12651 29.2199 6.96859 29.0767 6.87046C28.9336 6.77233 28.7796 6.71714 28.6165 6.70487C28.4518 6.69261 28.2794 6.70487 28.0962 6.74167C27.9639 6.76773 27.833 6.803 27.7037 6.84593C27.5744 6.88886 27.4559 6.95172 27.3497 7.03605C27.2435 7.11884 27.1589 7.23537 27.0957 7.38256C27.0326 7.52975 26.9972 7.7214 26.9911 7.95445C26.9849 8.1875 27.0157 8.47574 27.085 8.81918C27.1681 9.23315 27.2912 9.5536 27.4528 9.78051C27.6145 10.0074 27.8161 10.1562 28.0531 10.2251C28.2917 10.2941 28.5657 10.2972 28.8766 10.2343V10.2328Z" fill="white"/>
<path d="M32.242 10.1284C31.6048 10.1668 31.1246 10.0196 30.8044 9.6884C30.4843 9.35722 30.3026 8.85739 30.2626 8.18738C30.2457 7.90986 30.2734 7.63848 30.3473 7.37477C30.4212 7.11106 30.5366 6.87187 30.6951 6.65722C30.8537 6.44257 31.0538 6.26932 31.2939 6.13746C31.534 6.00561 31.8141 5.92894 32.1358 5.91055C32.359 5.89675 32.5776 5.89981 32.7885 5.91668C32.9993 5.93354 33.1809 5.96881 33.3318 6.024L33.3887 6.97613L33.1163 6.993L32.9408 6.29998C32.8331 6.27699 32.7007 6.26012 32.5406 6.25092C32.3806 6.24172 32.2236 6.24172 32.0666 6.25092C31.7618 6.26932 31.5125 6.35365 31.3154 6.50543C31.1184 6.65722 30.9768 6.87034 30.8906 7.14785C30.8029 7.42537 30.7721 7.76421 30.7952 8.16438C30.8121 8.44649 30.8568 8.69334 30.9291 8.90646C31.0014 9.11957 31.0999 9.29589 31.2246 9.43695C31.3493 9.57801 31.5001 9.6792 31.6756 9.74206C31.8511 9.80492 32.0527 9.83099 32.2805 9.81719C32.4714 9.80646 32.6253 9.78039 32.7469 9.74206C32.8669 9.70373 32.9608 9.6608 33.0286 9.6148C33.0963 9.56881 33.144 9.53354 33.1717 9.51208L33.2548 8.88652L33.5273 8.86966L33.5827 9.78499C33.5042 9.82332 33.4103 9.86779 33.2979 9.91532C33.1856 9.96438 33.0455 10.0088 32.8762 10.0487C32.7069 10.0886 32.496 10.1162 32.242 10.1315V10.1284Z" fill="white"/>
<path d="M33.4863 10.0303L33.4956 9.77117L34.025 9.70065L34.1436 6.3015L33.6202 6.19417L33.6295 5.93506L35.1394 5.98719L35.1302 6.2463L34.6007 6.31683L34.4822 9.71598L35.0055 9.8233L34.9963 10.0824L33.4863 10.0303Z" fill="white"/>
<path d="M34.4707 9.98425L34.503 9.72667L34.8832 9.69907L36.7703 6.12207L37.0088 6.15273L37.9924 10.0962L38.3726 10.2204L38.3403 10.4779L36.9488 10.3001L36.9811 10.0425L37.5075 10.0333L37.2905 9.13945L35.6728 8.93246L35.2803 9.74967L35.7683 9.88766L35.7359 10.1452L34.4707 9.98425ZM35.8283 8.62735L37.2074 8.80367L36.798 7.11406L36.7549 6.85342L36.7226 6.84882L36.621 7.09107L35.8283 8.62735Z" fill="white"/>
<path d="M38.2239 10.521L38.2854 10.2696L38.818 10.3064L39.6276 6.97624L38.7026 6.75239L38.4193 7.37947L38.1484 7.31355L38.3839 6.34302L41.4685 7.08663L41.233 8.05716L40.9559 7.9897L41.0052 7.30588L40.0678 7.0805L39.2582 10.4107L39.7492 10.6207L39.6876 10.8721L38.2254 10.5195L38.2239 10.521Z" fill="white"/>
<path d="M40.1387 11.004L40.2218 10.7587L40.7497 10.8415L41.8318 7.61559L41.3608 7.36568L41.4439 7.12036L42.8769 7.59719L42.7938 7.84251L42.2658 7.75971L41.1838 10.9856L41.6548 11.2355L41.5717 11.4808L40.1387 11.004Z" fill="white"/>
<path d="M43.1161 12.212C42.5513 11.9544 42.2003 11.5926 42.0649 11.1265C41.9294 10.6604 41.9941 10.1391 42.2588 9.56413C42.425 9.20076 42.6467 8.90025 42.9191 8.6626C43.1931 8.42648 43.5071 8.27929 43.8611 8.22256C44.2151 8.16583 44.5953 8.23023 45.0032 8.41575C45.3418 8.56907 45.5973 8.77606 45.7697 9.03517C45.9421 9.29428 46.0298 9.5902 46.0329 9.9229C46.036 10.2556 45.9513 10.6098 45.779 10.9854C45.6558 11.2537 45.5065 11.4945 45.331 11.7091C45.1556 11.9238 44.957 12.0939 44.7338 12.2197C44.5107 12.3454 44.2644 12.4113 43.9935 12.4175C43.7226 12.4236 43.4301 12.3561 43.1146 12.212H43.1161ZM43.367 11.9713C43.6395 12.0955 43.8888 12.1307 44.1135 12.0786C44.3383 12.0249 44.543 11.8946 44.7292 11.6846C44.9155 11.4761 45.0879 11.2001 45.2433 10.8597C45.4034 10.5101 45.5019 10.2157 45.5388 9.97197C45.5758 9.72972 45.565 9.5258 45.5081 9.36328C45.4496 9.20076 45.3588 9.06583 45.2325 8.96004C45.1063 8.85425 44.9586 8.76226 44.7893 8.6856C44.6661 8.62887 44.5399 8.58134 44.4091 8.53994C44.2782 8.50008 44.1459 8.48168 44.0104 8.48781C43.875 8.49394 43.738 8.53841 43.601 8.6212C43.4625 8.70399 43.3224 8.83892 43.1792 9.0229C43.0361 9.20842 42.8914 9.45987 42.7452 9.77725C42.5697 10.1606 42.4804 10.4917 42.4774 10.7708C42.4743 11.0498 42.5497 11.2875 42.7021 11.4807C42.8545 11.6754 43.0761 11.8379 43.3639 11.9698L43.367 11.9713Z" fill="white"/>
<path d="M44.6758 12.8162L44.8082 12.6153L45.2083 12.7564L47.0939 9.90615L46.8137 9.61637L46.9538 9.40479L47.6372 9.85402V13.8143L47.6218 13.9998L47.6372 14.0106L49.3657 11.398L49.0825 11.0913L49.2149 10.8905L50.1846 11.5268L50.0522 11.7276L49.6566 11.5896L47.5818 14.7251L47.1955 14.4705V10.5547L47.2155 10.386L47.2001 10.3753L45.4993 12.945L45.7932 13.2593L45.6609 13.4602L44.6758 12.8131V12.8162Z" fill="white"/>
<path d="M10.8995 51.3751L10.6225 51.5698L10.1961 51.1635L7.20084 53.2702L7.44249 53.8053L7.16544 54L6.07876 52.4683L6.35582 52.2736L6.78218 52.6799L8.08434 51.7645L7.96274 51.5928L5.98949 51.4763L5.92022 51.5254L6.07106 51.8841L5.80016 52.0743L4.93359 50.8523L5.21065 50.6576L5.54158 50.9673L7.64567 51.1206L8.49993 48.7824L8.28444 48.2719L8.56149 48.0771L9.0094 48.7088C9.07713 48.8039 9.11407 48.8852 9.12176 48.9526C9.12946 49.0185 9.11099 49.1044 9.06943 49.2087L8.26135 51.3674L8.39218 51.5514L9.78054 50.5748L9.53889 50.0397L9.81594 49.845L10.9026 51.3766L10.8995 51.3751Z" fill="white"/>
<path d="M8.23694 47.1233C8.56941 47.7274 8.64329 48.284 8.4632 48.793C8.28157 49.302 7.87061 49.7329 7.22722 50.084C6.81933 50.3063 6.4099 50.4289 6.00202 50.4504C5.59413 50.4734 5.21394 50.3875 4.86147 50.1944C4.50899 50.0027 4.215 49.6899 3.97796 49.2591C3.77017 48.8804 3.67166 48.5155 3.68244 48.1628C3.69321 47.8102 3.80865 47.4821 4.02876 47.177C4.2504 46.8719 4.57364 46.6051 4.99692 46.372C5.30168 46.2065 5.60798 46.0884 5.91274 46.0209C6.21904 45.9535 6.51303 45.9443 6.79778 45.9949C7.08254 46.0455 7.34728 46.162 7.59355 46.346C7.83982 46.53 8.05377 46.7875 8.2354 47.1203L8.23694 47.1233ZM7.75979 47.2214C7.6228 46.9715 7.45194 46.7983 7.24723 46.7048C7.04252 46.6112 6.79778 46.5913 6.51303 46.648C6.22828 46.7048 5.90043 46.8335 5.52794 47.0359C5.177 47.2276 4.90456 47.41 4.70909 47.5864C4.51361 47.7627 4.38277 47.9359 4.31505 48.1046C4.24732 48.2732 4.22732 48.4434 4.25194 48.6121C4.27657 48.7792 4.33814 48.9525 4.43511 49.1288C4.50437 49.256 4.58441 49.371 4.67368 49.4753C4.76296 49.5795 4.86608 49.6623 4.9846 49.7267C5.10312 49.7911 5.24319 49.8249 5.40634 49.8295C5.5695 49.8341 5.76036 49.8019 5.98047 49.7329C6.20057 49.6639 6.45454 49.5504 6.74237 49.394C7.15488 49.1686 7.45964 48.9417 7.6582 48.7117C7.85675 48.4818 7.95988 48.2441 7.96912 47.9973C7.97835 47.7519 7.90909 47.4928 7.75979 47.2214Z" fill="white"/>
<path d="M7.40228 45.8631L7.09444 45.9873L6.76659 45.4982L3.36957 46.872L3.47577 47.45L3.16947 47.5742L2.42142 45.7389C2.31213 45.4706 2.25057 45.2161 2.23671 44.9769C2.22286 44.7377 2.27058 44.5246 2.37986 44.3391C2.48914 44.1536 2.67692 44.0064 2.94321 43.899C3.13099 43.8239 3.3003 43.7825 3.45268 43.7764C3.60506 43.7703 3.74667 43.7902 3.87596 43.8362C4.0068 43.8822 4.12685 43.945 4.23922 44.0263C4.35158 44.1076 4.45778 44.2011 4.56245 44.3053L5.67529 42.8319L5.60757 42.329L5.91541 42.2048L6.194 42.8887C6.2371 42.9929 6.25249 43.0803 6.24326 43.1493C6.23402 43.2183 6.19708 43.295 6.13397 43.3747L4.94263 44.8573L5.15196 45.3709L6.49723 44.8266L6.39102 44.2486L6.69886 44.1244L7.40689 45.8616L7.40228 45.8631ZM4.74253 45.5365L4.60247 45.1915C4.52243 44.9968 4.41776 44.842 4.28847 44.727C4.15764 44.612 4.00833 44.5415 3.84056 44.5139C3.67279 44.4863 3.49886 44.5077 3.32031 44.5798C3.15408 44.6473 3.03248 44.7254 2.95244 44.8159C2.8724 44.9064 2.82315 45.0014 2.80314 45.1042C2.78313 45.2053 2.78313 45.3111 2.80314 45.4185C2.82161 45.5273 2.85239 45.6331 2.89549 45.7374C2.92781 45.8156 2.96322 45.8953 3.00477 45.9781C3.04633 46.0594 3.08327 46.1314 3.11868 46.1927L4.74561 45.535L4.74253 45.5365Z" fill="white"/>
<path d="M6.23941 43.0789L5.92079 43.1724L5.6422 42.6527L2.12358 43.6814L2.17129 44.2687L1.85268 44.3622L0.919922 41.2007L2.0774 40.8619L2.18515 41.2252L1.49097 41.5901L1.73878 42.4334L1.93733 42.9823L3.42574 42.5469L3.14561 41.5963L2.69924 41.6024L2.60997 41.2988L3.86749 40.9308L3.95677 41.2344L3.55042 41.4782L3.83055 42.4288L5.38053 41.975C5.38053 41.8876 5.36668 41.7833 5.34205 41.6607C5.31896 41.538 5.28972 41.4215 5.25739 41.3096L5.01728 40.4939L4.21535 40.5675L4.10761 40.2041L5.2851 39.8591L6.23479 43.0804L6.23941 43.0789Z" fill="white"/>
<path d="M5.50738 40.8817L5.17491 40.9445L5.01175 40.5398L0.621946 39.8238L0.523438 39.2994L4.32835 36.9873L4.33912 36.5135L4.67159 36.4507L5.00867 38.2384L4.67621 38.3013L4.47611 37.7386L3.67572 38.2108L3.98356 39.8468L4.89785 39.9756L4.87938 39.3853L5.21185 39.3224L5.50584 40.8832L5.50738 40.8817ZM3.51257 39.7762L3.26322 38.4515L1.73633 39.3377L1.46543 39.4604L1.47466 39.5079L1.77019 39.5171L3.51257 39.7778V39.7762Z" fill="white"/>
<path d="M4.83651 37.4886L4.50558 37.5162L4.33934 36.952L0.685276 37.251L0.612933 37.8351L0.283544 37.8627L0.131163 36.0213C0.0896044 35.5123 0.15579 35.1152 0.32972 34.8285C0.50365 34.5418 0.771471 34.3839 1.13318 34.3547C1.34867 34.3363 1.55031 34.3839 1.73501 34.4958C1.92126 34.6077 2.07364 34.7871 2.19369 35.037C2.22448 34.8423 2.28759 34.666 2.38302 34.5111C2.47845 34.3547 2.60004 34.2305 2.74473 34.137C2.89095 34.042 3.05411 33.9883 3.23727 33.973C3.64516 33.9392 3.97455 34.0496 4.22698 34.3041C4.47941 34.5587 4.62563 34.942 4.66873 35.4556L4.83651 37.4932V37.4886ZM2.19985 36.4L2.16907 36.029C2.14136 35.6932 2.04439 35.451 1.8797 35.3023C1.715 35.1535 1.48874 35.0907 1.20245 35.1152C0.73453 35.1535 0.52366 35.4694 0.572914 36.0612C0.579071 36.1317 0.586767 36.2099 0.599081 36.2958C0.611394 36.3816 0.626786 36.4598 0.646796 36.5288L2.19985 36.4016V36.4ZM4.25315 35.7178C4.22544 35.382 4.13463 35.1336 3.97917 34.9726C3.82371 34.8116 3.6036 34.7426 3.31885 34.7656C3.03718 34.7886 2.83862 34.8883 2.72164 35.0646C2.60466 35.2409 2.56156 35.523 2.59389 35.911L2.63083 36.3663L4.26854 36.2329C4.27316 36.1762 4.2747 36.098 4.27008 35.9999C4.267 35.9018 4.26084 35.8082 4.25469 35.7193L4.25315 35.7178Z" fill="white"/>
<path d="M4.56835 34.5433L4.23742 34.5387L4.1266 33.9607L0.460222 33.9009L0.330929 34.4743L0 34.4682L0.0538721 31.1748L1.25907 31.1948L1.25291 31.5735L0.48177 31.7161L0.467918 32.5946L0.494084 33.1788L2.0456 33.2033L2.06099 32.2128L1.63309 32.0871L1.63771 31.7713L2.94911 31.7927L2.94296 32.1086L2.48273 32.2205L2.4658 33.211L4.08043 33.237C4.10505 33.1527 4.12506 33.05 4.13892 32.9258C4.15277 32.8016 4.16046 32.682 4.162 32.5639L4.17586 31.7145L3.38932 31.5474L3.39548 31.1687L4.62223 31.1886L4.56681 34.5464L4.56835 34.5433Z" fill="white"/>
<path d="M4.52444 32.2252L4.1889 32.1869L4.15503 31.7514L0.177734 29.7674L0.239302 29.2369L4.56138 28.156L4.71376 27.7068L5.04931 27.7466L4.8369 29.5543L4.50135 29.516L4.47827 28.9196L3.57322 29.1327L3.37928 30.7855L4.21352 31.1795L4.37206 30.6107L4.70761 30.649L4.5229 32.2252H4.52444ZM2.94984 30.5785L3.10684 29.2385L1.38447 29.6325L1.08894 29.6693L1.08279 29.7184L1.36292 29.815L2.9483 30.58L2.94984 30.5785Z" fill="white"/>
<path d="M5.43259 26.9032C5.32946 27.3463 5.17862 27.6714 4.97698 27.8799C4.77689 28.0884 4.51676 28.2049 4.19661 28.2294C3.87645 28.254 3.48857 28.2141 3.02989 28.1083L0.927341 27.6238L0.688764 28.1528L0.359375 28.0761L0.781117 26.2623L1.11051 26.339L1.09357 26.9124L3.19613 27.3969C3.5994 27.4904 3.91801 27.5303 4.15197 27.5165C4.38593 27.5027 4.56448 27.423 4.68607 27.2758C4.80767 27.1286 4.9031 26.9032 4.97237 26.6027C5.03547 26.3283 5.03393 26.1059 4.96467 25.9342C4.89541 25.7625 4.75688 25.6214 4.54601 25.5095C4.33514 25.3991 4.05346 25.3025 3.70098 25.2213L1.60613 24.7383L1.36755 25.2673L1.03047 25.1891L1.40911 23.5608L1.7462 23.6375L1.72773 24.217L3.82258 24.7C4.15659 24.7766 4.44442 24.8717 4.683 24.9821C4.92311 25.0925 5.11243 25.232 5.2525 25.3976C5.39257 25.5647 5.47722 25.7702 5.50801 26.0155C5.53725 26.2608 5.51263 26.5567 5.43259 26.9032Z" fill="white"/>
<path d="M5.89844 24.7307L5.57829 24.6188L5.65987 24.0438L2.19204 22.8356L1.87959 23.7234L2.54452 24.1266L2.41831 24.4854L1.2793 24.0883L2.49835 20.614L3.63582 21.0111L3.50806 21.376L2.74 21.2656L2.42754 22.1534L5.89537 23.3615L6.19089 22.8617L6.51105 22.9736L5.89383 24.7307H5.89844Z" fill="white"/>
<path d="M6.83749 22.1872L6.52965 22.0462L6.66818 21.4758L5.55996 20.9683L2.72782 21.2183L2.45385 21.5418L2.16602 21.4099L2.91099 19.7954L3.19882 19.9273L3.0803 20.4532L3.18959 20.5022L5.31215 20.3596L5.33062 20.3213L4.02845 18.6363L3.93918 18.5949L3.60055 19.0595L3.31272 18.9276L3.96073 17.5232L4.24856 17.6551L4.18699 18.0598L5.84471 20.3029L6.97294 20.8196L7.31311 20.3489L7.62095 20.49L6.83749 22.1872Z" fill="white"/>
<path d="M8.76072 18.6423C8.41286 19.2264 7.9865 19.5745 7.48472 19.6879C6.9814 19.8014 6.39343 19.6588 5.71926 19.2586C5.40834 19.0746 5.15129 18.8585 4.94965 18.6101C4.74802 18.3617 4.60333 18.0964 4.52022 17.8113C4.43556 17.5261 4.41555 17.2317 4.46173 16.9266C4.5079 16.6215 4.62027 16.3179 4.80035 16.0159C4.97736 15.7184 5.14667 15.4854 5.30367 15.3167C5.46221 15.1481 5.58381 15.0331 5.67 14.9702L6.65201 15.5513L6.45038 15.8901L5.70232 15.6602C5.61921 15.7261 5.52993 15.8135 5.4345 15.9223C5.33907 16.0312 5.25442 16.1477 5.18361 16.2673C4.91271 16.7227 4.84961 17.1229 4.99583 17.4678C5.14206 17.8128 5.50223 18.1562 6.07635 18.4966C6.45653 18.722 6.79208 18.8677 7.08299 18.9336C7.3739 18.9995 7.63095 18.9827 7.85413 18.8799C8.07731 18.7772 8.27125 18.5871 8.43749 18.3096C8.50675 18.193 8.56062 18.0919 8.5991 18.0045C8.63758 17.9186 8.66375 17.8373 8.67914 17.7622C8.69453 17.6871 8.70531 17.6074 8.71147 17.523L7.59093 16.8591L7.21536 17.2409L6.93061 17.0723L7.7233 15.7445L8.03883 15.9315L7.94648 16.2367L9.5334 17.1781L9.38872 17.4203L9.1486 17.4494L9.10242 17.5276C9.10396 17.6426 9.08857 17.7913 9.05471 17.9723C9.02085 18.1532 8.92388 18.377 8.76534 18.6423H8.76072Z" fill="white"/>
<path d="M9.2738 17.5692L9.00752 17.3714L9.25687 16.8378L6.31545 14.6576L5.8737 15.0486L5.60742 14.8508L7.58222 12.2075L8.55038 12.9251L8.32258 13.2286L7.613 12.8959L7.0866 13.5997L6.7649 14.0888L8.00858 15.0118L8.60271 14.2176L8.32873 13.8665L8.51805 13.6135L9.57087 14.3939L9.38155 14.6469L8.94287 14.4706L8.34874 15.2648L9.64475 16.2246C9.71401 16.1709 9.79097 16.0973 9.87409 16.0053C9.95721 15.9133 10.0342 15.8198 10.105 15.7263L10.6144 15.044L10.0742 14.4506L10.302 14.147L11.2855 14.8769L9.27226 17.5707L9.2738 17.5692Z" fill="white"/>
<path d="M10.8465 15.3537L10.6095 15.1329L10.8634 14.6867L8.17292 12.1845L7.79735 12.4405L7.54492 12.206L8.34377 11.3535L12.1949 12.0419L12.4565 12.1232L12.4765 12.1032L10.2185 10.0043L9.77984 10.2971L9.54281 10.0763L10.5864 8.96167L10.8234 9.18245L10.5695 9.62862L13.5848 12.4329L13.1276 12.9204L9.16108 12.2121L8.92866 12.14L8.91019 12.16L11.219 14.3065L11.6577 14.0136L11.8947 14.2344L10.8465 15.3537Z" fill="white"/>
<path d="M13.434 12.5816L13.2185 12.3301L13.5802 11.8656L11.1975 9.08889L10.6803 9.37254L10.4648 9.12109L12.9784 6.98071L13.7618 7.89451L13.4724 8.14136L12.8552 7.65993L12.1857 8.23029L11.7639 8.63506L12.7721 9.8095L13.5279 9.16555L13.3401 8.76231L13.5817 8.55686L14.4344 9.55039L14.1928 9.75584L13.8034 9.48599L13.0476 10.1299L14.0974 11.3519C14.1774 11.3151 14.2682 11.2599 14.3698 11.1894C14.4714 11.1173 14.5684 11.0437 14.6576 10.9671L15.3056 10.4151L14.9101 9.71598L15.1994 9.46913L15.9967 10.3983L13.4355 12.58L13.434 12.5816Z" fill="white"/>
<path d="M15.4883 10.7831L15.2989 10.5117L15.7053 10.0855L13.6135 7.08498L13.0702 7.31496L12.8809 7.04358L14.514 5.9136C14.7541 5.74801 14.988 5.63149 15.2204 5.56556C15.4513 5.49963 15.6714 5.49963 15.8761 5.56556C16.0824 5.63149 16.2671 5.78174 16.4303 6.01633C16.5457 6.18191 16.6227 6.3383 16.6627 6.48396C16.7027 6.63115 16.7135 6.7722 16.6981 6.90866C16.6811 7.04512 16.6457 7.17697 16.5919 7.3027C16.5365 7.42842 16.4687 7.55415 16.3902 7.67834L18.0772 8.43575L18.5544 8.25943L18.7437 8.53081L18.1357 8.95244C18.0433 9.01684 17.9618 9.0521 17.891 9.0567C17.8202 9.06283 17.7386 9.04444 17.6447 8.99997L15.93 8.16743L15.4729 8.48328L16.301 9.67152L16.8443 9.44154L17.0336 9.71292L15.4867 10.7831H15.4883ZM15.2235 8.12604L15.5298 7.91445C15.7038 7.79486 15.8315 7.6584 15.9146 7.50662C15.9977 7.35483 16.0347 7.19384 16.0255 7.02365C16.0162 6.85346 15.9562 6.68941 15.8454 6.53149C15.7438 6.38583 15.6391 6.28311 15.5329 6.22484C15.4267 6.16658 15.322 6.14052 15.2189 6.14358C15.1158 6.14665 15.0127 6.16965 14.9095 6.21105C14.8064 6.25398 14.7094 6.3061 14.6171 6.3705C14.5478 6.41803 14.477 6.47169 14.4062 6.52996C14.3354 6.58822 14.2723 6.64035 14.22 6.68788L15.222 8.1245L15.2235 8.12604Z" fill="white"/>
<path d="M17.5888 9.23607L17.4257 8.94016L17.7628 8.65958L17.084 4.28071L17.5534 4.02466L20.9397 6.91018L21.3953 6.77372L21.5584 7.06963L19.9561 7.94357L19.793 7.64766L20.2686 7.28428L19.5698 6.67253L18.1045 7.47287L18.2646 8.379L18.8217 8.17968L18.9849 8.47559L17.5873 9.23761L17.5888 9.23607ZM18.026 7.0037L19.2127 6.35669L17.8936 5.18684L17.6935 4.96759L17.6504 4.99059L17.7335 5.2727L18.026 7.0037Z" fill="white"/>
<path d="M20.6312 7.56019L20.5004 7.25661L20.9837 6.9193L19.5338 3.56462L18.9551 3.68268L18.8242 3.3791L20.5866 2.62476L20.7251 2.94673L20.2064 3.29171L21.6363 6.60193L22.1997 6.41334L22.9385 6.0975L22.7861 5.33702L23.1417 5.1837L23.6158 6.27995L20.6297 7.56019H20.6312Z" fill="white"/>
<path d="M22.4 6.70923L22.2969 6.38878L22.6801 6.1772L22.8402 1.74926L23.3497 1.58521L26.131 5.05335L26.6036 5.00429L26.7067 5.32473L24.9689 5.88282L24.8658 5.56238L25.4014 5.29406L24.8304 4.56272L23.2404 5.07328L23.2266 5.99321L23.8115 5.90122L23.9146 6.22166L22.3985 6.70923H22.4ZM23.2496 4.59952L24.538 4.18555L23.4636 2.78878L23.3081 2.5358L23.262 2.55113L23.2897 2.84398L23.2496 4.59798V4.59952Z" fill="white"/>
<path d="M27.1172 5.40905C26.9063 5.45505 26.7032 5.47958 26.5092 5.48265C26.3153 5.48418 26.146 5.47192 26.0028 5.44432C25.8597 5.41672 25.7504 5.38606 25.6765 5.35539L25.441 4.299L25.8335 4.21161L26.1213 4.88929C26.2306 4.94756 26.3692 4.98282 26.5354 4.99969C26.7016 5.01502 26.8602 5.00735 27.0064 4.97515C27.3373 4.90156 27.5651 4.78503 27.6913 4.62558C27.8175 4.46612 27.8545 4.27141 27.8037 4.04296C27.7698 3.8881 27.7006 3.76851 27.5974 3.68572C27.4943 3.60292 27.365 3.53853 27.208 3.49406C27.051 3.4496 26.8679 3.40974 26.6585 3.37447C26.4877 3.34534 26.3137 3.31161 26.1383 3.27328C25.9613 3.23495 25.795 3.18282 25.6396 3.11383C25.4841 3.04483 25.3517 2.94824 25.2425 2.82405C25.1332 2.69986 25.0562 2.53733 25.0116 2.33495C24.9546 2.0789 24.9669 1.84432 25.0501 1.63274C25.1332 1.42115 25.2748 1.2387 25.478 1.08844C25.6811 0.938187 25.9351 0.829328 26.2429 0.761866C26.3984 0.726602 26.56 0.700538 26.7278 0.683672C26.894 0.666807 27.0464 0.656074 27.1834 0.654541C27.3204 0.654541 27.4235 0.656074 27.4928 0.665274L27.736 1.75539L27.3573 1.83972L27.0664 1.18503C26.9802 1.16664 26.874 1.1559 26.7463 1.1559C26.6185 1.1559 26.4784 1.17124 26.3276 1.20497C26.0382 1.26936 25.8351 1.36902 25.7196 1.50548C25.6026 1.64193 25.5672 1.81212 25.6134 2.01757C25.6534 2.19543 25.7319 2.32575 25.8489 2.40854C25.9659 2.49134 26.109 2.5496 26.2783 2.58333C26.4477 2.61706 26.6262 2.65079 26.8171 2.67992C27.0618 2.71672 27.2927 2.76732 27.5112 2.82865C27.7298 2.88998 27.9161 2.9881 28.0715 3.12149C28.2254 3.25488 28.3332 3.45267 28.3917 3.71331C28.4471 3.96476 28.4486 4.18708 28.3963 4.3818C28.3439 4.57498 28.2531 4.74057 28.1238 4.87703C27.9961 5.01348 27.8437 5.12541 27.6682 5.21587C27.4928 5.3048 27.3111 5.37072 27.1234 5.41212L27.1172 5.40905Z" fill="white"/>
<path d="M29.4315 4.99042C29.2176 5.01955 29.0128 5.02722 28.8189 5.01495C28.625 5.00269 28.4572 4.97509 28.3171 4.93523C28.177 4.89536 28.0708 4.85703 27.9985 4.8187L27.8507 3.74698L28.2494 3.69178L28.4818 4.39093C28.5865 4.45686 28.7204 4.50439 28.8866 4.53352C29.0513 4.56265 29.2083 4.56725 29.3576 4.54732C29.6932 4.50132 29.9302 4.4032 30.0687 4.25448C30.2073 4.10575 30.2596 3.91563 30.2288 3.68259C30.2073 3.52466 30.1488 3.40047 30.0533 3.31001C29.9579 3.21955 29.8332 3.14442 29.6808 3.0877C29.5285 3.03097 29.3484 2.97577 29.1421 2.92364C28.9744 2.88071 28.805 2.83318 28.6311 2.78105C28.4572 2.72892 28.2971 2.66299 28.1478 2.58173C27.9985 2.50047 27.8754 2.39315 27.7753 2.26129C27.6768 2.1279 27.6122 1.95925 27.5845 1.75533C27.5491 1.49621 27.5798 1.26316 27.6799 1.05771C27.7799 0.852262 27.9369 0.683607 28.1509 0.550217C28.3648 0.416827 28.628 0.329434 28.9405 0.286504C29.099 0.265038 29.2622 0.25124 29.43 0.248173C29.5977 0.243573 29.7501 0.248173 29.8871 0.255839C30.0241 0.265038 30.1257 0.277304 30.1949 0.291103L30.3473 1.39809L29.9625 1.45022L29.727 0.774067C29.6424 0.748003 29.5362 0.729604 29.41 0.718872C29.2822 0.708139 29.1421 0.712739 28.9882 0.734204C28.6942 0.774067 28.4849 0.858394 28.3571 0.984118C28.2294 1.10984 28.1801 1.2785 28.2094 1.48701C28.234 1.66793 28.3017 1.80439 28.411 1.89485C28.5203 1.98531 28.6588 2.05584 28.8251 2.10337C28.9913 2.1509 29.1668 2.19843 29.353 2.24289C29.5931 2.29962 29.8194 2.36862 30.0333 2.44681C30.2457 2.52654 30.4243 2.63846 30.5674 2.78412C30.7106 2.92977 30.8014 3.13523 30.8368 3.39894C30.8722 3.65499 30.8553 3.87577 30.786 4.06589C30.7167 4.25601 30.6136 4.4124 30.4735 4.53812C30.3335 4.66385 30.1734 4.7635 29.9918 4.83863C29.8101 4.91376 29.6239 4.96436 29.433 4.99042H29.4315Z" fill="white"/>
<path d="M32.3987 4.75295C31.7076 4.77748 31.1751 4.59349 30.7995 4.20405C30.4239 3.81462 30.2238 3.25346 30.1977 2.52364C30.1808 2.06061 30.2546 1.64204 30.4178 1.26794C30.5809 0.893831 30.8288 0.594854 31.1597 0.366404C31.4906 0.139487 31.9031 0.0168297 32.3957 -3.5712e-05C32.8282 -0.0153679 33.1991 0.0612931 33.5116 0.228414C33.824 0.395535 34.0657 0.646983 34.2396 0.979692C34.4136 1.3124 34.509 1.72177 34.5259 2.2032C34.5382 2.54971 34.5059 2.87475 34.4289 3.1768C34.352 3.47884 34.2273 3.74562 34.0549 3.97714C33.8825 4.20712 33.6578 4.39111 33.3823 4.52756C33.1068 4.66402 32.7789 4.73761 32.3987 4.75141V4.75295ZM32.5234 4.28378C32.8097 4.27458 33.0421 4.19945 33.2176 4.05993C33.3931 3.92041 33.5208 3.71036 33.5978 3.43131C33.6747 3.15226 33.7071 2.80269 33.6917 2.38105C33.6778 1.98395 33.6363 1.65737 33.5655 1.40439C33.4947 1.15141 33.3992 0.956693 33.2776 0.820237C33.156 0.68378 33.0129 0.588721 32.8513 0.536591C32.6896 0.484462 32.508 0.45993 32.3064 0.467596C32.1602 0.472196 32.0216 0.492128 31.8893 0.524325C31.7569 0.556523 31.6353 0.611719 31.5245 0.68838C31.4137 0.765041 31.3198 0.875433 31.2428 1.01802C31.1658 1.16061 31.1089 1.34613 31.0719 1.57151C31.035 1.7969 31.0227 2.07441 31.0335 2.40252C31.0504 2.87015 31.1166 3.24426 31.2351 3.5233C31.3536 3.80235 31.5199 4.00167 31.7353 4.12126C31.9508 4.24085 32.214 4.29451 32.525 4.28378H32.5234Z" fill="white"/>
<path d="M35.945 4.82813C35.237 4.77293 34.7291 4.53375 34.4212 4.10905C34.1134 3.68588 33.9887 3.10326 34.0472 2.36118C34.0734 2.0346 34.1488 1.72949 34.275 1.44585C34.4012 1.1622 34.5721 0.915353 34.786 0.706835C35 0.498317 35.2493 0.341929 35.5341 0.23767C35.8188 0.133411 36.1359 0.0950802 36.4868 0.122678C36.7547 0.144143 37.0071 0.18094 37.2457 0.234603C37.4843 0.288266 37.6813 0.349595 37.8352 0.41859L37.7444 1.56697L37.3365 1.53477L37.2488 0.76663C37.1395 0.725234 37.0086 0.686903 36.8578 0.651639C36.707 0.616375 36.5546 0.593377 36.4007 0.581111C36.0867 0.556579 35.825 0.605642 35.6141 0.731366C35.4032 0.855557 35.2386 1.05794 35.117 1.33699C34.9954 1.61603 34.9184 1.97941 34.8815 2.42864C34.8553 2.76442 34.863 3.05266 34.9045 3.29338C34.9461 3.53409 35.02 3.73188 35.1231 3.88827C35.2262 4.04465 35.3602 4.16271 35.5233 4.24397C35.6865 4.32523 35.8789 4.3743 36.099 4.39116C36.2575 4.40343 36.3976 4.40189 36.5161 4.38503C36.6346 4.36816 36.7347 4.34517 36.8147 4.31297C36.8947 4.28077 36.9594 4.25624 37.0086 4.23631L37.2164 3.49116L37.6166 3.52336L37.5273 4.65028C37.435 4.68094 37.3196 4.71314 37.1795 4.74994C37.0394 4.78673 36.8686 4.81433 36.6669 4.83273C36.4653 4.85266 36.2236 4.85113 35.942 4.82813H35.945Z" fill="white"/>
<path d="M36.918 4.82188L36.9703 4.48918L37.5521 4.46464L38.1109 0.855445L37.5629 0.65766L37.6137 0.324951L39.4669 0.61013L39.4161 0.942839L38.8343 0.96737L38.2755 4.57657L38.8235 4.77435L38.7712 5.10706L36.918 4.82188Z" fill="white"/>
<path d="M37.7891 4.86632L37.866 4.53821L38.3047 4.55355L40.7289 0.840088L41.2507 0.961212L41.8433 5.36155L42.2743 5.5624L42.1973 5.89051L40.418 5.47808L40.495 5.14997L41.0922 5.19443L40.9814 4.2745L39.3544 3.89733L38.868 4.67927L39.4175 4.90005L39.3406 5.22816L37.7891 4.86786V4.86632ZM39.6084 3.49256L40.9275 3.7992L40.7274 2.05133L40.7243 1.75542L40.6766 1.74469L40.5489 2.01147L39.6084 3.49562V3.49256Z" fill="white"/>
<path d="M41.6754 5.80623L41.7816 5.48579L42.3588 5.55938L43.5193 2.08817L42.6235 1.79073L42.2295 2.45921L41.8678 2.33962L42.2495 1.20044L45.7543 2.36415L45.3725 3.50334L45.0047 3.38068L45.1047 2.61407L44.2089 2.31662L43.0483 5.78783L43.5547 6.07454L43.447 6.39499L41.6738 5.80623H41.6754Z" fill="white"/>
<path d="M43.4902 6.41042L43.618 6.09917L44.189 6.2111L45.5805 2.83188L45.0941 2.51297L45.2218 2.2002L46.9581 2.90854L46.8303 3.22132L46.2593 3.10939L44.8678 6.48861L45.3542 6.80905L45.2265 7.12183L43.4902 6.41348V6.41042Z" fill="white"/>
<path d="M46.4966 7.86068C45.8824 7.54637 45.5053 7.1278 45.3683 6.60497C45.2313 6.08215 45.3298 5.49492 45.6654 4.84637C45.8778 4.43393 46.1472 4.10429 46.4719 3.85744C46.7967 3.6106 47.16 3.46801 47.5601 3.43121C47.9603 3.39288 48.379 3.4864 48.8192 3.71179C49.204 3.90804 49.4918 4.15642 49.6812 4.45233C49.872 4.74978 49.9613 5.08555 49.949 5.46119C49.9382 5.83683 49.8212 6.24007 49.5996 6.66937C49.441 6.97755 49.2533 7.24586 49.0393 7.47278C48.8238 7.69969 48.5853 7.87141 48.3205 7.98947C48.0558 8.10753 47.771 8.15812 47.4647 8.14279C47.1584 8.12746 46.8352 8.03393 46.4966 7.86068ZM46.8336 7.51264C47.0891 7.64296 47.3277 7.69049 47.5494 7.6537C47.771 7.6169 47.985 7.49577 48.1881 7.29032C48.3929 7.08334 48.5914 6.79356 48.7838 6.41792C48.967 6.06375 49.0886 5.76017 49.1517 5.50412C49.2148 5.24961 49.2256 5.03189 49.1855 4.85404C49.1455 4.67618 49.067 4.52439 48.9531 4.39867C48.8377 4.27448 48.6899 4.16562 48.5098 4.07363C48.3805 4.0077 48.2497 3.95557 48.1173 3.92031C47.985 3.88504 47.8526 3.87278 47.7187 3.88657C47.5848 3.90037 47.4493 3.94944 47.3123 4.03836C47.1753 4.12576 47.0337 4.25915 46.8921 4.43853C46.749 4.61792 46.6028 4.85404 46.4519 5.14535C46.2364 5.56238 46.1133 5.92116 46.0794 6.22167C46.0456 6.52218 46.0933 6.77823 46.2241 6.98675C46.3549 7.19526 46.5581 7.37005 46.8336 7.51111V7.51264Z" fill="white"/>
<path d="M47.9043 8.40807L48.0875 8.14129L48.5677 8.32527L50.6533 5.3033L50.3439 4.97212L50.5394 4.68848L51.5045 5.34929L51.3921 9.24367L51.3506 9.51352L51.3737 9.52885L53.1237 6.99444L52.7682 6.605L52.9513 6.33822L54.2119 7.20142L54.0288 7.4682L53.5486 7.28422L51.212 10.6696L50.6595 10.2909L50.7764 6.27843L50.8134 6.03924L50.7903 6.02391L49.0002 8.61659L49.3558 9.00602L49.1726 9.2728L47.9058 8.405L47.9043 8.40807Z" fill="white"/>
</g>
<defs>
<linearGradient id="paint0_linear_695_595" x1="33.684" y1="45.7806" x2="46.5442" y2="34.6428" gradientUnits="userSpaceOnUse">
<stop stop-color="#2E9BBE"/>
<stop offset="0.11" stop-color="#3993B9"/>
<stop offset="0.29" stop-color="#567FAC"/>
<stop offset="0.54" stop-color="#865F97"/>
<stop offset="0.55" stop-color="#895E96"/>
<stop offset="0.78" stop-color="#B7427E"/>
<stop offset="1" stop-color="#E62766"/>
</linearGradient>
<linearGradient id="paint1_linear_695_595" x1="46.752" y1="40.6657" x2="24.4459" y2="40.6657" gradientUnits="userSpaceOnUse">
<stop stop-color="#D92474"/>
<stop offset="0.07" stop-color="#C73175"/>
<stop offset="0.3" stop-color="#905F7B"/>
<stop offset="0.52" stop-color="#648280"/>
<stop offset="0.72" stop-color="#459C83"/>
<stop offset="0.89" stop-color="#31AC85"/>
<stop offset="1" stop-color="#2BB286"/>
</linearGradient>
<linearGradient id="paint2_linear_695_595" x1="17.8889" y1="31.4465" x2="23.9383" y2="37.2947" gradientUnits="userSpaceOnUse">
<stop stop-color="#2E9BBE"/>
<stop offset="1" stop-color="#2BB286"/>
</linearGradient>
<radialGradient id="paint3_radial_695_595" cx="0" cy="0" r="1" gradientUnits="userSpaceOnUse" gradientTransform="translate(33.9733 30.3087) scale(20.2036 20.125)">
<stop stop-color="#F5DE48"/>
<stop offset="0.35" stop-color="#F4DB48"/>
<stop offset="0.5" stop-color="#F4D449"/>
<stop offset="0.61" stop-color="#F3C84B"/>
<stop offset="0.7" stop-color="#F1B64E"/>
<stop offset="0.78" stop-color="#EF9F52"/>
<stop offset="0.85" stop-color="#ED8356"/>
<stop offset="0.91" stop-color="#EA615C"/>
<stop offset="0.97" stop-color="#E73B62"/>
<stop offset="1" stop-color="#E62766"/>
</radialGradient>
<clipPath id="clip0_695_595">
<rect width="262" height="54" fill="white"/>
</clipPath>
</defs>
</svg>
