<svg width="199" height="55" viewBox="0 0 199 55" fill="none" xmlns="http://www.w3.org/2000/svg">
<g clip-path="url(#clip0_160_2802)">
<path d="M64.7988 52.8465V46.584H65.7449V49.5714H65.8268L68.4286 46.584H69.6174L67.1099 49.4034L69.6267 52.8465H68.4842L66.4839 50.0519L65.7449 50.9057V52.848H64.7988V52.8465Z" fill="black"/>
<path d="M71.9504 52.941C71.516 52.941 71.1341 52.8399 70.8049 52.6378C70.4756 52.4356 70.219 52.1526 70.0381 51.7856C69.8572 51.4201 69.7676 50.9971 69.7676 50.5182C69.7676 50.0392 69.8572 49.61 70.0381 49.2429C70.219 48.8759 70.4741 48.5914 70.8049 48.3892C71.1357 48.187 71.5175 48.0859 71.9504 48.0859C72.3832 48.0859 72.7651 48.187 73.0943 48.3892C73.4236 48.5914 73.6787 48.8759 73.858 49.2429C74.0373 49.61 74.127 50.0345 74.127 50.5182C74.127 51.0018 74.0373 51.4201 73.858 51.7856C73.6787 52.151 73.4252 52.4356 73.0943 52.6378C72.7651 52.8399 72.3832 52.941 71.9504 52.941ZM71.9535 52.1697C72.2256 52.1697 72.4543 52.0966 72.6414 51.9489C72.8284 51.8027 72.9691 51.6036 73.0619 51.3533C73.1546 51.1029 73.201 50.823 73.201 50.515C73.201 50.2071 73.1546 49.9272 73.0619 49.6768C72.9691 49.4265 72.8284 49.2258 72.6414 49.0781C72.4543 48.9304 72.224 48.8542 71.9535 48.8542C71.6829 48.8542 71.4449 48.9288 71.2563 49.0781C71.0677 49.2274 70.9255 49.4265 70.8327 49.6768C70.7399 49.9272 70.6936 50.2071 70.6936 50.515C70.6936 50.823 70.7399 51.1029 70.8327 51.3533C70.9255 51.6036 71.0677 51.8027 71.2563 51.9489C71.4464 52.095 71.6783 52.1697 71.9535 52.1697Z" fill="black"/>
<path d="M75.0353 52.8465V48.1501H75.9227V48.8996H75.9706C76.0278 48.7317 76.1144 48.587 76.2303 48.4626C76.3462 48.3382 76.4854 48.2434 76.6431 48.178C76.8023 48.1127 76.9723 48.0801 77.1516 48.0801C77.2166 48.0801 77.2846 48.0801 77.3542 48.0847C77.4237 48.0894 77.4871 48.0941 77.5443 48.1018V48.982C77.4917 48.9696 77.4191 48.9572 77.3279 48.9447C77.2367 48.9323 77.1501 48.9261 77.0666 48.9261C76.8533 48.9261 76.6631 48.9712 76.4931 49.0614C76.3231 49.1516 76.1916 49.2775 76.0943 49.4393C75.9984 49.601 75.9505 49.7829 75.9505 49.9851V52.8481H75.0322L75.0353 52.8465Z" fill="black"/>
<path d="M80.0966 52.941C79.6421 52.941 79.2479 52.8415 78.9125 52.644C78.577 52.4465 78.3204 52.165 78.1411 51.8011C77.9617 51.4372 77.8721 51.0127 77.8721 50.5275C77.8721 50.0423 77.9617 49.6271 78.1411 49.2569C78.3204 48.8868 78.5724 48.5991 78.9001 48.3939C79.2263 48.1886 79.6035 48.0859 80.0301 48.0859C80.4073 48.0859 80.7521 48.1684 81.0659 48.3316C81.3797 48.4965 81.6301 48.7546 81.8218 49.1077C82.0135 49.4607 82.1078 49.907 82.1078 50.4466V50.7732H78.3869V50.0827H81.205C81.205 49.8448 81.1571 49.6317 81.0613 49.4467C80.9654 49.2616 80.8294 49.1139 80.6531 49.0066C80.4769 48.8993 80.2744 48.8448 80.0456 48.8448C79.7983 48.8448 79.5787 48.9055 79.3886 49.0283C79.1984 49.1512 79.05 49.3129 78.9465 49.5151C78.8413 49.7173 78.7888 49.9365 78.7872 50.1729V50.7079C78.7872 51.0158 78.8413 51.2802 78.9511 51.5025C79.0609 51.7249 79.2139 51.8929 79.4133 52.008C79.6128 52.123 79.8431 52.1806 80.1059 52.1806C80.2728 52.1806 80.4228 52.1588 80.5557 52.1137C80.6902 52.0686 80.8031 52.008 80.8974 51.9302C80.9917 51.8524 81.0643 51.7638 81.1185 51.6643H82.0491C81.9795 51.9193 81.8558 52.1433 81.6781 52.3361C81.5003 52.5289 81.2761 52.6782 81.0056 52.7824C80.7366 52.8866 80.4336 52.9395 80.0997 52.9395L80.0966 52.941Z" fill="black"/>
<path d="M85.8341 50.7206C85.8125 50.7206 85.7723 50.7222 85.7167 50.7268C85.661 50.7315 85.593 50.7346 85.5111 50.7393C85.3596 50.7502 85.2065 50.7595 85.0535 50.7704C84.9004 50.7813 84.7737 50.789 84.6716 50.7984C84.3609 50.8201 84.1213 50.8932 83.9512 51.0145C83.7812 51.1358 83.6962 51.3085 83.6962 51.5324C83.6962 51.6786 83.7333 51.803 83.809 51.9056C83.8848 52.0083 83.9883 52.0845 84.1213 52.1358C84.2542 52.1871 84.4073 52.2135 84.5789 52.2135C84.8216 52.2135 85.0334 52.1653 85.2127 52.0674C85.392 51.9694 85.5296 51.8403 85.627 51.677C85.7244 51.5153 85.7723 51.3396 85.7723 51.1529L85.7692 49.6694C85.7692 49.4921 85.7337 49.3412 85.661 49.2153C85.5899 49.0893 85.4817 48.9944 85.341 48.9307C85.1988 48.8669 85.0256 48.8343 84.8185 48.8343C84.6438 48.8343 84.4908 48.8591 84.3563 48.9089C84.2218 48.9587 84.1136 49.0286 84.0301 49.1188C83.9466 49.209 83.8894 49.3132 83.8585 49.4314H82.9433C82.9742 49.1733 83.0701 48.9416 83.234 48.7378C83.3963 48.5341 83.6173 48.3755 83.8956 48.2604C84.1739 48.1469 84.4923 48.0894 84.8525 48.0894C85.1524 48.0894 85.4384 48.1345 85.7089 48.2262C85.9795 48.318 86.2114 48.4859 86.4 48.7301C86.5885 48.9742 86.6844 49.307 86.6844 49.7269V52.8465H85.7909V52.2042H85.7538C85.6888 52.3348 85.5961 52.4561 85.477 52.5681C85.358 52.6801 85.205 52.7718 85.0179 52.8434C84.8309 52.9149 84.616 52.9507 84.3733 52.9507C84.0749 52.9507 83.8075 52.8947 83.5679 52.7827C83.3283 52.6707 83.1397 52.5075 83.0021 52.2913C82.8645 52.0767 82.7949 51.8185 82.7949 51.52C82.7949 51.0363 82.9588 50.6911 83.2865 50.4827C83.6142 50.2743 84.0316 50.153 84.5402 50.1157C84.6825 50.1048 84.8494 50.0955 85.0411 50.0846C85.2328 50.0737 85.4121 50.0659 85.5806 50.0566C85.6394 50.0519 85.6888 50.0504 85.7306 50.0488C85.7723 50.0473 85.8017 50.0488 85.8202 50.0488L85.8326 50.7222L85.8341 50.7206Z" fill="black"/>
<path d="M90.0166 52.8465V46.584H92.303C92.7312 46.584 93.0914 46.6555 93.3867 46.797C93.6819 46.9386 93.9014 47.1345 94.0483 47.3833C94.1936 47.6321 94.2678 47.9152 94.2678 48.2309C94.2678 48.4812 94.2214 48.6974 94.1302 48.8778C94.039 49.0582 93.9138 49.2028 93.7577 49.3101C93.6015 49.4174 93.4207 49.4983 93.2166 49.5512V49.6118C93.433 49.6242 93.6402 49.6927 93.8381 49.8186C94.0359 49.9446 94.1967 50.1219 94.3235 50.3536C94.4487 50.5853 94.5121 50.8543 94.5121 51.1623C94.5121 51.4919 94.4348 51.7843 94.2833 52.0347C94.1302 52.2866 93.8968 52.4841 93.583 52.6287C93.2692 52.7734 92.8781 52.8465 92.4097 52.8465H90.0197H90.0166ZM92.2164 49.2899C92.4267 49.2899 92.6183 49.2495 92.7884 49.167C92.9584 49.0862 93.0929 48.9695 93.1903 48.8218C93.2877 48.6741 93.3356 48.4999 93.3356 48.3024C93.3356 48.1267 93.2954 47.9712 93.2135 47.8343C93.1331 47.6975 93.0095 47.5901 92.8456 47.5139C92.6817 47.4362 92.4792 47.3973 92.2411 47.3973H90.9611V49.2899H92.2164ZM92.3138 52.03C92.6044 52.03 92.8425 51.9911 93.028 51.9118C93.2151 51.8341 93.3511 51.7252 93.4377 51.5899C93.5242 51.4531 93.5691 51.296 93.5691 51.1156C93.5691 50.9166 93.5181 50.7331 93.4176 50.5682C93.3155 50.4034 93.1733 50.2727 92.9894 50.1763C92.8054 50.0799 92.5905 50.0332 92.3478 50.0332H90.9611V52.03H92.3138Z" fill="black"/>
<path d="M97.4609 52.941C97.0064 52.941 96.6122 52.8415 96.2767 52.644C95.9413 52.4465 95.6846 52.165 95.5053 51.8011C95.326 51.4372 95.2363 51.0127 95.2363 50.5275C95.2363 50.0423 95.326 49.6271 95.5053 49.2569C95.6846 48.8868 95.9366 48.5991 96.2644 48.3939C96.5905 48.1886 96.9677 48.0859 97.3944 48.0859C97.7716 48.0859 98.1163 48.1684 98.4301 48.3316C98.744 48.4965 98.9944 48.7546 99.1861 49.1077C99.3778 49.4607 99.4721 49.907 99.4721 50.4466V50.7732H95.7511V50.0827H98.5693C98.5693 49.8448 98.5214 49.6317 98.4255 49.4467C98.3297 49.2616 98.1936 49.1139 98.0174 49.0066C97.8412 48.8993 97.6386 48.8448 97.4099 48.8448C97.1625 48.8448 96.943 48.9055 96.7529 49.0283C96.5627 49.1512 96.4143 49.3129 96.3107 49.5151C96.2056 49.7173 96.153 49.9365 96.1515 50.1729V50.7079C96.1515 51.0158 96.2056 51.2802 96.3154 51.5025C96.4251 51.7249 96.5782 51.8929 96.7776 52.008C96.977 52.123 97.2073 52.1806 97.4701 52.1806C97.6371 52.1806 97.7871 52.1588 97.92 52.1137C98.0545 52.0686 98.1673 52.008 98.2616 51.9302C98.3559 51.8524 98.4286 51.7638 98.4827 51.6643H99.4133C99.3438 51.9193 99.2201 52.1433 99.0423 52.3361C98.8645 52.5289 98.6404 52.6782 98.3699 52.7824C98.1009 52.8866 97.7979 52.9395 97.464 52.9395L97.4609 52.941Z" fill="black"/>
<path d="M103.197 50.7206C103.176 50.7206 103.136 50.7222 103.08 50.7268C103.024 50.7315 102.956 50.7346 102.874 50.7393C102.723 50.7502 102.57 50.7595 102.417 50.7704C102.264 50.7813 102.137 50.789 102.035 50.7984C101.724 50.8201 101.485 50.8932 101.315 51.0145C101.144 51.1358 101.059 51.3085 101.059 51.5324C101.059 51.6786 101.097 51.803 101.172 51.9056C101.248 52.0083 101.352 52.0845 101.485 52.1358C101.618 52.1871 101.771 52.2135 101.942 52.2135C102.185 52.2135 102.397 52.1653 102.576 52.0674C102.755 51.9694 102.893 51.8403 102.99 51.677C103.088 51.5153 103.136 51.3396 103.136 51.1529L103.133 49.6694C103.133 49.4921 103.097 49.3412 103.024 49.2153C102.953 49.0893 102.845 48.9944 102.704 48.9307C102.562 48.8669 102.389 48.8343 102.182 48.8343C102.007 48.8343 101.854 48.8591 101.72 48.9089C101.585 48.9587 101.477 49.0286 101.393 49.1188C101.31 49.209 101.253 49.3132 101.222 49.4314H100.307C100.338 49.1733 100.433 48.9416 100.597 48.7378C100.76 48.5341 100.981 48.3755 101.259 48.2604C101.537 48.1469 101.856 48.0894 102.216 48.0894C102.516 48.0894 102.802 48.1345 103.072 48.2262C103.343 48.318 103.575 48.4859 103.763 48.7301C103.952 48.9742 104.048 49.307 104.048 49.7269V52.8465H103.154V52.2042H103.117C103.052 52.3348 102.959 52.4561 102.84 52.5681C102.721 52.6801 102.568 52.7718 102.381 52.8434C102.194 52.9149 101.979 52.9507 101.737 52.9507C101.438 52.9507 101.171 52.8947 100.931 52.7827C100.692 52.6707 100.503 52.5075 100.365 52.2913C100.228 52.0767 100.158 51.8185 100.158 51.52C100.158 51.0363 100.322 50.6911 100.65 50.4827C100.978 50.2743 101.395 50.153 101.904 50.1157C102.046 50.1048 102.213 50.0955 102.404 50.0846C102.596 50.0737 102.775 50.0659 102.944 50.0566C103.003 50.0519 103.052 50.0504 103.094 50.0488C103.136 50.0473 103.165 50.0488 103.184 50.0488L103.196 50.7222L103.197 50.7206Z" fill="black"/>
<path d="M108.121 50.8948V48.1484H109.033V52.8449H108.136V52.0316H108.088C108.016 52.2026 107.914 52.355 107.782 52.4872C107.652 52.6194 107.495 52.7221 107.309 52.7967C107.125 52.8698 106.92 52.9071 106.692 52.9071C106.388 52.9071 106.12 52.8387 105.89 52.7034C105.658 52.5681 105.479 52.3675 105.35 52.1016C105.222 51.8356 105.157 51.5137 105.157 51.1374V48.15H106.075V51.0239C106.075 51.2338 106.116 51.4173 106.195 51.5759C106.273 51.7346 106.385 51.8559 106.528 51.9414C106.672 52.0269 106.838 52.0705 107.025 52.0705C107.212 52.0705 107.379 52.0269 107.547 51.9398C107.716 51.8527 107.853 51.719 107.96 51.5417C108.068 51.3644 108.121 51.1498 108.121 50.8963V50.8948Z" fill="black"/>
<path d="M112.335 48.1498V48.887H109.781V48.1498H112.335ZM110.466 47.0239H111.384V51.4638C111.384 51.6302 111.409 51.7593 111.457 51.851C111.505 51.9428 111.57 52.005 111.652 52.0392C111.732 52.0734 111.83 52.0905 111.944 52.0905C111.992 52.0905 112.048 52.0905 112.109 52.0874C112.171 52.0858 112.231 52.0827 112.29 52.0781C112.31 52.0765 112.329 52.075 112.347 52.0734C112.366 52.0719 112.383 52.0734 112.398 52.0734V52.8681C112.233 52.8945 112.043 52.9085 111.83 52.9085C111.581 52.9085 111.352 52.8619 111.146 52.7701C110.939 52.6768 110.774 52.5368 110.65 52.3487C110.526 52.1605 110.465 51.9288 110.465 51.6566V47.027L110.466 47.0239Z" fill="black"/>
<path d="M113.798 54.6084C113.702 54.6084 113.611 54.6084 113.524 54.6038C113.438 54.5991 113.364 54.596 113.305 54.5898L113.311 53.8169C113.336 53.8169 113.36 53.8169 113.385 53.82C113.41 53.8231 113.438 53.8231 113.466 53.8231C113.565 53.8277 113.65 53.8293 113.721 53.8293C113.838 53.8293 113.936 53.8184 114.013 53.7966C114.09 53.7749 114.166 53.7189 114.242 53.6302C114.317 53.54 114.39 53.4032 114.46 53.2166L114.576 52.9102L112.864 48.1484H113.846L115.022 51.7905H115.07L116.253 48.1484H117.234L115.31 53.4701C115.174 53.8464 114.982 54.131 114.735 54.3223C114.487 54.5136 114.175 54.6084 113.795 54.6084H113.798Z" fill="black"/>
<path d="M124.415 48.5618C124.338 48.3145 124.225 48.103 124.077 47.9242C123.928 47.7453 123.746 47.6085 123.531 47.5121C123.316 47.4157 123.073 47.3675 122.801 47.3675C122.447 47.3675 122.129 47.4592 121.851 47.6427C121.571 47.8262 121.35 48.0937 121.189 48.4467C121.028 48.7997 120.948 49.2212 120.948 49.7126C120.948 50.204 121.028 50.6317 121.187 50.9847C121.348 51.3377 121.571 51.6052 121.858 51.7887C122.144 51.9722 122.474 52.0639 122.841 52.0639C123.174 52.0639 123.466 51.9939 123.72 51.8555C123.973 51.7171 124.168 51.5212 124.305 51.2661C124.443 51.0111 124.513 50.7156 124.513 50.3782L124.755 50.4233H122.977V49.641H125.431V50.3502C125.431 50.868 125.321 51.3221 125.102 51.7125C124.882 52.1028 124.574 52.4029 124.182 52.6144C123.789 52.8259 123.341 52.9317 122.838 52.9317C122.277 52.9317 121.783 52.801 121.354 52.5398C120.926 52.2785 120.595 51.9069 120.36 51.4217C120.125 50.9365 120.008 50.3688 120.008 49.7172C120.008 49.0656 120.127 48.4918 120.365 48.0066C120.603 47.5214 120.934 47.1466 121.356 46.8869C121.778 46.6272 122.259 46.4966 122.795 46.4966C123.237 46.4966 123.642 46.5837 124.012 46.7563C124.381 46.9305 124.684 47.1731 124.924 47.4856C125.163 47.7982 125.318 48.1575 125.389 48.5602H124.417L124.415 48.5618Z" fill="black"/>
<path d="M128.457 52.941C128.002 52.941 127.608 52.8415 127.273 52.644C126.937 52.4465 126.681 52.165 126.501 51.8011C126.322 51.4372 126.232 51.0127 126.232 50.5275C126.232 50.0423 126.322 49.6271 126.501 49.2569C126.681 48.8868 126.933 48.5991 127.26 48.3939C127.587 48.1886 127.964 48.0859 128.39 48.0859C128.768 48.0859 129.112 48.1684 129.426 48.3316C129.74 48.4965 129.99 48.7546 130.182 49.1077C130.374 49.4607 130.468 49.907 130.468 50.4466V50.7732H126.747V50.0827H129.565C129.565 49.8448 129.517 49.6317 129.422 49.4467C129.326 49.2616 129.19 49.1139 129.013 49.0066C128.837 48.8993 128.635 48.8448 128.406 48.8448C128.159 48.8448 127.939 48.9055 127.749 49.0283C127.559 49.1512 127.41 49.3129 127.307 49.5151C127.202 49.7173 127.149 49.9365 127.148 50.1729V50.7079C127.148 51.0158 127.202 51.2802 127.311 51.5025C127.421 51.7249 127.574 51.8929 127.774 52.008C127.973 52.123 128.203 52.1806 128.466 52.1806C128.633 52.1806 128.783 52.1588 128.916 52.1137C129.051 52.0686 129.163 52.008 129.258 51.9302C129.352 51.8524 129.425 51.7638 129.479 51.6643H130.409C130.34 51.9193 130.216 52.1433 130.038 52.3361C129.861 52.5289 129.636 52.6782 129.366 52.7824C129.097 52.8866 128.794 52.9395 128.46 52.9395L128.457 52.941Z" fill="black"/>
<path d="M132.294 50.0612V52.8465H131.376V48.15H132.257V48.9182H132.314C132.389 48.7487 132.491 48.6025 132.617 48.4781C132.744 48.3537 132.897 48.2573 133.078 48.1904C133.259 48.1236 133.463 48.0894 133.692 48.0894C134.012 48.0894 134.292 48.1578 134.531 48.2931C134.771 48.4284 134.955 48.629 135.086 48.8934C135.218 49.1593 135.282 49.4812 135.282 49.8591V52.8465H134.364V49.9726C134.364 49.7487 134.324 49.5543 134.245 49.3894C134.166 49.2261 134.053 49.1002 133.907 49.0147C133.76 48.9291 133.584 48.8856 133.379 48.8856C133.175 48.8856 132.979 48.9322 132.817 49.024C132.654 49.1173 132.528 49.251 132.433 49.4283C132.341 49.604 132.294 49.8155 132.294 50.0597V50.0612Z" fill="black"/>
<path d="M138.41 52.941C137.956 52.941 137.561 52.8415 137.226 52.644C136.89 52.4465 136.634 52.165 136.455 51.8011C136.275 51.4372 136.186 51.0127 136.186 50.5275C136.186 50.0423 136.275 49.6271 136.455 49.2569C136.634 48.8868 136.886 48.5991 137.214 48.3939C137.54 48.1886 137.917 48.0859 138.344 48.0859C138.721 48.0859 139.066 48.1684 139.379 48.3316C139.693 48.4965 139.944 48.7546 140.135 49.1077C140.327 49.4607 140.421 49.907 140.421 50.4466V50.7732H136.7V50.0827H139.518C139.518 49.8448 139.471 49.6317 139.375 49.4467C139.279 49.2616 139.143 49.1139 138.967 49.0066C138.79 48.8993 138.588 48.8448 138.359 48.8448C138.112 48.8448 137.892 48.9055 137.702 49.0283C137.512 49.1512 137.364 49.3129 137.26 49.5151C137.155 49.7173 137.102 49.9365 137.101 50.1729V50.7079C137.101 51.0158 137.155 51.2802 137.265 51.5025C137.374 51.7249 137.527 51.8929 137.727 52.008C137.926 52.123 138.157 52.1806 138.419 52.1806C138.586 52.1806 138.736 52.1588 138.869 52.1137C139.004 52.0686 139.117 52.008 139.211 51.9302C139.305 51.8524 139.378 51.7638 139.432 51.6643H140.363C140.293 51.9193 140.169 52.1433 139.992 52.3361C139.814 52.5289 139.59 52.6782 139.319 52.7824C139.05 52.8866 138.747 52.9395 138.413 52.9395L138.41 52.941Z" fill="black"/>
<path d="M141.328 52.8465V48.1501H142.216V48.8996H142.264C142.321 48.7317 142.407 48.587 142.523 48.4626C142.639 48.3382 142.778 48.2434 142.936 48.178C143.095 48.1127 143.265 48.0801 143.445 48.0801C143.51 48.0801 143.578 48.0801 143.647 48.0847C143.717 48.0894 143.78 48.0941 143.837 48.1018V48.982C143.785 48.9696 143.712 48.9572 143.621 48.9447C143.53 48.9323 143.443 48.9261 143.36 48.9261C143.146 48.9261 142.956 48.9712 142.786 49.0614C142.616 49.1516 142.485 49.2775 142.387 49.4393C142.291 49.601 142.243 49.7829 142.243 49.9851V52.8481H141.325L141.328 52.8465Z" fill="black"/>
<path d="M147.295 50.7206C147.273 50.7206 147.233 50.7222 147.178 50.7268C147.122 50.7315 147.054 50.7346 146.972 50.7393C146.821 50.7502 146.667 50.7595 146.514 50.7704C146.361 50.7813 146.235 50.789 146.133 50.7984C145.822 50.8201 145.582 50.8932 145.412 51.0145C145.242 51.1358 145.157 51.3085 145.157 51.5324C145.157 51.6786 145.194 51.803 145.27 51.9056C145.346 52.0083 145.449 52.0845 145.582 52.1358C145.715 52.1871 145.868 52.2135 146.04 52.2135C146.283 52.2135 146.494 52.1653 146.674 52.0674C146.853 51.9694 146.991 51.8403 147.088 51.677C147.185 51.5153 147.233 51.3396 147.233 51.1529L147.23 49.6694C147.23 49.4921 147.195 49.3412 147.122 49.2153C147.051 49.0893 146.943 48.9944 146.802 48.9307C146.66 48.8669 146.487 48.8343 146.279 48.8343C146.105 48.8343 145.952 48.8591 145.817 48.9089C145.683 48.9587 145.575 49.0286 145.491 49.1188C145.408 49.209 145.35 49.3132 145.319 49.4314H144.404C144.435 49.1733 144.531 48.9416 144.695 48.7378C144.857 48.5341 145.078 48.3755 145.357 48.2604C145.635 48.1469 145.953 48.0894 146.313 48.0894C146.613 48.0894 146.899 48.1345 147.17 48.2262C147.44 48.318 147.672 48.4859 147.861 48.7301C148.049 48.9742 148.145 49.307 148.145 49.7269V52.8465H147.252V52.2042H147.215C147.15 52.3348 147.057 52.4561 146.938 52.5681C146.819 52.6801 146.666 52.7718 146.479 52.8434C146.292 52.9149 146.077 52.9507 145.834 52.9507C145.536 52.9507 145.268 52.8947 145.029 52.7827C144.789 52.6707 144.601 52.5075 144.463 52.2913C144.325 52.0767 144.256 51.8185 144.256 51.52C144.256 51.0363 144.42 50.6911 144.747 50.4827C145.075 50.2743 145.493 50.153 146.001 50.1157C146.143 50.1048 146.31 50.0955 146.502 50.0846C146.694 50.0737 146.873 50.0659 147.042 50.0566C147.1 50.0519 147.15 50.0504 147.192 50.0488C147.233 50.0473 147.263 50.0488 147.281 50.0488L147.294 50.7222L147.295 50.7206Z" fill="black"/>
<path d="M150.174 46.584V52.8465H149.256V46.584H150.174Z" fill="black"/>
<path d="M154.046 52.8465H153.043L155.28 46.584H156.377L158.614 52.8465H157.608L155.85 47.727H155.802L154.045 52.8465H154.046ZM154.212 50.394H157.449V51.1918H154.212V50.394Z" fill="black"/>
<path d="M161.917 49.4315C161.872 49.2402 161.776 49.0894 161.626 48.9805C161.478 48.8717 161.278 48.8172 161.033 48.8172C160.859 48.8172 160.706 48.8452 160.57 48.9012C160.434 48.9572 160.328 49.0319 160.25 49.1283C160.173 49.2231 160.134 49.3289 160.136 49.4471C160.134 49.587 160.192 49.7068 160.311 49.8063C160.43 49.9058 160.614 49.9836 160.866 50.0427L161.614 50.2137C162.042 50.3133 162.36 50.4688 162.571 50.6772C162.781 50.8856 162.886 51.1561 162.886 51.4858C162.886 51.7689 162.81 52.0208 162.657 52.2432C162.504 52.464 162.283 52.6366 161.996 52.7579C161.708 52.8808 161.368 52.9414 160.977 52.9414C160.607 52.9414 160.287 52.8886 160.017 52.7812C159.746 52.6739 159.531 52.5184 159.374 52.3116C159.216 52.1063 159.119 51.856 159.08 51.562H160.02C160.059 51.7766 160.158 51.9368 160.317 52.0426C160.476 52.1483 160.692 52.2012 160.969 52.2012C161.167 52.2012 161.34 52.1748 161.485 52.1219C161.631 52.069 161.745 51.9944 161.826 51.8964C161.906 51.7984 161.948 51.6864 161.948 51.5589C161.948 51.4065 161.889 51.2806 161.773 51.181C161.657 51.0815 161.475 51.0037 161.227 50.9478L160.498 50.786C160.08 50.6943 159.762 50.5388 159.544 50.3179C159.326 50.0971 159.218 49.825 159.218 49.4984C159.218 49.2231 159.293 48.979 159.445 48.7644C159.596 48.5498 159.808 48.3834 160.082 48.2652C160.355 48.147 160.671 48.0879 161.028 48.0879C161.385 48.0879 161.668 48.1423 161.925 48.2527C162.181 48.3631 162.385 48.5187 162.534 48.7208C162.682 48.923 162.772 49.1594 162.799 49.43H161.918L161.917 49.4315Z" fill="black"/>
<path d="M166.411 49.4315C166.366 49.2402 166.27 49.0894 166.12 48.9805C165.972 48.8717 165.772 48.8172 165.527 48.8172C165.354 48.8172 165.201 48.8452 165.064 48.9012C164.928 48.9572 164.822 49.0319 164.744 49.1283C164.667 49.2231 164.629 49.3289 164.63 49.4471C164.629 49.587 164.686 49.7068 164.805 49.8063C164.924 49.9058 165.108 49.9836 165.36 50.0427L166.108 50.2137C166.536 50.3133 166.855 50.4688 167.065 50.6772C167.275 50.8856 167.38 51.1561 167.38 51.4858C167.38 51.7689 167.304 52.0208 167.151 52.2432C166.998 52.464 166.777 52.6366 166.49 52.7579C166.202 52.8808 165.862 52.9414 165.471 52.9414C165.102 52.9414 164.782 52.8886 164.511 52.7812C164.241 52.6739 164.026 52.5184 163.868 52.3116C163.71 52.1063 163.613 51.856 163.574 51.562H164.514C164.553 51.7766 164.652 51.9368 164.811 52.0426C164.97 52.1483 165.187 52.2012 165.463 52.2012C165.661 52.2012 165.834 52.1748 165.98 52.1219C166.125 52.069 166.239 51.9944 166.32 51.8964C166.4 51.7984 166.442 51.6864 166.442 51.5589C166.442 51.4065 166.383 51.2806 166.267 51.181C166.151 51.0815 165.969 51.0037 165.721 50.9478L164.992 50.786C164.574 50.6943 164.256 50.5388 164.038 50.3179C163.82 50.0971 163.712 49.825 163.712 49.4984C163.712 49.2231 163.788 48.979 163.939 48.7644C164.091 48.5498 164.302 48.3834 164.576 48.2652C164.85 48.147 165.165 48.0879 165.522 48.0879C165.879 48.0879 166.162 48.1423 166.419 48.2527C166.675 48.3631 166.879 48.5187 167.028 48.7208C167.176 48.923 167.266 49.1594 167.294 49.43H166.412L166.411 49.4315Z" fill="black"/>
<path d="M170.255 52.941C169.821 52.941 169.439 52.8399 169.11 52.6378C168.78 52.4356 168.524 52.1526 168.343 51.7856C168.162 51.4201 168.072 50.9971 168.072 50.5182C168.072 50.0392 168.162 49.61 168.343 49.2429C168.524 48.8759 168.779 48.5914 169.11 48.3892C169.44 48.187 169.822 48.0859 170.255 48.0859C170.688 48.0859 171.07 48.187 171.399 48.3892C171.728 48.5914 171.983 48.8759 172.163 49.2429C172.342 49.61 172.432 50.0345 172.432 50.5182C172.432 51.0018 172.342 51.4201 172.163 51.7856C171.983 52.151 171.73 52.4356 171.399 52.6378C171.07 52.8399 170.688 52.941 170.255 52.941ZM170.258 52.1697C170.53 52.1697 170.759 52.0966 170.946 51.9489C171.133 51.8027 171.274 51.6036 171.367 51.3533C171.459 51.1029 171.506 50.823 171.506 50.515C171.506 50.2071 171.459 49.9272 171.367 49.6768C171.274 49.4265 171.133 49.2258 170.946 49.0781C170.759 48.9304 170.529 48.8542 170.258 48.8542C169.988 48.8542 169.75 48.9288 169.561 49.0781C169.372 49.2274 169.23 49.4265 169.137 49.6768C169.045 49.9272 168.998 50.2071 168.998 50.515C168.998 50.823 169.045 51.1029 169.137 51.3533C169.23 51.6036 169.372 51.8027 169.561 51.9489C169.751 52.095 169.983 52.1697 170.258 52.1697Z" fill="black"/>
<path d="M175.314 52.941C174.87 52.941 174.484 52.8384 174.154 52.6331C173.825 52.4278 173.571 52.1417 173.395 51.7747C173.219 51.4077 173.131 50.9894 173.131 50.5182C173.131 50.0469 173.221 49.6224 173.4 49.2538C173.579 48.8853 173.833 48.5991 174.162 48.3939C174.49 48.1886 174.872 48.0859 175.304 48.0859C175.655 48.0859 175.971 48.1513 176.252 48.2819C176.533 48.4125 176.759 48.5976 176.929 48.8386C177.099 49.0797 177.2 49.3549 177.231 49.6675H176.34C176.308 49.5167 176.246 49.3798 176.156 49.2601C176.067 49.1388 175.951 49.0423 175.808 48.9693C175.666 48.8962 175.502 48.8604 175.315 48.8604C175.065 48.8604 174.844 48.9273 174.654 49.061C174.463 49.1947 174.317 49.3845 174.211 49.6317C174.106 49.879 174.054 50.1667 174.054 50.4979C174.054 50.8292 174.105 51.1278 174.208 51.3766C174.312 51.627 174.459 51.8182 174.649 51.9551C174.839 52.0904 175.062 52.1588 175.315 52.1588C175.49 52.1588 175.648 52.1261 175.788 52.0624C175.929 51.9986 176.046 51.9069 176.141 51.7871C176.235 51.6674 176.301 51.5243 176.34 51.3579H177.231C177.198 51.6643 177.099 51.9364 176.934 52.1759C176.768 52.4154 176.547 52.6036 176.269 52.7389C175.991 52.8742 175.672 52.9426 175.312 52.9426L175.314 52.941Z" fill="black"/>
<path d="M178.569 47.4283C178.465 47.4283 178.369 47.4034 178.278 47.3537C178.188 47.3039 178.117 47.237 178.065 47.153C178.014 47.0691 177.987 46.9789 177.987 46.8809C177.987 46.7829 178.014 46.6896 178.065 46.6056C178.116 46.5217 178.187 46.4564 178.278 46.4066C178.368 46.3584 178.465 46.3335 178.569 46.3335C178.672 46.3335 178.765 46.3584 178.855 46.4066C178.944 46.4548 179.014 46.5217 179.066 46.6056C179.117 46.6896 179.144 46.7814 179.144 46.8809C179.144 46.9804 179.117 47.0691 179.066 47.153C179.015 47.237 178.944 47.3039 178.855 47.3537C178.765 47.4034 178.671 47.4283 178.569 47.4283ZM178.103 52.8463V48.1499H179.022V52.8463H178.103Z" fill="black"/>
<path d="M182.958 50.7206C182.937 50.7206 182.896 50.7222 182.841 50.7268C182.785 50.7315 182.717 50.7346 182.635 50.7393C182.484 50.7502 182.331 50.7595 182.177 50.7704C182.024 50.7813 181.898 50.789 181.796 50.7984C181.485 50.8201 181.245 50.8932 181.075 51.0145C180.905 51.1358 180.82 51.3085 180.82 51.5324C180.82 51.6786 180.857 51.803 180.933 51.9056C181.009 52.0083 181.112 52.0845 181.245 52.1358C181.378 52.1871 181.531 52.2135 181.703 52.2135C181.946 52.2135 182.157 52.1653 182.337 52.0674C182.516 51.9694 182.654 51.8403 182.751 51.677C182.848 51.5153 182.896 51.3396 182.896 51.1529L182.893 49.6694C182.893 49.4921 182.858 49.3412 182.785 49.2153C182.714 49.0893 182.606 48.9944 182.465 48.9307C182.323 48.8669 182.15 48.8343 181.943 48.8343C181.768 48.8343 181.615 48.8591 181.48 48.9089C181.346 48.9587 181.238 49.0286 181.154 49.1188C181.071 49.209 181.013 49.3132 180.983 49.4314H180.067C180.098 49.1733 180.194 48.9416 180.358 48.7378C180.52 48.5341 180.741 48.3755 181.02 48.2604C181.298 48.1469 181.616 48.0894 181.977 48.0894C182.276 48.0894 182.562 48.1345 182.833 48.2262C183.103 48.318 183.335 48.4859 183.524 48.7301C183.713 48.9742 183.808 49.307 183.808 49.7269V52.8465H182.915V52.2042H182.878C182.813 52.3348 182.72 52.4561 182.601 52.5681C182.482 52.6801 182.329 52.7718 182.142 52.8434C181.955 52.9149 181.74 52.9507 181.497 52.9507C181.199 52.9507 180.932 52.8947 180.692 52.7827C180.452 52.6707 180.264 52.5075 180.126 52.2913C179.989 52.0767 179.919 51.8185 179.919 51.52C179.919 51.0363 180.083 50.6911 180.411 50.4827C180.738 50.2743 181.156 50.153 181.664 50.1157C181.806 50.1048 181.973 50.0955 182.165 50.0846C182.357 50.0737 182.536 50.0659 182.705 50.0566C182.763 50.0519 182.813 50.0504 182.855 50.0488C182.896 50.0473 182.926 50.0488 182.944 50.0488L182.957 50.7222L182.958 50.7206Z" fill="black"/>
<path d="M187.103 48.1498V48.887H184.549V48.1498H187.103ZM185.232 47.0239H186.15V51.4638C186.15 51.6302 186.175 51.7593 186.223 51.851C186.271 51.9428 186.336 52.005 186.418 52.0392C186.498 52.0734 186.596 52.0905 186.71 52.0905C186.758 52.0905 186.814 52.0905 186.875 52.0874C186.937 52.0858 186.998 52.0827 187.056 52.0781C187.076 52.0765 187.095 52.075 187.113 52.0734C187.132 52.0719 187.149 52.0734 187.164 52.0734V52.8681C186.999 52.8945 186.809 52.9085 186.596 52.9085C186.347 52.9085 186.118 52.8619 185.912 52.7701C185.705 52.6768 185.54 52.5368 185.416 52.3487C185.292 52.1605 185.231 51.9288 185.231 51.6566V47.027L185.232 47.0239Z" fill="black"/>
<path d="M188.464 47.4283C188.36 47.4283 188.265 47.4034 188.173 47.3537C188.084 47.3039 188.013 47.237 187.96 47.153C187.909 47.0691 187.883 46.9789 187.883 46.8809C187.883 46.7829 187.909 46.6896 187.96 46.6056C188.011 46.5217 188.082 46.4564 188.173 46.4066C188.263 46.3584 188.36 46.3335 188.464 46.3335C188.568 46.3335 188.66 46.3584 188.75 46.4066C188.84 46.4548 188.909 46.5217 188.962 46.6056C189.013 46.6896 189.039 46.7814 189.039 46.8809C189.039 46.9804 189.013 47.0691 188.962 47.153C188.911 47.237 188.84 47.3039 188.75 47.3537C188.66 47.4034 188.566 47.4283 188.464 47.4283ZM187.999 52.8463V48.1499H188.917V52.8463H187.999Z" fill="black"/>
<path d="M192.007 52.941C191.573 52.941 191.191 52.8399 190.862 52.6378C190.532 52.4356 190.276 52.1526 190.095 51.7856C189.914 51.4201 189.824 50.9971 189.824 50.5182C189.824 50.0392 189.914 49.61 190.095 49.2429C190.276 48.8759 190.531 48.5914 190.862 48.3892C191.192 48.187 191.574 48.0859 192.007 48.0859C192.44 48.0859 192.822 48.187 193.151 48.3892C193.48 48.5914 193.735 48.8759 193.915 49.2429C194.094 49.61 194.184 50.0345 194.184 50.5182C194.184 51.0018 194.094 51.4201 193.915 51.7856C193.735 52.151 193.482 52.4356 193.151 52.6378C192.822 52.8399 192.44 52.941 192.007 52.941ZM192.01 52.1697C192.282 52.1697 192.511 52.0966 192.698 51.9489C192.885 51.8027 193.026 51.6036 193.119 51.3533C193.211 51.1029 193.258 50.823 193.258 50.515C193.258 50.2071 193.211 49.9272 193.119 49.6768C193.026 49.4265 192.885 49.2258 192.698 49.0781C192.511 48.9304 192.281 48.8542 192.01 48.8542C191.74 48.8542 191.502 48.9288 191.313 49.0781C191.124 49.2274 190.982 49.4265 190.889 49.6768C190.797 49.9272 190.75 50.2071 190.75 50.515C190.75 50.823 190.797 51.1029 190.889 51.3533C190.982 51.6036 191.124 51.8027 191.313 51.9489C191.503 52.095 191.735 52.1697 192.01 52.1697Z" fill="black"/>
<path d="M196.011 50.0612V52.8465H195.093V48.15H195.974V48.9182H196.031C196.105 48.7487 196.207 48.6025 196.334 48.4781C196.461 48.3537 196.614 48.2573 196.795 48.1904C196.976 48.1236 197.18 48.0894 197.409 48.0894C197.729 48.0894 198.008 48.1578 198.248 48.2931C198.488 48.4284 198.672 48.629 198.803 48.8934C198.934 49.1593 198.999 49.4812 198.999 49.8591V52.8465H198.081V49.9726C198.081 49.7487 198.041 49.5543 197.962 49.3894C197.883 49.2261 197.77 49.1002 197.623 49.0147C197.477 48.9291 197.3 48.8856 197.096 48.8856C196.892 48.8856 196.696 48.9322 196.534 49.024C196.371 49.1173 196.244 49.251 196.15 49.4283C196.057 49.604 196.011 49.8155 196.011 50.0597V50.0612Z" fill="black"/>
<path d="M72.5858 29.1117V30.6218H62.1016V29.1117H72.5858ZM67.3514 31.4771C68.1908 31.4771 68.9313 31.6155 69.5729 31.8938C70.2144 32.1707 70.7153 32.5641 71.0739 33.0726C71.4326 33.5812 71.615 34.169 71.6196 34.8346C71.615 35.4924 71.4326 36.0709 71.0739 36.5732C70.7153 37.074 70.2144 37.4612 69.5729 37.7349C68.9313 38.0086 68.1908 38.1439 67.3514 38.1439C66.512 38.1439 65.7545 38.007 65.1052 37.7349C64.456 37.4627 63.9535 37.0755 63.5964 36.5732C63.2393 36.0725 63.0616 35.4924 63.0616 34.8346C63.0616 34.1768 63.2393 33.5812 63.5964 33.0726C63.9535 32.5641 64.456 32.1722 65.1052 31.8938C65.7545 31.617 66.5027 31.4771 67.3514 31.4771ZM66.614 39.2542V43.4997H64.7574V39.2542H66.614ZM76.6747 42.8481V44.3861H64.759V42.8481H76.6747ZM67.3514 32.9311C66.8552 32.9311 66.4177 33.0073 66.0374 33.1582C65.6571 33.309 65.3649 33.5298 65.1609 33.8191C64.9568 34.1083 64.8579 34.4458 64.8625 34.833C64.8579 35.2109 64.9568 35.5391 65.1609 35.819C65.3649 36.0989 65.6571 36.3135 66.0374 36.4628C66.4177 36.6121 66.8552 36.6836 67.3514 36.679C67.8477 36.6836 68.2836 36.6121 68.6577 36.4628C69.0334 36.3135 69.3255 36.0989 69.5342 35.819C69.7429 35.5391 69.8496 35.2109 69.8542 34.833C69.8496 34.4458 69.7429 34.1083 69.5342 33.8191C69.3255 33.5298 69.0334 33.309 68.6577 33.1582C68.2821 33.0073 67.8461 32.9311 67.3514 32.9311ZM68.2836 27.0356V29.8753H66.427V27.0356H68.2836ZM75.9234 27.0419V40.3086H74.0529V27.0419H75.9234ZM78.4757 32.7429V34.3089H75.3607V32.7429H78.4757Z" fill="black"/>
<path d="M95.6133 34.113V35.637H79.4912V34.113H95.6133ZM93.6454 38.6586V44.75H91.7687V40.1687H81.1391V38.6586H93.647H93.6454ZM92.8941 27.8599V29.3777H81.5055V27.8599H92.8941ZM88.445 35.1549V39.2185H86.5884V35.1549H88.445ZM93.5681 29.1817V29.2517C93.5681 29.9049 93.5589 30.488 93.5403 31.0043C93.5218 31.5191 93.4692 32.1053 93.3842 32.7632C93.2976 33.421 93.1677 34.1192 92.9915 34.861L91.1627 34.6589C91.3297 33.9357 91.4533 33.2561 91.5353 32.6201C91.6157 31.984 91.6667 31.4211 91.6852 30.9312C91.7038 30.4414 91.7131 29.8769 91.7131 29.2393V27.8614H93.5697V29.1833L93.5681 29.1817Z" fill="black"/>
<path d="M106.138 28.7276V40.3723H97.8721V28.7276H106.138ZM99.721 30.2174V38.8623H104.323V30.2174H99.721ZM111.491 27.0278V44.7858H109.615V27.0278H111.491Z" fill="black"/>
<path d="M130.368 35.6729V37.197H114.308V35.6729H130.368ZM122.323 27.3359C123.606 27.3406 124.722 27.4743 125.667 27.7387C126.613 28.0015 127.34 28.3841 127.847 28.8817C128.354 29.3794 128.607 29.9781 128.607 30.6717C128.607 31.3653 128.354 31.9469 127.847 32.4414C127.34 32.9359 126.613 33.3123 125.67 33.5704C124.727 33.8286 123.611 33.9592 122.322 33.9592C121.032 33.9592 119.908 33.8301 118.964 33.5704C118.019 33.3107 117.291 32.9359 116.784 32.4414C116.277 31.9469 116.024 31.3575 116.024 30.6717C116.024 29.9859 116.277 29.3809 116.784 28.8817C117.291 28.3825 118.019 28.0015 118.967 27.7387C119.915 27.4759 121.032 27.3406 122.322 27.3359H122.323ZM122.317 38.4146C123.583 38.41 124.67 38.5297 125.582 38.7754C126.494 39.0211 127.19 39.3772 127.675 39.8453C128.159 40.3134 128.403 40.8842 128.408 41.556C128.403 42.2325 128.159 42.8063 127.675 43.2759C127.191 43.7471 126.492 44.1048 125.582 44.349C124.671 44.5931 123.583 44.716 122.317 44.716C121.051 44.716 119.947 44.5931 119.032 44.349C118.117 44.1048 117.416 43.7456 116.933 43.2759C116.449 42.8047 116.206 42.2309 116.206 41.556C116.206 40.8811 116.449 40.315 116.933 39.8453C117.416 39.3772 118.117 39.0196 119.032 38.7754C119.947 38.5313 121.042 38.41 122.317 38.4146ZM122.323 28.7978C121.409 28.7978 120.627 28.8708 119.973 29.0186C119.319 29.1663 118.82 29.3794 118.475 29.6624C118.131 29.9439 117.961 30.2813 117.964 30.6732C117.959 31.0651 118.129 31.3995 118.475 31.6763C118.822 31.9531 119.319 32.163 119.97 32.3061C120.621 32.4492 121.406 32.5192 122.323 32.5192C123.24 32.5192 124.019 32.4476 124.673 32.3061C125.327 32.1646 125.828 31.9547 126.174 31.6763C126.522 31.3995 126.695 31.0636 126.695 30.6732C126.695 30.2829 126.522 29.9454 126.174 29.6624C125.826 29.3809 125.325 29.1663 124.668 29.0186C124.013 28.8724 123.231 28.7978 122.322 28.7978H122.323ZM122.317 39.8407C121.422 39.8453 120.66 39.9138 120.029 40.0475C119.398 40.1797 118.919 40.3741 118.59 40.6276C118.26 40.8811 118.098 41.1905 118.103 41.5544C118.098 41.9183 118.26 42.2293 118.59 42.4875C118.919 42.7456 119.398 42.9431 120.029 43.0784C120.66 43.2137 121.422 43.279 122.317 43.2744C123.203 43.279 123.96 43.2137 124.591 43.0784C125.222 42.9431 125.704 42.7456 126.036 42.4875C126.37 42.2293 126.539 41.9168 126.543 41.5544C126.539 41.1905 126.37 40.8811 126.036 40.6276C125.702 40.3741 125.222 40.1797 124.594 40.0475C123.966 39.9153 123.207 39.8453 122.317 39.8407ZM120.037 33.0215V36.3292H118.16V33.0215H120.037ZM126.474 33.0215V36.3292H124.617V33.0215H126.474Z" fill="black"/>
<path d="M147.777 36.107V37.6388H131.717V36.107H147.777ZM140.338 29.9658C140.338 30.8849 140.031 31.6951 139.414 32.3965C138.797 33.0978 137.948 33.6655 136.866 34.0962C135.784 34.527 134.543 34.8085 133.144 34.9391L132.567 33.4913C133.777 33.3933 134.846 33.1818 135.775 32.8583C136.704 32.5349 137.424 32.1212 137.937 31.6205C138.449 31.1197 138.706 30.5677 138.706 29.9658V29.6517H140.34V29.9658H140.338ZM146.163 28.7139V30.2177H133.329V28.7139H146.163ZM139.726 38.8067C141.006 38.8067 142.099 38.9218 143.008 39.1488C143.917 39.3774 144.611 39.7118 145.09 40.1519C145.57 40.592 145.812 41.13 145.817 41.7645C145.812 42.399 145.57 42.9371 145.09 43.3803C144.611 43.8235 143.917 44.1579 143.008 44.3834C142.099 44.6088 141.006 44.7224 139.726 44.7224C138.446 44.7224 137.35 44.6088 136.438 44.3834C135.524 44.1563 134.826 43.822 134.342 43.3803C133.858 42.9371 133.615 42.399 133.615 41.7645C133.615 41.13 133.858 40.5935 134.342 40.1519C134.826 39.7118 135.524 39.3774 136.438 39.1488C137.352 38.9202 138.448 38.8067 139.726 38.8067ZM139.726 40.2125C138.822 40.2125 138.055 40.2716 137.424 40.3867C136.794 40.5033 136.316 40.6791 135.993 40.9154C135.668 41.1503 135.509 41.4348 135.514 41.7645C135.509 42.0958 135.668 42.3772 135.993 42.6074C136.317 42.8376 136.795 43.0117 137.424 43.1284C138.055 43.245 138.822 43.301 139.726 43.2963C140.626 43.301 141.389 43.245 142.017 43.1284C142.645 43.0117 143.124 42.8376 143.453 42.6074C143.783 42.3772 143.949 42.0958 143.954 41.7645C143.949 41.4333 143.783 41.1503 143.453 40.9154C143.124 40.6806 142.646 40.5033 142.017 40.3867C141.389 40.2701 140.626 40.2125 139.726 40.2125ZM140.651 27.022V29.5335H138.816V27.022H140.651ZM140.651 34.0651V36.813H138.816V34.0651H140.651ZM140.762 29.9658C140.757 30.5677 141.009 31.1182 141.519 31.6205C142.029 32.1212 142.75 32.5349 143.682 32.8583C144.614 33.1818 145.687 33.3933 146.901 33.4913L146.338 34.9391C144.934 34.8085 143.69 34.527 142.605 34.0962C141.519 33.6655 140.669 33.0978 140.054 32.3965C139.437 31.6951 139.129 30.8849 139.129 29.9658V29.6517H140.763V29.9658H140.762Z" fill="black"/>
<path d="M153.991 28.1259C154.845 28.1306 155.619 28.325 156.316 28.7091C157.013 29.0932 157.564 29.6282 157.967 30.3109C158.371 30.9936 158.575 31.7649 158.579 32.6218C158.575 33.4755 158.371 34.2438 157.967 34.9265C157.564 35.6092 157.013 36.1426 156.316 36.5251C155.619 36.9077 154.843 37.099 153.991 37.099C153.139 37.099 152.332 36.9077 151.628 36.5251C150.923 36.1426 150.371 35.6107 149.973 34.9265C149.575 34.2438 149.378 33.4755 149.383 32.6218C149.378 31.7633 149.575 30.9936 149.973 30.3109C150.372 29.6282 150.924 29.0932 151.628 28.7091C152.332 28.325 153.119 28.1306 153.991 28.1259ZM153.991 29.7977C153.449 29.8023 152.962 29.9236 152.532 30.1616C152.101 30.3995 151.764 30.7323 151.521 31.1615C151.278 31.5907 151.156 32.0775 151.156 32.6233C151.156 33.1692 151.278 33.6637 151.521 34.0914C151.764 34.519 152.101 34.8518 152.532 35.0882C152.963 35.323 153.45 35.4412 153.991 35.4412C154.532 35.4412 154.996 35.323 155.42 35.0882C155.843 34.8534 156.179 34.5206 156.424 34.0914C156.67 33.6621 156.792 33.1723 156.792 32.6233C156.792 32.0744 156.67 31.5907 156.424 31.1615C156.179 30.7323 155.845 30.3995 155.42 30.1616C154.996 29.9236 154.52 29.8023 153.991 29.7977ZM154.235 38.7505V43.5481H152.373V38.7505H154.235ZM164.275 42.8483V44.3863H152.373V42.8483H164.275ZM162.599 29.7215V31.2533H157.287V29.7215H162.599ZM162.599 33.9669V35.505H157.287V33.9669H162.599ZM163.809 27.042V40.0926H161.946V27.042H163.809Z" fill="black"/>
<path d="M177.039 28.7697V30.2797H166.555V28.7697H177.039ZM171.803 31.0013C172.642 31.0013 173.383 31.1288 174.028 31.3854C174.672 31.642 175.173 32.0059 175.529 32.4771C175.886 32.9483 176.067 33.4942 176.071 34.1131C176.067 34.7383 175.886 35.2841 175.529 35.7538C175.171 36.2219 174.671 36.5842 174.028 36.8408C173.383 37.0974 172.642 37.2249 171.803 37.2249C170.964 37.2249 170.206 37.0974 169.557 36.8408C168.908 36.5842 168.405 36.2219 168.048 35.7538C167.691 35.2857 167.513 34.7383 167.513 34.1131C167.513 33.488 167.691 32.9468 168.048 32.4771C168.405 32.0075 168.906 31.642 169.554 31.3854C170.2 31.1288 170.95 31.0013 171.803 31.0013ZM170.948 38.0927V39.8126H178.506V38.0927H180.377V44.5278H169.099V38.0927H170.948ZM171.803 32.4071C171.307 32.4025 170.869 32.4709 170.489 32.6093C170.109 32.7493 169.817 32.9499 169.612 33.2111C169.408 33.4724 169.309 33.7725 169.314 34.1131C169.309 34.4584 169.408 34.76 169.612 35.0182C169.817 35.2763 170.109 35.477 170.489 35.6154C170.869 35.7553 171.307 35.8253 171.803 35.8253C172.299 35.8253 172.735 35.7553 173.109 35.6154C173.485 35.4754 173.777 35.2763 173.986 35.0182C174.194 34.76 174.301 34.4568 174.306 34.1131C174.301 33.7725 174.194 33.4724 173.986 33.2111C173.777 32.9499 173.485 32.7493 173.109 32.6093C172.734 32.4694 172.298 32.4025 171.803 32.4071ZM172.735 26.874V29.6017H170.879V26.874H172.735ZM170.948 43.024H178.506V41.276H170.948V43.024ZM180.377 27.028V37.3509H178.506V27.028H180.377ZM182.927 31.4772V33.0572H179.597V31.4772H182.927Z" fill="black"/>
<path d="M184.032 39.9322H184.338C185.881 39.9229 187.214 39.9058 188.336 39.8794C189.458 39.8545 190.656 39.8032 191.93 39.7285C193.204 39.6539 194.413 39.5403 195.552 39.3864L195.691 40.7984C194.481 40.999 193.218 41.1514 191.899 41.2572C190.581 41.3614 189.324 41.4283 188.13 41.4563C186.937 41.4842 185.659 41.4982 184.297 41.4982L184.032 39.9322ZM195.157 29.1397V30.6435H184.402V29.1397H195.157ZM189.768 31.547C190.616 31.547 191.368 31.6854 192.023 31.9638C192.678 32.2406 193.187 32.6294 193.549 33.1286C193.911 33.6278 194.091 34.2063 194.091 34.8625C194.091 35.5188 193.911 36.0833 193.549 36.5794C193.187 37.0755 192.678 37.4611 192.023 37.7333C191.368 38.0054 190.615 38.1423 189.768 38.1423C188.92 38.1423 188.171 38.0054 187.521 37.7333C186.872 37.4611 186.371 37.0755 186.016 36.5794C185.662 36.0833 185.485 35.511 185.49 34.8625C185.485 34.2047 185.66 33.6278 186.016 33.1286C186.37 32.6294 186.872 32.2422 187.521 31.9638C188.171 31.687 188.919 31.547 189.768 31.547ZM189.768 33.0011C189.276 33.0011 188.838 33.0773 188.454 33.2312C188.069 33.3852 187.77 33.6013 187.56 33.8813C187.35 34.1612 187.246 34.4878 187.251 34.861C187.246 35.2295 187.35 35.5515 187.56 35.8267C187.77 36.102 188.069 36.3135 188.454 36.4628C188.838 36.612 189.276 36.6836 189.768 36.6789C190.268 36.6836 190.711 36.612 191.095 36.4628C191.48 36.3135 191.779 36.102 191.992 35.8267C192.205 35.5515 192.312 35.2295 192.312 34.861C192.312 34.4924 192.205 34.1612 191.992 33.8813C191.779 33.6013 191.48 33.3852 191.095 33.2312C190.711 33.0773 190.268 33.0011 189.768 33.0011ZM190.735 27.0636V29.9655H188.865V27.0636H190.735ZM190.728 37.6944V40.6103H188.865V37.6944H190.728ZM198.508 27.0278V44.75H196.645V27.0278H198.508Z" fill="black"/>
<path d="M34.1117 25.8338C35.8287 25.8338 37.2205 24.4336 37.2205 22.7065C37.2205 20.9793 35.8287 19.5791 34.1117 19.5791C32.3948 19.5791 31.0029 20.9793 31.0029 22.7065C31.0029 24.4336 32.3948 25.8338 34.1117 25.8338Z" fill="#ECD531"/>
<path d="M48.514 27.4391C50.0313 27.205 51.0727 25.7778 50.84 24.2514C50.6073 22.725 49.1886 21.6774 47.6712 21.9115C46.1539 22.1457 45.1125 23.5728 45.3452 25.0992C45.5779 26.6256 46.9967 27.6732 48.514 27.4391Z" fill="#E62766"/>
<path d="M22.0974 26.6485C23.1829 25.5566 23.1829 23.7862 22.0974 22.6942C21.012 21.6023 19.2521 21.6023 18.1666 22.6942C17.0811 23.7862 17.0811 25.5566 18.1666 26.6485C19.2521 27.7405 21.012 27.7405 22.0974 26.6485Z" fill="#2BB286"/>
<path d="M40.7676 34.0697L40.8078 34.0308L41.7647 33.0697L45.0033 29.8118C45.869 28.9409 47.0192 28.4619 48.242 28.4619C49.4648 28.4619 50.6165 28.9409 51.4822 29.8118C52.3417 30.6764 52.7885 31.8023 52.8194 32.9376V32.95C52.8194 32.95 52.8194 32.9624 52.8194 32.9687C52.8194 33.0355 52.8194 33.1024 52.8194 33.1693C52.8194 33.1755 52.8194 33.1817 52.8194 33.1879V33.2004C52.7869 35.2951 51.9784 37.379 50.3923 38.9745C49.5622 39.8112 48.5852 40.4472 47.5216 40.8625C46.5786 41.2295 45.5645 41.4223 44.521 41.4223C44.4252 41.4223 44.3309 41.4207 44.2366 41.4176C45.2723 41.3756 46.254 41.0273 47.0795 40.4192C47.2959 40.2606 47.5 40.0833 47.6932 39.8905C48.6362 38.9419 49.1742 37.6807 49.2097 36.3371C49.2097 36.3371 49.2097 36.3355 49.2097 36.3339C49.2097 36.3215 49.2113 36.3106 49.2113 36.2997V36.1178C49.1927 35.7492 49.0412 35.4055 48.783 35.1443C48.7552 35.1163 48.7289 35.0898 48.6996 35.0665C48.681 35.0494 48.6609 35.0323 48.6408 35.0183C48.6316 35.0105 48.6238 35.0043 48.6145 34.9981C48.6006 34.9872 48.5867 34.9763 48.5728 34.9685C48.5635 34.9623 48.5543 34.9561 48.545 34.9499C48.5342 34.9437 48.5249 34.9359 48.5141 34.9297C48.5141 34.9297 48.5125 34.9281 48.5094 34.9281C48.5032 34.9234 48.4955 34.9203 48.4893 34.9157C48.4661 34.9017 48.4429 34.8892 48.4198 34.8768C48.4089 34.8706 48.3966 34.8644 48.3842 34.8597C48.3718 34.8535 48.361 34.8472 48.3486 34.8426C48.3363 34.8364 48.3255 34.8317 48.3131 34.827C48.3007 34.8224 48.2884 34.8177 48.276 34.813C48.259 34.8068 48.242 34.8006 48.225 34.7944C48.191 34.7819 48.1585 34.7726 48.1245 34.7633C48.1137 34.7602 48.1029 34.757 48.092 34.7555C48.0673 34.7493 48.0426 34.7446 48.0178 34.7399C47.9993 34.7368 47.9807 34.7337 47.9622 34.7306C47.9622 34.7306 47.9606 34.7306 47.9591 34.7306C47.9591 34.7306 47.9575 34.7306 47.956 34.7306C47.9544 34.7306 47.9514 34.7306 47.9483 34.7306C47.9235 34.7275 47.8972 34.7244 47.871 34.7228C47.8617 34.7228 47.854 34.7213 47.8447 34.7213C47.8323 34.7213 47.8184 34.7197 47.8045 34.7197C47.7767 34.7182 47.7488 34.7182 47.721 34.7182H47.7086C47.7086 34.7182 47.6963 34.7182 47.6901 34.7182C47.6654 34.7182 47.6422 34.7197 47.619 34.7228C47.6004 34.7228 47.5834 34.7259 47.5664 34.7275C47.2356 34.7648 46.9388 34.9094 46.6992 35.1505L44.2675 37.5951L40.7691 34.0759L40.7676 34.0697Z" fill="url(#paint0_linear_160_2802)"/>
<path d="M27.1201 40.6882C27.2608 40.6245 27.3984 40.556 27.5344 40.4845C27.9951 40.2435 28.4357 39.9573 28.8484 39.6276L30.9153 37.5484L32.6421 39.2839C32.758 39.4006 32.8848 39.5017 33.0193 39.5856C33.3532 39.794 33.7335 39.8967 34.1137 39.8967C34.494 39.8967 34.8728 39.794 35.2082 39.5856C35.3427 39.5017 35.4695 39.4021 35.5854 39.2839L37.3122 37.5469L39.3791 39.6261C39.7918 39.9558 40.2324 40.2419 40.6931 40.4845C40.8291 40.556 40.9682 40.6229 41.1074 40.6882L38.7994 43.01C37.5054 44.3117 35.8096 44.9617 34.1137 44.9601C32.4179 44.9601 30.7221 44.3117 29.4281 43.01L27.1201 40.6882Z" fill="url(#paint1_linear_160_2802)"/>
<path d="M15.4053 33.1693C15.4053 33.1024 15.4053 33.0355 15.4053 32.9687C15.4053 32.9624 15.4053 32.9562 15.4053 32.95V32.9376C15.4362 31.8023 15.883 30.6764 16.7425 29.8118C17.6066 28.9409 18.7583 28.4619 19.9827 28.4619C21.207 28.4619 22.3572 28.9409 23.2213 29.8118L26.46 33.0697L27.4169 34.0324L27.4571 34.0712L23.9587 37.5905L21.527 35.1458C21.2859 34.9032 20.989 34.7586 20.6598 34.7228C20.6428 34.7213 20.6242 34.7182 20.6072 34.7182C20.584 34.7166 20.5593 34.7135 20.5361 34.7135C20.5299 34.7135 20.5237 34.7135 20.5175 34.7135H20.5052C20.4774 34.7135 20.448 34.7135 20.4217 34.7151C20.4078 34.7151 20.3954 34.7151 20.3815 34.7166C20.3722 34.7166 20.3645 34.7182 20.3552 34.7182C20.3289 34.7197 20.3027 34.7228 20.2779 34.7259C20.2764 34.7259 20.2733 34.7259 20.2702 34.7259C20.2702 34.7259 20.2687 34.7259 20.2671 34.7259C20.2671 34.7259 20.2656 34.7259 20.264 34.7259C20.2455 34.7291 20.2269 34.7322 20.2084 34.7353C20.1836 34.7399 20.1589 34.7446 20.1342 34.7508C20.1233 34.7524 20.1125 34.7555 20.1017 34.7586C20.0677 34.7664 20.0337 34.7773 20.0012 34.7897C19.9842 34.7959 19.9672 34.8021 19.9518 34.8084C19.9394 34.813 19.927 34.8177 19.9147 34.8224C19.9023 34.827 19.8899 34.8332 19.8791 34.8379C19.8667 34.8426 19.8544 34.8488 19.8435 34.855C19.8312 34.8597 19.8204 34.8659 19.808 34.8721C19.7848 34.8846 19.7616 34.897 19.7384 34.911C19.7322 34.9157 19.7245 34.9188 19.7183 34.9234C19.7168 34.9234 19.7152 34.9234 19.7137 34.925C19.7029 34.9312 19.692 34.9374 19.6828 34.9452C19.6735 34.9514 19.6642 34.9577 19.6549 34.9639C19.641 34.9732 19.6271 34.9825 19.6132 34.9934C19.6039 34.9996 19.5962 35.0059 19.5869 35.0136C19.5668 35.0292 19.5467 35.0447 19.5282 35.0619C19.4988 35.0852 19.471 35.1116 19.4447 35.1396C19.1865 35.3993 19.035 35.7445 19.0165 36.1131V36.2951C19.0165 36.3059 19.0165 36.3184 19.018 36.3293C19.018 36.3293 19.018 36.3308 19.018 36.3324C19.052 37.6776 19.59 38.9372 20.5346 39.8858C20.7278 40.0802 20.9318 40.256 21.1483 40.4146C21.9738 41.0226 22.9554 41.3694 23.9912 41.413C23.8969 41.4161 23.8026 41.4176 23.7067 41.4176C22.6648 41.4176 21.6507 41.2248 20.7061 40.8578C19.641 40.4441 18.6656 39.8065 17.8354 38.9699C16.2493 37.3743 15.4408 35.2905 15.4084 33.1957V33.1833C15.4084 33.1833 15.4084 33.1708 15.4084 33.1646L15.4053 33.1693Z" fill="url(#paint2_linear_160_2802)"/>
<path d="M19.0146 36.3353C19.0177 36.4208 19.0286 36.5126 19.0456 36.6059C19.4289 38.7224 22.0508 39.5062 23.5627 37.9853L23.9584 37.5872L32.2398 29.2564C32.246 29.2517 32.2506 29.2486 32.2568 29.2439C33.3606 28.4415 34.8632 28.4415 35.9685 29.2439C35.9747 29.2486 35.9793 29.2517 35.9855 29.2564L40.7685 34.0679L44.2668 37.5872L44.6626 37.9853C46.176 39.5077 48.7963 38.7224 49.1797 36.6059C49.1967 36.511 49.2075 36.4208 49.2106 36.3353C49.1766 37.6805 48.6386 38.9401 47.6941 39.8887C47.5009 40.0831 47.2968 40.2589 47.0804 40.4175C46.2549 41.0255 45.2732 41.3723 44.2375 41.4159C43.5341 41.3925 42.8477 41.2806 42.1876 41.0877C42.1876 41.0877 42.1876 41.0877 42.1861 41.0877C41.8182 40.9804 41.4564 40.8451 41.107 40.6865C40.9664 40.6228 40.8288 40.5543 40.6927 40.4828C40.2321 40.2417 39.7915 39.9556 39.3787 39.6259L37.3119 37.5467L37.2732 37.5063L34.8415 35.0601C34.8415 35.0601 34.8369 35.0554 34.8353 35.0539C34.4396 34.6589 33.7903 34.6589 33.3946 35.0539C33.393 35.0554 33.3899 35.0585 33.3884 35.0601L30.9567 37.5063L30.918 37.5452L28.8512 39.6244C28.4384 39.954 27.9978 40.2402 27.5372 40.4828C27.4011 40.5543 27.262 40.6212 27.1229 40.6865C26.7735 40.8451 26.4118 40.9789 26.0438 41.0877C26.0438 41.0877 26.0438 41.0877 26.0423 41.0877C25.3822 41.2806 24.6958 41.3925 23.9924 41.4159C22.9567 41.3739 21.975 41.0255 21.1495 40.4175C20.9331 40.2589 20.729 40.0816 20.5358 39.8887C19.5928 38.9401 19.0548 37.6789 19.0193 36.3353H19.0146Z" fill="url(#paint3_radial_160_2802)"/>
<path d="M22.8418 53.6952V47.5059H23.944V50.3564H24.026L26.4314 47.5059H27.7856L25.4003 50.2833L27.8041 53.6952H26.4716L24.6319 51.036L23.944 51.8524V53.6952H22.8418Z" fill="black"/>
<path d="M28.4888 53.6952V47.5059H30.8417C31.2746 47.5059 31.6394 47.5743 31.9362 47.7096C32.233 47.8449 32.4572 48.0346 32.6056 48.2772C32.7555 48.5198 32.8297 48.7982 32.8297 49.1123C32.8297 49.3533 32.7833 49.5648 32.689 49.7452C32.5963 49.9256 32.4695 50.0718 32.3088 50.1853C32.148 50.2989 31.964 50.3782 31.7553 50.4264V50.487C31.9795 50.4995 32.1928 50.5679 32.3938 50.6923C32.5947 50.8167 32.7571 50.9924 32.8823 51.2195C33.006 51.4465 33.0678 51.7094 33.0678 52.0064C33.0678 52.3345 32.989 52.6253 32.8313 52.8804C32.6751 53.1338 32.4386 53.3329 32.1263 53.476C31.8125 53.6206 31.4276 53.6921 30.9716 53.6921H28.4873L28.4888 53.6952ZM30.7041 50.1418C30.8974 50.1418 31.0736 50.1045 31.2282 50.0314C31.3843 49.9583 31.5049 49.8556 31.5946 49.7219C31.6827 49.5897 31.7275 49.4327 31.7275 49.2538C31.7275 49.0936 31.6904 48.9506 31.6131 48.8262C31.5374 48.7017 31.4245 48.6053 31.273 48.5338C31.1231 48.4638 30.9406 48.428 30.7258 48.428H29.5895V50.1418H30.701H30.7041ZM30.8 52.7637C31.0628 52.7637 31.2792 52.728 31.4508 52.658C31.6224 52.588 31.7476 52.49 31.8295 52.3656C31.9115 52.2412 31.9501 52.0935 31.9501 51.924C31.9501 51.7389 31.9037 51.5725 31.811 51.4232C31.7182 51.2755 31.5868 51.1588 31.4183 51.0733C31.2498 50.9878 31.055 50.9442 30.8324 50.9442H29.5911V52.7637H30.7984H30.8Z" fill="black"/>
<path d="M38.0937 49.4825C38.0257 49.2617 37.9252 49.0704 37.7923 48.9133C37.6593 48.7547 37.4955 48.6334 37.3007 48.5494C37.1075 48.4655 36.8879 48.4219 36.6437 48.4219C36.3098 48.4219 36.013 48.5074 35.7548 48.677C35.4966 48.8465 35.2941 49.0953 35.1488 49.4219C35.0035 49.7484 34.9293 50.1403 34.9293 50.5944C34.9293 51.0485 35.0019 51.4513 35.1457 51.7779C35.2895 52.106 35.4935 52.3548 35.7563 52.5243C36.0191 52.6954 36.3237 52.7794 36.6684 52.7794C36.9807 52.7794 37.2528 52.7187 37.4816 52.5974C37.7119 52.4761 37.8897 52.3019 38.0149 52.0796C38.1401 51.8556 38.2035 51.5944 38.2035 51.2942L38.4524 51.3331H36.7797V50.4591H39.2763V51.1994C39.2763 51.7203 39.165 52.1775 38.9424 52.5663C38.7198 52.9566 38.4122 53.2552 38.0164 53.4652C37.6207 53.6751 37.1708 53.7793 36.6669 53.7793C36.1026 53.7793 35.6048 53.6502 35.1751 53.3936C34.7453 53.137 34.4114 52.7685 34.1749 52.2895C33.9384 51.8105 33.8193 51.2491 33.8193 50.6069C33.8193 49.9646 33.9399 49.3908 34.1826 48.9102C34.4253 48.4297 34.7592 48.0611 35.1844 47.8045C35.6095 47.5495 36.0918 47.4204 36.6298 47.4204C37.0765 47.4204 37.4862 47.5075 37.8572 47.6817C38.2282 47.8558 38.5328 48.0984 38.7724 48.4095C39.0105 48.7205 39.1619 49.0782 39.2269 49.4809H38.0968L38.0937 49.4825Z" fill="black"/>
<path d="M40.8638 53.6952H39.6797L41.8486 47.5059H43.2121L45.3809 53.6952H44.1999L42.5535 48.7702H42.5056L40.8623 53.6952H40.8638ZM40.9087 51.2677H44.1504V52.1619H40.9087V51.2677Z" fill="black"/>
<path d="M15.1899 48.6376L14.9812 48.7854L14.59 48.4044L11.7966 50.384L12.0223 50.8832L11.8136 51.031L10.8814 49.6998C10.6666 49.3919 10.5676 49.0933 10.5862 48.804C10.6047 48.5148 10.7361 48.2815 10.9835 48.1073C11.1674 47.9767 11.3607 47.9176 11.5632 47.9285C11.7657 47.9394 11.9667 48.0156 12.1645 48.1571C12.0934 47.9876 12.0579 47.8165 12.0563 47.6408C12.0563 47.4666 12.0919 47.3018 12.1614 47.1463C12.2326 46.9908 12.3408 46.8617 12.4861 46.759C12.7705 46.5569 13.0658 46.4947 13.3688 46.5724C13.6733 46.6502 13.9547 46.8757 14.2175 47.2505L15.1899 48.6392V48.6376ZM12.7767 49.1322L12.5711 48.8382C12.3748 48.5583 12.1645 48.3935 11.9388 48.3406C11.7131 48.2893 11.4782 48.3484 11.2355 48.521C10.8876 48.7667 10.8845 49.1337 11.2246 49.6189C11.2633 49.6749 11.3128 49.7387 11.37 49.8102C11.4271 49.8817 11.4859 49.9471 11.5415 50.0061L12.7767 49.1306V49.1322ZM13.9794 47.4635C13.8202 47.2365 13.6362 47.0981 13.4291 47.0499C13.2204 47.0016 13.0071 47.0545 12.7891 47.21C12.5603 47.3718 12.4428 47.5599 12.4382 47.773C12.4335 47.986 12.5371 48.2442 12.7504 48.5474L13.0333 48.9518L14.3257 48.0358C14.2948 47.9689 14.2469 47.8819 14.1819 47.773C14.117 47.6641 14.0505 47.5615 13.981 47.4635H13.9794Z" fill="black"/>
<path d="M13.5497 46.302L13.3256 46.4233L12.9824 45.9972L9.97406 47.627L10.1379 48.1495L9.91377 48.2708L8.55957 45.7422L9.44691 45.2616L9.57986 45.5105L9.03416 45.9521L9.38817 46.613L9.75455 47.2304L11.084 46.5104L10.5615 45.5338L10.2075 45.6302L10.09 45.4094L10.9774 44.9289L11.0948 45.1497L10.8259 45.3907L11.3484 46.3673L12.718 45.6255C12.6979 45.5338 12.6593 45.4187 12.6021 45.2803C12.5449 45.1419 12.4831 45.0128 12.4197 44.8915L12.0749 44.2477L11.4365 44.4483L11.3004 44.1948L12.1708 43.7236L13.5528 46.3036L13.5497 46.302Z" fill="black"/>
<path d="M12.4049 44.304L12.1622 44.4004L11.9535 44.0769L7.88011 44.1453L7.79199 43.9183L10.8049 41.1269L10.7323 40.7287L10.975 40.6323L11.4882 41.9526L11.2455 42.049L10.9843 41.5872L10.2979 42.2154L10.8946 43.7503L11.8067 43.7006L11.6938 43.2014L11.9365 43.105L12.4034 44.3055L12.4049 44.304ZM10.5499 43.7612L10.0413 42.4534L8.74426 43.6399L8.53557 43.8048L8.54793 43.8343L8.81074 43.8063L10.553 43.7612H10.5499Z" fill="black"/>
<path d="M10.7891 39.3243C10.8788 39.7069 10.8773 40.0163 10.7845 40.2512C10.6918 40.486 10.5202 40.6695 10.2682 40.8032C10.0162 40.937 9.6962 41.0489 9.31281 41.1407L7.35726 41.601L7.38972 42.1329L7.13465 42.192L6.78682 40.7006L7.04189 40.6399L7.25059 41.1438L9.2046 40.6835C9.57252 40.5964 9.85388 40.4984 10.0471 40.3896C10.2404 40.2807 10.3578 40.133 10.4027 39.9464C10.4475 39.7613 10.432 39.5109 10.3594 39.1999C10.2945 38.9169 10.1893 38.7132 10.044 38.5887C9.90025 38.4643 9.71475 38.399 9.49059 38.3897C9.26644 38.3819 9.00054 38.413 8.69446 38.4846L6.75126 38.9418L6.77909 39.4814L6.51783 39.542L6.19629 38.1626L6.45755 38.102L6.66933 38.5919L8.61252 38.1346C8.90161 38.0662 9.16441 38.0273 9.39784 38.0196C9.63127 38.0102 9.83842 38.0445 10.0177 38.1207C10.1971 38.1969 10.3501 38.3321 10.4784 38.525C10.6067 38.7194 10.7103 38.9837 10.7876 39.3212L10.7891 39.3243Z" fill="black"/>
<path d="M10.2478 36.8468L9.98807 36.8717L9.84893 36.3507L6.40932 36.682L6.50053 37.6399L7.19154 37.7021L7.21782 37.9836L6.21608 38.08L5.91309 34.8889L6.91637 34.7925L6.9442 35.0802L6.27637 35.2606L6.36913 36.231L9.80874 35.8997L9.84739 35.3617L10.1071 35.3368L10.2509 36.8499L10.2478 36.8468Z" fill="black"/>
<path d="M10.0609 34.133L9.79963 34.1284L9.71924 33.5949L8.60465 33.5763L6.25489 34.8826L6.14668 35.22L5.91016 35.2154L5.93489 33.7473L6.17141 33.752L6.26417 34.3119H6.38475L8.24446 33.301V33.2824L6.41412 32.2435H6.29972L6.18842 32.7598L5.9519 32.7552L5.97354 31.48L6.21006 31.4846L6.29354 31.7739L8.566 33.1144L9.72543 33.1346L9.82282 32.6106L10.0841 32.6152L10.0578 34.1346L10.0609 34.133Z" fill="black"/>
<path d="M10.5142 29.5426C10.4106 30.1273 10.171 30.5519 9.79533 30.8131C9.42122 31.076 8.86779 31.1413 8.13503 31.0091C7.84595 30.9578 7.5816 30.8629 7.34044 30.7261C7.09929 30.5892 6.89523 30.4181 6.72982 30.2113C6.56286 30.006 6.44537 29.7712 6.37581 29.5068C6.30624 29.2425 6.29851 28.9563 6.35416 28.65C6.41291 28.3172 6.48402 28.0513 6.56441 27.8506C6.64479 27.65 6.70972 27.5241 6.75764 27.4712L7.69291 27.6391L7.64653 27.8973L6.92151 27.9688C6.87668 28.0528 6.8303 28.1694 6.78083 28.3218C6.73291 28.4742 6.69581 28.6173 6.67262 28.7511C6.58141 29.2596 6.65716 29.6468 6.89677 29.9081C7.13793 30.1709 7.56305 30.3575 8.17368 30.4664C8.54624 30.5332 8.87552 30.5472 9.15996 30.5068C9.44595 30.4664 9.67784 30.3591 9.85871 30.1833C10.0396 30.0076 10.1602 29.7463 10.2204 29.4011C10.2483 29.2456 10.2637 29.1165 10.2668 29.0123C10.2699 28.9081 10.2637 28.8148 10.2498 28.7293C10.2359 28.6438 10.2096 28.552 10.1756 28.4556L9.00228 28.2441L8.81214 28.6593L8.5617 28.6142L8.76112 27.4976L9.06876 27.5536L9.05639 27.8055L10.712 28.1041L10.6765 28.3063L10.4832 28.4152L10.4662 28.51C10.4956 28.5847 10.525 28.7013 10.5528 28.8584C10.5806 29.0154 10.5683 29.244 10.5157 29.5426H10.5142Z" fill="black"/>
<path d="M10.7182 28.1135L10.4755 28.0373L10.5389 27.493L7.27862 26.4651L7.022 26.9487L6.7793 26.8725L7.63418 24.1309L8.59572 24.4341L8.51225 24.7031L7.81659 24.6176L7.59398 25.333L7.41157 26.0281L8.85234 26.4822L9.18162 25.4232L8.86626 25.2366L8.94046 24.9986L9.90201 25.3019L9.8278 25.5414L9.46915 25.5149L9.13988 26.574L10.6239 27.042C10.675 26.9643 10.7291 26.8554 10.7878 26.717C10.8465 26.5786 10.896 26.4449 10.9362 26.3143L11.1542 25.6176L10.5652 25.2972L10.6518 25.0219L11.5948 25.319L10.7229 28.1151L10.7182 28.1135Z" fill="black"/>
<path d="M11.4928 25.4789L11.2733 25.3747L11.3583 24.9548L8.2464 23.4744L7.99596 23.7947L7.76562 23.6843L8.11654 22.9363L12.0709 22.3702L12.2595 22.3609L12.2673 22.3438L9.4151 20.9862L9.1492 21.3127L8.92968 21.2085L9.42901 20.1479L9.64853 20.2521L9.56659 20.6674L12.9892 22.2956L12.7898 22.7186L8.88176 23.2784L8.71017 23.2815L8.70244 23.2986L11.5082 24.6329L11.7803 24.2939L11.9998 24.3981L11.4928 25.4758V25.4789Z" fill="black"/>
<path d="M13.1074 22.1026L12.8941 21.9626L13.1028 21.4557L10.2444 19.5724L9.86568 19.9674L9.65234 19.8275L11.2168 17.4248L12.0593 17.98L11.9063 18.2164L11.2601 17.9442L10.852 18.5725L10.4871 19.1914L11.7501 20.0234L12.3546 19.095L12.101 18.8291L12.2371 18.6191L13.0796 19.1743L12.9436 19.3827L12.605 19.2598L12.0006 20.1883L13.3022 21.0451C13.3718 20.9845 13.4537 20.8958 13.548 20.7776C13.6423 20.661 13.7258 20.5444 13.8 20.4309L14.1988 19.8197L13.7196 19.35L13.8773 19.109L14.7043 19.6533L13.1074 22.1042V22.1026Z" fill="black"/>
<path d="M14.6024 19.781L14.4077 19.6161L14.6751 19.1387L12.0656 16.9196L11.642 17.2648L11.4473 17.1L12.6082 15.719C12.7427 15.5588 12.8973 15.4329 13.0689 15.3396C13.242 15.2462 13.4214 15.2027 13.6053 15.2074C13.7893 15.2136 13.9671 15.2882 14.1356 15.4313C14.301 15.5713 14.4216 15.7097 14.4958 15.8419C14.57 15.9756 14.6133 16.1062 14.6241 16.2353C14.6349 16.3644 14.6287 16.4919 14.6055 16.6148C14.5823 16.7376 14.5545 16.8589 14.5221 16.9771L16.2411 17.2461L16.6183 16.9864L16.8131 17.1513L16.4838 17.5432C16.4266 17.6116 16.3725 17.6551 16.3199 17.6722C16.2689 17.6909 16.2024 17.6956 16.1205 17.6862L14.3304 17.3737L13.9021 17.8822L14.9688 18.7888L15.3924 18.4436L15.5872 18.6084L14.604 19.7794L14.6024 19.781ZM13.6579 17.6753L13.9547 17.3223C14.0861 17.1653 14.1727 17.0004 14.2113 16.8278C14.2515 16.6552 14.2469 16.4872 14.199 16.3255C14.151 16.1638 14.0583 16.0254 13.9222 15.9103C13.7769 15.7859 13.6409 15.7143 13.5157 15.6941C13.3905 15.6739 13.2776 15.6863 13.1756 15.7314C13.0735 15.7765 12.9839 15.8356 12.905 15.9087C12.8262 15.9818 12.7597 16.0518 12.7056 16.1171C12.6531 16.1793 12.5959 16.2524 12.534 16.3364C12.4722 16.4204 12.415 16.4997 12.364 16.5743L13.6594 17.6753H13.6579Z" fill="black"/>
<path d="M16.1856 17.8015L16.0079 17.6087L16.232 17.2961L14.6846 13.5047L14.8623 13.3398L18.5447 15.1469L18.8863 14.9338L19.0641 15.1267L18.0299 16.0877L17.8521 15.8949L18.1845 15.4812L17.3528 15.0676L16.1501 16.1857L16.5273 17.0224L16.9493 16.7347L17.1271 16.9275L16.1856 17.8015ZM16.0125 15.8669L17.0374 14.9136L15.4668 14.1298L15.238 13.993L15.2148 14.0148L15.3369 14.2511L16.014 15.8654L16.0125 15.8669Z" fill="black"/>
<path d="M18.6642 15.5058L18.5127 15.299L18.8837 14.8977L16.8648 12.125L16.3732 12.3598L16.2217 12.1529L17.5017 11.209L17.6717 11.4423L17.2404 11.8715L19.2408 14.6178L19.8422 14.2384L20.4172 13.8138L20.1251 13.1949L20.3569 13.0238L20.9413 13.8247L18.6642 15.5042V15.5058Z" fill="black"/>
<path d="M19.8823 14.5063L19.7493 14.2808L20.0338 14.0211L19.3057 9.98867L19.5144 9.86426L22.7406 12.4038L23.1194 12.2669L23.2523 12.4924L22.0419 13.2155L21.909 12.9901L22.3186 12.6557L21.5905 12.0756L20.1822 12.917L20.3785 13.8143L20.85 13.6214L20.983 13.8469L19.8807 14.5047L19.8823 14.5063ZM20.1157 12.5779L21.3153 11.861L19.941 10.7647L19.7447 10.5843L19.7169 10.6014L19.7864 10.858L20.1142 12.5795L20.1157 12.5779Z" fill="black"/>
<path d="M23.8839 12.3413C23.7371 12.4082 23.584 12.4579 23.4248 12.4937C23.2656 12.5279 23.1187 12.5466 22.9842 12.5481C22.8497 12.5497 22.743 12.5388 22.6611 12.5155L22.3071 11.727L22.5807 11.6026L22.9425 12.1625C23.0553 12.1858 23.1883 12.1874 23.3413 12.164C23.4944 12.1423 23.6258 12.1049 23.734 12.0567C24.0447 11.9168 24.2379 11.755 24.3168 11.5715C24.3956 11.388 24.3863 11.1874 24.2889 10.9697C24.2178 10.8095 24.122 10.6991 24.0014 10.64C23.8808 10.5794 23.7448 10.5451 23.5917 10.5374C23.4387 10.5296 23.2795 10.5296 23.111 10.5405C22.961 10.5483 22.8064 10.5514 22.6503 10.5483C22.4926 10.5467 22.3427 10.5296 22.1973 10.4969C22.052 10.4643 21.9206 10.4052 21.8031 10.3197C21.6857 10.2341 21.5914 10.1144 21.5218 9.95731C21.4259 9.7427 21.3935 9.53743 21.4244 9.34148C21.4553 9.14398 21.5419 8.96514 21.6857 8.8003C21.8294 8.63546 22.0227 8.50016 22.2669 8.38975C22.3906 8.33376 22.522 8.284 22.6611 8.24046C22.8002 8.19691 22.927 8.1627 23.0414 8.13782C23.1558 8.11294 23.2393 8.10205 23.2918 8.10205L23.6629 8.93249L23.4078 9.04757L23.046 8.53593C22.978 8.52971 22.8806 8.53904 22.7539 8.56237C22.6271 8.58725 22.4957 8.62924 22.3612 8.69144C22.1046 8.80808 21.9345 8.94648 21.848 9.10666C21.7614 9.26839 21.7629 9.44723 21.8526 9.64629C21.9315 9.82202 22.0397 9.93865 22.1772 9.99774C22.3164 10.0568 22.4725 10.0848 22.6487 10.0833C22.825 10.0817 23.0058 10.0755 23.1929 10.0662C23.383 10.0553 23.5701 10.0568 23.7541 10.0724C23.938 10.0879 24.105 10.1377 24.2565 10.2248C24.4064 10.3119 24.5286 10.4581 24.6213 10.6649C24.7125 10.8671 24.7543 11.0552 24.7481 11.2294C24.7419 11.4036 24.6986 11.5606 24.6182 11.7037C24.5378 11.8452 24.4327 11.9712 24.3029 12.0785C24.173 12.1858 24.0339 12.2744 23.8824 12.3429L23.8839 12.3413Z" fill="black"/>
<path d="M26.0718 11.4751C25.9188 11.5264 25.7611 11.5606 25.5988 11.5793C25.4365 11.598 25.2896 11.6011 25.1551 11.5902C25.0206 11.5793 24.9155 11.5575 24.8382 11.5249L24.5661 10.7038L24.8506 10.6089L25.1551 11.203C25.2649 11.2387 25.3978 11.2527 25.5524 11.245C25.707 11.2387 25.84 11.2154 25.9528 11.1781C26.2759 11.0692 26.4846 10.9277 26.582 10.7535C26.6778 10.5794 26.6887 10.3788 26.6145 10.1517C26.5588 9.98531 26.4753 9.86712 26.3609 9.79403C26.2465 9.72249 26.1151 9.67428 25.9636 9.65096C25.8121 9.62763 25.6529 9.61208 25.4844 9.60586C25.3345 9.59808 25.1814 9.58564 25.0253 9.56698C24.8691 9.54832 24.7207 9.51722 24.5801 9.47056C24.4394 9.42391 24.3142 9.35082 24.206 9.2544C24.0977 9.15798 24.0174 9.02891 23.9632 8.86562C23.889 8.64324 23.8782 8.43485 23.9277 8.24202C23.9772 8.04918 24.0823 7.87967 24.2415 7.73038C24.4007 7.58264 24.6079 7.46601 24.8614 7.38048C24.9897 7.33693 25.1258 7.30117 25.268 7.27006C25.4102 7.24052 25.5401 7.21875 25.6576 7.2063C25.775 7.19386 25.8585 7.19075 25.9095 7.19542L26.1955 8.05851L25.9296 8.14871L25.6204 7.60286C25.554 7.58886 25.455 7.58886 25.3267 7.59975C25.1984 7.61064 25.0639 7.64018 24.9233 7.68839C24.6574 7.77703 24.4734 7.89833 24.3714 8.04918C24.2693 8.20003 24.2523 8.37887 24.3219 8.58725C24.3822 8.7692 24.478 8.89828 24.611 8.96981C24.7439 9.04135 24.8954 9.08645 25.0717 9.102C25.2463 9.11755 25.4272 9.12999 25.6143 9.13932C25.806 9.1471 25.9915 9.16887 26.1723 9.20153C26.3532 9.23574 26.5155 9.30261 26.6562 9.40369C26.7969 9.50477 26.9035 9.6634 26.9747 9.878C27.0442 10.0895 27.0674 10.2808 27.0442 10.4534C27.021 10.626 26.9607 10.7784 26.8664 10.9122C26.7721 11.0459 26.6547 11.1594 26.5155 11.2527C26.3764 11.346 26.228 11.4207 26.0703 11.4736L26.0718 11.4751Z" fill="black"/>
<path d="M28.9445 10.7302C28.3323 10.853 27.833 10.7628 27.448 10.4596C27.0631 10.1563 26.808 9.68978 26.6828 9.05995C26.604 8.66184 26.6055 8.28395 26.689 7.92783C26.7725 7.5717 26.941 7.26534 27.196 7.00875C27.4511 6.75215 27.7989 6.57954 28.2411 6.49089C28.6075 6.4178 28.9367 6.43491 29.2304 6.54688C29.5226 6.65729 29.77 6.85013 29.9694 7.12072C30.1688 7.39286 30.3095 7.73344 30.3914 8.14399C30.4502 8.43791 30.4703 8.72405 30.4548 9.00397C30.4393 9.28389 30.3775 9.54204 30.2708 9.77687C30.1642 10.0117 30.0018 10.2123 29.7854 10.3787C29.569 10.5435 29.2907 10.6617 28.9475 10.7302H28.9445ZM29.0063 10.3849C29.3016 10.3258 29.5257 10.2076 29.6772 10.0304C29.8287 9.85462 29.9184 9.62446 29.9462 9.34143C29.974 9.0584 29.9508 8.73182 29.8766 8.35859C29.8009 7.97759 29.7066 7.6759 29.5922 7.45507C29.4793 7.23424 29.351 7.07251 29.2073 6.97298C29.0635 6.87345 28.9104 6.81747 28.745 6.80503C28.5796 6.79259 28.4065 6.80503 28.2225 6.8408C28.0896 6.86723 27.9582 6.903 27.8283 6.94654C27.6985 6.99009 27.5794 7.05385 27.4728 7.13938C27.3661 7.22336 27.2811 7.34154 27.2177 7.49084C27.1543 7.64013 27.1188 7.83452 27.1126 8.0709C27.1064 8.30728 27.1373 8.59964 27.2053 8.94799C27.2888 9.36787 27.4109 9.69289 27.5748 9.92305C27.7371 10.1548 27.9381 10.3041 28.1777 10.374C28.4173 10.444 28.6925 10.4471 29.0047 10.3834L29.0063 10.3849Z" fill="black"/>
<path d="M32.3916 10.2792C31.7516 10.3181 31.2692 10.1688 30.9477 9.83136C30.6262 9.4939 30.4453 8.98848 30.4051 8.30889C30.3881 8.02742 30.4175 7.75216 30.4901 7.48468C30.5643 7.2172 30.6803 6.9746 30.8395 6.75688C30.9987 6.53916 31.1997 6.36344 31.4408 6.2297C31.682 6.09595 31.9634 6.0182 32.2864 5.99954C32.5106 5.98554 32.7301 5.98865 32.9419 6.00576C33.1537 6.02286 33.3361 6.06019 33.4876 6.11462L33.5448 7.08035L33.2712 7.09745L33.0949 6.39454C32.9867 6.37121 32.8538 6.3541 32.693 6.34477C32.5322 6.33544 32.3746 6.33544 32.2169 6.34477C31.9123 6.36344 31.6604 6.44897 31.4625 6.60137C31.2646 6.75377 31.1224 6.97149 31.0343 7.25297C30.9462 7.53444 30.9152 7.87812 30.9384 8.28246C30.9554 8.5686 31.0003 8.81897 31.0729 9.03513C31.1456 9.2513 31.2445 9.43014 31.3697 9.57321C31.4949 9.71628 31.6464 9.81892 31.8227 9.88423C31.9989 9.94955 32.2014 9.97443 32.4302 9.96043C32.6204 9.94955 32.7765 9.92311 32.8986 9.88423C33.0192 9.84535 33.1135 9.80181 33.1815 9.75516C33.2495 9.7085 33.2975 9.67274 33.3253 9.65096L33.4088 9.01647L33.6824 9.00092L33.7365 9.92933C33.6577 9.96821 33.5634 10.0118 33.4505 10.0615C33.3377 10.1113 33.197 10.1564 33.0269 10.1953C32.8569 10.2357 32.6451 10.2621 32.39 10.2777L32.3916 10.2792Z" fill="black"/>
<path d="M33.6436 10.1811L33.6528 9.91826L34.1846 9.84672L34.3067 6.39902L33.7811 6.29016L33.7904 6.02734L35.3069 6.08177L35.2977 6.34459L34.7659 6.41612L34.6437 9.86383L35.1694 9.97269L35.1601 10.2355L33.6436 10.1811Z" fill="black"/>
<path d="M34.625 10.1345L34.6575 9.87329L35.0408 9.84529L36.9377 6.21875L37.1773 6.24985L38.1636 10.2496L38.5454 10.3771L38.5114 10.6384L37.1139 10.458L37.1479 10.1968L37.6766 10.1874L37.4586 9.28078L35.8339 9.07084L35.4397 9.89972L35.9297 10.0412L35.8957 10.3025L34.625 10.1377V10.1345ZM35.9885 8.75982L37.3736 8.93866L36.9624 7.22336L36.9191 6.95899L36.8882 6.95432L36.7862 7.20003L35.9885 8.75826V8.75982Z" fill="black"/>
<path d="M38.5142 10.7083L38.5776 10.4533L39.1125 10.4937L39.9442 7.12065L39.0166 6.88894L38.7291 7.52343L38.457 7.455L38.6997 6.47217L41.7931 7.24506L41.5504 8.2279L41.2721 8.15792L41.3247 7.46434L40.3848 7.22951L39.5531 10.6026L40.0447 10.8172L39.9813 11.0722L38.5158 10.7052L38.5142 10.7083Z" fill="black"/>
<path d="M40.4396 11.2093L40.5231 10.9605L41.0533 11.0475L42.1586 7.78178L41.6872 7.52519L41.7706 7.27637L43.2068 7.76934L43.1217 8.01816L42.5915 7.93107L41.4862 11.1968L41.9577 11.4534L41.8727 11.7022L40.4365 11.2108L40.4396 11.2093Z" fill="black"/>
<path d="M43.4227 12.4519C42.8553 12.1875 42.506 11.819 42.3746 11.3431C42.2416 10.8688 42.3096 10.3416 42.5786 9.75998C42.7487 9.39142 42.9713 9.08817 43.248 8.85023C43.5247 8.61074 43.8401 8.46456 44.1956 8.40858C44.5512 8.35259 44.933 8.42102 45.3427 8.61074C45.6828 8.76937 45.9363 8.98086 46.1079 9.24368C46.2795 9.50805 46.3645 9.80819 46.3661 10.1456C46.3661 10.4831 46.281 10.8423 46.1048 11.2218C45.9796 11.4939 45.8281 11.7365 45.6519 11.9543C45.4741 12.1704 45.2731 12.343 45.049 12.469C44.8248 12.595 44.5759 12.6603 44.3054 12.6665C44.0333 12.6712 43.7396 12.5996 43.4242 12.4535L43.4227 12.4519ZM43.6747 12.2093C43.9483 12.3368 44.1972 12.3741 44.4229 12.3228C44.6486 12.2699 44.8557 12.1378 45.0443 11.9278C45.2329 11.7163 45.4076 11.4395 45.5668 11.0943C45.7292 10.7413 45.8296 10.4427 45.8683 10.1954C45.9069 9.9497 45.8977 9.74287 45.8405 9.57803C45.7833 9.41319 45.692 9.27478 45.5653 9.16748C45.4401 9.05862 45.2917 8.96531 45.1216 8.886C44.9979 8.82846 44.8712 8.7787 44.7413 8.73671C44.6115 8.69472 44.477 8.67606 44.3425 8.68073C44.2064 8.68539 44.0689 8.73049 43.9297 8.81291C43.7906 8.89689 43.6484 9.03218 43.5031 9.2188C43.3577 9.40541 43.2124 9.66045 43.064 9.98236C42.8847 10.3696 42.7935 10.7055 42.7889 10.9885C42.7842 11.2716 42.8584 11.5126 43.0115 11.7101C43.1645 11.9076 43.384 12.0756 43.6731 12.2093H43.6747Z" fill="black"/>
<path d="M44.9824 13.074L45.1169 12.8718L45.5173 13.018L47.428 10.1379L47.1498 9.84245L47.292 9.62939L47.9753 10.0882L47.9536 14.105L47.9351 14.2932L47.9505 14.3041L49.702 11.665L49.4191 11.3525L49.5536 11.1503L50.5245 11.8019L50.39 12.0041L49.9942 11.861L47.8918 15.0288L47.5053 14.7691L47.527 10.7988L47.5486 10.6278L47.5331 10.6169L45.8095 13.214L46.1032 13.5343L45.9687 13.7365L44.9824 13.074Z" fill="black"/>
<path d="M10.3819 52.0966L7.39217 54.2582L7.63951 54.7994L7.3628 54.9984L6.25903 53.4542L6.53575 53.2551L6.96705 53.6626L8.26715 52.7233L8.16048 52.5724L6.16628 52.4434L6.09207 52.4978L6.2513 52.8663L5.98077 53.0623L5.09961 51.8306L5.37632 51.6316L5.70869 51.9255L7.81111 52.0717L8.6428 49.6721L8.45575 49.2025L8.73246 49.0034L9.19159 49.6457C9.25807 49.7374 9.29517 49.8199 9.30444 49.8883C9.31372 49.9583 9.29826 50.0454 9.25652 50.1511L8.45729 52.3532L8.5686 52.5087L9.9599 51.5025L9.71256 50.9613L9.98928 50.7623L11.093 52.3065L10.8163 52.5056L10.385 52.0981L10.3819 52.0966Z" fill="black"/>
<path d="M8.62291 49.7125C8.44668 50.2335 8.03702 50.6736 7.39393 51.0343C6.98581 51.2629 6.57306 51.3905 6.15721 51.4138C5.74136 51.4387 5.35489 51.35 4.99779 51.151C4.64069 50.9519 4.34851 50.644 4.11817 50.2303C3.80127 49.6581 3.7317 49.1122 3.91257 48.5959C4.09344 48.0796 4.49692 47.6442 5.12301 47.2927C5.54349 47.0563 5.95779 46.9179 6.36436 46.8775C6.77093 46.8371 7.14967 46.9102 7.49905 47.0968C7.84842 47.2834 8.14369 47.5929 8.3833 48.0236C8.71876 48.6286 8.79914 49.1915 8.62291 49.7125ZM7.04919 47.5275C6.68436 47.5073 6.22214 47.6535 5.66562 47.9661C5.2204 48.2165 4.89576 48.4575 4.69325 48.6908C4.49074 48.924 4.38561 49.1526 4.37943 49.3766C4.37325 49.6005 4.44127 49.8384 4.58194 50.0919C4.72417 50.3485 4.88339 50.5383 5.05808 50.6564C5.23277 50.7762 5.46774 50.8166 5.76301 50.7793C6.05827 50.742 6.43856 50.5911 6.90542 50.3299C7.51141 49.9893 7.89016 49.6425 8.04011 49.2895C8.19006 48.9365 8.14832 48.5477 7.91335 48.1247C7.70465 47.7468 7.41711 47.5478 7.05074 47.5275H7.04919Z" fill="black"/>
<path d="M7.2226 46.8726L6.88251 46.3828L3.48772 47.8026L3.59902 48.3889L3.29139 48.5179L2.52154 46.6565C2.34067 46.2179 2.28501 45.8369 2.35612 45.515C2.42724 45.1915 2.65294 44.952 3.03168 44.7934C3.37178 44.6519 3.66859 44.6239 3.92212 44.711C4.17564 44.7981 4.41835 44.9552 4.65023 45.1822L5.76173 43.6753L5.68907 43.1652L5.99671 43.0361L6.31671 43.8121C6.38782 43.9832 6.37081 44.134 6.26569 44.2662L5.06144 45.7887L5.25932 46.2692L6.59961 45.7078L6.49449 45.1184L6.80212 44.9894L7.52869 46.7451L7.22106 46.8742L7.2226 46.8726ZM4.71052 46.0857C4.5884 45.7918 4.41062 45.5896 4.17564 45.4792C3.94067 45.3688 3.68559 45.3719 3.41197 45.487C3.1198 45.6099 2.95284 45.77 2.90956 45.9675C2.86627 46.1666 2.89719 46.3936 3.0054 46.6533C3.06724 46.8026 3.14144 46.9566 3.22646 47.1168L4.85429 46.4356L4.71052 46.0873V46.0857Z" fill="black"/>
<path d="M5.73044 43.5045L2.21198 44.576L2.26454 45.17L1.94608 45.2664L0.981445 42.0613L2.14087 41.7083L2.25372 42.0831L1.55343 42.4594L1.81159 43.3194L2.02647 43.8637L3.51826 43.4096L3.22918 42.4485L2.77468 42.461L2.68193 42.1546L3.94338 41.7705L4.03613 42.0769L3.63111 42.3272L3.92019 43.2883L5.48618 42.8109C5.46454 42.6243 5.41971 42.4174 5.35015 42.1888L5.08889 41.3226L4.28657 41.388L4.17526 41.0194L5.35478 40.6602L6.33797 43.9259L6.01952 44.0223L5.72889 43.4998L5.73044 43.5045Z" fill="black"/>
<path d="M5.25934 41.7674L5.06765 41.3397L0.660299 40.6493L0.564453 40.1594L4.37045 37.7676L4.38436 37.2855L4.71054 37.2202L5.06455 39.0382L4.73837 39.1035L4.53277 38.6074L4.39827 38.6556L3.74127 39.0615L4.05354 40.6617L4.81876 40.7721L4.95325 40.7597V40.1936L5.27789 40.1283L5.58552 41.7005L5.25934 41.7658V41.7674ZM3.32542 39.2963L1.7517 40.2527L1.65276 40.3009L1.63576 40.3258L1.78107 40.3336L3.57895 40.5964L3.32542 39.2963Z" fill="black"/>
<path d="M4.54922 38.2729L4.3699 37.7022L0.709217 38.0334L0.641197 38.6259L0.310376 38.6554L0.141873 36.7675C0.0970421 36.2668 0.160424 35.8702 0.330472 35.581C0.500521 35.2917 0.764869 35.13 1.12197 35.0989C1.36158 35.0771 1.57028 35.1222 1.7496 35.2311C1.92738 35.3415 2.08043 35.525 2.20719 35.78C2.25047 35.4752 2.36796 35.2233 2.55502 35.0227C2.74361 34.8221 2.97086 34.7101 3.23985 34.6852C3.65415 34.6479 3.98806 34.7599 4.24468 35.0242C4.5013 35.287 4.65125 35.6712 4.69608 36.1781L4.88004 38.2433L4.54922 38.2729ZM2.19482 36.8328C2.16545 36.4969 2.06497 36.245 1.89646 36.0771C1.72796 35.9091 1.50226 35.8376 1.21936 35.8624C0.74941 35.9044 0.540714 36.2263 0.59482 36.8282C0.610279 36.9946 0.635014 37.1516 0.672115 37.3009L2.22419 37.161L2.19482 36.8344V36.8328ZM3.33415 35.4923C3.04661 35.5188 2.84719 35.6292 2.73434 35.822C2.62149 36.0164 2.58284 36.3119 2.6184 36.7084L2.6555 37.1205L4.29878 36.9712C4.31115 36.8515 4.30806 36.6727 4.28642 36.4363C4.22613 35.7551 3.90767 35.441 3.33415 35.4923Z" fill="black"/>
<path d="M4.13372 34.6699L0.457585 34.6373L0.332367 35.2205L0 35.2174L0.029372 31.8692L1.23981 31.8801L1.23672 32.2719L0.456039 32.4212L0.44831 33.3185L0.493141 33.9033L2.0514 33.9173L2.06068 32.9127L1.62319 32.7882L1.62628 32.4679L2.94338 32.4803L2.94029 32.8007L2.47807 32.9173L2.46879 33.9219L4.10435 33.9359C4.13836 33.7509 4.15691 33.5394 4.16 33.303L4.16773 32.3979L3.38242 32.2191L3.38551 31.835L4.61759 31.8458L4.58667 35.2578L4.2543 35.2547L4.13218 34.6699H4.13372Z" fill="black"/>
<path d="M4.1986 32.8691L4.1414 32.4041L0.140625 30.4213L0.194731 29.9252L4.53715 28.7838L4.69329 28.3281L5.02411 28.3639L4.82314 30.2052L4.49232 30.1694L4.4444 29.6329L4.30063 29.6391L3.55396 29.8288L3.37773 31.4508L4.07493 31.7852L4.20788 31.8147L4.37329 31.2735L4.70411 31.3093L4.53097 32.9033L4.20015 32.866L4.1986 32.8691ZM3.08556 29.9299L1.2985 30.3716L1.19029 30.3887L1.1671 30.4073L1.30468 30.4586L2.94333 31.2486L3.0871 29.9315L3.08556 29.9299Z" fill="black"/>
<path d="M0.681407 28.5828L0.350586 28.5066L0.771069 26.6669L1.10189 26.7431L1.08489 27.3247L3.19658 27.8146C3.61088 27.911 3.93243 27.9499 4.16122 27.9312C4.39001 27.9141 4.56624 27.8332 4.68837 27.6917C4.81049 27.5502 4.90788 27.3216 4.979 27.0059C5.04083 26.7369 5.03619 26.5145 4.96508 26.3372C4.89397 26.1599 4.75639 26.0153 4.55233 25.9018C4.34827 25.7882 4.06383 25.6903 3.70054 25.6063L1.59503 25.1195L1.35542 25.6561L1.01687 25.5783L1.39561 23.9268L1.73416 24.0045L1.71561 24.5923L3.82112 25.0807C4.29571 25.1911 4.66518 25.3295 4.93107 25.499C5.19697 25.6685 5.37475 25.8987 5.46286 26.1895C5.55098 26.4803 5.54325 26.8551 5.43813 27.3138C5.3361 27.7586 5.18615 28.0852 4.98827 28.2951C4.7904 28.505 4.53532 28.6248 4.22305 28.6543C3.91078 28.6839 3.51349 28.6434 3.02962 28.5315L0.917929 28.0416L0.67677 28.5859L0.681407 28.5828Z" fill="black"/>
<path d="M5.58356 25.0095L5.66549 24.4263L2.18104 23.204L1.87032 24.0982L2.53969 24.5057L2.41447 24.8696L1.27051 24.4683L2.49177 20.9429L3.63573 21.3441L3.50742 21.7142L2.73447 21.6085L2.42375 22.5027L5.90819 23.725L6.20346 23.218L6.52501 23.33L5.9051 25.1199L5.58356 25.008V25.0095Z" fill="black"/>
<path d="M6.55774 22.3485L6.69378 21.7762L5.58074 21.2631L2.74866 21.4932L2.45957 21.854L2.16895 21.7203L2.91252 20.0889L3.2016 20.2227L3.09184 20.7359L3.2016 20.7872L5.28856 20.669L5.32721 20.585L4.03639 18.9226L3.94054 18.8775L3.60972 19.3285L3.31909 19.1947L3.97455 17.7578L4.26363 17.8916L4.18634 18.3503L5.82653 20.5648L6.99832 21.106L7.33996 20.6286L7.64914 20.7716L6.86383 22.4947L6.55465 22.3516L6.55774 22.3485Z" fill="black"/>
<path d="M7.21958 17.5166L6.93359 17.3455L7.72972 15.9972L8.04663 16.1869L7.95388 16.4964L9.54924 17.4497L9.39465 17.7125L9.12103 17.798L9.07774 17.8711C9.09011 18.221 8.9819 18.5896 8.7531 18.9784C8.05591 20.1587 7.04334 20.3516 5.71697 19.5584C5.31967 19.3205 5.00585 19.025 4.77861 18.6705C4.55136 18.3159 4.43387 17.9333 4.42614 17.5228C4.41841 17.1122 4.53436 16.7048 4.77397 16.3005C4.93474 16.0268 5.09861 15.795 5.26247 15.6069C5.42634 15.4172 5.56238 15.2834 5.66904 15.2041L6.66769 15.8013L6.46518 16.145L5.69842 15.9101C5.50672 16.0765 5.32431 16.3082 5.14962 16.6022C4.89455 17.0345 4.84508 17.4233 5.00585 17.7669C5.16508 18.1106 5.52528 18.4496 6.08489 18.7855C6.66151 19.1292 7.13764 19.291 7.51484 19.2661C7.8905 19.2428 8.20431 19.0188 8.45629 18.5943C8.55059 18.4356 8.61397 18.2957 8.64798 18.1791C8.68199 18.0609 8.70518 17.9318 8.71755 17.7903L7.60296 17.1247L7.22267 17.5181L7.21958 17.5166Z" fill="black"/>
<path d="M9.27201 17.0968L6.32244 14.8916L5.87877 15.2882L5.61133 15.0891L7.5978 12.4019L8.57017 13.1281L8.33829 13.4422L7.61945 13.1001L7.08766 13.8201L6.78157 14.3193L8.0322 15.2539L8.62737 14.4484L8.34756 14.0876L8.53771 13.831L9.5951 14.621L9.40496 14.8776L8.96438 14.6988L8.36921 15.5043L9.68167 16.4856C9.81771 16.3565 9.95684 16.1979 10.0975 16.0066L10.6339 15.2804L10.1037 14.6708L10.3325 14.3613L11.3219 15.1015L9.29829 17.8401L9.03085 17.6411L9.2751 17.0952L9.27201 17.0968Z" fill="black"/>
<path d="M10.8741 15.5947L10.6361 15.3708L10.9004 14.9074L8.19664 12.371L7.81017 12.6415L7.55664 12.4036L8.37751 11.5172L12.2763 12.2621L12.4231 12.2916L12.4571 12.2559L10.2341 10.172L9.79819 10.4644L9.56012 10.2404L10.6082 9.10986L10.8463 9.3338L10.582 9.79723L13.6119 12.64L13.125 13.1656L9.18138 12.4269L9.04534 12.3958L9.01133 12.4316L11.2498 14.531L11.6904 14.234L11.9284 14.4579L10.8757 15.5932L10.8741 15.5947Z" fill="black"/>
<path d="M13.6151 12.0488L11.2251 9.24022L10.7057 9.52791L10.4893 9.27287L13.0183 7.0957L13.8052 8.021L13.5099 8.27604L12.8854 7.78307L12.2067 8.36624L11.7971 8.78457L12.8096 9.97579L13.5687 9.32264L13.3739 8.90898L13.6166 8.70059L14.473 9.70675L14.2303 9.91514L13.8392 9.64299L13.0802 10.2961L14.1438 11.5465C14.3045 11.4516 14.4761 11.3256 14.6554 11.1717L15.3387 10.5838L14.9569 9.8716L15.2475 9.62122L16.0483 10.5636L13.4713 12.7828L13.2549 12.5277L13.6135 12.0503L13.6151 12.0488Z" fill="black"/>
<path d="M15.3428 10.6806L15.7463 10.2421L13.647 7.2065L13.1013 7.43977L12.9111 7.16451L14.556 6.01372C14.944 5.74313 15.3011 5.60783 15.6304 5.60939C15.9596 5.60939 16.241 5.78045 16.476 6.12102C16.6862 6.42583 16.7759 6.71041 16.745 6.9779C16.714 7.24538 16.6136 7.51752 16.442 7.79278L18.1409 8.56568L18.6201 8.38684L18.8103 8.66209L18.1239 9.14263C17.9724 9.24837 17.8224 9.26393 17.6725 9.18928L15.938 8.32774L15.5129 8.62477L16.3415 9.82377L16.8903 9.59517L17.0804 9.87042L15.5283 10.9559L15.3382 10.6806H15.3428ZM15.5747 8.04471C15.8344 7.86276 15.9936 7.64504 16.0508 7.39156C16.108 7.13807 16.0508 6.8877 15.8823 6.64199C15.7015 6.38073 15.5098 6.2501 15.3088 6.2501C15.1079 6.2501 14.8914 6.32941 14.6626 6.48959C14.5312 6.58134 14.3967 6.68709 14.2607 6.80528L15.2671 8.26243L15.5747 8.04626V8.04471Z" fill="black"/>
<path d="M17.4829 9.08933L17.8292 8.77675L17.1475 4.34154L17.5819 4.10205L21.0014 7.02568L21.4621 6.8935L21.6228 7.18741L20.0089 8.0785L19.8481 7.78458L20.2563 7.43779L20.1697 7.32271L19.5869 6.81574L18.1647 7.59952L18.2914 8.3662L18.344 8.49216L18.8789 8.31799L19.0396 8.6119L17.6421 9.38324L17.4829 9.08933ZM19.2391 6.48761L17.8555 5.26839L17.7797 5.18908L17.7504 5.18131L17.7875 5.32282L18.0843 7.12521L19.2391 6.48761Z" fill="black"/>
<path d="M20.5698 7.37261L21.0521 7.02426L19.5974 3.62788L19.0162 3.74762L18.8848 3.43971L20.661 2.66992L20.8017 2.9965L20.2745 3.34951L21.7122 6.70546L22.2811 6.5204L23.0231 6.19849L22.8732 5.41782L23.2241 5.26542L23.7002 6.37733L20.7012 7.67741L20.5698 7.3695V7.37261Z" fill="black"/>
<path d="M22.3857 6.49551L22.7846 6.25447L22.9469 1.77105L23.4184 1.61865L26.2288 5.13789L26.7065 5.0959L26.8085 5.4147L25.0555 5.98388L24.9535 5.66508L25.4203 5.40226L25.357 5.27319L24.8793 4.66514L23.3349 5.16589L23.3164 5.94345L23.3442 6.07719L23.9023 6.00876L24.0043 6.32756L22.4878 6.81898L22.3857 6.50018V6.49551ZM24.5964 4.27325L23.4663 2.81299L23.406 2.71968L23.3798 2.70568L23.389 2.85186L23.3427 4.67913L24.5964 4.27169V4.27325Z" fill="black"/>
<path d="M26.378 5.56419C26.1028 5.54552 25.9003 5.50198 25.7689 5.43356L25.534 4.36985L25.9421 4.27966L26.2141 4.95613C26.3285 5.01367 26.4692 5.051 26.6377 5.06966C26.8062 5.08832 26.9577 5.0821 27.0907 5.05255C27.4184 4.97946 27.641 4.86905 27.757 4.72131C27.8744 4.57357 27.9054 4.36985 27.8466 4.11015C27.8141 3.96241 27.7523 3.84733 27.6611 3.76491C27.5699 3.68249 27.457 3.62184 27.3226 3.58141C27.1881 3.54097 26.9948 3.50054 26.7444 3.45855C26.3997 3.40879 26.1384 3.36213 25.9591 3.31703C25.7797 3.27194 25.6082 3.17863 25.4443 3.03867C25.2804 2.89715 25.1676 2.68877 25.1057 2.4104C25.0207 2.02162 25.0887 1.67794 25.3098 1.37935C25.5324 1.08232 25.8756 0.880158 26.3409 0.77752C26.562 0.727757 26.7985 0.695099 27.052 0.677993C27.304 0.660886 27.4864 0.660886 27.5962 0.681103L27.8435 1.80079L27.4632 1.88477L27.1819 1.23317C27.1711 1.23006 27.0999 1.21918 26.9685 1.20051C26.8356 1.18185 26.6594 1.19585 26.4383 1.24561C26.1291 1.31404 25.9266 1.41668 25.8308 1.55197C25.7349 1.68727 25.7102 1.85678 25.755 2.06205C25.789 2.21912 25.8632 2.34042 25.9761 2.42128C26.0889 2.50215 26.2095 2.55814 26.3378 2.58457C26.4677 2.61101 26.6764 2.64678 26.967 2.68877C27.2468 2.73386 27.4833 2.78829 27.6735 2.85205C27.8636 2.91737 28.0321 3.02156 28.1774 3.16619C28.3227 3.31081 28.4232 3.51142 28.4804 3.76646C28.5515 4.09149 28.5345 4.37296 28.4279 4.61401C28.3212 4.85505 28.1604 5.04633 27.9456 5.19251C27.7307 5.33714 27.4895 5.43978 27.2221 5.50043C26.9314 5.56574 26.6485 5.58751 26.3734 5.56885L26.378 5.56419Z" fill="black"/>
<path d="M28.7087 5.06779C28.4366 5.02581 28.2372 4.96671 28.112 4.8874L27.9651 3.80815L28.3794 3.75061L28.5958 4.4473C28.7056 4.51417 28.8432 4.56238 29.0086 4.59504C29.1755 4.62769 29.3255 4.63391 29.4615 4.61525C29.7939 4.57016 30.0242 4.4784 30.1525 4.34C30.2809 4.20315 30.3272 4.00254 30.2917 3.73816C30.2716 3.58732 30.219 3.46757 30.1355 3.37893C30.0521 3.29029 29.9439 3.21875 29.814 3.16744C29.6826 3.11612 29.494 3.05858 29.2467 2.99793C28.9066 2.92017 28.6499 2.85175 28.4753 2.7911C28.3006 2.732 28.1367 2.6247 27.9852 2.47074C27.8337 2.31678 27.7379 2.09907 27.6992 1.81603C27.6451 1.42103 27.741 1.08357 27.9867 0.805205C28.2325 0.526838 28.5912 0.355774 29.0642 0.290459C29.2884 0.259357 29.528 0.245361 29.78 0.248471C30.0335 0.251581 30.2144 0.267132 30.3226 0.295125L30.4772 1.43192L30.0907 1.48479L29.8635 0.811425C29.8526 0.808315 29.7831 0.791209 29.6532 0.761661C29.5234 0.732114 29.3456 0.732114 29.1214 0.763216C28.8076 0.80676 28.5974 0.892291 28.4923 1.01981C28.3856 1.14733 28.3469 1.31373 28.3748 1.52212C28.3964 1.68229 28.4598 1.80826 28.5649 1.89846C28.67 1.98865 28.786 2.05397 28.9127 2.09129C29.0395 2.12861 29.2451 2.18149 29.5311 2.2468C29.8078 2.31367 30.0382 2.38832 30.2221 2.46763C30.4076 2.5485 30.5653 2.66669 30.6998 2.8222C30.8327 2.97927 30.9178 3.1861 30.9533 3.44425C30.9982 3.77393 30.958 4.05385 30.8327 4.28401C30.7075 4.51417 30.5313 4.69301 30.3056 4.82053C30.0799 4.94805 29.831 5.03047 29.5605 5.06779C29.2652 5.10823 28.9823 5.10823 28.7102 5.06779H28.7087Z" fill="black"/>
<path d="M30.9488 4.26846C30.57 3.87346 30.3675 3.30428 30.3428 2.56405C30.3273 2.0944 30.4031 1.66674 30.5731 1.28418C30.7416 0.900066 30.9967 0.595262 31.3352 0.366659C31.6753 0.139611 32.0804 0.0167563 32.5519 0.00120507C33.2027 -0.0205666 33.7159 0.167603 34.0916 0.565714C34.4657 0.963826 34.6651 1.52367 34.6898 2.24525C34.7068 2.72889 34.6388 3.16277 34.4889 3.54533C34.3389 3.92789 34.1009 4.23269 33.7747 4.45974C33.4485 4.68679 33.0419 4.80964 32.5503 4.82519C31.8609 4.84852 31.3275 4.66191 30.9472 4.2669L30.9488 4.26846ZM33.5984 3.86102C33.7839 3.54377 33.8659 3.0648 33.8442 2.42409C33.8272 1.91089 33.7608 1.51123 33.6479 1.22198C33.5335 0.932723 33.3805 0.735223 33.1857 0.627919C32.9909 0.520616 32.7497 0.472407 32.4622 0.481738C32.17 0.491068 31.9304 0.547053 31.7449 0.648136C31.5594 0.749219 31.4156 0.940499 31.3136 1.22198C31.2116 1.50345 31.1698 1.91245 31.1884 2.44897C31.2116 3.14722 31.3461 3.6433 31.5888 3.93877C31.833 4.23425 32.1948 4.37421 32.6771 4.35866C33.1068 4.34466 33.4129 4.17826 33.5984 3.86102Z" fill="black"/>
<path d="M37.7914 3.58263L37.7017 4.71942C37.4822 4.79251 37.2565 4.84849 37.0246 4.89048C36.7912 4.93092 36.4897 4.93714 36.1172 4.90759C35.4153 4.8516 34.9067 4.61056 34.5898 4.18446C34.2729 3.75835 34.1446 3.1643 34.2049 2.40229C34.2404 1.95752 34.3641 1.55475 34.5774 1.1924C34.7908 0.83006 35.0737 0.553248 35.4277 0.360413C35.7817 0.167578 36.1774 0.0882664 36.6149 0.122479C36.9071 0.145806 37.1715 0.186239 37.4111 0.243779C37.6507 0.301318 37.8501 0.366633 38.0093 0.441279L37.9166 1.60607L37.5146 1.57341L37.4281 0.788071C37.1514 0.685433 36.8592 0.620118 36.5485 0.596791C36.2192 0.570354 35.9517 0.615453 35.7461 0.732087C35.5405 0.848721 35.3829 1.04622 35.2731 1.32303C35.1633 1.59984 35.0907 1.97618 35.052 2.44894C35.0026 3.0741 35.0814 3.55619 35.2886 3.89676C35.4957 4.23733 35.8203 4.4255 36.264 4.46127C36.6118 4.48926 36.8499 4.4706 36.9782 4.40373C37.1065 4.33841 37.173 4.30265 37.1776 4.29798L37.3863 3.54997L37.7883 3.58263H37.7914Z" fill="black"/>
<path d="M37.1571 4.56551L37.7414 4.54063L38.3072 0.879869L37.7584 0.679258L37.811 0.341797L39.6722 0.632605L39.6197 0.970066L39.0353 0.993393L38.4695 4.65415L39.0183 4.85476L38.9657 5.19222L37.1045 4.90141L37.1571 4.56395V4.56551Z" fill="black"/>
<path d="M38.0785 4.62622H38.5438L40.9848 0.870605L41.4671 0.984129L42.0669 5.45822L42.4982 5.66971L42.4225 5.99629L40.6308 5.57329L40.7065 5.24672L41.2414 5.26382L41.2538 5.12075L41.1564 4.35097L39.578 3.97774L39.1637 4.634L39.1189 4.76308L39.6321 4.99479L39.5564 5.32136L38.0059 4.95436L38.0816 4.62778L38.0785 4.62622ZM41.1131 3.87355L40.8951 2.03695L40.892 1.92653L40.8766 1.9001L40.8101 2.03073L39.8316 3.5703L41.1131 3.87355Z" fill="black"/>
<path d="M42.1381 5.62773L42.7178 5.70548L43.9081 2.19246L43.0161 1.8861L42.6158 2.56103L42.254 2.43662L42.6451 1.28271L46.1574 2.48638L45.7663 3.64028L45.3984 3.51431L45.4973 2.7352L44.6053 2.42884L43.415 5.94186L43.922 6.23578L43.8123 6.55924L42.0283 5.94808L42.1381 5.62462V5.62773Z" fill="black"/>
<path d="M44.0074 6.27329L44.5809 6.39148L46.0031 2.97488L45.5177 2.64674L45.6491 2.33105L47.3867 3.06352L47.2553 3.37921L46.6818 3.26102L45.2595 6.67762L45.745 7.00575L45.6136 7.32144L43.876 6.58898L44.0074 6.27329Z" fill="black"/>
<path d="M45.7738 6.80525C45.6377 6.2734 45.7413 5.67779 46.083 5.02153C46.2994 4.60476 46.5761 4.27196 46.9116 4.02314C47.247 3.77277 47.618 3.63436 48.0246 3.60481C48.4312 3.57527 48.8439 3.67168 49.2629 3.89096C49.8395 4.19576 50.1935 4.61409 50.3234 5.14594C50.4532 5.67935 50.3527 6.26407 50.0188 6.90478C49.7947 7.334 49.5241 7.67768 49.2057 7.93583C48.8872 8.19398 48.5301 8.34171 48.1359 8.37748C47.7417 8.41325 47.3259 8.31683 46.8915 8.08823C46.2808 7.76632 45.9083 7.33866 45.7722 6.80681L45.7738 6.80525ZM48.2781 7.76632C48.595 7.58281 48.9011 7.20647 49.1979 6.63886C49.4345 6.18476 49.5736 5.80376 49.6169 5.49584C49.6602 5.18793 49.6231 4.93911 49.5056 4.74938C49.3881 4.55966 49.2026 4.39637 48.9475 4.26263C48.6878 4.12578 48.4528 4.0558 48.2426 4.05113C48.0308 4.04647 47.8128 4.14133 47.5856 4.33572C47.3599 4.53011 47.1218 4.86446 46.8745 5.34033C46.5529 5.95927 46.4246 6.45691 46.4911 6.8348C46.5575 7.2127 46.8049 7.51439 47.2316 7.73988C47.6119 7.94049 47.9612 7.94827 48.2781 7.76476V7.76632Z" fill="black"/>
<path d="M48.3057 8.65574L48.4927 8.3867L48.9859 8.58576L51.1053 5.53772L50.7853 5.19093L50.9847 4.90479L51.971 5.59837L51.7824 9.5857L51.7731 9.73499L51.8133 9.76299L53.5555 7.25924L53.2061 6.86579L53.3932 6.59676L54.6531 7.48318L54.4661 7.75221L53.9729 7.55316L51.5984 10.9682L51.0125 10.5561L51.1888 6.52367L51.1996 6.38371L51.1594 6.35571L49.4048 8.87812L49.7588 9.27468L49.5718 9.54371L48.3072 8.65418L48.3057 8.65574Z" fill="black"/>
</g>
<defs>
<linearGradient id="paint0_linear_160_2802" x1="33.8219" y1="46.4422" x2="46.8469" y2="35.2723" gradientUnits="userSpaceOnUse">
<stop stop-color="#2E9BBE"/>
<stop offset="0.11" stop-color="#3993B9"/>
<stop offset="0.29" stop-color="#567FAC"/>
<stop offset="0.54" stop-color="#865F97"/>
<stop offset="0.55" stop-color="#895E96"/>
<stop offset="0.78" stop-color="#B7427E"/>
<stop offset="1" stop-color="#E62766"/>
</linearGradient>
<linearGradient id="paint1_linear_160_2802" x1="46.9462" y1="41.2543" x2="24.5431" y2="41.2543" gradientUnits="userSpaceOnUse">
<stop stop-color="#D92474"/>
<stop offset="0.07" stop-color="#C73175"/>
<stop offset="0.3" stop-color="#905F7B"/>
<stop offset="0.52" stop-color="#648280"/>
<stop offset="0.72" stop-color="#459C83"/>
<stop offset="0.89" stop-color="#31AC85"/>
<stop offset="1" stop-color="#2BB286"/>
</linearGradient>
<linearGradient id="paint2_linear_160_2802" x1="17.9575" y1="31.9034" x2="24.091" y2="37.7748" gradientUnits="userSpaceOnUse">
<stop stop-color="#2E9BBE"/>
<stop offset="1" stop-color="#2BB286"/>
</linearGradient>
<radialGradient id="paint3_radial_160_2802" cx="0" cy="0" r="1" gradientUnits="userSpaceOnUse" gradientTransform="translate(34.1119 30.7493) scale(20.2914 20.4125)">
<stop stop-color="#F5DE48"/>
<stop offset="0.35" stop-color="#F4DB48"/>
<stop offset="0.5" stop-color="#F4D449"/>
<stop offset="0.61" stop-color="#F3C84B"/>
<stop offset="0.7" stop-color="#F1B64E"/>
<stop offset="0.78" stop-color="#EF9F52"/>
<stop offset="0.85" stop-color="#ED8356"/>
<stop offset="0.91" stop-color="#EA615C"/>
<stop offset="0.97" stop-color="#E73B62"/>
<stop offset="1" stop-color="#E62766"/>
</radialGradient>
<clipPath id="clip0_160_2802">
<rect width="199" height="55" fill="white"/>
</clipPath>
</defs>
</svg>
