<svg width="32" height="32" viewBox="0 0 32 32" fill="none" xmlns="http://www.w3.org/2000/svg">
<rect x="1" y="1" width="30" height="30" rx="15" stroke="#DEDEDE"/>
<path d="M22.5765 22.0747C22.1045 22.5465 21.3405 22.5465 20.8685 22.0747L18.7382 19.9436C17.861 20.5044 16.8261 20.8399 15.7074 20.8399C12.5957 20.8399 10.0723 18.3178 10.0723 15.2057C10.0723 12.0935 12.5947 9.57143 15.7074 9.57143C18.82 9.57143 21.3415 12.0935 21.3415 15.2057C21.3415 16.3232 21.006 17.3589 20.4451 18.236L22.5754 20.366C23.0474 20.8379 23.0474 21.6018 22.5754 22.0726L22.5765 22.0747ZM15.7074 11.1821C13.4851 11.1821 11.6821 12.9847 11.6821 15.2067C11.6821 17.4286 13.4841 19.2303 15.7074 19.2303C17.9307 19.2303 19.7326 17.4286 19.7326 15.2067C19.7326 12.9847 17.9307 11.1821 15.7074 11.1821Z" fill="white"/>
</svg>
