<svg width="212" height="44" viewBox="0 0 212 44" fill="none" xmlns="http://www.w3.org/2000/svg">
<g clip-path="url(#clip0_1018_21)">
<path d="M53.4778 39.5025V32.1267H54.595V35.646H54.6921L57.7659 32.1267H59.1696L56.2066 35.4473L59.1795 39.5025H57.8294L55.4668 36.2106L54.5937 37.2151V39.5025H53.4766H53.4778Z" fill="white"/>
<path d="M61.926 39.6149C61.4141 39.6149 60.962 39.4962 60.5722 39.2588C60.1824 39.0215 59.8797 38.6867 59.6668 38.2557C59.4538 37.8247 59.3467 37.3274 59.3467 36.7628C59.3467 36.1981 59.4525 35.6934 59.6668 35.2611C59.8797 34.8289 60.1811 34.494 60.5722 34.2567C60.962 34.0193 61.4141 33.9006 61.926 33.9006C62.4379 33.9006 62.8888 34.0193 63.2774 34.2567C63.6659 34.494 63.9673 34.8289 64.1791 35.2611C64.3908 35.6934 64.4967 36.1943 64.4967 36.7628C64.4967 37.3312 64.3908 37.8247 64.1791 38.2557C63.9673 38.6867 63.6672 39.0215 63.2774 39.2588C62.8888 39.4962 62.4379 39.6149 61.926 39.6149ZM61.9285 38.7067C62.2499 38.7067 62.5201 38.6205 62.7418 38.4468C62.9635 38.2732 63.1291 38.0395 63.2387 37.7447C63.3483 37.4499 63.4044 37.1201 63.4044 36.7578C63.4044 36.3955 63.3496 36.0657 63.2387 35.7708C63.1291 35.476 62.9623 35.2399 62.7418 35.065C62.5214 34.8901 62.2499 34.8026 61.9285 34.8026C61.6072 34.8026 61.3282 34.8901 61.104 35.065C60.8798 35.2399 60.713 35.476 60.6034 35.7708C60.4937 36.0657 60.4377 36.3955 60.4377 36.7578C60.4377 37.1201 60.4925 37.4499 60.6034 37.7447C60.713 38.0395 60.8798 38.2744 61.104 38.4468C61.3282 38.6192 61.6022 38.7067 61.9285 38.7067Z" fill="white"/>
<path d="M65.5716 39.5025V33.9706H66.6202V34.8526H66.6775C66.7448 34.6552 66.8469 34.4841 66.9839 34.3379C67.1209 34.1918 67.2841 34.0793 67.4721 34.0031C67.6602 33.9269 67.8607 33.8882 68.0737 33.8882C68.1497 33.8882 68.2294 33.8894 68.3128 33.8932C68.395 33.8969 68.4697 33.9032 68.537 33.9132V34.9501C68.4747 34.9351 68.39 34.9213 68.2817 34.9064C68.1746 34.8914 68.0712 34.8851 67.9728 34.8851C67.7212 34.8851 67.4958 34.9376 67.2965 35.0438C67.0973 35.15 66.9403 35.2974 66.8257 35.4885C66.7124 35.6797 66.6551 35.8933 66.6551 36.1319V39.5037H65.5703L65.5716 39.5025Z" fill="white"/>
<path d="M71.5488 39.6149C71.012 39.6149 70.5462 39.4988 70.1502 39.2651C69.7541 39.0328 69.4502 38.7017 69.2385 38.2732C69.0268 37.8447 68.9209 37.345 68.9209 36.7728C68.9209 36.2006 69.0268 35.7122 69.2385 35.2762C69.4502 34.8402 69.7491 34.5016 70.134 34.2605C70.5188 34.0194 70.9647 33.8982 71.4704 33.8982C71.9162 33.8982 72.3235 33.9944 72.6934 34.188C73.0633 34.3817 73.361 34.6852 73.5852 35.1013C73.8106 35.5173 73.9227 36.042 73.9227 36.6791V37.0639H69.5274V36.2494H72.8566C72.8566 35.9683 72.7993 35.7184 72.6859 35.4998C72.5726 35.2812 72.4107 35.1088 72.2027 34.9813C71.9947 34.8539 71.7556 34.7902 71.4841 34.7902C71.1914 34.7902 70.9336 34.8626 70.7081 35.0063C70.4827 35.15 70.3083 35.3411 70.1863 35.5785C70.063 35.8159 69.9995 36.0745 69.9982 36.353V36.9839C69.9982 37.3462 70.063 37.6586 70.1925 37.9209C70.322 38.1833 70.5039 38.3819 70.738 38.5168C70.9722 38.653 71.2449 38.7205 71.5563 38.7205C71.7531 38.7205 71.9299 38.6942 72.0881 38.6417C72.2463 38.5893 72.3808 38.5168 72.4916 38.4256C72.6025 38.3344 72.6897 38.2295 72.7519 38.1121H73.8504C73.7695 38.4119 73.6225 38.6755 73.412 38.9028C73.2016 39.1302 72.9363 39.3051 72.6187 39.4288C72.2998 39.5525 71.9436 39.6137 71.5488 39.6137V39.6149Z" fill="white"/>
<path d="M78.3259 37.0001C78.2998 37.0001 78.2537 37.0026 78.1877 37.0076C78.1217 37.0126 78.0407 37.0176 77.9448 37.0226C77.7655 37.035 77.5849 37.0463 77.4043 37.0588C77.2237 37.0713 77.073 37.0813 76.9534 37.0913C76.5873 37.1175 76.3033 37.2024 76.1028 37.3449C75.9023 37.4873 75.8014 37.6909 75.8014 37.9558C75.8014 38.1282 75.8462 38.2756 75.9346 38.3955C76.0231 38.5155 76.1464 38.6067 76.3033 38.6679C76.4602 38.7291 76.6408 38.7603 76.8438 38.7603C77.1315 38.7603 77.3806 38.7028 77.5923 38.5879C77.8041 38.473 77.9672 38.3193 78.0831 38.1282C78.1976 37.937 78.2549 37.7309 78.2549 37.511L78.2512 35.7645C78.2512 35.5559 78.2089 35.3772 78.1242 35.2298C78.0395 35.0824 77.9124 34.97 77.7455 34.895C77.5774 34.8188 77.3719 34.7813 77.1278 34.7813C76.9223 34.7813 76.7405 34.8113 76.5823 34.87C76.4241 34.9287 76.2958 35.0112 76.1962 35.1161C76.0965 35.2223 76.0293 35.3448 75.9932 35.4834H74.9121C74.9482 35.1786 75.0628 34.9063 75.2546 34.6664C75.4477 34.4265 75.708 34.2391 76.0355 34.1042C76.3631 33.9693 76.7405 33.9031 77.1664 33.9031C77.5201 33.9031 77.8576 33.9568 78.179 34.0655C78.5003 34.1729 78.7718 34.3716 78.996 34.6601C79.2202 34.9487 79.3323 35.3398 79.3323 35.8345V39.5086H78.2761V38.7528H78.2325C78.1553 38.9065 78.0469 39.0489 77.9062 39.1813C77.7655 39.3138 77.5836 39.4212 77.3644 39.5049C77.144 39.5886 76.8899 39.6311 76.6034 39.6311C76.251 39.6311 75.9346 39.5649 75.6519 39.4324C75.3692 39.3 75.1463 39.1076 74.9843 38.854C74.8212 38.6004 74.7402 38.2981 74.7402 37.9445C74.7402 37.3749 74.9333 36.9688 75.3206 36.724C75.7067 36.4791 76.2012 36.3354 76.8015 36.2917C76.9696 36.2792 77.1664 36.268 77.3918 36.2555C77.6185 36.243 77.8302 36.233 78.0295 36.223C78.0992 36.218 78.1578 36.2155 78.2076 36.2143C78.2562 36.2143 78.2923 36.213 78.3135 36.213L78.3284 37.0051L78.3259 37.0001Z" fill="white"/>
<path d="M83.2666 39.5025V32.1267H85.9668C86.4712 32.1267 86.8984 32.2104 87.2471 32.3766C87.5958 32.544 87.8561 32.7738 88.028 33.0662C88.1999 33.3598 88.2871 33.6921 88.2871 34.0644C88.2871 34.3592 88.2323 34.614 88.1239 34.8264C88.0143 35.0388 87.8686 35.2087 87.6843 35.3361C87.4999 35.4636 87.287 35.5585 87.0453 35.621V35.6934C87.3019 35.7084 87.546 35.7884 87.7802 35.937C88.0143 36.0857 88.2049 36.2943 88.3531 36.5679C88.5013 36.8403 88.576 37.1576 88.576 37.5211C88.576 37.9097 88.4851 38.2532 88.3045 38.5493C88.1239 38.8454 87.8474 39.079 87.4763 39.2502C87.1051 39.4213 86.643 39.5063 86.0901 39.5063H83.2678L83.2666 39.5025ZM85.8671 35.3136C86.1162 35.3136 86.3416 35.2662 86.5422 35.17C86.7427 35.0738 86.9009 34.9389 87.0167 34.7627C87.1313 34.5878 87.1886 34.3829 87.1886 34.1506C87.1886 33.9444 87.1412 33.7608 87.0453 33.5996C86.9494 33.4385 86.805 33.3123 86.6107 33.2211C86.4164 33.1299 86.1785 33.0837 85.8958 33.0837H84.3838V35.3136H85.8671ZM85.9817 38.5418C86.3242 38.5418 86.6057 38.4956 86.8249 38.4031C87.0453 38.3107 87.2072 38.1845 87.3094 38.0234C87.4115 37.8622 87.4638 37.6761 87.4638 37.4649C87.4638 37.2301 87.404 37.0152 87.2845 36.8203C87.1649 36.6254 86.9955 36.4717 86.7788 36.3593C86.5608 36.2469 86.308 36.1906 86.0216 36.1906H84.3838V38.5431H85.9817V38.5418Z" fill="white"/>
<path d="M92.0596 39.6149C91.5228 39.6149 91.057 39.4988 90.6609 39.2651C90.2649 39.0328 89.961 38.7017 89.7492 38.2732C89.5375 37.8447 89.4316 37.345 89.4316 36.7728C89.4316 36.2006 89.5375 35.7122 89.7492 35.2762C89.961 34.8402 90.2599 34.5016 90.6447 34.2605C91.0296 34.0194 91.4754 33.8982 91.9799 33.8982C92.4257 33.8982 92.833 33.9944 93.2029 34.188C93.5728 34.3817 93.8705 34.6852 94.0959 35.1013C94.3213 35.5173 94.4334 36.042 94.4334 36.6791V37.0639H90.0382V36.2494H93.3673C93.3673 35.9683 93.31 35.7184 93.1967 35.4998C93.0833 35.2812 92.9214 35.1088 92.7134 34.9813C92.5054 34.8539 92.2663 34.7902 91.9948 34.7902C91.7034 34.7902 91.4443 34.8626 91.2189 35.0063C90.9934 35.15 90.8191 35.3411 90.697 35.5785C90.5737 35.8159 90.5102 36.0745 90.509 36.353V36.9839C90.509 37.3462 90.5737 37.6586 90.7033 37.9209C90.8328 38.1833 91.0146 38.3819 91.2488 38.5168C91.4829 38.653 91.7569 38.7205 92.067 38.7205C92.2638 38.7205 92.4407 38.6942 92.5988 38.6417C92.757 38.5893 92.8915 38.5168 93.0024 38.4256C93.1132 38.3344 93.2004 38.2295 93.2627 38.1121H94.3612C94.2802 38.4119 94.1333 38.6755 93.9228 38.9028C93.7123 39.1302 93.447 39.3051 93.1294 39.4288C92.8106 39.5525 92.4544 39.6137 92.0596 39.6137V39.6149Z" fill="white"/>
<path d="M98.8347 37.0001C98.8086 37.0001 98.7625 37.0026 98.6965 37.0076C98.6305 37.0126 98.5495 37.0176 98.4536 37.0226C98.2742 37.035 98.0937 37.0463 97.9131 37.0588C97.7325 37.0713 97.5818 37.0813 97.4622 37.0913C97.096 37.1175 96.8121 37.2024 96.6116 37.3449C96.411 37.4873 96.3102 37.6909 96.3102 37.9558C96.3102 38.1282 96.355 38.2756 96.4434 38.3955C96.5318 38.5155 96.6551 38.6067 96.8121 38.6679C96.969 38.7291 97.1496 38.7603 97.3526 38.7603C97.6403 38.7603 97.8894 38.7028 98.1011 38.5879C98.3129 38.473 98.476 38.3193 98.5918 38.1282C98.7064 37.937 98.7637 37.7309 98.7637 37.511L98.76 35.7645C98.76 35.5559 98.7176 35.3772 98.6329 35.2298C98.5482 35.0824 98.4212 34.97 98.2543 34.895C98.0862 34.8188 97.8807 34.7813 97.6366 34.7813C97.4311 34.7813 97.2492 34.8113 97.0911 34.87C96.9329 34.9287 96.8046 35.0112 96.705 35.1161C96.6053 35.2223 96.5381 35.3448 96.502 35.4834H95.4209C95.457 35.1786 95.5716 34.9063 95.7634 34.6664C95.9564 34.4265 96.2167 34.2391 96.5443 34.1042C96.8719 33.9693 97.2492 33.9031 97.6752 33.9031C98.0289 33.9031 98.3664 33.9568 98.6877 34.0655C99.0091 34.1729 99.2806 34.3716 99.5048 34.6601C99.7289 34.9487 99.841 35.3398 99.841 35.8345V39.5086H98.7849V38.7528H98.7413C98.6641 38.9065 98.5557 39.0489 98.415 39.1813C98.2742 39.3138 98.0937 39.4212 97.8732 39.5049C97.6528 39.5886 97.3987 39.6311 97.1122 39.6311C96.7598 39.6311 96.4434 39.5649 96.1607 39.4324C95.878 39.3 95.655 39.1076 95.4931 38.854C95.33 38.6004 95.249 38.2981 95.249 37.9445C95.249 37.3749 95.4421 36.9688 95.8294 36.724C96.2155 36.4791 96.7099 36.3354 97.3103 36.2917C97.4784 36.2792 97.6752 36.268 97.9006 36.2555C98.1273 36.243 98.339 36.233 98.5383 36.223C98.608 36.218 98.6666 36.2155 98.7164 36.2143C98.765 36.2143 98.8011 36.213 98.8222 36.213L98.8372 37.0051L98.8347 37.0001Z" fill="white"/>
<path d="M104.651 37.2049V33.9705H105.728V39.5023H104.67V38.5441H104.613C104.527 38.7453 104.406 38.9252 104.251 39.0813C104.097 39.2375 103.911 39.3587 103.693 39.4449C103.475 39.5311 103.233 39.5748 102.965 39.5748C102.606 39.5748 102.29 39.4948 102.017 39.3349C101.744 39.175 101.531 38.9389 101.379 38.6253C101.227 38.3118 101.151 37.9332 101.151 37.4885V33.9692H102.236V37.3548C102.236 37.6022 102.283 37.8183 102.376 38.0044C102.469 38.1906 102.601 38.3343 102.77 38.4355C102.94 38.5366 103.135 38.5866 103.356 38.5866C103.576 38.5866 103.774 38.5354 103.974 38.4317C104.172 38.328 104.335 38.1719 104.462 37.9632C104.589 37.7546 104.652 37.501 104.652 37.2036L104.651 37.2049Z" fill="white"/>
<path d="M109.63 33.9705V34.8388H106.613V33.9705H109.63ZM107.422 32.645H108.506V37.8745C108.506 38.0719 108.535 38.2231 108.592 38.3305C108.65 38.438 108.727 38.5117 108.823 38.5517C108.919 38.5929 109.033 38.6129 109.168 38.6129C109.225 38.6129 109.29 38.6129 109.363 38.6091C109.437 38.6066 109.508 38.6029 109.576 38.5979C109.6 38.5954 109.624 38.5941 109.645 38.5929C109.666 38.5929 109.687 38.5916 109.706 38.5916V39.5286C109.509 39.5598 109.286 39.5761 109.034 39.5761C108.741 39.5761 108.47 39.5211 108.226 39.4124C107.982 39.3037 107.787 39.1376 107.641 38.9152C107.495 38.6928 107.422 38.4217 107.422 38.0994V32.6463V32.645Z" fill="white"/>
<path d="M111.355 41.5776C111.243 41.5776 111.134 41.5763 111.032 41.5726C110.93 41.5688 110.843 41.5638 110.773 41.5563L110.781 40.6456C110.809 40.6456 110.839 40.6456 110.869 40.6494C110.899 40.6531 110.931 40.6531 110.964 40.6531C111.081 40.6581 111.182 40.6606 111.265 40.6606C111.403 40.6606 111.519 40.6481 111.61 40.6231C111.701 40.5981 111.792 40.5319 111.882 40.427C111.971 40.3208 112.057 40.1596 112.138 39.941L112.275 39.5812L110.254 33.9731H111.413L112.803 38.2632H112.861L114.257 33.9731H115.416L113.143 40.2408C112.983 40.6856 112.757 41.0191 112.465 41.244C112.172 41.4689 111.802 41.5813 111.355 41.5813V41.5776Z" fill="white"/>
<path d="M123.898 34.4566C123.807 34.1655 123.674 33.9156 123.498 33.7058C123.322 33.4959 123.107 33.3335 122.854 33.2198C122.6 33.1061 122.314 33.0486 121.992 33.0486C121.574 33.0486 121.199 33.1573 120.869 33.3722C120.539 33.5883 120.279 33.9044 120.088 34.3192C119.897 34.7352 119.803 35.2312 119.803 35.8108C119.803 36.3905 119.897 36.894 120.087 37.3087C120.276 37.7247 120.54 38.0396 120.879 38.2557C121.218 38.4718 121.605 38.5793 122.041 38.5793C122.433 38.5793 122.779 38.498 123.078 38.3344C123.377 38.1707 123.609 37.9396 123.771 37.641C123.934 37.3425 124.015 36.9939 124.015 36.5941L124.303 36.6478H122.202V35.7259H125.1V36.5616C125.1 37.1713 124.97 37.706 124.71 38.1657C124.45 38.6255 124.088 38.9803 123.624 39.2276C123.159 39.4762 122.63 39.5999 122.037 39.5999C121.375 39.5999 120.79 39.4463 120.285 39.1389C119.779 38.8316 119.388 38.3931 119.11 37.8222C118.833 37.2525 118.694 36.5829 118.694 35.8146C118.694 35.0463 118.835 34.3716 119.117 33.7995C119.398 33.2273 119.788 32.7875 120.287 32.4815C120.787 32.1754 121.353 32.0217 121.987 32.0217C122.509 32.0217 122.987 32.1242 123.423 32.3278C123.859 32.5314 124.218 32.8188 124.501 33.1873C124.783 33.5559 124.966 33.9781 125.05 34.4528H123.9L123.898 34.4566Z" fill="white"/>
<path d="M128.674 39.6149C128.137 39.6149 127.671 39.4988 127.275 39.2651C126.879 39.0328 126.575 38.7017 126.363 38.2732C126.152 37.8447 126.046 37.345 126.046 36.7728C126.046 36.2006 126.152 35.7122 126.363 35.2762C126.575 34.8402 126.874 34.5016 127.259 34.2605C127.644 34.0194 128.09 33.8982 128.594 33.8982C129.04 33.8982 129.447 33.9944 129.817 34.188C130.187 34.3817 130.485 34.6852 130.71 35.1013C130.936 35.5173 131.048 36.042 131.048 36.6791V37.0639H126.652V36.2494H129.982C129.982 35.9683 129.924 35.7184 129.811 35.4998C129.698 35.2812 129.536 35.1088 129.328 34.9813C129.12 34.8539 128.881 34.7902 128.609 34.7902C128.318 34.7902 128.059 34.8626 127.833 35.0063C127.608 35.15 127.433 35.3411 127.311 35.5785C127.188 35.8159 127.124 36.0745 127.123 36.353V36.9839C127.123 37.3462 127.188 37.6586 127.318 37.9209C127.447 38.1833 127.629 38.3819 127.863 38.5168C128.097 38.653 128.371 38.7205 128.681 38.7205C128.878 38.7205 129.055 38.6942 129.213 38.6417C129.371 38.5893 129.506 38.5168 129.617 38.4256C129.727 38.3344 129.815 38.2295 129.877 38.1121H130.975C130.894 38.4119 130.748 38.6755 130.537 38.9028C130.327 39.1302 130.061 39.3051 129.744 39.4288C129.425 39.5525 129.069 39.6137 128.674 39.6137V39.6149Z" fill="white"/>
<path d="M133.206 36.2218V39.5025H132.121V33.9706H133.162V34.8751H133.231C133.319 34.6752 133.439 34.5028 133.588 34.3567C133.738 34.2105 133.92 34.0968 134.133 34.0181C134.345 33.9394 134.587 33.8994 134.857 33.8994C135.236 33.8994 135.566 33.9794 135.849 34.1393C136.131 34.2992 136.349 34.5353 136.504 34.8476C136.658 35.1599 136.736 35.5397 136.736 35.9857V39.505H135.651V36.1194C135.651 35.8558 135.603 35.6272 135.511 35.4335C135.418 35.2399 135.285 35.0937 135.111 34.9925C134.938 34.8914 134.73 34.8414 134.489 34.8414C134.247 34.8414 134.015 34.8963 133.825 35.005C133.633 35.115 133.482 35.2724 133.373 35.481C133.263 35.6884 133.207 35.937 133.207 36.2243L133.206 36.2218Z" fill="white"/>
<path d="M140.43 39.6149C139.893 39.6149 139.427 39.4988 139.031 39.2651C138.635 39.0328 138.331 38.7017 138.119 38.2732C137.908 37.8447 137.802 37.345 137.802 36.7728C137.802 36.2006 137.908 35.7122 138.119 35.2762C138.331 34.8402 138.63 34.5016 139.015 34.2605C139.4 34.0194 139.846 33.8982 140.35 33.8982C140.796 33.8982 141.203 33.9944 141.573 34.188C141.943 34.3817 142.241 34.6852 142.466 35.1013C142.691 35.5173 142.804 36.042 142.804 36.6791V37.0639H138.408V36.2494H141.737C141.737 35.9683 141.68 35.7184 141.567 35.4998C141.453 35.2812 141.292 35.1088 141.084 34.9813C140.876 34.8539 140.636 34.7902 140.365 34.7902C140.073 34.7902 139.814 34.8626 139.589 35.0063C139.364 35.15 139.189 35.3411 139.067 35.5785C138.944 35.8159 138.88 36.0745 138.879 36.353V36.9839C138.879 37.3462 138.944 37.6586 139.073 37.9209C139.203 38.1833 139.385 38.3819 139.619 38.5168C139.853 38.653 140.127 38.7205 140.437 38.7205C140.634 38.7205 140.811 38.6942 140.969 38.6417C141.127 38.5893 141.262 38.5168 141.373 38.4256C141.483 38.3344 141.571 38.2295 141.633 38.1121H142.731C142.65 38.4119 142.503 38.6755 142.293 38.9028C142.082 39.1302 141.817 39.3051 141.5 39.4288C141.181 39.5525 140.825 39.6137 140.43 39.6137V39.6149Z" fill="white"/>
<path d="M143.877 39.5025V33.9706H144.926V34.8526H144.983C145.05 34.6552 145.153 34.4841 145.29 34.3379C145.427 34.1918 145.59 34.0793 145.778 34.0031C145.966 33.9269 146.166 33.8882 146.379 33.8882C146.457 33.8882 146.535 33.8894 146.618 33.8932C146.701 33.8969 146.775 33.9032 146.843 33.9132V34.9501C146.78 34.9351 146.696 34.9213 146.587 34.9064C146.479 34.8914 146.377 34.8851 146.278 34.8851C146.027 34.8851 145.801 34.9376 145.602 35.0438C145.402 35.15 145.246 35.2974 145.131 35.4885C145.018 35.6797 144.961 35.8933 144.961 36.1319V39.5037H143.876L143.877 39.5025Z" fill="white"/>
<path d="M150.926 37.0001C150.899 37.0001 150.853 37.0026 150.787 37.0076C150.721 37.0126 150.64 37.0176 150.544 37.0226C150.365 37.035 150.184 37.0463 150.004 37.0588C149.823 37.0713 149.673 37.0813 149.553 37.0913C149.187 37.1175 148.903 37.2024 148.702 37.3449C148.502 37.4873 148.401 37.6909 148.401 37.9558C148.401 38.1282 148.446 38.2756 148.534 38.3955C148.623 38.5155 148.746 38.6067 148.903 38.6679C149.06 38.7291 149.24 38.7603 149.443 38.7603C149.731 38.7603 149.98 38.7028 150.192 38.5879C150.404 38.473 150.567 38.3193 150.683 38.1282C150.797 37.937 150.855 37.7309 150.855 37.511L150.851 35.7645C150.851 35.5559 150.808 35.3772 150.724 35.2298C150.639 35.0824 150.512 34.97 150.345 34.895C150.177 34.8188 149.971 34.7813 149.727 34.7813C149.522 34.7813 149.34 34.8113 149.182 34.87C149.024 34.9287 148.895 35.0112 148.796 35.1161C148.696 35.2223 148.629 35.3448 148.593 35.4834H147.512C147.548 35.1786 147.662 34.9063 147.854 34.6664C148.047 34.4265 148.308 34.2391 148.635 34.1042C148.963 33.9693 149.34 33.9031 149.766 33.9031C150.12 33.9031 150.457 33.9568 150.779 34.0655C151.1 34.1729 151.371 34.3716 151.596 34.6601C151.82 34.9487 151.932 35.3398 151.932 35.8345V39.5086H150.876V38.7528H150.832C150.755 38.9065 150.647 39.0489 150.506 39.1813C150.365 39.3138 150.184 39.4212 149.964 39.5049C149.744 39.5886 149.49 39.6311 149.203 39.6311C148.851 39.6311 148.534 39.5649 148.252 39.4324C147.969 39.3 147.746 39.1076 147.584 38.854C147.421 38.6004 147.34 38.2981 147.34 37.9445C147.34 37.3749 147.533 36.9688 147.92 36.724C148.306 36.4791 148.801 36.3354 149.401 36.2917C149.569 36.2792 149.766 36.268 149.991 36.2555C150.218 36.243 150.43 36.233 150.629 36.223C150.699 36.218 150.757 36.2155 150.807 36.2143C150.856 36.2143 150.892 36.213 150.913 36.213L150.928 37.0051L150.926 37.0001Z" fill="white"/>
<path d="M154.328 32.1267V39.5025H153.243V32.1267H154.328Z" fill="white"/>
<path d="M158.898 39.5025H157.714L160.357 32.1267H161.653L164.296 39.5025H163.108L161.033 33.4734H160.976L158.901 39.5025H158.898ZM159.093 36.6142H162.917V37.5536H159.093V36.6142Z" fill="white"/>
<path d="M168.197 35.4798C168.145 35.2537 168.03 35.0775 167.854 34.9488C167.679 34.8202 167.445 34.7565 167.152 34.7565C166.949 34.7565 166.767 34.7889 166.607 34.8552C166.446 34.9214 166.32 35.0101 166.228 35.1212C166.136 35.2324 166.091 35.3586 166.093 35.4973C166.091 35.6634 166.159 35.8046 166.3 35.9208C166.44 36.037 166.659 36.1307 166.955 36.1994L167.838 36.4005C168.344 36.518 168.72 36.7004 168.969 36.9465C169.218 37.1926 169.343 37.5099 169.343 37.8997C169.343 38.2332 169.252 38.5306 169.071 38.7917C168.891 39.0528 168.63 39.2539 168.29 39.3988C167.95 39.5425 167.549 39.6149 167.087 39.6149C166.651 39.6149 166.273 39.5525 165.953 39.4263C165.631 39.3001 165.378 39.1165 165.193 38.8729C165.007 38.6305 164.892 38.3357 164.847 37.9909H165.956C166.002 38.2432 166.118 38.4319 166.306 38.5568C166.494 38.6817 166.751 38.7442 167.076 38.7442C167.31 38.7442 167.514 38.713 167.686 38.6505C167.858 38.588 167.993 38.4993 168.089 38.3856C168.185 38.272 168.232 38.1383 168.232 37.9871C168.232 37.8072 168.163 37.6586 168.025 37.5424C167.887 37.4262 167.673 37.3337 167.381 37.2663L166.519 37.0751C166.026 36.9664 165.651 36.7828 165.393 36.5242C165.136 36.2656 165.007 35.9433 165.007 35.5585C165.007 35.2349 165.097 34.9463 165.275 34.694C165.453 34.4416 165.705 34.2467 166.027 34.1068C166.35 33.9669 166.722 33.8982 167.145 33.8982C167.567 33.8982 167.899 33.9632 168.204 34.0931C168.508 34.223 168.749 34.4067 168.924 34.644C169.1 34.8814 169.205 35.16 169.238 35.4798H168.197Z" fill="white"/>
<path d="M173.505 35.4798C173.452 35.2537 173.338 35.0775 173.162 34.9488C172.986 34.8202 172.752 34.7565 172.46 34.7565C172.257 34.7565 172.075 34.7889 171.914 34.8552C171.753 34.9214 171.628 35.0101 171.536 35.1212C171.443 35.2324 171.399 35.3586 171.401 35.4973C171.399 35.6634 171.467 35.8046 171.608 35.9208C171.747 36.037 171.966 36.1307 172.263 36.1994L173.146 36.4005C173.652 36.518 174.028 36.7004 174.277 36.9465C174.526 37.1926 174.65 37.5099 174.65 37.8997C174.65 38.2332 174.56 38.5306 174.379 38.7917C174.198 39.0528 173.938 39.2539 173.598 39.3988C173.258 39.5425 172.857 39.6149 172.395 39.6149C171.959 39.6149 171.58 39.5525 171.26 39.4263C170.939 39.3001 170.686 39.1165 170.501 38.8729C170.315 38.6305 170.199 38.3357 170.154 37.9909H171.264C171.31 38.2432 171.426 38.4319 171.614 38.5568C171.802 38.6817 172.059 38.7442 172.384 38.7442C172.618 38.7442 172.822 38.713 172.994 38.6505C173.166 38.588 173.3 38.4993 173.396 38.3856C173.492 38.272 173.539 38.1383 173.539 37.9871C173.539 37.8072 173.471 37.6586 173.333 37.5424C173.194 37.4262 172.98 37.3337 172.689 37.2663L171.827 37.0751C171.334 36.9664 170.959 36.7828 170.701 36.5242C170.443 36.2656 170.315 35.9433 170.315 35.5585C170.315 35.2349 170.405 34.9463 170.583 34.694C170.761 34.4416 171.012 34.2467 171.335 34.1068C171.658 33.9669 172.03 33.8982 172.452 33.8982C172.874 33.8982 173.207 33.9632 173.512 34.0931C173.816 34.223 174.056 34.4067 174.232 34.644C174.408 34.8814 174.512 35.16 174.546 35.4798H173.505Z" fill="white"/>
<path d="M178.047 39.6149C177.535 39.6149 177.083 39.4962 176.693 39.2588C176.303 39.0215 176.002 38.6867 175.789 38.2557C175.576 37.8247 175.469 37.3274 175.469 36.7628C175.469 36.1981 175.576 35.6934 175.789 35.2611C176.002 34.8289 176.303 34.494 176.693 34.2567C177.083 34.0193 177.535 33.9006 178.047 33.9006C178.559 33.9006 179.01 34.0193 179.398 34.2567C179.787 34.494 180.088 34.8289 180.3 35.2611C180.512 35.6934 180.617 36.1943 180.617 36.7628C180.617 37.3312 180.512 37.8247 180.3 38.2557C180.088 38.6867 179.788 39.0215 179.398 39.2588C179.01 39.4962 178.559 39.6149 178.047 39.6149ZM178.049 38.7067C178.371 38.7067 178.641 38.6205 178.863 38.4468C179.084 38.2744 179.25 38.0395 179.36 37.7447C179.469 37.4499 179.525 37.1201 179.525 36.7578C179.525 36.3955 179.47 36.0657 179.36 35.7708C179.25 35.476 179.084 35.2399 178.863 35.065C178.641 34.8901 178.369 34.8026 178.049 34.8026C177.729 34.8026 177.449 34.8901 177.225 35.065C177.001 35.2399 176.834 35.476 176.724 35.7708C176.615 36.0657 176.559 36.3955 176.559 36.7578C176.559 37.1201 176.613 37.4499 176.724 37.7447C176.834 38.0395 177.001 38.2744 177.225 38.4468C177.449 38.6192 177.723 38.7067 178.049 38.7067Z" fill="white"/>
<path d="M184.02 39.6149C183.496 39.6149 183.039 39.4938 182.65 39.2527C182.262 39.0115 181.963 38.6742 181.755 38.242C181.547 37.8097 181.442 37.3163 181.442 36.7616C181.442 36.2069 181.548 35.7059 181.76 35.2724C181.972 34.8389 182.272 34.5016 182.659 34.2605C183.047 34.0194 183.497 33.8982 184.009 33.8982C184.423 33.8982 184.796 33.9757 185.13 34.1293C185.463 34.283 185.729 34.5016 185.931 34.7852C186.132 35.0688 186.251 35.3936 186.286 35.7609H185.234C185.195 35.5835 185.123 35.4223 185.017 35.2799C184.91 35.1375 184.773 35.0226 184.606 34.9376C184.439 34.8527 184.245 34.8102 184.024 34.8102C183.728 34.8102 183.468 34.8889 183.243 35.0463C183.019 35.2037 182.845 35.4273 182.72 35.7184C182.596 36.0095 182.533 36.3493 182.533 36.7378C182.533 37.1264 182.594 37.4799 182.716 37.7735C182.839 38.0671 183.012 38.2944 183.237 38.4544C183.463 38.6143 183.724 38.6942 184.023 38.6942C184.228 38.6942 184.415 38.6567 184.581 38.5805C184.747 38.5043 184.886 38.3969 184.997 38.257C185.108 38.117 185.186 37.9484 185.232 37.751H186.285C186.246 38.1108 186.129 38.4319 185.935 38.7142C185.74 38.9965 185.478 39.2177 185.15 39.3763C184.823 39.5362 184.445 39.6162 184.019 39.6162L184.02 39.6149Z" fill="white"/>
<path d="M187.867 33.1211C187.745 33.1211 187.63 33.0923 187.524 33.0324C187.417 32.9736 187.334 32.8949 187.273 32.7962C187.212 32.6975 187.181 32.5914 187.181 32.4752C187.181 32.359 187.212 32.249 187.273 32.1516C187.334 32.0529 187.417 31.9755 187.524 31.918C187.63 31.8605 187.745 31.8318 187.867 31.8318C187.989 31.8318 188.099 31.8605 188.204 31.918C188.31 31.9755 188.392 32.0542 188.454 32.1516C188.515 32.2503 188.546 32.3577 188.546 32.4752C188.546 32.5926 188.515 32.6975 188.454 32.7962C188.392 32.8949 188.309 32.9736 188.204 33.0324C188.099 33.0911 187.986 33.1211 187.867 33.1211ZM187.316 39.5024V33.9706H188.401V39.5024H187.316Z" fill="white"/>
<path d="M193.052 37.0001C193.025 37.0001 192.979 37.0026 192.913 37.0076C192.847 37.0126 192.766 37.0176 192.67 37.0226C192.491 37.035 192.31 37.0463 192.13 37.0588C191.949 37.0713 191.799 37.0813 191.679 37.0913C191.313 37.1175 191.029 37.2024 190.828 37.3449C190.628 37.4873 190.527 37.6909 190.527 37.9558C190.527 38.1282 190.572 38.2756 190.66 38.3955C190.749 38.5155 190.872 38.6067 191.029 38.6679C191.186 38.7291 191.366 38.7603 191.569 38.7603C191.857 38.7603 192.106 38.7028 192.318 38.5879C192.53 38.473 192.693 38.3193 192.809 38.1282C192.923 37.937 192.981 37.7309 192.981 37.511L192.977 35.7645C192.977 35.5559 192.934 35.3772 192.85 35.2298C192.765 35.0824 192.638 34.97 192.471 34.895C192.303 34.8188 192.097 34.7813 191.853 34.7813C191.648 34.7813 191.466 34.8113 191.308 34.87C191.15 34.9287 191.021 35.0112 190.922 35.1161C190.822 35.2223 190.755 35.3448 190.719 35.4834H189.638C189.674 35.1786 189.788 34.9063 189.98 34.6664C190.173 34.4265 190.434 34.2391 190.761 34.1042C191.089 33.9693 191.466 33.9031 191.892 33.9031C192.246 33.9031 192.583 33.9568 192.905 34.0655C193.226 34.1729 193.497 34.3716 193.722 34.6601C193.946 34.9487 194.058 35.3398 194.058 35.8345V39.5086H193.002V38.7528H192.958C192.881 38.9065 192.773 39.0489 192.632 39.1813C192.491 39.3138 192.31 39.4212 192.09 39.5049C191.87 39.5886 191.615 39.6311 191.329 39.6311C190.977 39.6311 190.66 39.5649 190.377 39.4324C190.095 39.3 189.872 39.1076 189.71 38.854C189.547 38.6004 189.466 38.2981 189.466 37.9445C189.466 37.3749 189.659 36.9688 190.046 36.724C190.432 36.4791 190.927 36.3354 191.527 36.2917C191.695 36.2792 191.892 36.268 192.117 36.2555C192.344 36.243 192.556 36.233 192.755 36.223C192.825 36.218 192.883 36.2155 192.933 36.2143C192.982 36.2143 193.018 36.213 193.039 36.213L193.054 37.0051L193.052 37.0001Z" fill="white"/>
<path d="M197.946 33.9705V34.8388H194.93V33.9705H197.946ZM195.738 32.645H196.823V37.8745C196.823 38.0719 196.851 38.2231 196.909 38.3305C196.966 38.438 197.043 38.5117 197.139 38.5517C197.235 38.5929 197.35 38.6129 197.484 38.6129C197.541 38.6129 197.606 38.6129 197.68 38.6091C197.753 38.6066 197.824 38.6029 197.893 38.5979C197.916 38.5954 197.94 38.5941 197.961 38.5929C197.982 38.5929 198.003 38.5916 198.022 38.5916V39.5286C197.825 39.5598 197.602 39.5761 197.351 39.5761C197.057 39.5761 196.787 39.5211 196.543 39.4124C196.298 39.3037 196.103 39.1376 195.957 38.9152C195.811 38.6928 195.738 38.4217 195.738 38.0994V32.6463V32.645Z" fill="white"/>
<path d="M199.554 33.1211C199.432 33.1211 199.318 33.0923 199.212 33.0324C199.105 32.9736 199.021 32.8949 198.96 32.7962C198.899 32.6975 198.868 32.5914 198.868 32.4752C198.868 32.359 198.899 32.249 198.96 32.1516C199.021 32.0529 199.105 31.9755 199.212 31.918C199.318 31.8605 199.432 31.8318 199.554 31.8318C199.676 31.8318 199.786 31.8605 199.892 31.918C199.998 31.9755 200.08 32.0542 200.141 32.1516C200.202 32.2503 200.233 32.3577 200.233 32.4752C200.233 32.5926 200.202 32.6975 200.141 32.7962C200.08 32.8949 199.997 32.9736 199.892 33.0324C199.786 33.0911 199.674 33.1211 199.554 33.1211ZM199.005 39.5024V33.9706H200.09V39.5024H199.005Z" fill="white"/>
<path d="M203.741 39.6149C203.229 39.6149 202.777 39.4962 202.387 39.2588C201.998 39.0215 201.696 38.6867 201.483 38.2557C201.27 37.8247 201.163 37.3274 201.163 36.7628C201.163 36.1981 201.27 35.6934 201.483 35.2611C201.696 34.8289 201.998 34.494 202.387 34.2567C202.777 34.0193 203.229 33.9006 203.741 33.9006C204.253 33.9006 204.704 34.0193 205.093 34.2567C205.481 34.494 205.782 34.8289 205.994 35.2611C206.206 35.6934 206.312 36.1943 206.312 36.7628C206.312 37.3312 206.206 37.8247 205.994 38.2557C205.782 38.6867 205.482 39.0215 205.093 39.2588C204.704 39.4962 204.253 39.6149 203.741 39.6149ZM203.745 38.7067C204.066 38.7067 204.337 38.6205 204.558 38.4468C204.78 38.2744 204.946 38.0395 205.055 37.7447C205.165 37.4499 205.221 37.1201 205.221 36.7578C205.221 36.3955 205.166 36.0657 205.055 35.7708C204.946 35.476 204.78 35.2399 204.558 35.065C204.337 34.8901 204.065 34.8026 203.745 34.8026C203.425 34.8026 203.145 34.8901 202.92 35.065C202.696 35.2399 202.529 35.476 202.42 35.7708C202.31 36.0657 202.254 36.3955 202.254 36.7578C202.254 37.1201 202.309 37.4499 202.42 37.7447C202.529 38.0395 202.696 38.2744 202.92 38.4468C203.145 38.6192 203.419 38.7067 203.745 38.7067Z" fill="white"/>
<path d="M208.469 36.2218V39.5025H207.384V33.9706H208.425V34.8751H208.493C208.582 34.6752 208.701 34.5028 208.851 34.3567C209 34.2105 209.182 34.0968 209.395 34.0181C209.608 33.9394 209.85 33.8994 210.12 33.8994C210.499 33.8994 210.829 33.9794 211.111 34.1393C211.394 34.2992 211.612 34.5353 211.767 34.8476C211.921 35.1599 211.998 35.5397 211.998 35.9857V39.505H210.913V36.1194C210.913 35.8558 210.866 35.6272 210.774 35.4335C210.681 35.2399 210.547 35.0937 210.374 34.9925C210.201 34.8914 209.993 34.8414 209.751 34.8414C209.51 34.8414 209.278 34.8963 209.088 35.005C208.896 35.115 208.745 35.2724 208.635 35.481C208.526 35.6884 208.47 35.937 208.47 36.2243L208.469 36.2218Z" fill="white"/>
<path d="M62.6766 11.5484V13.3274H50.293V11.5484H62.6766ZM56.4929 14.3331C57.4843 14.3331 58.3586 14.4967 59.1171 14.8228C59.8756 15.1501 60.4671 15.6123 60.8906 16.2108C61.3153 16.8092 61.5295 17.5013 61.5358 18.2871C61.5308 19.0616 61.3153 19.7437 60.8906 20.3347C60.4659 20.9256 59.8756 21.3803 59.1171 21.7026C58.3586 22.0237 57.4843 22.1849 56.4929 22.1849C55.5015 22.1849 54.6072 22.0237 53.84 21.7026C53.0741 21.3816 52.48 20.9256 52.0578 20.3347C51.6356 19.7437 51.4251 19.0616 51.4251 18.2871C51.4251 17.5125 51.6356 16.8104 52.0578 16.2108C52.4788 15.6123 53.0728 15.1501 53.84 14.8228C54.606 14.4967 55.4903 14.3331 56.4929 14.3331ZM55.6223 23.4929V28.4925H53.429V23.4929H55.6223ZM67.5053 27.728V29.5407H53.429V27.728H67.5053ZM56.4929 16.0471C55.9075 16.0471 55.3894 16.137 54.941 16.3144C54.4927 16.4931 54.1477 16.7529 53.9061 17.0928C53.6644 17.4338 53.5474 17.8311 53.5523 18.2871C53.5474 18.7318 53.6644 19.1191 53.9061 19.4489C54.1464 19.7787 54.4914 20.0311 54.941 20.2072C55.3894 20.3834 55.9075 20.4683 56.4929 20.4621C57.0782 20.4671 57.5939 20.3821 58.0372 20.2072C58.4806 20.0311 58.8256 19.7787 59.0722 19.4489C59.3188 19.1191 59.4446 18.7318 59.4496 18.2871C59.4446 17.8311 59.3176 17.4338 59.0722 17.0928C58.8256 16.7517 58.4806 16.4931 58.0372 16.3144C57.5939 16.1358 57.0795 16.0471 56.4929 16.0471ZM57.5939 9.10229V12.4466H55.4006V9.10229H57.5939ZM66.6185 9.11104V24.7372H64.409V9.11104H66.6185ZM69.6325 15.8247V17.6699H65.9534V15.8247H69.6325Z" fill="white"/>
<path d="M89.8764 17.4388V19.234H70.832V17.4388H89.8764ZM87.5524 22.7932V29.9679H85.3354V24.5722H72.7787V22.7932H87.5524ZM86.6656 10.0742V11.862H73.2134V10.0742H86.6656ZM81.4097 18.6656V23.4516H79.2165V18.6656H81.4097ZM87.4614 11.6308V11.7133C87.4614 12.4816 87.4502 13.17 87.4291 13.7771C87.4066 14.3843 87.3456 15.0739 87.2447 15.8484C87.1438 16.623 86.9882 17.4463 86.7802 18.3195L84.6205 18.0809C84.8173 17.2302 84.9643 16.4294 85.0602 15.6798C85.1561 14.9302 85.2146 14.2668 85.237 13.6909C85.2595 13.1137 85.2694 12.4504 85.2694 11.697V10.0742H87.4614V11.6308Z" fill="white"/>
<path d="M102.309 11.0961V24.8121H92.5449V11.0961H102.309ZM94.7295 12.8501V23.0318H100.166V12.8501H94.7295ZM108.633 9.09351V30.0091H106.416V9.09351H108.633Z" fill="white"/>
<path d="M131.434 18.877V20.6722H112.463V18.877H131.434ZM121.932 9.05884C123.449 9.06384 124.766 9.2225 125.883 9.53232C127 9.84214 127.858 10.2919 128.457 10.8791C129.056 11.4662 129.356 12.1696 129.356 12.9879C129.356 13.8061 129.056 14.4895 128.457 15.0717C127.858 15.6538 127.001 16.0973 125.886 16.4022C124.772 16.707 123.454 16.8594 121.932 16.8594C120.41 16.8594 119.083 16.707 117.965 16.4022C116.848 16.0973 115.99 15.6538 115.391 15.0717C114.792 14.4895 114.492 13.7949 114.492 12.9879C114.492 12.1808 114.792 11.4662 115.391 10.8791C115.99 10.2919 116.849 9.84214 117.969 9.53232C119.089 9.2225 120.409 9.06384 121.932 9.05884ZM121.925 22.1064C123.419 22.1014 124.705 22.2426 125.781 22.5312C126.857 22.8198 127.68 23.2395 128.253 23.7917C128.825 24.3439 129.113 25.0148 129.12 25.8056C129.115 26.6014 128.826 27.2772 128.253 27.8319C127.681 28.3866 126.857 28.8076 125.781 29.0962C124.705 29.3848 123.419 29.5285 121.925 29.5285C120.43 29.5285 119.126 29.3848 118.044 29.0962C116.963 28.8076 116.136 28.3866 115.564 27.8319C114.992 27.2772 114.706 26.6014 114.706 25.8056C114.706 25.0098 114.992 24.3439 115.564 23.7917C116.136 23.2395 116.963 22.8198 118.044 22.5312C119.125 22.2426 120.419 22.1014 121.925 22.1064ZM121.932 10.7804C120.854 10.7804 119.928 10.8666 119.156 11.0402C118.384 11.2139 117.793 11.4662 117.386 11.7985C116.978 12.1308 116.777 12.5281 116.782 12.9891C116.777 13.4501 116.978 13.8449 117.386 14.1709C117.793 14.4982 118.383 14.7444 119.152 14.9118C119.922 15.0792 120.849 15.1629 121.932 15.1629C123.016 15.1629 123.936 15.0792 124.708 14.9118C125.48 14.7444 126.072 14.497 126.482 14.1709C126.893 13.8449 127.098 13.4501 127.098 12.9891C127.098 12.5281 126.893 12.1308 126.482 11.7985C126.071 11.4662 125.478 11.2139 124.703 11.0402C123.929 10.8678 123.004 10.7804 121.932 10.7804ZM121.925 23.7867C120.869 23.7917 119.967 23.8729 119.223 24.0303C118.478 24.1865 117.912 24.4151 117.523 24.7137C117.135 25.0135 116.943 25.3771 116.948 25.8056C116.943 26.2341 117.133 26.6001 117.523 26.9049C117.912 27.2098 118.478 27.4421 119.223 27.6008C119.968 27.7595 120.869 27.8369 121.925 27.8319C122.971 27.8369 123.865 27.7607 124.61 27.6008C125.355 27.4421 125.924 27.2098 126.319 26.9049C126.713 26.6001 126.913 26.2341 126.918 25.8056C126.913 25.3771 126.712 25.0135 126.319 24.7137C125.924 24.4139 125.356 24.1865 124.615 24.0303C123.873 23.8742 122.977 23.793 121.926 23.7867H121.925ZM119.231 15.755V19.6516H117.014V15.755H119.231ZM126.836 15.755V19.6516H124.642V15.755H126.836Z" fill="white"/>
<path d="M151.493 19.7861V21.5901H132.522V19.7861H151.493ZM142.707 12.554C142.707 13.6359 142.343 14.5903 141.614 15.4161C140.886 16.2431 139.883 16.9102 138.604 17.4175C137.326 17.9259 135.859 18.257 134.206 18.4106L133.525 16.7054C134.954 16.5904 136.218 16.3418 137.315 15.9595C138.412 15.5785 139.264 15.0925 139.869 14.5016C140.475 13.9119 140.777 13.2623 140.777 12.554V12.1829H142.708V12.554H142.707ZM149.588 11.0798V12.8513H134.428V11.0798H149.588ZM141.983 22.9656C143.494 22.9656 144.787 23.1005 145.859 23.3691C146.932 23.6377 147.752 24.0324 148.319 24.5509C148.885 25.0694 149.172 25.7027 149.177 26.4498C149.172 27.1969 148.885 27.8315 148.319 28.3525C147.752 28.8734 146.932 29.2682 145.859 29.5343C144.785 29.8004 143.494 29.9341 141.983 29.9341C140.472 29.9341 139.177 29.8004 138.098 29.5343C137.02 29.2682 136.194 28.8734 135.622 28.3525C135.051 27.8303 134.764 27.1969 134.764 26.4498C134.764 25.7027 135.051 25.0706 135.622 24.5509C136.194 24.0324 137.02 23.6377 138.098 23.3691C139.177 23.1005 140.472 22.9656 141.983 22.9656ZM141.983 24.6221C140.916 24.6221 140.009 24.6908 139.264 24.8282C138.519 24.9657 137.955 25.173 137.573 25.4504C137.189 25.7277 137.001 26.0613 137.006 26.4511C137.001 26.8408 137.189 27.1719 137.573 27.4443C137.956 27.7166 138.519 27.9202 139.264 28.0577C140.009 28.1951 140.914 28.2613 141.983 28.255C143.045 28.26 143.947 28.1951 144.689 28.0577C145.432 27.9202 145.996 27.7153 146.386 27.4443C146.774 27.1719 146.971 26.8421 146.977 26.4511C146.972 26.0613 146.774 25.7277 146.386 25.4504C145.997 25.173 145.432 24.9657 144.689 24.8282C143.947 24.6908 143.045 24.6221 141.983 24.6221ZM143.075 9.08594V12.043H140.907V9.08594H143.075ZM143.075 17.3812V20.6181H140.907V17.3812H143.075ZM143.207 12.554C143.202 13.2623 143.5 13.9119 144.103 14.5016C144.706 15.0925 145.556 15.5785 146.657 15.9595C147.758 16.3418 149.025 16.5892 150.46 16.7054L149.795 18.4106C148.136 18.257 146.666 17.9259 145.384 17.4175C144.103 16.909 143.099 16.2419 142.37 15.4161C141.642 14.5891 141.278 13.6359 141.278 12.554V12.1829H143.209V12.554H143.207Z" fill="white"/>
<path d="M158.836 10.3879C159.843 10.3929 160.759 10.6227 161.583 11.0762C162.408 11.5297 163.057 12.1581 163.534 12.9626C164.009 13.7672 164.251 14.6742 164.256 15.6848C164.251 16.6893 164.009 17.595 163.534 18.3996C163.057 19.2041 162.408 19.8312 161.583 20.2822C160.759 20.732 159.843 20.9581 158.836 20.9581C157.828 20.9581 156.875 20.7332 156.043 20.2822C155.211 19.8325 154.56 19.2041 154.089 18.3996C153.618 17.595 153.385 16.6905 153.392 15.6848C153.387 14.6742 153.618 13.7672 154.089 12.9626C154.56 12.1581 155.211 11.5297 156.043 11.0762C156.875 10.6227 157.806 10.3941 158.836 10.3879ZM158.836 12.3567C158.195 12.3617 157.62 12.5054 157.111 12.7852C156.601 13.0651 156.203 13.4586 155.916 13.9633C155.629 14.468 155.485 15.0427 155.485 15.6848C155.485 16.327 155.629 16.9092 155.916 17.4151C156.204 17.9198 156.603 18.3121 157.111 18.5894C157.62 18.8668 158.194 19.0055 158.836 19.0055C159.477 19.0055 160.023 18.8668 160.523 18.5894C161.024 18.3121 161.42 17.9211 161.71 17.4151C162 16.9104 162.146 16.3332 162.146 15.6848C162.146 15.0365 162 14.468 161.71 13.9633C161.42 13.4586 161.024 13.0651 160.523 12.7852C160.023 12.5054 159.46 12.363 158.836 12.3567ZM159.122 22.9007V28.5513H156.921V22.9007H159.122ZM170.981 27.728V29.5407H156.921V27.728H170.981ZM169.002 12.2655V14.0695H162.728V12.2655H169.002ZM169.002 17.2652V19.0779H162.728V17.2652H169.002ZM170.431 9.11108V24.4824H168.23V9.11108H170.431Z" fill="white"/>
<path d="M186.057 11.1448V12.9238H173.674V11.1448H186.057ZM179.874 13.7733C180.865 13.7733 181.741 13.9245 182.502 14.2268C183.263 14.5292 183.854 14.9577 184.275 15.5124C184.696 16.067 184.91 16.7092 184.915 17.44C184.91 18.1758 184.696 18.8192 184.275 19.3714C183.853 19.9236 183.263 20.3509 182.502 20.6519C181.741 20.9543 180.865 21.1054 179.874 21.1054C178.882 21.1054 177.988 20.9543 177.221 20.6519C176.455 20.3496 175.861 19.9223 175.439 19.3714C175.016 18.8205 174.806 18.1758 174.806 17.44C174.806 16.7042 175.016 16.067 175.439 15.5124C175.86 14.9577 176.452 14.5292 177.217 14.2268C177.981 13.9245 178.866 13.7733 179.874 13.7733ZM178.864 22.1261V24.1524H187.79V22.1261H189.999V29.7043H176.679V22.1261H178.864ZM179.874 15.4287C179.288 15.4237 178.77 15.5024 178.322 15.6673C177.872 15.8322 177.529 16.0683 177.287 16.3756C177.047 16.6829 176.928 17.0377 176.934 17.4388C176.929 17.8448 177.047 18.2008 177.287 18.5057C177.527 18.8105 177.872 19.0453 178.322 19.2103C178.77 19.3752 179.288 19.4576 179.874 19.4576C180.459 19.4576 180.975 19.3752 181.418 19.2103C181.861 19.0453 182.206 18.8105 182.453 18.5057C182.7 18.2008 182.825 17.8448 182.83 17.4388C182.825 17.0377 182.698 16.6842 182.453 16.3756C182.206 16.0683 181.861 15.8322 181.418 15.6673C180.975 15.5024 180.46 15.4224 179.874 15.4287ZM180.973 8.91235V12.1255H178.78V8.91235H180.973ZM178.864 27.9328H187.79V25.874H178.864V27.9328ZM189.999 9.0935V21.2516H187.79V9.0935H189.999ZM193.013 14.333V16.1945H189.08V14.333H193.013Z" fill="white"/>
<path d="M194.32 24.2924H194.681C196.504 24.2811 198.078 24.2611 199.402 24.2312C200.728 24.2012 202.142 24.1425 203.648 24.0538C205.154 23.9663 206.58 23.8314 207.926 23.6502L208.091 25.3143C206.662 25.5504 205.169 25.7303 203.611 25.854C202.053 25.9777 200.569 26.0564 199.159 26.0889C197.75 26.1213 196.24 26.1388 194.63 26.1388L194.318 24.2936L194.32 24.2924ZM207.459 11.5821V13.3536H194.754V11.5821H207.459ZM201.095 14.4155C202.096 14.4155 202.986 14.5791 203.76 14.9052C204.535 15.2325 205.135 15.6898 205.562 16.2769C205.99 16.8641 206.203 17.545 206.203 18.3195C206.203 19.0941 205.99 19.7574 205.562 20.3421C205.135 20.9268 204.535 21.3803 203.76 21.7013C202.986 22.0224 202.098 22.1836 201.095 22.1836C200.092 22.1836 199.209 22.0224 198.442 21.7013C197.675 21.3803 197.083 20.9268 196.664 20.3421C196.245 19.7574 196.038 19.0828 196.043 18.3195C196.038 17.545 196.245 16.8641 196.664 16.2769C197.082 15.6898 197.675 15.2325 198.442 14.9052C199.208 14.5791 200.092 14.4155 201.095 14.4155ZM201.095 16.1295C200.515 16.1295 199.998 16.2207 199.543 16.4019C199.088 16.583 198.737 16.8379 198.488 17.1677C198.239 17.4975 198.117 17.881 198.123 18.3208C198.118 18.7543 198.239 19.1341 198.488 19.4576C198.737 19.7812 199.088 20.031 199.543 20.2072C199.998 20.3833 200.515 20.4683 201.095 20.462C201.687 20.467 202.208 20.3821 202.663 20.2072C203.118 20.031 203.47 19.7812 203.723 19.4576C203.974 19.1341 204.1 18.7543 204.1 18.3208C204.1 17.8873 203.974 17.4975 203.723 17.1677C203.471 16.8379 203.118 16.583 202.663 16.4019C202.208 16.2207 201.685 16.1295 201.095 16.1295ZM202.237 9.13473V12.5528H200.028V9.13473H202.237ZM202.228 21.6564V25.0919H200.028V21.6564H202.228ZM211.419 9.09351V29.9679H209.218V9.09351H211.419Z" fill="white"/>
<path d="M27.489 20.7471C28.8723 20.7471 29.9936 19.6223 29.9936 18.2347C29.9936 16.8472 28.8723 15.7224 27.489 15.7224C26.1057 15.7224 24.9844 16.8472 24.9844 18.2347C24.9844 19.6223 26.1057 20.7471 27.489 20.7471Z" fill="#ECD531"/>
<path d="M39.0926 22.037C40.3151 21.8489 41.1541 20.7024 40.9666 19.4762C40.7791 18.25 39.6361 17.4084 38.4137 17.5965C37.1912 17.7845 36.3522 18.9311 36.5397 20.1573C36.7272 21.3835 37.8702 22.2251 39.0926 22.037Z" fill="#E62766"/>
<path d="M17.8109 21.402C18.6854 20.5248 18.6854 19.1026 17.8109 18.2254C16.9364 17.3482 15.5185 17.3482 14.644 18.2254C13.7695 19.1026 13.7695 20.5248 14.644 21.402C15.5185 22.2792 16.9364 22.2792 17.8109 21.402Z" fill="#2BB286"/>
<path d="M32.8516 27.3633L32.8839 27.3321L33.6549 26.56L36.2641 23.9428C36.9616 23.2432 37.8882 22.8584 38.8734 22.8584C39.8585 22.8584 40.7864 23.2432 41.4839 23.9428C42.1763 24.6374 42.5363 25.5419 42.5612 26.4539V26.4639C42.5612 26.4639 42.5612 26.4738 42.5612 26.4788C42.5612 26.5326 42.5612 26.5863 42.5612 26.64C42.5612 26.645 42.5612 26.65 42.5612 26.655V26.665C42.535 28.3478 41.8837 30.0218 40.6058 31.3036C39.937 31.9757 39.1499 32.4867 38.293 32.8202C37.5333 33.1151 36.7162 33.27 35.8755 33.27C35.7983 33.27 35.7224 33.2687 35.6464 33.2662C36.4808 33.2325 37.2717 32.9527 37.9368 32.4642C38.1111 32.3368 38.2756 32.1943 38.4312 32.0394C39.191 31.2774 39.6244 30.2642 39.653 29.1848C39.653 29.1848 39.653 29.1836 39.653 29.1823C39.653 29.1723 39.6543 29.1636 39.6543 29.1548V29.0087C39.6393 28.7126 39.5173 28.4365 39.3093 28.2266C39.2869 28.2041 39.2657 28.1829 39.242 28.1641C39.2271 28.1504 39.2109 28.1367 39.1947 28.1254C39.1872 28.1192 39.181 28.1142 39.1735 28.1092C39.1623 28.1004 39.1511 28.0917 39.1399 28.0854C39.1324 28.0804 39.125 28.0754 39.1175 28.0704C39.1088 28.0654 39.1013 28.0592 39.0926 28.0542C39.0926 28.0542 39.0913 28.0529 39.0888 28.0529C39.0839 28.0492 39.0776 28.0467 39.0726 28.043C39.054 28.0317 39.0353 28.0217 39.0166 28.0117C39.0079 28.0067 38.9979 28.0017 38.988 27.998C38.978 27.993 38.9693 27.988 38.9593 27.9842C38.9493 27.9792 38.9406 27.9755 38.9307 27.9717C38.9207 27.968 38.9107 27.9642 38.9008 27.9605C38.8871 27.9555 38.8734 27.9505 38.8597 27.9455C38.8323 27.9355 38.8061 27.928 38.7787 27.9205C38.77 27.918 38.7613 27.9155 38.7526 27.9143C38.7326 27.9093 38.7127 27.9055 38.6928 27.9018C38.6778 27.8993 38.6629 27.8968 38.6479 27.8943C38.6479 27.8943 38.6467 27.8943 38.6455 27.8943C38.6455 27.8943 38.6442 27.8943 38.643 27.8943C38.6417 27.8943 38.6392 27.8943 38.6367 27.8943C38.6168 27.8918 38.5956 27.8893 38.5745 27.888C38.567 27.888 38.5608 27.8868 38.5533 27.8868C38.5433 27.8868 38.5321 27.8855 38.5209 27.8855C38.4985 27.8843 38.4761 27.8843 38.4537 27.8843H38.4437C38.4437 27.8843 38.4337 27.8843 38.4287 27.8843C38.4088 27.8843 38.3901 27.8855 38.3714 27.888C38.3565 27.888 38.3428 27.8905 38.3291 27.8918C38.0626 27.9218 37.8234 28.038 37.6304 28.2316L35.6713 30.1955L32.8528 27.3683L32.8516 27.3633Z" fill="url(#paint0_linear_1018_21)"/>
<path d="M21.8564 32.6803C21.9698 32.6291 22.0806 32.5741 22.1902 32.5166C22.5614 32.323 22.9163 32.0931 23.2489 31.8283L24.9141 30.158L26.3052 31.5522C26.3986 31.6459 26.5008 31.7271 26.6091 31.7946C26.8781 31.962 27.1845 32.0444 27.4909 32.0444C27.7973 32.0444 28.1024 31.962 28.3727 31.7946C28.4811 31.7271 28.5832 31.6471 28.6766 31.5522L30.0678 30.1567L31.733 31.827C32.0655 32.0919 32.4205 32.3218 32.7916 32.5166C32.9012 32.5741 33.0133 32.6278 33.1254 32.6803L31.2659 34.5455C30.2235 35.5911 28.8572 36.1134 27.4909 36.1121C26.1246 36.1121 24.7584 35.5911 23.7159 34.5455L21.8564 32.6803Z" fill="url(#paint1_linear_1018_21)"/>
<path d="M12.4189 26.64C12.4189 26.5863 12.4189 26.5326 12.4189 26.4788C12.4189 26.4738 12.4189 26.4688 12.4189 26.4639V26.4539C12.4439 25.5419 12.8038 24.6374 13.4963 23.9428C14.1925 23.2432 15.1204 22.8584 16.1068 22.8584C17.0932 22.8584 18.0198 23.2432 18.716 23.9428L21.3252 26.56L22.0962 27.3334L22.1286 27.3646L19.3101 30.1917L17.351 28.2278C17.1567 28.033 16.9176 27.9168 16.6523 27.888C16.6386 27.8868 16.6236 27.8843 16.6099 27.8843C16.5912 27.883 16.5713 27.8805 16.5526 27.8805C16.5477 27.8805 16.5427 27.8805 16.5377 27.8805H16.5277C16.5053 27.8805 16.4816 27.8805 16.4605 27.8818C16.4493 27.8818 16.4393 27.8818 16.4281 27.883C16.4206 27.883 16.4144 27.8843 16.4069 27.8843C16.3857 27.8855 16.3646 27.888 16.3446 27.8905C16.3434 27.8905 16.3409 27.8905 16.3384 27.8905C16.3384 27.8905 16.3372 27.8905 16.3359 27.8905C16.3359 27.8905 16.3347 27.8905 16.3334 27.8905C16.3185 27.893 16.3035 27.8955 16.2886 27.898C16.2687 27.9018 16.2487 27.9055 16.2288 27.9105C16.2201 27.9118 16.2114 27.9143 16.2027 27.9168C16.1753 27.923 16.1479 27.9318 16.1217 27.9418C16.108 27.9468 16.0943 27.9518 16.0818 27.9568C16.0719 27.9605 16.0619 27.9642 16.052 27.968C16.042 27.9717 16.032 27.9767 16.0233 27.9805C16.0133 27.9842 16.0034 27.9892 15.9947 27.9942C15.9847 27.998 15.976 28.003 15.966 28.008C15.9473 28.018 15.9287 28.028 15.91 28.0392C15.905 28.043 15.8988 28.0455 15.8938 28.0492C15.8925 28.0492 15.8913 28.0492 15.89 28.0504C15.8813 28.0554 15.8726 28.0604 15.8651 28.0667C15.8577 28.0717 15.8502 28.0767 15.8427 28.0817C15.8315 28.0892 15.8203 28.0967 15.8091 28.1054C15.8016 28.1104 15.7954 28.1154 15.7879 28.1217C15.7717 28.1342 15.7555 28.1466 15.7406 28.1604C15.7169 28.1791 15.6945 28.2004 15.6733 28.2229C15.4653 28.4315 15.3433 28.7088 15.3283 29.0049V29.1511C15.3283 29.1598 15.3283 29.1698 15.3296 29.1786C15.3296 29.1786 15.3296 29.1798 15.3296 29.1811C15.357 30.2617 15.7904 31.2736 16.5514 32.0357C16.7071 32.1918 16.8715 32.333 17.0458 32.4604C17.7109 32.9489 18.5018 33.2275 19.3362 33.2625C19.2603 33.265 19.1843 33.2662 19.1071 33.2662C18.2676 33.2662 17.4506 33.1113 16.6896 32.8165C15.8315 32.4842 15.0456 31.972 14.3768 31.2999C13.099 30.0181 12.4476 28.344 12.4214 26.6612V26.6512C12.4214 26.6512 12.4214 26.6412 12.4214 26.6363L12.4189 26.64Z" fill="url(#paint2_linear_1018_21)"/>
<path d="M15.3271 29.1837C15.3296 29.2524 15.3384 29.3261 15.3521 29.401C15.6609 31.1013 17.7732 31.731 18.9913 30.5092L19.3101 30.1893L25.9821 23.4969C25.9871 23.4931 25.9908 23.4906 25.9958 23.4869C26.885 22.8423 28.0956 22.8423 28.9861 23.4869C28.9911 23.4906 28.9948 23.4931 28.9998 23.4969L32.8533 27.3622L35.6718 30.1893L35.9906 30.5092C37.2099 31.7322 39.321 31.1013 39.6298 29.401C39.6435 29.3248 39.6523 29.2524 39.6548 29.1837C39.6274 30.2643 39.1939 31.2762 38.433 32.0383C38.2773 32.1944 38.1129 32.3356 37.9385 32.463C37.2734 32.9515 36.4826 33.2301 35.6481 33.2651C35.0814 33.2463 34.5284 33.1564 33.9966 33.0015C33.9966 33.0015 33.9966 33.0015 33.9954 33.0015C33.699 32.9153 33.4075 32.8066 33.126 32.6792C33.0127 32.6279 32.9019 32.573 32.7923 32.5155C32.4211 32.3219 32.0662 32.092 31.7336 31.8272L30.0684 30.1569L30.0373 30.1244L28.0782 28.1592C28.0782 28.1592 28.0744 28.1555 28.0732 28.1542C27.7544 27.8369 27.2313 27.8369 26.9124 28.1542C26.9112 28.1555 26.9087 28.158 26.9074 28.1592L24.9483 30.1244L24.9172 30.1556L23.252 31.8259C22.9195 32.0908 22.5645 32.3206 22.1934 32.5155C22.0838 32.573 21.9717 32.6267 21.8596 32.6792C21.5781 32.8066 21.2867 32.914 20.9903 33.0015C20.9903 33.0015 20.9903 33.0015 20.989 33.0015C20.4572 33.1564 19.9042 33.2463 19.3375 33.2651C18.5031 33.2314 17.7122 32.9515 17.0471 32.463C16.8728 32.3356 16.7084 32.1932 16.5527 32.0383C15.793 31.2762 15.3595 30.263 15.3309 29.1837H15.3271Z" fill="url(#paint3_radial_1018_21)"/>
<path d="M18.4102 43.1292V38.157H19.2982V40.4469H19.3642L21.3021 38.157H22.3931L20.4714 40.3882L22.4081 43.1292H21.3345L19.8524 40.9929L19.2982 41.6487V43.1292H18.4102Z" fill="white"/>
<path d="M22.9612 43.1292V38.157H24.8568C25.2055 38.157 25.4995 38.212 25.7386 38.3206C25.9777 38.4293 26.1583 38.5817 26.2779 38.7766C26.3987 38.9715 26.4585 39.1951 26.4585 39.4475C26.4585 39.6411 26.4211 39.811 26.3451 39.956C26.2704 40.1009 26.1683 40.2183 26.0387 40.3095C25.9092 40.4007 25.761 40.4644 25.5929 40.5031V40.5519C25.7735 40.5619 25.9453 40.6168 26.1072 40.7168C26.2692 40.8167 26.3999 40.9579 26.5008 41.1403C26.6004 41.3227 26.6503 41.5338 26.6503 41.7724C26.6503 42.036 26.5867 42.2696 26.4597 42.4745C26.3339 42.6782 26.1434 42.8381 25.8918 42.953C25.639 43.0692 25.3288 43.1267 24.9614 43.1267H22.96L22.9612 43.1292ZM24.746 40.2745C24.9016 40.2745 25.0436 40.2445 25.1682 40.1858C25.294 40.1271 25.3911 40.0447 25.4633 39.9372C25.5343 39.831 25.5704 39.7049 25.5704 39.5612C25.5704 39.4325 25.5406 39.3176 25.4783 39.2176C25.4173 39.1177 25.3263 39.0402 25.2043 38.9828C25.0835 38.9265 24.9365 38.8978 24.7634 38.8978H23.848V40.2745H24.7435H24.746ZM24.8232 42.3808C25.0349 42.3808 25.2093 42.3521 25.3475 42.2959C25.4858 42.2397 25.5866 42.161 25.6527 42.061C25.7187 41.9611 25.7498 41.8424 25.7498 41.7062C25.7498 41.5576 25.7124 41.4239 25.6377 41.3039C25.563 41.1853 25.4571 41.0916 25.3214 41.0229C25.1856 40.9541 25.0287 40.9192 24.8493 40.9192H23.8492V42.3808H24.8219H24.8232Z" fill="white"/>
<path d="M30.6976 39.7449C30.6428 39.5675 30.5619 39.4139 30.4547 39.2877C30.3476 39.1603 30.2156 39.0628 30.0587 38.9954C29.903 38.9279 29.7261 38.8929 29.5294 38.8929C29.2603 38.8929 29.0212 38.9616 28.8132 39.0978C28.6052 39.234 28.4421 39.4339 28.325 39.6962C28.2079 39.9586 28.1481 40.2734 28.1481 40.6382C28.1481 41.003 28.2067 41.3265 28.3225 41.5889C28.4383 41.8525 28.6027 42.0524 28.8145 42.1885C29.0262 42.326 29.2716 42.3934 29.5493 42.3934C29.8009 42.3934 30.0201 42.3447 30.2044 42.2473C30.39 42.1498 30.5332 42.0099 30.6341 41.8313C30.735 41.6514 30.786 41.4415 30.786 41.2004L30.9866 41.2316H29.639V40.5295H31.6504V41.1242C31.6504 41.5427 31.5607 41.91 31.3814 42.2223C31.202 42.5359 30.9542 42.7757 30.6353 42.9444C30.3165 43.113 29.9541 43.1967 29.548 43.1967C29.0935 43.1967 28.6924 43.093 28.3462 42.8869C27.9999 42.6808 27.7309 42.3847 27.5404 41.9999C27.3498 41.6151 27.2539 41.1641 27.2539 40.6482C27.2539 40.1322 27.3511 39.6712 27.5466 39.2852C27.7421 38.8992 28.0111 38.6031 28.3536 38.397C28.6962 38.1921 29.0847 38.0884 29.5182 38.0884C29.8781 38.0884 30.2081 38.1583 30.5071 38.2983C30.806 38.4382 31.0513 38.6331 31.2444 38.8829C31.4362 39.1328 31.5582 39.4201 31.6105 39.7437H30.7001L30.6976 39.7449Z" fill="white"/>
<path d="M32.9296 43.1292H31.9756L33.723 38.157H34.8215L36.5688 43.1292H35.6173L34.2909 39.1727H34.2523L32.9284 43.1292H32.9296ZM32.9657 41.1803H35.5775V41.8986H32.9657V41.1803Z" fill="white"/>
<path d="M12.1769 38.9793L12.0087 39.0967L11.6949 38.7882L9.43562 40.3648L9.61497 40.767L9.44683 40.8845L8.70205 39.8101C8.53017 39.5627 8.45171 39.3216 8.4679 39.0892C8.48409 38.8569 8.5912 38.6707 8.79047 38.5308C8.93993 38.4271 9.09561 38.3796 9.25877 38.3896C9.42192 38.3996 9.58259 38.4621 9.74201 38.577C9.68471 38.4409 9.65731 38.3022 9.65731 38.1623C9.65731 38.0223 9.68721 37.8899 9.7445 37.765C9.80303 37.6413 9.89022 37.5376 10.0085 37.4552C10.2389 37.294 10.4768 37.2465 10.7209 37.309C10.965 37.3727 11.1917 37.5551 11.401 37.8574L12.1781 38.9781L12.1769 38.9793ZM10.229 39.3653L10.0646 39.128C9.90765 38.9031 9.73951 38.7682 9.55768 38.7257C9.37584 38.6832 9.18653 38.7307 8.98975 38.8681C8.70827 39.0643 8.70454 39.3578 8.97605 39.7501C9.00718 39.7951 9.04579 39.8463 9.09187 39.9038C9.13796 39.9612 9.18404 40.0137 9.23012 40.0612L10.229 39.3641V39.3653ZM11.2067 38.0311C11.0796 37.8474 10.9327 37.7363 10.7645 37.6963C10.5976 37.6563 10.4245 37.6975 10.2477 37.8212C10.0621 37.9511 9.96743 38.1011 9.96245 38.271C9.95747 38.4421 10.0409 38.6495 10.2103 38.8943L10.4357 39.2204L11.4807 38.4908C11.4558 38.4371 11.4172 38.3672 11.3648 38.2797C11.3125 38.1923 11.259 38.1098 11.2042 38.0311H11.2067Z" fill="white"/>
<path d="M10.8651 37.0967L10.6832 37.1929L10.408 36.8493L7.97685 38.1448L8.10638 38.5658L7.92454 38.662L6.84473 36.6244L7.56087 36.2422L7.66673 36.442L7.22459 36.7943L7.50607 37.3265L7.79875 37.8238L8.87358 37.2516L8.45635 36.4645L8.17114 36.5407L8.07773 36.3633L8.79387 35.9811L8.88728 36.1585L8.66933 36.3508L9.08531 37.1379L10.1925 36.5482C10.1776 36.4745 10.1464 36.3821 10.1004 36.2709C10.0543 36.1597 10.0057 36.0548 9.95464 35.9573L9.6794 35.4389L9.16378 35.5963L9.05542 35.3914L9.75786 35.0166L10.8588 37.0954L10.8651 37.0967Z" fill="white"/>
<path d="M9.95029 35.4812L9.75351 35.5574L9.58787 35.2963L6.30607 35.3313L6.23633 35.1489L8.67743 32.9214L8.62014 32.6016L8.81692 32.5254L9.22419 33.5885L9.02741 33.6647L8.81817 33.2925L8.26269 33.7934L8.73597 35.029L9.47079 34.994L9.38236 34.5917L9.57915 34.5155L9.94905 35.4825L9.95029 35.4812ZM8.45823 35.0352L8.0547 33.9821L7.00353 34.9278L6.83415 35.059L6.84287 35.0827L7.0546 35.0614L8.45823 35.034V35.0352Z" fill="white"/>
<path d="M8.70168 31.5983C8.77392 31.9057 8.77267 32.1543 8.69919 32.3429C8.62571 32.5316 8.48746 32.6802 8.28321 32.7877C8.0802 32.8951 7.82363 32.9863 7.51351 33.0588L5.93925 33.4298L5.9654 33.8571L5.7599 33.9058L5.47967 32.7077L5.68517 32.659L5.85331 33.0638L7.42757 32.6927C7.72399 32.6228 7.95067 32.5441 8.10511 32.4566C8.25954 32.3692 8.35544 32.2505 8.39156 32.1006C8.42768 31.9506 8.41523 31.7508 8.35669 31.5009C8.30313 31.2735 8.21844 31.1099 8.10261 31.0099C7.98679 30.91 7.83733 30.8575 7.65674 30.85C7.47615 30.8438 7.26193 30.8688 7.01533 30.9275L5.45103 31.296L5.47345 31.7295L5.26296 31.7795L5.00391 30.6714L5.21439 30.6227L5.38626 31.0162L6.95056 30.6476C7.18346 30.5927 7.39519 30.5614 7.58326 30.5539C7.77132 30.5464 7.93821 30.5739 8.08269 30.6351C8.22716 30.6964 8.35046 30.805 8.45383 30.96C8.55721 31.1161 8.64065 31.3285 8.70417 31.5996L8.70168 31.5983Z" fill="white"/>
<path d="M8.26598 29.6083L8.05674 29.6283L7.94465 29.2098L5.17475 29.4771L5.24823 30.2467L5.80495 30.2966L5.82612 30.5228L5.01906 30.6002L4.77246 28.0367L5.57952 27.9592L5.60194 28.1903L5.0639 28.3353L5.13863 29.1148L7.90853 28.8475L7.93967 28.4152L8.14891 28.3952L8.26598 29.6108V29.6083Z" fill="white"/>
<path d="M8.11235 27.4259L7.90187 27.4222L7.8371 26.9937L6.93913 26.9787L5.04727 28.0293L4.96009 28.3004L4.76953 28.2967L4.78946 27.1174L4.98001 27.1211L5.05474 27.5709H5.15189L6.65018 26.7576V26.7426L5.17431 25.9093H5.08214L4.99371 26.3241L4.8044 26.3203L4.8206 25.2959L5.01115 25.2996L5.07965 25.532L6.91048 26.6077L7.84458 26.6226L7.92304 26.2016L8.13352 26.2054L8.1136 27.4259H8.11235Z" fill="white"/>
<path d="M8.47709 23.7367C8.39365 24.2065 8.2006 24.5475 7.8992 24.7586C7.5978 24.9698 7.15192 25.0222 6.56157 24.9173C6.32867 24.8761 6.1157 24.7999 5.92141 24.6899C5.72711 24.58 5.56271 24.4426 5.4282 24.2777C5.29369 24.1128 5.19904 23.9241 5.14299 23.7117C5.08695 23.4994 5.08072 23.2695 5.12431 23.0234C5.17164 22.756 5.22768 22.5424 5.29369 22.3812C5.35846 22.2201 5.41077 22.1189 5.44938 22.0764L6.20288 22.2113L6.16552 22.4187L5.58139 22.4762C5.54528 22.5424 5.50791 22.6373 5.46806 22.7598C5.42945 22.8822 5.39956 22.9971 5.38088 23.1046C5.30864 23.5131 5.36842 23.8242 5.56271 24.0341C5.757 24.2452 6.09951 24.3938 6.59146 24.4825C6.89162 24.5363 7.1569 24.5475 7.38607 24.515C7.61648 24.4825 7.8033 24.3963 7.94902 24.2552C8.09474 24.114 8.19188 23.9041 8.24046 23.6268C8.26287 23.5019 8.27533 23.3982 8.27782 23.3145C8.28031 23.2308 8.27533 23.1558 8.26412 23.0871C8.25166 23.0184 8.23174 22.9459 8.20434 22.8672L7.25903 22.6986L7.10584 23.0321L6.90407 22.9959L7.06349 22.0989L7.31134 22.1426L7.30138 22.345L8.63651 22.5836L8.60787 22.746L8.45094 22.8335L8.43724 22.9097C8.4609 22.9697 8.48457 23.0634 8.50698 23.1895C8.5294 23.3157 8.51944 23.4994 8.47709 23.7392V23.7367Z" fill="white"/>
<path d="M8.63686 22.592L8.44008 22.5308L8.4899 22.0935L5.86322 21.269L5.65647 21.6575L5.46094 21.5963L6.14719 19.3938L6.92186 19.6374L6.85461 19.8535L6.29415 19.7861L6.1148 20.3607L5.96784 20.9192L7.12986 21.284L7.39514 20.4332L7.14107 20.2833L7.20085 20.0922L7.97552 20.3345L7.91574 20.5257L7.6268 20.5044L7.36151 21.3552L8.55716 21.73C8.59826 21.6675 8.64185 21.5801 8.68917 21.4689C8.7365 21.3577 8.77636 21.2502 8.80874 21.1453L8.9831 20.5844L8.50858 20.3283L8.57708 20.1071L9.33681 20.3458L8.63686 22.592Z" fill="white"/>
<path d="M9.26035 20.4734L9.0835 20.3897L9.152 20.0511L6.64488 18.8631L6.44436 19.1204L6.25879 19.033L6.54151 18.4321L9.72615 17.9761L9.8781 17.9686L9.88433 17.9548L7.58521 16.8667L7.37099 17.1303L7.19413 17.0466L7.59517 16.1946L7.77202 16.2783L7.70602 16.6118L10.4647 17.9186L10.304 18.2584L7.15552 18.7094L7.01728 18.7119L7.01105 18.7256L9.27281 19.7963L9.49201 19.5239L9.66886 19.6076L9.2616 20.4746L9.26035 20.4734Z" fill="white"/>
<path d="M10.5612 17.7601L10.3893 17.6476L10.5562 17.2404L8.25338 15.7287L7.94824 16.046L7.77637 15.9336L9.03553 14.0022L9.71431 14.4482L9.59101 14.6381L9.0704 14.4195L8.7416 14.9242L8.44767 15.4214L9.46646 16.0898L9.95343 15.3439L9.74918 15.1303L9.85878 14.9617L10.5376 15.4076L10.428 15.5763L10.1552 15.4776L9.66822 16.2234L10.7169 16.9118C10.7742 16.8631 10.8402 16.7919 10.9149 16.6969C10.9909 16.6032 11.0582 16.5095 11.1179 16.4183L11.438 15.9274L11.0519 15.5513L11.1777 15.3577L11.844 15.7949L10.5587 17.7651L10.5612 17.7601Z" fill="white"/>
<path d="M11.7639 15.8961L11.607 15.7637L11.8225 15.3801L9.71889 13.5999L9.37763 13.8772L9.2207 13.7448L10.1548 12.6354C10.2632 12.5068 10.3865 12.4056 10.5259 12.3294C10.6654 12.2544 10.8099 12.2194 10.9581 12.2232C11.1063 12.2282 11.2483 12.2869 11.3853 12.4031C11.5186 12.5155 11.6157 12.6267 11.6755 12.7329C11.7353 12.8403 11.7702 12.9453 11.7789 13.0502C11.7876 13.1539 11.7826 13.2563 11.7639 13.355C11.7453 13.4537 11.7228 13.5512 11.6979 13.6461L13.0829 13.861L13.3855 13.6524L13.5425 13.7848L13.2772 14.0996C13.2311 14.1546 13.1875 14.1896 13.1452 14.2033C13.1041 14.2183 13.0505 14.222 12.9845 14.2158L11.5422 13.9659L11.1985 14.3757L12.0579 15.1028L12.3991 14.8254L12.556 14.9591L11.7639 15.8998V15.8961ZM11.0017 14.207L11.2408 13.9235C11.3467 13.7973 11.4165 13.6649 11.4476 13.5262C11.48 13.3875 11.4762 13.2526 11.4376 13.1227C11.399 12.9927 11.3243 12.8815 11.2147 12.7891C11.0976 12.6892 10.988 12.6317 10.8871 12.6155C10.7862 12.5992 10.6953 12.6105 10.6131 12.6467C10.5309 12.6829 10.4587 12.7304 10.3952 12.7891C10.3317 12.8478 10.2781 12.904 10.2345 12.9565C10.1922 13.0065 10.1461 13.0652 10.0963 13.1327C10.0464 13.2001 10.0004 13.2638 9.95926 13.3238L11.003 14.207H11.0017Z" fill="white"/>
<path d="M13.0416 14.3008L12.8984 14.1459L13.079 13.8947L11.8311 10.849L11.9743 10.7166L14.941 12.167L15.2162 11.9958L15.3594 12.1507L14.5262 12.924L14.383 12.7691L14.6508 12.4368L13.9807 12.1045L13.0118 13.0028L13.3156 13.6749L13.6557 13.4438L13.7989 13.5987L13.0416 14.302V14.3008ZM12.9022 12.7466L13.7279 11.9808L12.4625 11.3512L12.2782 11.2413L12.2595 11.2587L12.3579 11.4486L12.9034 12.7454L12.9022 12.7466Z" fill="white"/>
<path d="M15.0374 12.4556L14.9154 12.2895L15.2143 11.9672L13.5865 9.74093L13.1904 9.93082L13.0684 9.76467L14.0996 9.00635L14.2366 9.19374L13.8904 9.53855L15.5032 11.7448L15.9877 11.44L16.4523 11.0989L16.2156 10.6017L16.4025 10.4643L16.8732 11.1077L15.0387 12.4569L15.0374 12.4556Z" fill="white"/>
<path d="M16.0156 11.6547L15.9085 11.4735L16.1377 11.2649L15.5498 8.02548L15.7179 7.92554L18.3185 9.96313L18.6236 9.85319L18.7307 10.0343L17.7555 10.6165L17.6484 10.4354L17.9785 10.1668L17.3918 9.70203L16.2572 10.3791L16.4154 11.1L16.7953 10.9451L16.9024 11.1262L16.0156 11.6559V11.6547ZM16.2024 10.1043L17.1689 9.52713L16.0617 8.64763L15.9035 8.50271L15.8811 8.5152L15.9371 8.72133L16.2012 10.1043H16.2024Z" fill="white"/>
<path d="M19.2353 9.91457C19.117 9.96829 18.9937 10.0095 18.8654 10.037C18.7371 10.0645 18.6188 10.0795 18.5105 10.082C18.4021 10.0832 18.3162 10.0745 18.2502 10.0557L17.965 9.42235L18.1854 9.32241L18.4781 9.77215C18.569 9.79089 18.6761 9.79214 18.7994 9.7734C18.9227 9.75591 19.0273 9.72593 19.1158 9.6872C19.3649 9.57476 19.5218 9.44359 19.5853 9.29742C19.6488 9.15 19.6414 8.98885 19.5616 8.81395C19.5043 8.68527 19.4271 8.59782 19.33 8.5491C19.2328 8.50037 19.1232 8.47289 18.9999 8.46664C18.8766 8.4604 18.7471 8.46165 18.6126 8.46914C18.4918 8.47539 18.3672 8.47789 18.2415 8.47664C18.1157 8.47664 17.9936 8.46164 17.8765 8.43541C17.7595 8.40917 17.6536 8.3617 17.5589 8.29424C17.4643 8.22553 17.3883 8.12933 17.3323 8.00316C17.255 7.83075 17.2289 7.66585 17.2526 7.50844C17.2775 7.35103 17.3472 7.20611 17.463 7.07368C17.5789 6.94251 17.7345 6.83257 17.9313 6.74262C18.031 6.69765 18.1368 6.65767 18.2489 6.62144C18.361 6.58646 18.4631 6.55898 18.5553 6.53899C18.6475 6.519 18.7147 6.51025 18.7558 6.51025L19.056 7.17737L18.8505 7.27107L18.559 6.86006C18.5042 6.85506 18.4258 6.86255 18.3237 6.88129C18.2215 6.90128 18.1157 6.93501 18.0073 6.98498C17.8018 7.07868 17.6636 7.18987 17.5938 7.31854C17.5241 7.44847 17.5253 7.59214 17.5975 7.75205C17.6611 7.89322 17.7482 7.98691 17.8603 8.03439C17.9724 8.08186 18.0982 8.10435 18.2402 8.1031C18.3822 8.1006 18.5279 8.0956 18.6786 8.08811C18.8318 8.07936 18.9837 8.08061 19.1307 8.09185C19.2789 8.10435 19.4134 8.14433 19.5355 8.21429C19.6563 8.283 19.7547 8.40168 19.8294 8.56783C19.9029 8.73024 19.9365 8.88141 19.9315 9.02133C19.9266 9.16125 19.8917 9.28743 19.8269 9.40236C19.7622 9.51605 19.6775 9.61724 19.5741 9.70344C19.4707 9.78964 19.3574 9.86085 19.2353 9.91582V9.91457Z" fill="white"/>
<path d="M20.9983 9.21748C20.875 9.2587 20.7479 9.28744 20.6172 9.30118C20.4864 9.31617 20.3681 9.31867 20.2597 9.30992C20.1514 9.30118 20.0667 9.28369 20.0044 9.25745L19.7839 8.59783L20.0131 8.52162L20.2585 8.99885C20.3469 9.02633 20.454 9.03883 20.5786 9.03258C20.7031 9.02758 20.8102 9.00884 20.9011 8.97886C21.1602 8.89141 21.3296 8.77773 21.4068 8.6378C21.484 8.49788 21.4927 8.33673 21.4317 8.15433C21.3869 8.02066 21.3196 7.92571 21.2274 7.86699C21.1365 7.80953 21.0294 7.7708 20.9074 7.75206C20.7853 7.73332 20.657 7.72083 20.5213 7.71583C20.4005 7.70958 20.2772 7.69959 20.1514 7.68585C20.0256 7.6721 19.906 7.64587 19.7927 7.60839C19.6793 7.57091 19.5784 7.51219 19.4913 7.43474C19.4041 7.35728 19.3381 7.25359 19.2957 7.12367C19.2359 6.94502 19.226 6.77761 19.2671 6.6227C19.3069 6.46779 19.3916 6.33162 19.5199 6.21168C19.6482 6.093 19.8151 5.9993 20.0193 5.93059C20.1227 5.89561 20.2323 5.86688 20.3469 5.84189C20.4615 5.81691 20.5661 5.80067 20.6608 5.79067C20.7554 5.78068 20.8227 5.77818 20.8638 5.78193L21.0954 6.47528L20.8812 6.54774L20.6321 6.10924C20.5786 6.098 20.4988 6.098 20.3955 6.10674C20.2921 6.11674 20.1837 6.13922 20.0704 6.17795C19.8562 6.25041 19.708 6.34661 19.6258 6.46779C19.5436 6.58897 19.5299 6.73389 19.5859 6.90004C19.6345 7.04621 19.7117 7.14865 19.8188 7.20737C19.9247 7.26608 20.0492 7.30106 20.19 7.31356C20.3307 7.32605 20.4764 7.33604 20.6271 7.34354C20.7803 7.34979 20.931 7.36603 21.0767 7.39351C21.2225 7.421 21.3532 7.47472 21.4666 7.55592C21.5799 7.63712 21.6658 7.76455 21.7231 7.93695C21.7792 8.10686 21.7991 8.26052 21.7792 8.39919C21.7605 8.53786 21.7132 8.66029 21.6372 8.76773C21.5612 8.87517 21.4666 8.96637 21.3545 9.04133C21.2424 9.11753 21.1228 9.17625 20.997 9.21872L20.9983 9.21748Z" fill="white"/>
<path d="M23.3154 8.61656C22.8222 8.71526 22.4199 8.64405 22.1098 8.39919C21.7997 8.15558 21.5929 7.78079 21.492 7.27608C21.4285 6.95626 21.4298 6.65268 21.4958 6.36659C21.563 6.08051 21.6988 5.8344 21.903 5.62826C22.1085 5.42213 22.3888 5.28346 22.7437 5.21225C23.0389 5.15228 23.3042 5.16727 23.5408 5.25722C23.7775 5.34717 23.9755 5.49959 24.1362 5.71821C24.2968 5.93684 24.4102 6.21043 24.4762 6.54024C24.5235 6.77636 24.5409 7.00623 24.5285 7.2311C24.516 7.45597 24.4662 7.66336 24.3803 7.852C24.2943 8.04064 24.1636 8.2018 23.9904 8.33547C23.8161 8.46915 23.5919 8.56285 23.3166 8.61781L23.3154 8.61656ZM23.3652 8.33797C23.6031 8.2905 23.7837 8.19555 23.9057 8.05313C24.0278 7.91196 24.1 7.72707 24.1224 7.4997C24.1449 7.27233 24.1262 7.00998 24.0664 6.71015C24.0054 6.40407 23.9282 6.16171 23.8372 5.98431C23.7463 5.80691 23.6429 5.67823 23.5271 5.59828C23.4113 5.51833 23.2867 5.47335 23.1547 5.46336C23.0215 5.45336 22.882 5.46336 22.7338 5.49334C22.6266 5.51458 22.5208 5.54331 22.4162 5.57829C22.3115 5.61327 22.2156 5.66449 22.1297 5.7332C22.0438 5.80066 21.9753 5.89561 21.9242 6.01554C21.8731 6.13547 21.8445 6.29164 21.8395 6.48153C21.8345 6.67142 21.8594 6.90629 21.9155 7.18613C21.9827 7.52344 22.0824 7.78454 22.2132 7.96943C22.3439 8.15433 22.5071 8.27551 22.6989 8.33173C22.8919 8.38794 23.1136 8.39044 23.3652 8.33922V8.33797Z" fill="white"/>
<path d="M26.089 8.25296C25.5733 8.28419 25.1847 8.16426 24.9257 7.89441C24.6666 7.62457 24.5197 7.2173 24.4873 6.67136C24.4736 6.44524 24.496 6.22411 24.5558 6.00923C24.6156 5.79436 24.709 5.59947 24.8373 5.42457C24.9655 5.24967 25.1275 5.1085 25.3217 5.00106C25.516 4.89362 25.7427 4.83115 26.003 4.81616C26.1836 4.80492 26.3605 4.80742 26.5311 4.82116C26.7017 4.8349 26.8487 4.86364 26.9707 4.90861L27.0168 5.68442L26.7964 5.69816L26.6544 5.13348C26.5672 5.11474 26.4601 5.101 26.3306 5.09351C26.201 5.08601 26.074 5.08601 25.947 5.09351C25.7004 5.1085 25.4986 5.17721 25.3392 5.30089C25.1798 5.42457 25.0652 5.59822 24.9954 5.82434C24.9244 6.05046 24.8995 6.32655 24.9182 6.65262C24.9319 6.88249 24.968 7.08362 25.0266 7.25728C25.0851 7.43093 25.1648 7.5746 25.2657 7.68953C25.3666 7.80446 25.4886 7.88692 25.6306 7.93814C25.7726 7.98936 25.9358 8.0106 26.1201 7.99935C26.2745 7.99061 26.3991 7.96937 26.4975 7.93814C26.5946 7.90691 26.6706 7.87193 26.7254 7.83445C26.7802 7.79697 26.8188 7.76824 26.8412 7.75075L26.9085 7.24103L27.1289 7.22729L27.1737 7.97312C27.1102 8.00435 27.0343 8.04058 26.9433 8.07931C26.8524 8.11929 26.7391 8.15552 26.6021 8.188C26.4651 8.22048 26.2945 8.24297 26.089 8.25546V8.25296Z" fill="white"/>
<path d="M27.0957 8.17304L27.1032 7.96191L27.5316 7.90444L27.6275 5.13476L27.2041 5.04731L27.2115 4.83618L28.4333 4.87866L28.4259 5.08979L27.9974 5.14726L27.9015 7.91693L28.325 8.00438L28.3175 8.21551L27.0957 8.17304Z" fill="white"/>
<path d="M27.8916 8.13549L27.9178 7.92561L28.2254 7.90312L29.7523 4.98853L29.9454 5.01351L30.7412 8.22669L31.0488 8.32788L31.0227 8.53776L29.8968 8.39284L29.9229 8.18296L30.3489 8.17546L30.1733 7.44713L28.8643 7.27847L28.5467 7.94435L28.9415 8.05678L28.9154 8.26666L27.8916 8.13549ZM28.9901 7.02987L30.106 7.17353L29.7747 5.79682L29.7399 5.58444L29.7137 5.58069L29.6315 5.77808L28.9901 7.02987Z" fill="white"/>
<path d="M30.9292 8.57277L30.979 8.36789L31.4099 8.39787L32.0651 5.68441L31.3165 5.50202L31.0874 6.01298L30.8682 5.95926L31.0587 5.16846L33.5546 5.77436L33.3641 6.56516L33.1399 6.51019L33.1797 5.95301L32.4213 5.76937L31.7661 8.48282L32.1634 8.65398L32.1136 8.85886L30.9304 8.57152L30.9292 8.57277Z" fill="white"/>
<path d="M32.4785 8.96621L32.5458 8.76632L32.973 8.83379L33.8485 6.20528L33.4674 6.00164L33.5347 5.80176L34.6942 6.19029L34.6269 6.39017L34.1997 6.32271L33.3242 8.95122L33.7053 9.15485L33.638 9.35474L32.4785 8.96621Z" fill="white"/>
<path d="M34.8877 9.95073C34.4307 9.74085 34.1467 9.44601 34.0371 9.06623C33.9275 8.68645 33.9798 8.26169 34.194 7.7932C34.3285 7.49712 34.5079 7.25226 34.7283 7.05862C34.95 6.86623 35.2041 6.7463 35.4905 6.70007C35.777 6.65385 36.0846 6.70632 36.4147 6.85749C36.6887 6.98241 36.8954 7.15107 37.0349 7.3622C37.1744 7.57333 37.2454 7.81444 37.2479 8.08554C37.2504 8.35663 37.1819 8.64522 37.0424 8.9513C36.9428 9.16992 36.8219 9.36606 36.68 9.54096C36.538 9.71586 36.3773 9.85453 36.1967 9.95697C36.0161 10.0594 35.8169 10.1131 35.5977 10.1181C35.3785 10.1231 35.1418 10.0682 34.8865 9.95073H34.8877ZM35.0908 9.75459C35.3112 9.85578 35.513 9.88452 35.6948 9.84204C35.8766 9.79831 36.0423 9.69212 36.193 9.52097C36.3437 9.35107 36.4832 9.1262 36.609 8.84885C36.7385 8.56402 36.8182 8.32415 36.8481 8.12551C36.878 7.92813 36.8693 7.76197 36.8232 7.62955C36.7759 7.49712 36.7024 7.38718 36.6003 7.30098C36.4981 7.21478 36.3786 7.13982 36.2416 7.07736C36.1419 7.03114 36.0398 6.99241 35.9339 6.95868C35.8281 6.9262 35.721 6.9112 35.6114 6.9162C35.5018 6.9212 35.3909 6.95743 35.2801 7.02489C35.168 7.09235 35.0546 7.20229 34.9388 7.3522C34.823 7.50337 34.7059 7.70825 34.5876 7.96685C34.4456 8.27918 34.3734 8.54902 34.3709 8.77639C34.3684 9.00377 34.4294 9.19741 34.5527 9.35482C34.676 9.51348 34.8554 9.6459 35.0883 9.75334L35.0908 9.75459Z" fill="white"/>
<path d="M36.1504 10.443L36.2575 10.2793L36.5813 10.3943L38.107 8.07185L37.8803 7.83573L37.9937 7.66333L38.5467 8.02937V11.2563L38.5342 11.4075L38.5467 11.4162L39.9453 9.28741L39.7161 9.03755L39.8233 8.87389L40.6079 9.39235L40.5008 9.556L40.1807 9.44357L38.5018 11.9984L38.1892 11.791V8.6003L38.2054 8.46288L38.1929 8.45413L36.8167 10.5479L37.0546 10.804L36.9475 10.9677L36.1504 10.4405V10.443Z" fill="white"/>
<path d="M8.81862 41.8613L8.59444 42.02L8.24944 41.6889L5.82578 43.4054L6.02131 43.8414L5.79713 44.0001L4.91783 42.752L5.14202 42.5934L5.48701 42.9244L6.54067 42.1786L6.44228 42.0387L4.8456 41.9437L4.78955 41.9837L4.91161 42.2761L4.69241 42.431L3.99121 41.4353L4.21539 41.2766L4.48317 41.529L6.18571 41.6539L6.87695 39.7487L6.70258 39.3327L6.92676 39.1741L7.28919 39.6888C7.34399 39.7662 7.37388 39.8324 7.38011 39.8874C7.38634 39.9411 7.37139 40.0111 7.33777 40.096L6.6839 41.855L6.78976 42.005L7.91317 41.2092L7.71763 40.7732L7.94182 40.6145L8.82111 41.8625L8.81862 41.8613Z" fill="white"/>
<path d="M6.66546 38.3969C6.93448 38.8891 6.99426 39.3426 6.84854 39.7574C6.70158 40.1721 6.36904 40.5232 5.84844 40.8093C5.51839 40.9904 5.18709 41.0904 4.85705 41.1079C4.527 41.1266 4.21937 41.0566 3.93416 40.8992C3.64895 40.7431 3.41107 40.4882 3.21927 40.1372C3.05113 39.8286 2.97142 39.5313 2.98014 39.2439C2.98886 38.9566 3.08226 38.6892 3.26037 38.4406C3.43971 38.192 3.70126 37.9746 4.04376 37.7848C4.29036 37.6498 4.53821 37.5536 4.78481 37.4987C5.03266 37.4437 5.27054 37.4362 5.50095 37.4774C5.73136 37.5187 5.94558 37.6136 6.14486 37.7635C6.34413 37.9134 6.51725 38.1233 6.66421 38.3944L6.66546 38.3969ZM6.27936 38.4769C6.16852 38.2732 6.03027 38.1321 5.86463 38.0559C5.69898 37.9796 5.50095 37.9634 5.27054 38.0096C5.04013 38.0559 4.77485 38.1608 4.47345 38.3257C4.18948 38.4819 3.96903 38.6305 3.81086 38.7742C3.65269 38.9179 3.54682 39.059 3.49202 39.1965C3.43722 39.3339 3.42103 39.4725 3.44096 39.61C3.46089 39.7461 3.5107 39.8873 3.58917 40.031C3.64521 40.1347 3.70998 40.2284 3.78221 40.3133C3.85445 40.3983 3.9379 40.4657 4.0338 40.5182C4.1297 40.5707 4.24303 40.5982 4.37505 40.6019C4.50707 40.6057 4.66151 40.5794 4.83961 40.5232C5.01771 40.467 5.22321 40.3745 5.45611 40.2471C5.7899 40.0635 6.0365 39.8786 6.19716 39.6912C6.35783 39.5038 6.44127 39.3101 6.44875 39.109C6.45622 38.9091 6.40017 38.698 6.27936 38.4769Z" fill="white"/>
<path d="M5.98928 37.37L5.74019 37.4712L5.4749 37.0726L2.72617 38.192L2.81211 38.663L2.56426 38.7642L1.95896 37.2688C1.87054 37.0502 1.82072 36.8428 1.80951 36.6479C1.7983 36.453 1.83691 36.2793 1.92534 36.1282C2.01376 35.977 2.16571 35.8571 2.38118 35.7696C2.53312 35.7084 2.67012 35.6747 2.79342 35.6697C2.91672 35.6647 3.03131 35.6809 3.13593 35.7184C3.24179 35.7559 3.33894 35.8071 3.42985 35.8733C3.52077 35.9395 3.60671 36.0157 3.6914 36.1007L4.59187 34.9001L4.53707 34.4904L4.78616 34.3892L5.01159 34.9463C5.04646 35.0313 5.05892 35.1025 5.05145 35.1587C5.04397 35.2149 5.01408 35.2774 4.96302 35.3424L3.99903 36.5504L4.16841 36.9689L5.25695 36.5254L5.17101 36.0545L5.4201 35.9533L5.99301 37.3687L5.98928 37.37ZM3.83712 37.1039L3.72378 36.8228C3.65902 36.6641 3.57433 36.5379 3.46971 36.4442C3.36384 36.3505 3.24304 36.2931 3.10728 36.2706C2.97152 36.2481 2.83079 36.2656 2.68631 36.3243C2.5518 36.3793 2.45341 36.443 2.38865 36.5167C2.32388 36.5904 2.28403 36.6679 2.26784 36.7516C2.25165 36.834 2.25165 36.9202 2.26784 37.0077C2.28278 37.0964 2.30769 37.1826 2.34257 37.2675C2.36872 37.3312 2.39737 37.3962 2.43099 37.4637C2.46462 37.5299 2.49451 37.5886 2.52316 37.6386L3.83961 37.1026L3.83712 37.1039Z" fill="white"/>
<path d="M5.04943 35.1013L4.79162 35.1775L4.56619 34.754L1.71907 35.5923L1.75768 36.0707L1.49987 36.1469L0.745117 33.5709L1.6817 33.2948L1.76889 33.5909L1.20718 33.8882L1.4077 34.5753L1.56837 35.0226L2.77273 34.6678L2.54605 33.8932L2.18487 33.8982L2.11263 33.6509L3.13018 33.351L3.20241 33.5984L2.87361 33.797L3.10029 34.5716L4.35447 34.2018C4.35447 34.1306 4.34326 34.0456 4.32333 33.9457C4.30465 33.8458 4.28098 33.7508 4.25483 33.6596L4.06054 32.995L3.41165 33.055L3.32447 32.7589L4.27725 32.4778L5.0457 35.1025L5.04943 35.1013Z" fill="white"/>
<path d="M4.45663 33.3111L4.18761 33.3624L4.05559 33.0325L0.503538 32.4491L0.423828 32.0219L3.50261 30.1379L3.51133 29.7519L3.78035 29.7007L4.0531 31.1574L3.78408 31.2086L3.62217 30.7501L2.97453 31.1349L3.22363 32.4679L3.96343 32.5728L3.94849 32.0918L4.2175 32.0406L4.45539 33.3124L4.45663 33.3111ZM2.84251 32.4104L2.64075 31.331L1.40525 32.0531L1.18605 32.153L1.19352 32.1918L1.43265 32.1993L2.84251 32.4116V32.4104Z" fill="white"/>
<path d="M3.91281 30.5464L3.64503 30.5689L3.51052 30.1092L0.553797 30.3528L0.495261 30.8288L0.228732 30.8513L0.105431 29.3509C0.0718036 28.9361 0.125358 28.6125 0.266096 28.3789C0.406833 28.1453 0.623543 28.0166 0.916227 27.9929C1.09059 27.9779 1.25375 28.0166 1.4032 28.1078C1.5539 28.199 1.6772 28.3452 1.77435 28.5488C1.79926 28.3902 1.85032 28.2465 1.92754 28.1203C2.00476 27.9929 2.10315 27.8917 2.22022 27.8155C2.33854 27.738 2.47056 27.6943 2.61877 27.6818C2.94882 27.6543 3.21535 27.7443 3.4196 27.9517C3.62386 28.1591 3.74218 28.4714 3.77705 28.8899L3.91281 30.5502V30.5464ZM1.77933 29.6595L1.75442 29.3571C1.732 29.0835 1.65354 28.8861 1.52028 28.765C1.38701 28.6438 1.20393 28.5926 0.972272 28.6125C0.593652 28.6438 0.423024 28.9011 0.462879 29.3834C0.46786 29.4408 0.474088 29.5045 0.484051 29.5745C0.494015 29.6445 0.50647 29.7082 0.522661 29.7644L1.77933 29.6607V29.6595ZM3.44078 29.1035C3.41836 28.8299 3.34488 28.6275 3.21909 28.4964C3.09329 28.3652 2.91519 28.309 2.68478 28.3277C2.45686 28.3464 2.2962 28.4277 2.20154 28.5713C2.10689 28.715 2.07202 28.9449 2.09817 29.2609L2.12806 29.632L3.45323 29.5233C3.45697 29.4771 3.45821 29.4133 3.45448 29.3334C3.45199 29.2534 3.447 29.1772 3.44202 29.1048L3.44078 29.1035Z" fill="white"/>
<path d="M3.69653 28.1467L3.42876 28.1429L3.33908 27.6719L0.372393 27.6232L0.267774 28.0904L0 28.0854L0.0435912 25.402L1.01879 25.4182L1.01381 25.7268L0.38983 25.843L0.37862 26.5588L0.399793 27.0348L1.65522 27.0548L1.66767 26.2477L1.32143 26.1453L1.32517 25.8879L2.3863 25.9054L2.38132 26.1628L2.00893 26.254L1.99523 27.061L3.30172 27.0823C3.32165 27.0136 3.33784 26.9299 3.34905 26.8287C3.36026 26.7275 3.36648 26.63 3.36773 26.5338L3.37894 25.8417L2.74251 25.7055L2.74749 25.397L3.74012 25.4132L3.69528 28.1492L3.69653 28.1467Z" fill="white"/>
<path d="M3.66074 26.2576L3.38923 26.2264L3.36183 25.8716L0.143555 24.255L0.193373 23.8227L3.69063 22.942L3.81393 22.5759L4.08544 22.6084L3.91357 24.0813L3.64206 24.0501L3.62337 23.5641L2.89104 23.7378L2.73411 25.0845L3.40915 25.4056L3.53744 24.9421L3.80895 24.9733L3.65949 26.2576H3.66074ZM2.38663 24.9158L2.51367 23.824L1.12 24.145L0.880868 24.175L0.875886 24.215L1.10256 24.2937L2.38539 24.9171L2.38663 24.9158Z" fill="white"/>
<path d="M4.39508 21.9215C4.31163 22.2825 4.18958 22.5473 4.02642 22.7172C3.86451 22.8872 3.65403 22.9821 3.39497 23.0021C3.13592 23.0221 2.82206 22.9896 2.45092 22.9034L0.749614 22.5086L0.556568 22.9396L0.290039 22.8772L0.631296 21.3992L0.897824 21.4617L0.884124 21.9289L2.58542 22.3237C2.91174 22.3999 3.16955 22.4324 3.35886 22.4212C3.54817 22.4099 3.69264 22.345 3.79103 22.225C3.88942 22.1051 3.96664 21.9215 4.02269 21.6766C4.07375 21.453 4.07251 21.2718 4.01646 21.1319C3.96041 20.992 3.84832 20.877 3.67769 20.7858C3.50707 20.6959 3.27915 20.6172 2.99394 20.551L1.29886 20.1575L1.10582 20.5885L0.83306 20.5247L1.13944 19.198L1.4122 19.2605L1.39725 19.7327L3.09233 20.1262C3.36259 20.1887 3.59549 20.2661 3.78854 20.3561C3.98283 20.446 4.13602 20.5597 4.24936 20.6946C4.3627 20.8308 4.4312 20.9982 4.45611 21.1981C4.47977 21.398 4.45984 21.6391 4.39508 21.9215Z" fill="white"/>
<path d="M4.77279 20.1512L4.51373 20.06L4.57974 19.5915L1.77371 18.6071L1.52089 19.3304L2.05893 19.659L1.9568 19.9513L1.03516 19.6278L2.02156 16.7969L2.94196 17.1204L2.83858 17.4178L2.2171 17.3278L1.96427 18.0512L4.7703 19.0356L5.00942 18.6283L5.26848 18.7195L4.76905 20.1512H4.77279Z" fill="white"/>
<path d="M5.53193 18.0787L5.28284 17.9637L5.39493 17.499L4.4982 17.0855L2.20655 17.2891L1.98485 17.5527L1.75195 17.4453L2.35476 16.1298L2.58766 16.2372L2.49176 16.6657L2.58018 16.7057L4.29768 16.5895L4.31262 16.5583L3.25896 15.1853L3.18672 15.1516L2.91272 15.5301L2.67982 15.4227L3.20416 14.2783L3.43706 14.3858L3.38724 14.7156L4.72861 16.5433L5.64153 16.9643L5.91678 16.5808L6.16587 16.6957L5.53193 18.0787Z" fill="white"/>
<path d="M7.08802 15.1903C6.80655 15.6663 6.46156 15.9499 6.05553 16.0423C5.64827 16.1348 5.1725 16.0186 4.62699 15.6925C4.37541 15.5426 4.16741 15.3664 4.00426 15.1641C3.8411 14.9617 3.72403 14.7455 3.65678 14.5132C3.58828 14.2808 3.57208 14.0409 3.60945 13.7923C3.64681 13.5437 3.73773 13.2964 3.88345 13.0503C4.02668 12.8079 4.16368 12.618 4.29072 12.4806C4.419 12.3432 4.51739 12.2495 4.58714 12.1982L5.38174 12.6717L5.21858 12.9478L4.61329 12.7604C4.54603 12.8141 4.4738 12.8854 4.39658 12.9741C4.31936 13.0628 4.25086 13.1577 4.19357 13.2551C3.97437 13.6262 3.9233 13.9522 4.04162 14.2333C4.15994 14.5144 4.45138 14.7943 4.91594 15.0716C5.22357 15.2553 5.49508 15.3739 5.73047 15.4277C5.96586 15.4814 6.17385 15.4676 6.35445 15.3839C6.53504 15.3002 6.69197 15.1453 6.82648 14.9192C6.88252 14.8242 6.92611 14.7418 6.95725 14.6706C6.98839 14.6006 7.00956 14.5344 7.02201 14.4732C7.03447 14.412 7.04319 14.347 7.04817 14.2783L6.14147 13.7374L5.83758 14.0484L5.60717 13.911L6.24858 12.8291L6.5039 12.9815L6.42917 13.2302L7.71324 13.9972L7.59617 14.1946L7.40188 14.2183L7.36451 14.2821C7.36576 14.3758 7.35331 14.4969 7.32591 14.6444C7.29851 14.7918 7.22004 14.9742 7.09176 15.1903H7.08802Z" fill="white"/>
<path d="M7.5038 14.3158L7.28833 14.1546L7.4901 13.7199L5.11002 11.9434L4.75257 12.262L4.53711 12.1008L6.13504 9.94702L6.91843 10.5317L6.7341 10.779L6.15995 10.508L5.734 11.0814L5.4737 11.4799L6.48003 12.232L6.96078 11.5848L6.73909 11.2988L6.89228 11.0926L7.74417 11.7285L7.59098 11.9346L7.23602 11.791L6.75528 12.4381L7.80396 13.2202C7.86 13.1764 7.92227 13.1165 7.98953 13.0415C8.05678 12.9666 8.11906 12.8903 8.17635 12.8141L8.5886 12.2582L8.15144 11.7747L8.33577 11.5274L9.13162 12.122L7.50255 14.317L7.5038 14.3158Z" fill="white"/>
<path d="M8.77601 12.5105L8.58421 12.3306L8.78971 11.9671L6.61264 9.92825L6.30875 10.1369L6.10449 9.94574L6.75089 9.25114L9.86703 9.81207L10.0788 9.87828L10.095 9.86204L8.26786 8.15176L7.9129 8.39038L7.7211 8.21048L8.56552 7.30225L8.75733 7.48214L8.55182 7.84569L10.9917 10.1306L10.6218 10.5279L7.41223 9.95074L7.22416 9.89202L7.20922 9.90827L9.07741 11.6573L9.43237 11.4187L9.62417 11.5986L8.77601 12.5105Z" fill="white"/>
<path d="M10.8703 10.2516L10.6959 10.0468L10.9886 9.66823L9.06061 7.40576L8.64214 7.63688L8.46777 7.432L10.5016 5.68799L11.1356 6.43257L10.9014 6.6337L10.402 6.24142L9.8602 6.70616L9.51894 7.03597L10.3347 7.99293L10.9462 7.46823L10.7943 7.13966L10.9898 6.97226L11.6798 7.7818L11.4843 7.9492L11.1692 7.72933L10.5577 8.25403L11.4071 9.24971C11.4718 9.21973 11.5453 9.17476 11.6275 9.11729C11.7097 9.05857 11.7882 8.99861 11.8604 8.93614L12.3847 8.4864L12.0647 7.91672L12.2988 7.71559L12.944 8.47266L10.8715 10.2504L10.8703 10.2516Z" fill="white"/>
<path d="M12.5317 8.78625L12.3785 8.56513L12.7073 8.21783L11.0147 5.77297L10.5751 5.96036L10.4219 5.73923L11.7433 4.81851C11.9376 4.68358 12.1269 4.58864 12.315 4.53492C12.5018 4.4812 12.6799 4.4812 12.8455 4.53492C13.0124 4.58864 13.1619 4.71107 13.2939 4.90221C13.3873 5.03713 13.4496 5.16456 13.482 5.28324C13.5144 5.40318 13.5231 5.51811 13.5106 5.6293C13.4969 5.74048 13.4683 5.84792 13.4247 5.95036C13.3798 6.05281 13.325 6.15525 13.2615 6.25644L14.6266 6.87359L15.0126 6.72992L15.1658 6.95105L14.6739 7.2946C14.5992 7.34707 14.5331 7.3758 14.4759 7.37955C14.4186 7.38455 14.3526 7.36956 14.2766 7.33333L12.8891 6.65496L12.5192 6.91232L13.1893 7.88052L13.6289 7.69312L13.7821 7.91425L12.5304 8.78625H12.5317ZM12.3175 6.62123L12.5653 6.44883C12.7061 6.35139 12.8094 6.2402 12.8767 6.11652C12.9439 5.99284 12.9738 5.86166 12.9664 5.72299C12.9589 5.58432 12.9103 5.45065 12.8206 5.32197C12.7384 5.20329 12.6537 5.11959 12.5678 5.07211C12.4819 5.02464 12.3972 5.0034 12.3137 5.0059C12.2303 5.0084 12.1468 5.02714 12.0634 5.06087C11.9799 5.09585 11.9015 5.13833 11.8268 5.1908C11.7707 5.22952 11.7134 5.27325 11.6561 5.32072C11.5988 5.3682 11.5478 5.41067 11.5054 5.4494L12.3162 6.61998L12.3175 6.62123Z" fill="white"/>
<path d="M14.2318 7.52588L14.0997 7.28477L14.3725 7.05614L13.8232 3.48817L14.2031 3.27954L16.9431 5.6307L17.3118 5.51952L17.4438 5.76063L16.1473 6.47273L16.0153 6.23161L16.4001 5.93553L15.8347 5.43707L14.649 6.08919L14.7785 6.82753L15.2294 6.66512L15.3614 6.90623L14.2305 7.52713L14.2318 7.52588ZM14.5855 5.70691L15.5457 5.17971L14.4784 4.2265L14.3164 4.04785L14.2816 4.06659L14.3488 4.29646L14.5855 5.70691Z" fill="white"/>
<path d="M16.6946 6.16038L16.5887 5.91302L16.9798 5.63818L15.8066 2.90473L15.3383 3.00093L15.2324 2.75357L16.6585 2.13892L16.7706 2.40127L16.3508 2.68236L17.5079 5.37957L17.9637 5.22591L18.5615 4.96856L18.4382 4.34891L18.7259 4.22398L19.1095 5.11722L16.6933 6.16038H16.6946Z" fill="white"/>
<path d="M18.1254 5.46688L18.042 5.20577L18.3521 5.03337L18.4816 1.42542L18.8939 1.29175L21.1444 4.11764L21.5268 4.07767L21.6102 4.33877L20.2041 4.79351L20.1207 4.53241L20.5541 4.31378L20.092 3.71787L18.8055 4.13388L18.7943 4.88346L19.2675 4.8085L19.351 5.0696L18.1242 5.46688H18.1254ZM18.8129 3.74785L19.8554 3.41054L18.9861 2.27244L18.8603 2.06631L18.8229 2.0788L18.8453 2.31742L18.8129 3.7466V3.74785Z" fill="white"/>
<path d="M21.9431 4.4075C21.7724 4.44497 21.608 4.46496 21.4511 4.46746C21.2942 4.46871 21.1572 4.45872 21.0413 4.43623C20.9255 4.41374 20.8371 4.38876 20.7773 4.36377L20.5868 3.50301L20.9043 3.4318L21.1372 3.98399C21.2257 4.03146 21.3378 4.06019 21.4723 4.07394C21.6068 4.08643 21.7351 4.08018 21.8534 4.05395C22.1212 3.99398 22.3055 3.89903 22.4076 3.76911C22.5097 3.63918 22.5396 3.48052 22.4985 3.29438C22.4711 3.1682 22.4151 3.07076 22.3316 3.00329C22.2482 2.93583 22.1436 2.88336 22.0165 2.84713C21.8895 2.8109 21.7413 2.77842 21.5719 2.74969C21.4337 2.72595 21.2929 2.69847 21.1509 2.66723C21.0077 2.636 20.8732 2.59353 20.7474 2.53731C20.6216 2.48109 20.5145 2.40239 20.4261 2.30119C20.3377 2.2 20.2754 2.06758 20.2393 1.90267C20.1932 1.69404 20.2032 1.5029 20.2704 1.33049C20.3377 1.15809 20.4522 1.00943 20.6166 0.886996C20.781 0.764566 20.9865 0.675866 21.2356 0.620898C21.3614 0.592164 21.4922 0.570926 21.628 0.557184C21.7625 0.543442 21.8858 0.534697 21.9966 0.533447C22.1075 0.533447 22.1909 0.534697 22.247 0.542192L22.4437 1.43044L22.1374 1.49915L21.902 0.965702C21.8322 0.95071 21.7463 0.941965 21.6429 0.941965C21.5395 0.941965 21.4262 0.954458 21.3041 0.981942C21.07 1.03441 20.9056 1.11562 20.8122 1.2268C20.7175 1.33799 20.6889 1.47666 20.7262 1.64407C20.7586 1.78898 20.8221 1.89517 20.9168 1.96264C21.0115 2.0301 21.1273 2.07757 21.2643 2.10505C21.4013 2.13254 21.5458 2.16002 21.7002 2.18376C21.8982 2.21374 22.085 2.25497 22.2619 2.30494C22.4388 2.35491 22.5895 2.43487 22.7152 2.54356C22.8398 2.65224 22.927 2.8134 22.9743 3.02578C23.0191 3.23066 23.0204 3.41181 22.978 3.57047C22.9357 3.72788 22.8622 3.86281 22.7576 3.97399C22.6542 4.08518 22.5309 4.17638 22.3889 4.25009C22.247 4.32254 22.1 4.37626 21.948 4.40999L21.9431 4.4075Z" fill="white"/>
<path d="M23.8146 4.06648C23.6415 4.09021 23.4758 4.09646 23.3189 4.08647C23.162 4.07647 23.0262 4.05398 22.9129 4.0215C22.7995 3.98902 22.7136 3.95779 22.6551 3.92656L22.5355 3.0533L22.8581 3.00833L23.0461 3.57801C23.1308 3.63172 23.2392 3.67045 23.3737 3.69419C23.507 3.71793 23.634 3.72167 23.7548 3.70543C24.0263 3.66795 24.2181 3.588 24.3302 3.46682C24.4423 3.34564 24.4846 3.19073 24.4597 3.00083C24.4423 2.87216 24.395 2.77096 24.3178 2.69726C24.2405 2.62355 24.1397 2.56233 24.0164 2.51611C23.8931 2.46988 23.7473 2.42491 23.5804 2.38243C23.4447 2.34745 23.3077 2.30873 23.167 2.26625C23.0262 2.22377 22.8967 2.17006 22.7759 2.10384C22.6551 2.03763 22.5554 1.95018 22.4745 1.84274C22.3948 1.73405 22.3425 1.59663 22.32 1.43048C22.2914 1.21935 22.3163 1.02945 22.3973 0.862048C22.4782 0.694643 22.6052 0.557221 22.7784 0.448533C22.9515 0.339845 23.1645 0.268635 23.4173 0.233655C23.5456 0.216165 23.6776 0.204922 23.8133 0.202423C23.9491 0.198675 24.0724 0.202423 24.1832 0.20867C24.2941 0.216165 24.3763 0.22616 24.4323 0.237403L24.5556 1.13939L24.2443 1.18187L24.0537 0.63093C23.9852 0.609692 23.8993 0.5947 23.7972 0.585955C23.6938 0.57721 23.5804 0.580958 23.4559 0.598448C23.218 0.63093 23.0486 0.699641 22.9453 0.802082C22.8419 0.904524 22.802 1.04195 22.8257 1.21185C22.8456 1.35927 22.9004 1.47045 22.9889 1.54416C23.0773 1.61787 23.1894 1.67534 23.3239 1.71406C23.4584 1.75279 23.6004 1.79152 23.7511 1.82775C23.9454 1.87397 24.1284 1.93019 24.3016 1.99391C24.4734 2.05887 24.6179 2.15007 24.7337 2.26875C24.8496 2.38743 24.9231 2.55484 24.9517 2.76971C24.9803 2.97835 24.9666 3.15824 24.9106 3.31316C24.8546 3.46807 24.7711 3.5955 24.6578 3.69794C24.5444 3.80038 24.4149 3.88158 24.2679 3.9428C24.121 4.00401 23.9703 4.04524 23.8158 4.06648H23.8146Z" fill="white"/>
<path d="M26.2155 3.8729C25.6563 3.89289 25.2254 3.74297 24.9215 3.42565C24.6176 3.10833 24.4557 2.65109 24.4345 2.05643C24.4208 1.67914 24.4806 1.33809 24.6126 1.03326C24.7447 0.728434 24.9452 0.484822 25.2129 0.298678C25.4807 0.113783 25.8145 0.0138397 26.2131 9.74926e-05C26.563 -0.0123954 26.8632 0.0500691 27.116 0.186242C27.3688 0.322414 27.5644 0.527298 27.7051 0.798394C27.8459 1.06949 27.9231 1.40305 27.9368 1.79533C27.9467 2.07767 27.9206 2.34252 27.8583 2.58863C27.796 2.83474 27.6952 3.05211 27.5557 3.24076C27.4162 3.42815 27.2343 3.57806 27.0114 3.68925C26.7885 3.80044 26.5232 3.8604 26.2155 3.87165V3.8729ZM26.3164 3.49061C26.5481 3.48312 26.7361 3.4219 26.8781 3.30822C27.0201 3.19453 27.1235 3.02338 27.1858 2.79601C27.248 2.56864 27.2742 2.2838 27.2617 1.94024C27.2505 1.61668 27.2169 1.35058 27.1596 1.14445C27.1023 0.938314 27.0251 0.779655 26.9267 0.668468C26.8283 0.557281 26.7125 0.479825 26.5817 0.437349C26.4509 0.394873 26.304 0.374884 26.1408 0.381131C26.0225 0.384879 25.9104 0.40112 25.8033 0.427355C25.6962 0.45359 25.5978 0.498564 25.5081 0.561029C25.4184 0.623493 25.3425 0.713442 25.2802 0.829626C25.2179 0.94581 25.1718 1.09697 25.142 1.28062C25.1121 1.46427 25.1021 1.69039 25.1108 1.95773C25.1245 2.33877 25.1781 2.6436 25.274 2.87097C25.3699 3.09834 25.5044 3.26074 25.6787 3.35819C25.8531 3.45563 26.0661 3.49936 26.3177 3.49061H26.3164Z" fill="white"/>
<path d="M29.0851 3.93415C28.5122 3.88917 28.1012 3.69429 27.8521 3.34823C27.603 3.00343 27.5021 2.5287 27.5494 1.92404C27.5706 1.65794 27.6316 1.40933 27.7337 1.17822C27.8359 0.947096 27.9741 0.745961 28.1472 0.576057C28.3204 0.406154 28.5221 0.278726 28.7525 0.193774C28.9829 0.108823 29.2395 0.0775903 29.5235 0.100078C29.7402 0.117568 29.9444 0.147551 30.1375 0.191276C30.3305 0.235001 30.49 0.284972 30.6145 0.341191L30.541 1.27691L30.211 1.25067L30.14 0.624779C30.0516 0.591049 29.9457 0.559816 29.8236 0.531083C29.7016 0.502349 29.5783 0.48361 29.4537 0.473615C29.1997 0.453627 28.9879 0.493604 28.8173 0.596046C28.6467 0.697238 28.5134 0.862145 28.415 1.08952C28.3166 1.31689 28.2544 1.61297 28.2245 1.97901C28.2033 2.2526 28.2095 2.48747 28.2431 2.68361C28.2768 2.87975 28.3366 3.04091 28.42 3.16833C28.5034 3.29576 28.6118 3.39196 28.7438 3.45817C28.8758 3.52438 29.0315 3.56436 29.2096 3.5781C29.3379 3.5881 29.4512 3.58685 29.5471 3.5731C29.643 3.55936 29.724 3.54062 29.7888 3.51439C29.8535 3.48815 29.9058 3.46816 29.9457 3.45192L30.1138 2.84477L30.4376 2.871L30.3654 3.78923C30.2907 3.81422 30.1973 3.84045 30.0839 3.87044C29.9706 3.90042 29.8324 3.92291 29.6692 3.9379C29.506 3.95414 29.3105 3.95289 29.0826 3.93415H29.0851Z" fill="white"/>
<path d="M29.873 3.92906L29.9154 3.65796L30.3862 3.63798L30.8383 0.697147L30.3949 0.535989L30.436 0.264893L31.9355 0.497261L31.8944 0.768357L31.4236 0.788345L30.9715 3.72917L31.4149 3.89033L31.3726 4.16143L29.873 3.92906Z" fill="white"/>
<path d="M30.5771 3.96521L30.6394 3.69786L30.9944 3.71035L32.956 0.68457L33.3782 0.783264L33.8577 4.36873L34.2064 4.53238L34.1442 4.79973L32.7044 4.46367L32.7667 4.19632L33.2499 4.23255L33.1602 3.48298L31.8438 3.17565L31.4502 3.81279L31.8948 3.99269L31.8326 4.26004L30.5771 3.96646V3.96521ZM32.0493 2.84584L33.1166 3.0957L32.9547 1.67151L32.9522 1.4304L32.9136 1.42165L32.8103 1.63903L32.0493 2.84834V2.84584Z" fill="white"/>
<path d="M33.7219 4.73114L33.8079 4.47004L34.2749 4.53L35.214 1.70161L34.4892 1.45925L34.1703 2.00394L33.8776 1.90649L34.1865 0.978271L37.0224 1.92648L36.7135 2.85471L36.4159 2.75476L36.4968 2.13012L35.772 1.88775L34.8329 4.71615L35.2427 4.94976L35.1555 5.21087L33.7207 4.73114H33.7219Z" fill="white"/>
<path d="M35.1904 5.22328L35.2938 4.96967L35.7559 5.06087L36.8818 2.30743L36.4882 2.04758L36.5916 1.79272L37.9965 2.3699L37.8931 2.62475L37.431 2.53355L36.3051 5.28699L36.6987 5.54809L36.5953 5.80295L35.1904 5.22577V5.22328Z" fill="white"/>
<path d="M37.6234 6.40507C37.1264 6.14897 36.8213 5.80791 36.7104 5.3819C36.5996 4.95589 36.6793 4.47742 36.9508 3.94897C37.1227 3.61291 37.3406 3.34431 37.6034 3.14317C37.8662 2.94204 38.1602 2.82585 38.484 2.79587C38.8078 2.76464 39.1466 2.84085 39.5028 3.02449C39.8141 3.1844 40.047 3.38679 40.2002 3.6279C40.3547 3.87026 40.4269 4.14386 40.4169 4.44993C40.4082 4.75601 40.3136 5.08457 40.1342 5.43437C40.0059 5.68548 39.854 5.90411 39.6809 6.089C39.5065 6.2739 39.3135 6.41382 39.0992 6.51001C38.885 6.60621 38.6546 6.64743 38.4068 6.63494C38.1589 6.62245 37.8974 6.54624 37.6234 6.40507ZM37.8961 6.12148C38.1029 6.22767 38.2959 6.2664 38.4753 6.23642C38.6546 6.20643 38.8277 6.10774 38.9921 5.94034C39.1578 5.77168 39.3184 5.53557 39.4741 5.22949C39.6223 4.9409 39.7207 4.69354 39.7718 4.48491C39.8228 4.27753 39.8316 4.10013 39.7992 3.95521C39.7668 3.8103 39.7033 3.68662 39.6111 3.58417C39.5177 3.48298 39.3981 3.39428 39.2524 3.31932C39.1478 3.26561 39.0419 3.22313 38.9348 3.1944C38.8277 3.16566 38.7206 3.15567 38.6123 3.16691C38.5039 3.17815 38.3943 3.21813 38.2835 3.29059C38.1726 3.3618 38.058 3.47049 37.9434 3.61666C37.8276 3.76282 37.7093 3.95521 37.5872 4.19258C37.4129 4.53239 37.3132 4.82472 37.2858 5.06958C37.2584 5.31444 37.2971 5.52307 37.4029 5.69298C37.5088 5.86288 37.6732 6.0053 37.8961 6.12023V6.12148Z" fill="white"/>
<path d="M38.7627 6.85109L38.9109 6.63371L39.2995 6.78363L40.9871 4.32128L40.7367 4.05143L40.8949 3.82031L41.6758 4.35876L41.5849 7.53195L41.5513 7.75183L41.57 7.76432L42.9861 5.69924L42.6984 5.38193L42.8466 5.16455L43.8666 5.8679L43.7184 6.08528L43.3298 5.93536L41.4392 8.69379L40.9921 8.38522L41.0867 5.11583L41.1166 4.92094L41.0979 4.90844L39.6495 7.02099L39.9372 7.33831L39.789 7.55569L38.7639 6.84859L38.7627 6.85109Z" fill="white"/>
</g>
<defs>
<linearGradient id="paint0_linear_1018_21" x1="27.2557" y1="37.3027" x2="37.7237" y2="28.2996" gradientUnits="userSpaceOnUse">
<stop stop-color="#2E9BBE"/>
<stop offset="0.11" stop-color="#3993B9"/>
<stop offset="0.29" stop-color="#567FAC"/>
<stop offset="0.54" stop-color="#865F97"/>
<stop offset="0.55" stop-color="#895E96"/>
<stop offset="0.78" stop-color="#B7427E"/>
<stop offset="1" stop-color="#E62766"/>
</linearGradient>
<linearGradient id="paint1_linear_1018_21" x1="37.8295" y1="33.135" x2="19.7803" y2="33.135" gradientUnits="userSpaceOnUse">
<stop stop-color="#D92474"/>
<stop offset="0.07" stop-color="#C73175"/>
<stop offset="0.3" stop-color="#905F7B"/>
<stop offset="0.52" stop-color="#648280"/>
<stop offset="0.72" stop-color="#459C83"/>
<stop offset="0.89" stop-color="#31AC85"/>
<stop offset="1" stop-color="#2BB286"/>
</linearGradient>
<linearGradient id="paint2_linear_1018_21" x1="14.4752" y1="25.6231" x2="19.4031" y2="30.354" gradientUnits="userSpaceOnUse">
<stop stop-color="#2E9BBE"/>
<stop offset="1" stop-color="#2BB286"/>
</linearGradient>
<radialGradient id="paint3_radial_1018_21" cx="0" cy="0" r="1" gradientUnits="userSpaceOnUse" gradientTransform="translate(27.4903 24.6962) scale(16.3479 16.3982)">
<stop stop-color="#F5DE48"/>
<stop offset="0.35" stop-color="#F4DB48"/>
<stop offset="0.5" stop-color="#F4D449"/>
<stop offset="0.61" stop-color="#F3C84B"/>
<stop offset="0.7" stop-color="#F1B64E"/>
<stop offset="0.78" stop-color="#EF9F52"/>
<stop offset="0.85" stop-color="#ED8356"/>
<stop offset="0.91" stop-color="#EA615C"/>
<stop offset="0.97" stop-color="#E73B62"/>
<stop offset="1" stop-color="#E62766"/>
</radialGradient>
<clipPath id="clip0_1018_21">
<rect width="212" height="44" fill="white"/>
</clipPath>
</defs>
</svg>
