<svg width="165" height="34" viewBox="0 0 165 34" fill="none" xmlns="http://www.w3.org/2000/svg">
<g clip-path="url(#clip0_160_2540)">
<path d="M41.8711 30.5247V24.8252H42.7353V27.5446H42.8105L45.1883 24.8252H46.2741L43.982 27.3911L46.2818 30.5247H45.2374L43.4097 27.981L42.7344 28.7571V30.5247H41.8701H41.8711Z" fill="white"/>
<path d="M48.4075 30.6116C48.0115 30.6116 47.6617 30.5199 47.3602 30.3365C47.0586 30.153 46.8245 29.8943 46.6597 29.5613C46.495 29.2282 46.4121 28.844 46.4121 28.4077C46.4121 27.9713 46.494 27.5813 46.6597 27.2473C46.8245 26.9133 47.0576 26.6546 47.3602 26.4712C47.6617 26.2877 48.0115 26.196 48.4075 26.196C48.8034 26.196 49.1522 26.2877 49.4528 26.4712C49.7534 26.6546 49.9866 26.9133 50.1504 27.2473C50.3142 27.5813 50.3961 27.9684 50.3961 28.4077C50.3961 28.8469 50.3142 29.2282 50.1504 29.5613C49.9866 29.8943 49.7544 30.153 49.4528 30.3365C49.1522 30.5199 48.8034 30.6116 48.4075 30.6116ZM48.4094 29.9098C48.658 29.9098 48.867 29.8432 49.0385 29.709C49.21 29.5748 49.3382 29.3943 49.423 29.1664C49.5077 28.9386 49.5511 28.6838 49.5511 28.4038C49.5511 28.1239 49.5087 27.869 49.423 27.6412C49.3382 27.4133 49.2091 27.2309 49.0385 27.0957C48.868 26.9606 48.658 26.893 48.4094 26.893C48.1608 26.893 47.945 26.9606 47.7716 27.0957C47.5981 27.2309 47.469 27.4133 47.3843 27.6412C47.2995 27.869 47.2561 28.1239 47.2561 28.4038C47.2561 28.6838 47.2985 28.9386 47.3843 29.1664C47.469 29.3943 47.5981 29.5758 47.7716 29.709C47.945 29.8422 48.157 29.9098 48.4094 29.9098Z" fill="white"/>
<path d="M51.2266 30.5247V26.2501H52.0378V26.9316H52.0821C52.1341 26.7791 52.2131 26.6468 52.3191 26.5339C52.4251 26.421 52.5513 26.3341 52.6968 26.2752C52.8423 26.2163 52.9974 26.1864 53.1622 26.1864C53.2209 26.1864 53.2826 26.1873 53.3471 26.1902C53.4107 26.1931 53.4685 26.198 53.5206 26.2057V27.0069C53.4724 26.9953 53.4069 26.9847 53.3231 26.9731C53.2402 26.9616 53.1602 26.9567 53.0841 26.9567C52.8895 26.9567 52.7151 26.9973 52.561 27.0793C52.4068 27.1614 52.2854 27.2753 52.1968 27.423C52.1091 27.5707 52.0648 27.7358 52.0648 27.9202V30.5257H51.2256L51.2266 30.5247Z" fill="white"/>
<path d="M55.8513 30.6116C55.436 30.6116 55.0757 30.5218 54.7693 30.3413C54.4629 30.1617 54.2278 29.9059 54.064 29.5748C53.9003 29.2437 53.8184 28.8575 53.8184 28.4154C53.8184 27.9733 53.9003 27.5958 54.064 27.2589C54.2278 26.922 54.4591 26.6604 54.7568 26.474C55.0545 26.2877 55.3994 26.1941 55.7906 26.1941C56.1355 26.1941 56.4506 26.2684 56.7367 26.4181C57.0229 26.5677 57.2531 26.8023 57.4266 27.1237C57.6009 27.4452 57.6877 27.8507 57.6877 28.343V28.6403H54.2876V28.0109H56.8629C56.8629 27.7937 56.8186 27.6006 56.7309 27.4317C56.6433 27.2628 56.518 27.1295 56.3571 27.0311C56.1962 26.9326 56.0112 26.8834 55.8012 26.8834C55.5748 26.8834 55.3753 26.9394 55.2009 27.0504C55.0265 27.1614 54.8917 27.3091 54.7972 27.4925C54.7019 27.6759 54.6527 27.8758 54.6518 28.091V28.5785C54.6518 28.8585 54.7019 29.0998 54.8021 29.3026C54.9023 29.5053 55.0429 29.6588 55.2241 29.763C55.4052 29.8683 55.6162 29.9204 55.8571 29.9204C56.0093 29.9204 56.1461 29.9001 56.2685 29.8596C56.3908 29.819 56.4949 29.763 56.5806 29.6926C56.6664 29.6221 56.7338 29.541 56.782 29.4503H57.6318C57.5691 29.6819 57.4555 29.8856 57.2926 30.0613C57.1298 30.237 56.9246 30.3722 56.6789 30.4677C56.4323 30.5633 56.1567 30.6106 55.8513 30.6106V30.6116Z" fill="white"/>
<path d="M61.0922 28.5911C61.072 28.5911 61.0363 28.593 60.9853 28.5969C60.9342 28.6007 60.8716 28.6046 60.7974 28.6085C60.6586 28.6181 60.5189 28.6268 60.3792 28.6365C60.2395 28.6461 60.1229 28.6538 60.0304 28.6616C59.7472 28.6818 59.5275 28.7475 59.3724 28.8575C59.2173 28.9676 59.1392 29.1249 59.1392 29.3296C59.1392 29.4628 59.1739 29.5767 59.2423 29.6694C59.3107 29.7621 59.4061 29.8325 59.5275 29.8798C59.6489 29.9271 59.7886 29.9513 59.9457 29.9513C60.1682 29.9513 60.3609 29.9069 60.5247 29.8181C60.6885 29.7292 60.8147 29.6105 60.9043 29.4628C60.993 29.3151 61.0373 29.1558 61.0373 28.9859L61.0344 27.6363C61.0344 27.4751 61.0016 27.3371 60.9361 27.2232C60.8706 27.1093 60.7723 27.0224 60.6432 26.9645C60.5131 26.9056 60.3542 26.8766 60.1653 26.8766C60.0064 26.8766 59.8657 26.8998 59.7433 26.9451C59.621 26.9905 59.5217 27.0542 59.4447 27.1353C59.3676 27.2174 59.3156 27.312 59.2876 27.4191H58.4513C58.4793 27.1836 58.5679 26.9731 58.7163 26.7878C58.8656 26.6024 59.067 26.4576 59.3204 26.3534C59.5738 26.2491 59.8657 26.198 60.1952 26.198C60.4688 26.198 60.7299 26.2395 60.9785 26.3235C61.2271 26.4065 61.4371 26.56 61.6105 26.783C61.784 27.006 61.8707 27.3081 61.8707 27.6904V30.5295H61.0537V29.9455H61.0199C60.9602 30.0642 60.8764 30.1743 60.7675 30.2766C60.6586 30.3789 60.518 30.462 60.3484 30.5266C60.1779 30.5913 59.9813 30.6241 59.7597 30.6241C59.4871 30.6241 59.2423 30.573 59.0236 30.4706C58.8049 30.3683 58.6325 30.2197 58.5072 30.0237C58.381 29.8277 58.3184 29.5941 58.3184 29.3209C58.3184 28.8807 58.4677 28.567 58.7673 28.3777C59.066 28.1885 59.4485 28.0775 59.9129 28.0437C60.043 28.0341 60.1952 28.0254 60.3696 28.0157C60.5449 28.0061 60.7087 27.9984 60.8629 27.9906C60.9168 27.9868 60.9621 27.9848 61.0007 27.9839C61.0382 27.9839 61.0662 27.9829 61.0826 27.9829L61.0941 28.5949L61.0922 28.5911Z" fill="white"/>
<path d="M64.9141 30.5247V24.8252H67.0029C67.3931 24.8252 67.7235 24.8899 67.9933 25.0183C68.2631 25.1476 68.4644 25.3253 68.5974 25.5512C68.7304 25.778 68.7978 26.0348 68.7978 26.3225C68.7978 26.5503 68.7554 26.7472 68.6716 26.9114C68.5868 27.0755 68.4741 27.2068 68.3315 27.3052C68.1889 27.4037 68.0241 27.4771 67.8372 27.5253V27.5813C68.0357 27.5929 68.2245 27.6547 68.4057 27.7696C68.5868 27.8844 68.7342 28.0457 68.8489 28.2571C68.9635 28.4675 69.0213 28.7127 69.0213 28.9936C69.0213 29.2939 68.951 29.5593 68.8113 29.7881C68.6716 30.0169 68.4577 30.1974 68.1706 30.3297C67.8835 30.462 67.526 30.5276 67.0982 30.5276H64.915L64.9141 30.5247ZM66.9258 27.2879C67.1185 27.2879 67.2929 27.2512 67.448 27.1768C67.6031 27.1025 67.7255 26.9982 67.8151 26.8621C67.9037 26.727 67.948 26.5687 67.948 26.3891C67.948 26.2298 67.9114 26.0879 67.8372 25.9634C67.763 25.8388 67.6513 25.7413 67.501 25.6709C67.3507 25.6004 67.1667 25.5647 66.9479 25.5647H65.7783V27.2879H66.9258ZM67.0144 29.7823C67.2794 29.7823 67.4971 29.7466 67.6667 29.6752C67.8372 29.6037 67.9625 29.5062 68.0415 29.3817C68.1205 29.2572 68.161 29.1133 68.161 28.9502C68.161 28.7687 68.1147 28.6027 68.0222 28.4521C67.9297 28.3015 67.7987 28.1827 67.6311 28.0959C67.4624 28.009 67.2669 27.9655 67.0453 27.9655H65.7783V29.7833H67.0144V29.7823Z" fill="white"/>
<path d="M71.7175 30.6116C71.3022 30.6116 70.9419 30.5218 70.6355 30.3413C70.3291 30.1617 70.094 29.9059 69.9303 29.5748C69.7665 29.2437 69.6846 28.8575 69.6846 28.4154C69.6846 27.9733 69.7665 27.5958 69.9303 27.2589C70.094 26.922 70.3253 26.6604 70.623 26.474C70.9207 26.2877 71.2656 26.1941 71.6558 26.1941C72.0008 26.1941 72.3158 26.2684 72.602 26.4181C72.8881 26.5677 73.1184 26.8023 73.2928 27.1237C73.4672 27.4452 73.5539 27.8507 73.5539 28.343V28.6403H70.1538V28.0109H72.7291C72.7291 27.7937 72.6848 27.6006 72.5971 27.4317C72.5095 27.2628 72.3842 27.1295 72.2233 27.0311C72.0624 26.9326 71.8774 26.8834 71.6674 26.8834C71.4419 26.8834 71.2415 26.9394 71.0671 27.0504C70.8928 27.1614 70.7579 27.3091 70.6635 27.4925C70.5681 27.6759 70.5189 27.8758 70.518 28.091V28.5785C70.518 28.8585 70.5681 29.0998 70.6683 29.3026C70.7685 29.5053 70.9091 29.6588 71.0903 29.763C71.2714 29.8683 71.4834 29.9204 71.7233 29.9204C71.8755 29.9204 72.0123 29.9001 72.1347 29.8596C72.257 29.819 72.3611 29.763 72.4468 29.6926C72.5326 29.6221 72.6 29.541 72.6482 29.4503H73.498C73.4354 29.6819 73.3217 29.8856 73.1588 30.0613C72.996 30.237 72.7908 30.3722 72.5451 30.4677C72.2985 30.5633 72.0229 30.6106 71.7175 30.6106V30.6116Z" fill="white"/>
<path d="M76.9584 28.5911C76.9382 28.5911 76.9025 28.593 76.8515 28.5969C76.8004 28.6007 76.7378 28.6046 76.6636 28.6085C76.5248 28.6181 76.3851 28.6268 76.2454 28.6365C76.1057 28.6461 75.9891 28.6538 75.8967 28.6616C75.6134 28.6818 75.3937 28.7475 75.2386 28.8575C75.0835 28.9676 75.0054 29.1249 75.0054 29.3296C75.0054 29.4628 75.0401 29.5767 75.1085 29.6694C75.1769 29.7621 75.2723 29.8325 75.3937 29.8798C75.5151 29.9271 75.6548 29.9513 75.8119 29.9513C76.0344 29.9513 76.2271 29.9069 76.3909 29.8181C76.5547 29.7292 76.6809 29.6105 76.7705 29.4628C76.8592 29.3151 76.9035 29.1558 76.9035 28.9859L76.9006 27.6363C76.9006 27.4751 76.8678 27.3371 76.8023 27.2232C76.7368 27.1093 76.6385 27.0224 76.5094 26.9645C76.3794 26.9056 76.2204 26.8766 76.0315 26.8766C75.8726 26.8766 75.7319 26.8998 75.6095 26.9451C75.4872 26.9905 75.3879 27.0542 75.3109 27.1353C75.2338 27.2174 75.1818 27.312 75.1538 27.4191H74.3175C74.3455 27.1836 74.4341 26.9731 74.5825 26.7878C74.7318 26.6024 74.9332 26.4576 75.1866 26.3534C75.44 26.2491 75.7319 26.198 76.0614 26.198C76.335 26.198 76.5961 26.2395 76.8447 26.3235C77.0933 26.4065 77.3033 26.56 77.4767 26.783C77.6502 27.006 77.7369 27.3081 77.7369 27.6904V30.5295H76.9199V29.9455H76.8861C76.8264 30.0642 76.7426 30.1743 76.6337 30.2766C76.5248 30.3789 76.3851 30.462 76.2146 30.5266C76.0441 30.5913 75.8475 30.6241 75.6259 30.6241C75.3533 30.6241 75.1085 30.573 74.8898 30.4706C74.6711 30.3683 74.4987 30.2197 74.3734 30.0237C74.2472 29.8277 74.1846 29.5941 74.1846 29.3209C74.1846 28.8807 74.3339 28.567 74.6335 28.3777C74.9322 28.1885 75.3147 28.0775 75.7791 28.0437C75.9092 28.0341 76.0614 28.0254 76.2358 28.0157C76.4111 28.0061 76.5749 27.9984 76.7291 27.9906C76.783 27.9868 76.8283 27.9848 76.8669 27.9839C76.9044 27.9839 76.9324 27.9829 76.9488 27.9829L76.9603 28.5949L76.9584 28.5911Z" fill="white"/>
<path d="M81.4593 28.7494V26.2501H82.2927V30.5247H81.4738V29.7843H81.4294C81.363 29.9397 81.2695 30.0787 81.15 30.1994C81.0306 30.32 80.887 30.4137 80.7184 30.4803C80.5498 30.5469 80.3619 30.5807 80.1548 30.5807C79.8773 30.5807 79.6326 30.5189 79.4216 30.3953C79.2106 30.2718 79.0458 30.0893 78.9283 29.847C78.8107 29.6047 78.752 29.3122 78.752 28.9685V26.2491H79.5911V28.8653C79.5911 29.0564 79.6277 29.2234 79.699 29.3672C79.7713 29.5111 79.8734 29.6221 80.0045 29.7003C80.1355 29.7785 80.2868 29.8171 80.4573 29.8171C80.6278 29.8171 80.781 29.7775 80.9352 29.6974C81.0884 29.6173 81.2146 29.4966 81.3129 29.3354C81.4111 29.1742 81.4603 28.9782 81.4603 28.7484L81.4593 28.7494Z" fill="white"/>
<path d="M85.3091 26.2501V26.921H82.9756V26.2501H85.3091ZM83.6009 25.2258H84.4401V29.2668C84.4401 29.4194 84.4622 29.5362 84.5065 29.6192C84.5509 29.7022 84.6106 29.7592 84.6848 29.7901C84.759 29.8219 84.8476 29.8374 84.9517 29.8374C84.996 29.8374 85.0461 29.8374 85.1029 29.8345C85.1598 29.8325 85.2147 29.8296 85.2677 29.8258C85.286 29.8238 85.3043 29.8229 85.3207 29.8219C85.337 29.8219 85.3534 29.821 85.3679 29.821V30.545C85.2157 30.5691 85.0432 30.5817 84.8486 30.5817C84.6212 30.5817 84.4121 30.5392 84.2233 30.4552C84.0344 30.3712 83.8832 30.2428 83.7704 30.071C83.6577 29.8991 83.6009 29.6897 83.6009 29.4406V25.2268V25.2258Z" fill="white"/>
<path d="M86.6447 32.1282C86.558 32.1282 86.4741 32.1272 86.3951 32.1243C86.3161 32.1214 86.2487 32.1175 86.1947 32.1118L86.2005 31.408C86.2227 31.408 86.2458 31.408 86.2689 31.4109C86.292 31.4138 86.3171 31.4138 86.3421 31.4138C86.4327 31.4177 86.5108 31.4196 86.5753 31.4196C86.6823 31.4196 86.7719 31.4099 86.8422 31.3906C86.9125 31.3713 86.9829 31.3202 87.0522 31.2391C87.1216 31.157 87.1881 31.0325 87.2507 30.8635L87.3567 30.5855L85.793 26.252H86.69L87.7652 29.5671H87.8095L88.8896 26.252H89.7866L88.0282 31.0952C87.9039 31.4389 87.7295 31.6967 87.5031 31.8704C87.2767 32.0442 86.9906 32.1311 86.6447 32.1311V32.1282Z" fill="white"/>
<path d="M96.3476 26.6256C96.2773 26.4007 96.1742 26.2076 96.0384 26.0454C95.9025 25.8832 95.7358 25.7578 95.5403 25.6699C95.3437 25.5821 95.1221 25.5377 94.8735 25.5377C94.5498 25.5377 94.2598 25.6216 94.0045 25.7877C93.7492 25.9547 93.5478 26.1989 93.4004 26.5194C93.253 26.8409 93.1798 27.2241 93.1798 27.6721C93.1798 28.12 93.253 28.509 93.3994 28.8295C93.5459 29.151 93.7501 29.3943 94.0122 29.5613C94.2743 29.7283 94.5739 29.8113 94.9111 29.8113C95.2146 29.8113 95.4824 29.7486 95.7137 29.6221C95.9449 29.4956 96.1241 29.317 96.2494 29.0863C96.3756 28.8556 96.4382 28.5863 96.4382 28.2773L96.6608 28.3189H95.0354V27.6064H97.2774V28.2522C97.2774 28.7233 97.1772 29.1365 96.9758 29.4918C96.7745 29.847 96.4951 30.1212 96.1357 30.3123C95.7763 30.5044 95.3668 30.6 94.9082 30.6C94.3957 30.6 93.9438 30.4813 93.5526 30.2438C93.1614 30.0063 92.8589 29.6675 92.6441 29.2263C92.4292 28.7861 92.3223 28.2687 92.3223 27.675C92.3223 27.0813 92.4311 26.56 92.6489 26.1178C92.8666 25.6757 93.1682 25.3359 93.5545 25.0994C93.9409 24.8629 94.3793 24.7441 94.8697 24.7441C95.2734 24.7441 95.6433 24.8233 95.9806 24.9806C96.3178 25.138 96.5953 25.36 96.814 25.6448C97.0327 25.9296 97.1743 26.2559 97.2389 26.6227H96.3496L96.3476 26.6256Z" fill="white"/>
<path d="M100.042 30.6116C99.6265 30.6116 99.2661 30.5218 98.9597 30.3413C98.6534 30.1617 98.4183 29.9059 98.2545 29.5748C98.0907 29.2437 98.0088 28.8575 98.0088 28.4154C98.0088 27.9733 98.0907 27.5958 98.2545 27.2589C98.4183 26.922 98.6495 26.6604 98.9472 26.474C99.2449 26.2877 99.5898 26.1941 99.9801 26.1941C100.325 26.1941 100.64 26.2684 100.926 26.4181C101.212 26.5677 101.443 26.8023 101.617 27.1237C101.791 27.4452 101.878 27.8507 101.878 28.343V28.6403H98.478V28.0109H101.053C101.053 27.7937 101.009 27.6006 100.921 27.4317C100.834 27.2628 100.708 27.1295 100.548 27.0311C100.387 26.9326 100.202 26.8834 99.9916 26.8834C99.7662 26.8834 99.5658 26.9394 99.3914 27.0504C99.217 27.1614 99.0821 27.3091 98.9877 27.4925C98.8923 27.6759 98.8432 27.8758 98.8422 28.091V28.5785C98.8422 28.8585 98.8923 29.0998 98.9925 29.3026C99.0927 29.5053 99.2334 29.6588 99.4145 29.763C99.5956 29.8683 99.8076 29.9204 100.047 29.9204C100.2 29.9204 100.337 29.9001 100.459 29.8596C100.581 29.819 100.685 29.763 100.771 29.6926C100.857 29.6221 100.924 29.541 100.972 29.4503H101.822C101.76 29.6819 101.646 29.8856 101.483 30.0613C101.32 30.237 101.115 30.3722 100.869 30.4677C100.623 30.5633 100.347 30.6106 100.042 30.6106V30.6116Z" fill="white"/>
<path d="M103.547 27.9897V30.5247H102.708V26.2501H103.513V26.949H103.566C103.635 26.7945 103.727 26.6613 103.843 26.5484C103.959 26.4354 104.099 26.3476 104.264 26.2868C104.429 26.226 104.616 26.1951 104.825 26.1951C105.118 26.1951 105.373 26.2568 105.592 26.3804C105.81 26.504 105.979 26.6864 106.098 26.9278C106.218 27.1691 106.278 27.4626 106.278 27.8072V30.5266H105.438V27.9105C105.438 27.7068 105.402 27.5302 105.331 27.3805C105.258 27.2309 105.155 27.1179 105.021 27.0398C104.887 26.9616 104.726 26.9229 104.54 26.9229C104.353 26.9229 104.173 26.9654 104.026 27.0494C103.878 27.1344 103.761 27.256 103.676 27.4172C103.592 27.5775 103.548 27.7696 103.548 27.9916L103.547 27.9897Z" fill="white"/>
<path d="M109.135 30.6116C108.72 30.6116 108.36 30.5218 108.053 30.3413C107.747 30.1617 107.512 29.9059 107.348 29.5748C107.184 29.2437 107.103 28.8575 107.103 28.4154C107.103 27.9733 107.184 27.5958 107.348 27.2589C107.512 26.922 107.743 26.6604 108.041 26.474C108.339 26.2877 108.684 26.1941 109.074 26.1941C109.419 26.1941 109.734 26.2684 110.02 26.4181C110.306 26.5677 110.536 26.8023 110.711 27.1237C110.885 27.4452 110.972 27.8507 110.972 28.343V28.6403H107.572V28.0109H110.147C110.147 27.7937 110.103 27.6006 110.015 27.4317C109.927 27.2628 109.802 27.1295 109.641 27.0311C109.48 26.9326 109.295 26.8834 109.085 26.8834C108.86 26.8834 108.66 26.9394 108.485 27.0504C108.311 27.1614 108.176 27.3091 108.081 27.4925C107.986 27.6759 107.937 27.8758 107.936 28.091V28.5785C107.936 28.8585 107.986 29.0998 108.086 29.3026C108.186 29.5053 108.327 29.6588 108.508 29.763C108.689 29.8683 108.901 29.9204 109.141 29.9204C109.293 29.9204 109.43 29.9001 109.553 29.8596C109.675 29.819 109.779 29.763 109.865 29.6926C109.951 29.6221 110.018 29.541 110.066 29.4503H110.916C110.853 29.6819 110.74 29.8856 110.577 30.0613C110.414 30.237 110.209 30.3722 109.963 30.4677C109.716 30.5633 109.441 30.6106 109.135 30.6106V30.6116Z" fill="white"/>
<path d="M111.803 30.5247V26.2501H112.614V26.9316H112.658C112.71 26.7791 112.789 26.6468 112.895 26.5339C113.001 26.421 113.127 26.3341 113.273 26.2752C113.418 26.2163 113.574 26.1864 113.738 26.1864C113.798 26.1864 113.859 26.1873 113.923 26.1902C113.987 26.1931 114.045 26.198 114.097 26.2057V27.0069C114.049 26.9953 113.983 26.9847 113.899 26.9731C113.815 26.9616 113.736 26.9567 113.66 26.9567C113.466 26.9567 113.291 26.9973 113.137 27.0793C112.982 27.1614 112.862 27.2753 112.773 27.423C112.685 27.5707 112.641 27.7358 112.641 27.9202V30.5257H111.802L111.803 30.5247Z" fill="white"/>
<path d="M117.255 28.5911C117.235 28.5911 117.199 28.593 117.148 28.5969C117.097 28.6007 117.035 28.6046 116.96 28.6085C116.822 28.6181 116.682 28.6268 116.542 28.6365C116.403 28.6461 116.286 28.6538 116.194 28.6616C115.91 28.6818 115.691 28.7475 115.535 28.8575C115.38 28.9676 115.302 29.1249 115.302 29.3296C115.302 29.4628 115.337 29.5767 115.405 29.6694C115.474 29.7621 115.569 29.8325 115.691 29.8798C115.812 29.9271 115.952 29.9513 116.109 29.9513C116.331 29.9513 116.524 29.9069 116.688 29.8181C116.852 29.7292 116.978 29.6105 117.067 29.4628C117.156 29.3151 117.2 29.1558 117.2 28.9859L117.197 27.6363C117.197 27.4751 117.165 27.3371 117.099 27.2232C117.034 27.1093 116.935 27.0224 116.806 26.9645C116.676 26.9056 116.517 26.8766 116.328 26.8766C116.169 26.8766 116.029 26.8998 115.906 26.9451C115.784 26.9905 115.685 27.0542 115.608 27.1353C115.531 27.2174 115.479 27.312 115.451 27.4191H114.614C114.642 27.1836 114.731 26.9731 114.879 26.7878C115.029 26.6024 115.23 26.4576 115.483 26.3534C115.737 26.2491 116.029 26.198 116.358 26.198C116.632 26.198 116.893 26.2395 117.142 26.3235C117.39 26.4065 117.6 26.56 117.774 26.783C117.947 27.006 118.034 27.3081 118.034 27.6904V30.5295H117.217V29.9455H117.183C117.123 30.0642 117.039 30.1743 116.931 30.2766C116.822 30.3789 116.682 30.462 116.511 30.5266C116.341 30.5913 116.144 30.6241 115.923 30.6241C115.65 30.6241 115.405 30.573 115.187 30.4706C114.968 30.3683 114.796 30.2197 114.67 30.0237C114.544 29.8277 114.481 29.5941 114.481 29.3209C114.481 28.8807 114.631 28.567 114.93 28.3777C115.229 28.1885 115.612 28.0775 116.076 28.0437C116.206 28.0341 116.358 28.0254 116.533 28.0157C116.708 28.0061 116.872 27.9984 117.026 27.9906C117.08 27.9868 117.125 27.9848 117.164 27.9839C117.201 27.9839 117.229 27.9829 117.246 27.9829L117.257 28.5949L117.255 28.5911Z" fill="white"/>
<path d="M119.886 24.8252V30.5247H119.047V24.8252H119.886Z" fill="white"/>
<path d="M123.424 30.5247H122.508L124.552 24.8252H125.555L127.6 30.5247H126.681L125.075 25.8659H125.031L123.426 30.5247H123.424ZM123.574 28.2928H126.533V29.0187H123.574V28.2928Z" fill="white"/>
<path d="M130.616 27.4162C130.576 27.2415 130.487 27.1054 130.351 27.006C130.215 26.9065 130.034 26.8573 129.808 26.8573C129.651 26.8573 129.51 26.8824 129.386 26.9336C129.262 26.9847 129.164 27.0533 129.093 27.1392C129.022 27.2251 128.987 27.3226 128.989 27.4298C128.987 27.5582 129.04 27.6672 129.149 27.757C129.257 27.8468 129.426 27.9192 129.656 27.9723L130.339 28.1277C130.73 28.2185 131.021 28.3594 131.213 28.5496C131.406 28.7398 131.503 28.985 131.503 29.2861C131.503 29.5439 131.432 29.7737 131.293 29.9754C131.153 30.1772 130.951 30.3326 130.688 30.4446C130.425 30.5556 130.115 30.6116 129.758 30.6116C129.42 30.6116 129.128 30.5633 128.88 30.4658C128.631 30.3683 128.436 30.2264 128.292 30.0382C128.149 29.8509 128.059 29.6231 128.024 29.3566H128.883C128.919 29.5516 129.008 29.6974 129.154 29.7939C129.299 29.8905 129.498 29.9387 129.749 29.9387C129.93 29.9387 130.088 29.9146 130.221 29.8663C130.354 29.8181 130.458 29.7495 130.532 29.6617C130.607 29.5738 130.643 29.4705 130.643 29.3537C130.643 29.2147 130.59 29.0998 130.483 29.0101C130.376 28.9203 130.211 28.8488 129.985 28.7967L129.318 28.649C128.937 28.565 128.647 28.4231 128.447 28.2233C128.248 28.0235 128.149 27.7744 128.149 27.4771C128.149 27.227 128.218 27.004 128.356 26.809C128.494 26.614 128.688 26.4634 128.938 26.3553C129.187 26.2472 129.475 26.1941 129.802 26.1941C130.129 26.1941 130.386 26.2443 130.622 26.3447C130.857 26.4451 131.043 26.587 131.179 26.7704C131.315 26.9538 131.396 27.1691 131.422 27.4162H130.616Z" fill="white"/>
<path d="M134.722 27.4162C134.681 27.2415 134.593 27.1054 134.457 27.006C134.321 26.9065 134.14 26.8573 133.913 26.8573C133.756 26.8573 133.616 26.8824 133.491 26.9336C133.367 26.9847 133.27 27.0533 133.198 27.1392C133.127 27.2251 133.092 27.3226 133.094 27.4298C133.092 27.5582 133.145 27.6672 133.254 27.757C133.362 27.8468 133.532 27.9192 133.761 27.9723L134.444 28.1277C134.835 28.2185 135.126 28.3594 135.319 28.5496C135.512 28.7398 135.608 28.985 135.608 29.2861C135.608 29.5439 135.538 29.7737 135.398 29.9754C135.258 30.1772 135.057 30.3326 134.794 30.4446C134.531 30.5556 134.221 30.6116 133.863 30.6116C133.526 30.6116 133.233 30.5633 132.985 30.4658C132.737 30.3683 132.541 30.2264 132.398 30.0382C132.254 29.8509 132.165 29.6231 132.13 29.3566H132.988C133.024 29.5516 133.114 29.6974 133.259 29.7939C133.405 29.8905 133.603 29.9387 133.854 29.9387C134.036 29.9387 134.194 29.9146 134.327 29.8663C134.46 29.8181 134.564 29.7495 134.638 29.6617C134.712 29.5738 134.749 29.4705 134.749 29.3537C134.749 29.2147 134.696 29.0998 134.589 29.0101C134.482 28.9203 134.316 28.8488 134.091 28.7967L133.424 28.649C133.042 28.565 132.752 28.4231 132.553 28.2233C132.353 28.0235 132.254 27.7744 132.254 27.4771C132.254 27.227 132.324 27.004 132.461 26.809C132.599 26.614 132.794 26.4634 133.043 26.3553C133.293 26.2472 133.581 26.1941 133.907 26.1941C134.234 26.1941 134.491 26.2443 134.727 26.3447C134.962 26.4451 135.148 26.587 135.284 26.7704C135.42 26.9538 135.501 27.1691 135.527 27.4162H134.722Z" fill="white"/>
<path d="M138.236 30.6116C137.84 30.6116 137.49 30.5199 137.188 30.3365C136.887 30.153 136.654 29.8943 136.489 29.5613C136.324 29.2282 136.241 28.844 136.241 28.4077C136.241 27.9713 136.324 27.5813 136.489 27.2473C136.654 26.9133 136.887 26.6546 137.188 26.4712C137.49 26.2877 137.84 26.196 138.236 26.196C138.632 26.196 138.98 26.2877 139.281 26.4712C139.582 26.6546 139.815 26.9133 139.979 27.2473C140.142 27.5813 140.224 27.9684 140.224 28.4077C140.224 28.8469 140.142 29.2282 139.979 29.5613C139.815 29.8943 139.583 30.153 139.281 30.3365C138.98 30.5199 138.632 30.6116 138.236 30.6116ZM138.238 29.9098C138.486 29.9098 138.695 29.8432 138.867 29.709C139.038 29.5758 139.166 29.3943 139.251 29.1664C139.336 28.9386 139.379 28.6838 139.379 28.4038C139.379 28.1239 139.337 27.869 139.251 27.6412C139.166 27.4133 139.038 27.2309 138.867 27.0957C138.695 26.9606 138.485 26.893 138.238 26.893C137.99 26.893 137.773 26.9606 137.6 27.0957C137.426 27.2309 137.297 27.4133 137.212 27.6412C137.128 27.869 137.084 28.1239 137.084 28.4038C137.084 28.6838 137.127 28.9386 137.212 29.1664C137.297 29.3943 137.426 29.5758 137.6 29.709C137.773 29.8422 137.985 29.9098 138.238 29.9098Z" fill="white"/>
<path d="M142.858 30.6116C142.452 30.6116 142.098 30.5179 141.798 30.3316C141.497 30.1453 141.266 29.8847 141.105 29.5507C140.944 29.2166 140.863 28.8353 140.863 28.4067C140.863 27.9781 140.945 27.591 141.109 27.256C141.273 26.921 141.505 26.6604 141.805 26.474C142.104 26.2877 142.453 26.1941 142.849 26.1941C143.169 26.1941 143.458 26.2539 143.716 26.3727C143.973 26.4914 144.18 26.6604 144.336 26.8795C144.491 27.0986 144.583 27.3496 144.61 27.6334H143.796C143.766 27.4964 143.71 27.3718 143.628 27.2618C143.546 27.1517 143.44 27.0629 143.31 26.9973C143.181 26.9316 143.031 26.8988 142.861 26.8988C142.631 26.8988 142.43 26.9596 142.256 27.0813C142.083 27.2029 141.948 27.3757 141.852 27.6006C141.755 27.8256 141.707 28.0881 141.707 28.3884C141.707 28.6886 141.754 28.9618 141.849 29.1886C141.943 29.4155 142.077 29.5912 142.252 29.7148C142.426 29.8383 142.628 29.9001 142.86 29.9001C143.019 29.9001 143.163 29.8712 143.291 29.8123C143.419 29.7534 143.527 29.6704 143.613 29.5622C143.699 29.4541 143.759 29.3238 143.795 29.1713H144.609C144.579 29.4493 144.489 29.6974 144.339 29.9156C144.188 30.1337 143.985 30.3046 143.732 30.4272C143.478 30.5508 143.186 30.6125 142.857 30.6125L142.858 30.6116Z" fill="white"/>
<path d="M145.833 25.5936C145.738 25.5936 145.65 25.5714 145.568 25.5251C145.485 25.4797 145.42 25.4189 145.373 25.3426C145.326 25.2664 145.302 25.1843 145.302 25.0946C145.302 25.0048 145.326 24.9198 145.373 24.8445C145.42 24.7683 145.485 24.7084 145.568 24.664C145.65 24.6196 145.738 24.5974 145.833 24.5974C145.927 24.5974 146.012 24.6196 146.094 24.664C146.176 24.7084 146.239 24.7692 146.286 24.8445C146.334 24.9208 146.358 25.0038 146.358 25.0946C146.358 25.1853 146.334 25.2664 146.286 25.3426C146.239 25.4189 146.175 25.4797 146.094 25.5251C146.012 25.5705 145.925 25.5936 145.833 25.5936ZM145.407 30.5247V26.2501H146.246V30.5247H145.407Z" fill="white"/>
<path d="M149.843 28.5911C149.823 28.5911 149.787 28.593 149.736 28.5969C149.685 28.6007 149.623 28.6046 149.548 28.6085C149.41 28.6181 149.27 28.6268 149.13 28.6365C148.99 28.6461 148.874 28.6538 148.781 28.6616C148.498 28.6818 148.278 28.7475 148.123 28.8575C147.968 28.9676 147.89 29.1249 147.89 29.3296C147.89 29.4628 147.925 29.5767 147.993 29.6694C148.062 29.7621 148.157 29.8325 148.278 29.8798C148.4 29.9271 148.54 29.9513 148.697 29.9513C148.919 29.9513 149.112 29.9069 149.276 29.8181C149.439 29.7292 149.566 29.6105 149.655 29.4628C149.744 29.3151 149.788 29.1558 149.788 28.9859L149.785 27.6363C149.785 27.4751 149.753 27.3371 149.687 27.2232C149.622 27.1093 149.523 27.0224 149.394 26.9645C149.264 26.9056 149.105 26.8766 148.916 26.8766C148.757 26.8766 148.617 26.8998 148.494 26.9451C148.372 26.9905 148.273 27.0542 148.196 27.1353C148.119 27.2174 148.067 27.312 148.039 27.4191H147.202C147.23 27.1836 147.319 26.9731 147.467 26.7878C147.617 26.6024 147.818 26.4576 148.071 26.3534C148.325 26.2491 148.617 26.198 148.946 26.198C149.22 26.198 149.481 26.2395 149.729 26.3235C149.978 26.4065 150.188 26.56 150.362 26.783C150.535 27.006 150.622 27.3081 150.622 27.6904V30.5295H149.805V29.9455H149.771C149.711 30.0642 149.627 30.1743 149.518 30.2766C149.41 30.3789 149.27 30.462 149.099 30.5266C148.929 30.5913 148.732 30.6241 148.511 30.6241C148.238 30.6241 147.993 30.573 147.775 30.4706C147.556 30.3683 147.383 30.2197 147.258 30.0237C147.132 29.8277 147.069 29.5941 147.069 29.3209C147.069 28.8807 147.219 28.567 147.518 28.3777C147.817 28.1885 148.199 28.0775 148.664 28.0437C148.794 28.0341 148.946 28.0254 149.121 28.0157C149.296 28.0061 149.46 27.9984 149.614 27.9906C149.668 27.9868 149.713 27.9848 149.752 27.9839C149.789 27.9839 149.817 27.9829 149.834 27.9829L149.845 28.5949L149.843 28.5911Z" fill="white"/>
<path d="M153.628 26.2501V26.921H151.295V26.2501H153.628ZM151.92 25.2258H152.759V29.2668C152.759 29.4194 152.782 29.5362 152.826 29.6192C152.87 29.7022 152.93 29.7592 153.004 29.7901C153.078 29.8219 153.167 29.8374 153.271 29.8374C153.315 29.8374 153.365 29.8374 153.422 29.8345C153.479 29.8325 153.534 29.8296 153.587 29.8258C153.605 29.8238 153.624 29.8229 153.64 29.8219C153.656 29.8219 153.673 29.821 153.687 29.821V30.545C153.535 30.5691 153.363 30.5817 153.168 30.5817C152.941 30.5817 152.731 30.5392 152.543 30.4552C152.354 30.3712 152.203 30.2428 152.09 30.071C151.977 29.8991 151.92 29.6897 151.92 29.4406V25.2268V25.2258Z" fill="white"/>
<path d="M154.874 25.5936C154.779 25.5936 154.691 25.5714 154.609 25.5251C154.526 25.4797 154.461 25.4189 154.414 25.3426C154.367 25.2664 154.343 25.1843 154.343 25.0946C154.343 25.0048 154.367 24.9198 154.414 24.8445C154.461 24.7683 154.526 24.7084 154.609 24.664C154.691 24.6196 154.779 24.5974 154.874 24.5974C154.968 24.5974 155.053 24.6196 155.135 24.664C155.217 24.7084 155.28 24.7692 155.327 24.8445C155.375 24.9208 155.399 25.0038 155.399 25.0946C155.399 25.1853 155.375 25.2664 155.327 25.3426C155.28 25.4189 155.216 25.4797 155.135 25.5251C155.053 25.5705 154.966 25.5936 154.874 25.5936ZM154.449 30.5247V26.2501H155.288V30.5247H154.449Z" fill="white"/>
<path d="M158.112 30.6116C157.716 30.6116 157.366 30.5199 157.064 30.3365C156.763 30.153 156.53 29.8943 156.365 29.5613C156.2 29.2282 156.117 28.844 156.117 28.4077C156.117 27.9713 156.2 27.5813 156.365 27.2473C156.53 26.9133 156.763 26.6546 157.064 26.4712C157.366 26.2877 157.716 26.196 158.112 26.196C158.508 26.196 158.856 26.2877 159.157 26.4712C159.458 26.6546 159.691 26.9133 159.854 27.2473C160.018 27.5813 160.1 27.9684 160.1 28.4077C160.1 28.8469 160.018 29.2282 159.854 29.5613C159.691 29.8943 159.458 30.153 159.157 30.3365C158.856 30.5199 158.508 30.6116 158.112 30.6116ZM158.114 29.9098C158.363 29.9098 158.572 29.8432 158.744 29.709C158.915 29.5758 159.043 29.3943 159.128 29.1664C159.213 28.9386 159.256 28.6838 159.256 28.4038C159.256 28.1239 159.214 27.869 159.128 27.6412C159.043 27.4133 158.915 27.2309 158.744 27.0957C158.572 26.9606 158.362 26.893 158.114 26.893C157.867 26.893 157.65 26.9606 157.477 27.0957C157.303 27.2309 157.174 27.4133 157.089 27.6412C157.005 27.869 156.961 28.1239 156.961 28.4038C156.961 28.6838 157.004 28.9386 157.089 29.1664C157.174 29.3943 157.303 29.5758 157.477 29.709C157.65 29.8422 157.862 29.9098 158.114 29.9098Z" fill="white"/>
<path d="M161.77 27.9897V30.5247H160.931V26.2501H161.736V26.949H161.789C161.858 26.7945 161.95 26.6613 162.066 26.5484C162.181 26.4354 162.322 26.3476 162.487 26.2868C162.651 26.226 162.838 26.1951 163.047 26.1951C163.34 26.1951 163.596 26.2568 163.814 26.3804C164.033 26.504 164.202 26.6864 164.321 26.9278C164.441 27.1691 164.5 27.4626 164.5 27.8072V30.5266H163.661V27.9105C163.661 27.7068 163.625 27.5302 163.553 27.3805C163.481 27.2309 163.378 27.1179 163.244 27.0398C163.11 26.9616 162.949 26.9229 162.762 26.9229C162.575 26.9229 162.396 26.9654 162.249 27.0494C162.1 27.1344 161.984 27.256 161.899 27.4172C161.814 27.5775 161.771 27.7696 161.771 27.9916L161.77 27.9897Z" fill="white"/>
<path d="M48.987 8.9238V10.2985H39.4072V8.9238H48.987ZM44.2034 11.0756C44.9703 11.0756 45.6467 11.202 46.2334 11.454C46.8202 11.7069 47.2778 12.0641 47.6054 12.5265C47.9339 12.9889 48.0997 13.5237 48.1045 14.1309C48.1006 14.7295 47.9339 15.2566 47.6054 15.7132C47.2769 16.1698 46.8202 16.5212 46.2334 16.7702C45.6467 17.0183 44.9703 17.1429 44.2034 17.1429C43.4365 17.1429 42.7447 17.0183 42.1512 16.7702C41.5587 16.5221 41.0991 16.1698 40.7725 15.7132C40.4458 15.2566 40.283 14.7295 40.283 14.1309C40.283 13.5324 40.4458 12.9899 40.7725 12.5265C41.0981 12.0641 41.5577 11.7069 42.1512 11.454C42.7437 11.202 43.4278 11.0756 44.2034 11.0756ZM43.5299 18.1536V22.017H41.8332V18.1536H43.5299ZM52.7224 21.4262V22.8269H41.8332V21.4262H52.7224ZM44.2034 12.4001C43.7506 12.4001 43.3497 12.4696 43.0029 12.6066C42.656 12.7447 42.3892 12.9455 42.2023 13.2081C42.0153 13.4716 41.9248 13.7786 41.9286 14.1309C41.9248 14.4746 42.0153 14.7739 42.2023 15.0287C42.3882 15.2836 42.6551 15.4786 43.0029 15.6147C43.3497 15.7508 43.7506 15.8165 44.2034 15.8116C44.6562 15.8155 45.0551 15.7499 45.3981 15.6147C45.7411 15.4786 46.008 15.2836 46.1987 15.0287C46.3895 14.7739 46.4868 14.4746 46.4907 14.1309C46.4868 13.7786 46.3885 13.4716 46.1987 13.2081C46.008 12.9445 45.7411 12.7447 45.3981 12.6066C45.0551 12.4686 44.6572 12.4001 44.2034 12.4001ZM45.0551 7.03362V9.61789H43.3584V7.03362H45.0551ZM52.0364 7.04038V19.1151H50.3272V7.04038H52.0364ZM54.368 12.2282V13.6541H51.5219V12.2282H54.368Z" fill="white"/>
<path d="M70.0283 13.4755V14.8627H55.2959V13.4755H70.0283ZM68.2305 17.613V23.1571H66.5155V18.9877H56.8018V17.613H68.2305ZM67.5445 7.78467V9.1661H57.1381V7.78467H67.5445ZM63.4787 14.4235V18.1217H61.782V14.4235H63.4787ZM68.1602 8.98751V9.05122C68.1602 9.64492 68.1515 10.1768 68.1351 10.646C68.1178 11.1152 68.0706 11.648 67.9925 12.2466C67.9145 12.8451 67.794 13.4813 67.6331 14.156L65.9625 13.9717C66.1147 13.3143 66.2284 12.6955 66.3026 12.1162C66.3768 11.537 66.4221 11.0244 66.4394 10.5794C66.4567 10.1334 66.4645 9.62078 66.4645 9.03867V7.78467H68.1602V8.98751Z" fill="white"/>
<path d="M79.6464 8.57433V19.173H72.0928V8.57433H79.6464ZM73.7827 9.9297V17.7974H77.9882V9.9297H73.7827ZM84.5379 7.02686V23.1889H82.8229V7.02686H84.5379Z" fill="white"/>
<path d="M101.786 14.8945V16.2818H87.1104V14.8945H101.786ZM94.4356 7.30778C95.6091 7.31164 96.6275 7.43424 97.4917 7.67365C98.356 7.91306 99.0198 8.26059 99.4832 8.71431C99.9467 9.16803 100.179 9.71153 100.179 10.3438C100.179 10.9761 99.9467 11.5042 99.4832 11.9541C99.0198 12.4039 98.3569 12.7466 97.4946 12.9822C96.6323 13.2177 95.613 13.3355 94.4356 13.3355C93.2583 13.3355 92.2312 13.2177 91.367 12.9822C90.5027 12.7466 89.8389 12.4039 89.3755 11.9541C88.912 11.5042 88.6798 10.9675 88.6798 10.3438C88.6798 9.72022 88.912 9.16803 89.3755 8.71431C89.8389 8.26059 90.5037 7.91306 91.3699 7.67365C92.236 7.43424 93.2573 7.31164 94.4356 7.30778ZM94.4298 17.39C95.586 17.3861 96.5803 17.4952 97.4127 17.7182C98.2452 17.9412 98.882 18.2656 99.3252 18.6923C99.7675 19.119 99.991 19.6374 99.9958 20.2484C99.992 20.8634 99.7684 21.3856 99.3252 21.8143C98.883 22.2429 98.2452 22.5682 97.4127 22.7912C96.5803 23.0142 95.586 23.1252 94.4298 23.1252C93.2737 23.1252 92.2649 23.0142 91.4277 22.7912C90.5914 22.5682 89.9516 22.2429 89.5094 21.8143C89.0672 21.3856 88.8456 20.8634 88.8456 20.2484C88.8456 19.6335 89.0672 19.119 89.5094 18.6923C89.9516 18.2656 90.5914 17.9412 91.4277 17.7182C92.264 17.4952 93.265 17.3861 94.4298 17.39ZM94.4356 8.63805C93.6012 8.63805 92.8854 8.70466 92.288 8.83884C91.6907 8.97303 91.234 9.16803 90.9189 9.42481C90.6029 9.6816 90.4478 9.98859 90.4517 10.3448C90.4478 10.701 90.6029 11.0061 90.9189 11.258C91.234 11.511 91.6897 11.7011 92.2852 11.8305C92.8806 11.9599 93.5974 12.0245 94.4356 12.0245C95.2738 12.0245 95.9858 11.9599 96.5832 11.8305C97.1805 11.7011 97.6382 11.51 97.9552 11.258C98.2731 11.0061 98.4321 10.701 98.4321 10.3448C98.4321 9.98859 98.2731 9.6816 97.9552 9.42481C97.6372 9.16803 97.1786 8.97303 96.5793 8.83884C95.9801 8.70562 95.2652 8.63805 94.4356 8.63805ZM94.4298 18.6884C93.6128 18.6923 92.9153 18.755 92.3401 18.8767C91.7639 18.9973 91.3255 19.174 91.0249 19.4047C90.7243 19.6364 90.576 19.9173 90.5798 20.2484C90.576 20.5796 90.7234 20.8624 91.0249 21.098C91.3255 21.3335 91.7639 21.5131 92.3401 21.6357C92.9162 21.7583 93.6128 21.8181 94.4298 21.8143C95.2391 21.8181 95.9309 21.7592 96.5071 21.6357C97.0832 21.5131 97.5235 21.3335 97.829 21.098C98.1344 20.8624 98.2885 20.5796 98.2924 20.2484C98.2885 19.9173 98.1334 19.6364 97.829 19.4047C97.5235 19.173 97.0842 18.9973 96.5109 18.8767C95.9367 18.756 95.244 18.6932 94.4308 18.6884H94.4298ZM92.3459 12.4821V15.4931H90.6309V12.4821H92.3459ZM98.2288 12.4821V15.4931H96.5321V12.4821H98.2288Z" fill="white"/>
<path d="M117.694 15.2894V16.6834H103.019V15.2894H117.694ZM110.897 9.70091C110.897 10.5369 110.616 11.2744 110.052 11.9126C109.488 12.5516 108.713 13.0671 107.723 13.4591C106.735 13.852 105.6 14.1078 104.321 14.2265L103.794 12.9088C104.899 12.82 105.877 12.6279 106.726 12.3325C107.575 12.038 108.234 11.6625 108.702 11.2059C109.17 10.7503 109.404 10.2483 109.404 9.70091V9.4142H110.898V9.70091H110.897ZM116.22 8.56178V9.93067H104.493V8.56178H116.22ZM110.337 17.7462C111.506 17.7462 112.506 17.8505 113.335 18.058C114.166 18.2656 114.8 18.5706 115.238 18.9713C115.677 19.3719 115.898 19.8613 115.902 20.4386C115.898 21.0159 115.677 21.5063 115.238 21.9089C114.8 22.3114 114.166 22.6165 113.335 22.8221C112.505 23.0277 111.506 23.131 110.337 23.131C109.168 23.131 108.166 23.0277 107.332 22.8221C106.498 22.6165 105.859 22.3114 105.417 21.9089C104.974 21.5053 104.753 21.0159 104.753 20.4386C104.753 19.8613 104.974 19.3729 105.417 18.9713C105.859 18.5706 106.498 18.2656 107.332 18.058C108.166 17.8505 109.168 17.7462 110.337 17.7462ZM110.337 19.0263C109.511 19.0263 108.81 19.0794 108.234 19.1856C107.658 19.2918 107.221 19.452 106.925 19.6663C106.629 19.8806 106.483 20.1384 106.487 20.4396C106.483 20.7408 106.629 20.9966 106.925 21.207C107.222 21.4175 107.658 21.5748 108.234 21.681C108.81 21.7872 109.51 21.8384 110.337 21.8336C111.159 21.8374 111.856 21.7872 112.431 21.681C113.005 21.5748 113.441 21.4165 113.743 21.207C114.044 20.9966 114.196 20.7417 114.201 20.4396C114.197 20.1384 114.044 19.8806 113.743 19.6663C113.442 19.452 113.005 19.2918 112.431 19.1856C111.856 19.0794 111.159 19.0263 110.337 19.0263ZM111.182 7.02107V9.30608H109.505V7.02107H111.182ZM111.182 13.4311V15.9323H109.505V13.4311H111.182ZM111.284 9.70091C111.28 10.2483 111.511 10.7503 111.977 11.2059C112.443 11.6625 113.101 12.038 113.953 12.3325C114.805 12.6279 115.785 12.819 116.894 12.9088L116.38 14.2265C115.097 14.1078 113.96 13.852 112.968 13.4591C111.977 13.0662 111.2 12.5507 110.637 11.9126C110.073 11.2735 109.792 10.5369 109.792 9.70091V9.4142H111.285V9.70091H111.284Z" fill="white"/>
<path d="M123.374 8.02697C124.153 8.03083 124.861 8.20846 125.499 8.55889C126.137 8.90931 126.639 9.39489 127.008 10.0166C127.376 10.6383 127.563 11.3391 127.567 12.1201C127.563 12.8963 127.376 13.5961 127.008 14.2178C126.639 14.8395 126.137 15.3241 125.499 15.6726C124.861 16.0202 124.153 16.1949 123.374 16.1949C122.594 16.1949 121.857 16.0211 121.213 15.6726C120.57 15.3251 120.066 14.8395 119.702 14.2178C119.338 13.5961 119.157 12.8972 119.162 12.1201C119.158 11.3391 119.338 10.6383 119.702 10.0166C120.066 9.39489 120.57 8.90931 121.213 8.55889C121.857 8.20846 122.577 8.0318 123.374 8.02697ZM123.374 9.54838C122.878 9.55224 122.433 9.66326 122.039 9.8795C121.645 10.0957 121.337 10.3998 121.115 10.7898C120.893 11.1798 120.782 11.6239 120.782 12.1201C120.782 12.6163 120.893 13.0662 121.115 13.4571C121.338 13.8471 121.646 14.1503 122.039 14.3646C122.433 14.5789 122.877 14.686 123.374 14.686C123.87 14.686 124.292 14.5789 124.679 14.3646C125.066 14.1503 125.373 13.8481 125.597 13.4571C125.822 13.0671 125.934 12.6211 125.934 12.1201C125.934 11.6191 125.822 11.1798 125.597 10.7898C125.373 10.3998 125.066 10.0957 124.679 9.8795C124.292 9.66326 123.856 9.55321 123.374 9.54838ZM123.595 17.696V22.0623H121.893V17.696H123.595ZM132.769 21.4262V22.8269H121.893V21.4262H132.769ZM131.238 9.47791V10.8719H126.384V9.47791H131.238ZM131.238 13.3413V14.742H126.384V13.3413H131.238ZM132.343 7.04037V18.9182H130.641V7.04037H132.343Z" fill="white"/>
<path d="M144.433 8.61198V9.98666H134.854V8.61198H144.433ZM139.65 10.6431C140.417 10.6431 141.094 10.7599 141.683 10.9935C142.271 11.2271 142.729 11.5583 143.055 11.9869C143.38 12.4155 143.546 12.9117 143.55 13.4764C143.546 14.045 143.38 14.5422 143.055 14.9689C142.728 15.3956 142.271 15.7257 141.683 15.9584C141.094 16.192 140.417 16.3088 139.65 16.3088C138.883 16.3088 138.191 16.192 137.597 15.9584C137.005 15.7248 136.545 15.3946 136.219 14.9689C135.892 14.5432 135.729 14.045 135.729 13.4764C135.729 12.9078 135.892 12.4155 136.219 11.9869C136.544 11.5583 137.003 11.2271 137.595 10.9935C138.185 10.7599 138.87 10.6431 139.65 10.6431ZM138.868 17.0975V18.6633H145.773V17.0975H147.483V22.9534H137.178V17.0975H138.868ZM139.65 11.9222C139.197 11.9183 138.796 11.9792 138.449 12.1066C138.101 12.234 137.835 12.4165 137.649 12.6539C137.463 12.8914 137.371 13.1656 137.376 13.4755C137.372 13.7892 137.463 14.0643 137.649 14.2999C137.834 14.5354 138.101 14.7169 138.449 14.8444C138.796 14.9718 139.197 15.0355 139.65 15.0355C140.103 15.0355 140.501 14.9718 140.844 14.8444C141.187 14.7169 141.454 14.5354 141.645 14.2999C141.836 14.0643 141.933 13.7892 141.937 13.4755C141.933 13.1656 141.835 12.8924 141.645 12.6539C141.454 12.4165 141.187 12.234 140.844 12.1066C140.501 11.9792 140.103 11.9174 139.65 11.9222ZM140.5 6.88688V9.36979H138.804V6.88688H140.5ZM138.868 21.5845H145.773V19.9936H138.868V21.5845ZM147.483 7.02686V16.4217H145.773V7.02686H147.483ZM149.814 11.0756V12.514H146.772V11.0756H149.814Z" fill="white"/>
<path d="M150.824 18.7714H151.104C152.514 18.7627 153.732 18.7473 154.756 18.7241C155.781 18.701 156.876 18.6556 158.041 18.5871C159.205 18.5195 160.309 18.4152 161.35 18.2752L161.477 19.5611C160.372 19.7436 159.217 19.8826 158.012 19.9781C156.806 20.0737 155.659 20.1345 154.568 20.1596C153.478 20.1847 152.31 20.1982 151.064 20.1982L150.823 18.7724L150.824 18.7714ZM160.989 8.94986V10.3187H151.16V8.94986H160.989ZM156.065 11.1393C156.84 11.1393 157.528 11.2658 158.127 11.5177C158.727 11.7706 159.191 12.124 159.521 12.5777C159.852 13.0314 160.017 13.5575 160.017 14.156C160.017 14.7546 159.852 15.2672 159.521 15.719C159.191 16.1708 158.727 16.5212 158.127 16.7693C157.528 17.0174 156.841 17.1419 156.065 17.1419C155.29 17.1419 154.607 17.0174 154.013 16.7693C153.42 16.5212 152.962 16.1708 152.637 15.719C152.314 15.2672 152.154 14.7459 152.158 14.156C152.154 13.5575 152.314 13.0314 152.637 12.5777C152.961 12.124 153.42 11.7706 154.013 11.5177C154.606 11.2658 155.29 11.1393 156.065 11.1393ZM156.065 12.4638C155.617 12.4638 155.217 12.5342 154.865 12.6742C154.513 12.8142 154.242 13.0111 154.049 13.266C153.856 13.5208 153.762 13.8172 153.767 14.157C153.763 14.492 153.856 14.7855 154.049 15.0355C154.242 15.2855 154.513 15.4786 154.865 15.6147C155.217 15.7508 155.617 15.8165 156.065 15.8116C156.523 15.8155 156.927 15.7499 157.278 15.6147C157.63 15.4786 157.903 15.2855 158.098 15.0355C158.293 14.7855 158.39 14.492 158.39 14.157C158.39 13.822 158.293 13.5208 158.098 13.266C157.904 13.0111 157.63 12.8142 157.278 12.6742C156.927 12.5342 156.522 12.4638 156.065 12.4638ZM156.949 7.05872V9.69994H155.24V7.05872H156.949ZM156.942 16.7345V19.3893H155.24V16.7345H156.942ZM164.052 7.02686V23.1571H162.349V7.02686H164.052Z" fill="white"/>
<path d="M21.7657 16.0317C22.8357 16.0317 23.7032 15.1626 23.7032 14.0904C23.7032 13.0182 22.8357 12.1491 21.7657 12.1491C20.6956 12.1491 19.8281 13.0182 19.8281 14.0904C19.8281 15.1626 20.6956 16.0317 21.7657 16.0317Z" fill="#ECD531"/>
<path d="M30.7405 17.0285C31.6862 16.8832 32.3352 15.9972 32.1902 15.0497C32.0451 14.1022 31.1609 13.4519 30.2152 13.5972C29.2696 13.7425 28.6205 14.6285 28.7656 15.576C28.9106 16.5235 29.7948 17.1738 30.7405 17.0285Z" fill="#E62766"/>
<path d="M14.2773 16.5378C14.9539 15.8599 14.9539 14.7609 14.2773 14.0831C13.6008 13.4053 12.504 13.4053 11.8275 14.0831C11.151 14.7609 11.151 15.8599 11.8275 16.5378C12.504 17.2156 13.6008 17.2156 14.2773 16.5378Z" fill="#2BB286"/>
<path d="M25.9131 21.1443L25.9381 21.1202L26.5345 20.5236L28.553 18.5011C29.0925 17.9605 29.8094 17.6632 30.5715 17.6632C31.3336 17.6632 32.0514 17.9605 32.5909 18.5011C33.1266 19.0379 33.405 19.7368 33.4243 20.4415V20.4492C33.4243 20.4492 33.4243 20.457 33.4243 20.4608C33.4243 20.5023 33.4243 20.5438 33.4243 20.5854C33.4243 20.5892 33.4243 20.5931 33.4243 20.5969V20.6047C33.4041 21.905 32.9002 23.1986 31.9117 24.189C31.3943 24.7084 30.7854 25.1032 30.1225 25.361C29.5348 25.5888 28.9027 25.7085 28.2524 25.7085C28.1927 25.7085 28.1339 25.7076 28.0751 25.7056C28.7206 25.6796 29.3324 25.4633 29.8469 25.0859C29.9818 24.9874 30.109 24.8773 30.2294 24.7576C30.8172 24.1688 31.1524 23.3859 31.1746 22.5518C31.1746 22.5518 31.1746 22.5508 31.1746 22.5499C31.1746 22.5421 31.1756 22.5354 31.1756 22.5286V22.4157C31.164 22.1869 31.0696 21.9735 30.9087 21.8114C30.8913 21.794 30.875 21.7776 30.8567 21.7631C30.8451 21.7525 30.8326 21.7419 30.82 21.7332C30.8143 21.7283 30.8094 21.7245 30.8037 21.7206C30.795 21.7139 30.7863 21.7071 30.7776 21.7023C30.7719 21.6984 30.7661 21.6946 30.7603 21.6907C30.7536 21.6868 30.7478 21.682 30.741 21.6781C30.741 21.6781 30.7401 21.6772 30.7381 21.6772C30.7343 21.6743 30.7295 21.6723 30.7256 21.6695C30.7112 21.6608 30.6967 21.653 30.6823 21.6453C30.6755 21.6415 30.6678 21.6376 30.6601 21.6347C30.6524 21.6308 30.6457 21.627 30.6379 21.6241C30.6302 21.6202 30.6235 21.6173 30.6158 21.6144C30.6081 21.6115 30.6004 21.6086 30.5927 21.6057C30.5821 21.6019 30.5715 21.598 30.5609 21.5942C30.5397 21.5864 30.5194 21.5806 30.4982 21.5748C30.4915 21.5729 30.4848 21.571 30.478 21.57C30.4626 21.5662 30.4472 21.5633 30.4318 21.5604C30.4202 21.5584 30.4086 21.5565 30.3971 21.5546C30.3971 21.5546 30.3961 21.5546 30.3952 21.5546C30.3952 21.5546 30.3942 21.5546 30.3932 21.5546C30.3923 21.5546 30.3903 21.5546 30.3884 21.5546C30.373 21.5526 30.3566 21.5507 30.3402 21.5497C30.3345 21.5497 30.3296 21.5488 30.3239 21.5488C30.3161 21.5488 30.3075 21.5478 30.2988 21.5478C30.2815 21.5469 30.2641 21.5468 30.2468 21.5468H30.2391C30.2391 21.5468 30.2314 21.5468 30.2275 21.5468C30.2121 21.5468 30.1976 21.5478 30.1832 21.5497C30.1716 21.5497 30.161 21.5517 30.1504 21.5526C29.9442 21.5758 29.7593 21.6656 29.6099 21.8152L28.0944 23.3328L25.9141 21.1482L25.9131 21.1443Z" fill="url(#paint0_linear_160_2540)"/>
<path d="M17.4072 25.2529C17.4949 25.2133 17.5807 25.1708 17.6654 25.1264C17.9526 24.9768 18.2271 24.7992 18.4844 24.5945L19.7725 23.3038L20.8487 24.3811C20.921 24.4536 21 24.5163 21.0838 24.5684C21.2919 24.6978 21.529 24.7615 21.766 24.7615C22.003 24.7615 22.239 24.6978 22.4481 24.5684C22.5319 24.5163 22.6109 24.4545 22.6832 24.3811L23.7594 23.3028L25.0475 24.5935C25.3048 24.7982 25.5794 24.9758 25.8665 25.1264C25.9513 25.1708 26.038 25.2123 26.1247 25.2529L24.6862 26.6942C23.8798 27.5022 22.8229 27.9057 21.766 27.9047C20.709 27.9047 19.6521 27.5022 18.8457 26.6942L17.4072 25.2529Z" fill="url(#paint1_linear_160_2540)"/>
<path d="M10.1064 20.5854C10.1064 20.5438 10.1064 20.5023 10.1064 20.4608C10.1064 20.457 10.1064 20.4531 10.1064 20.4492V20.4415C10.1257 19.7368 10.4042 19.0379 10.9398 18.5011C11.4784 17.9605 12.1962 17.6632 12.9593 17.6632C13.7224 17.6632 14.4392 17.9605 14.9778 18.5011L16.9962 20.5236L17.5926 21.1211L17.6177 21.1453L15.4373 23.3299L13.9218 21.8123C13.7715 21.6617 13.5865 21.5719 13.3813 21.5497C13.3707 21.5488 13.3591 21.5468 13.3485 21.5468C13.3341 21.5459 13.3187 21.544 13.3042 21.544C13.3003 21.544 13.2965 21.544 13.2926 21.544H13.2849C13.2676 21.544 13.2493 21.544 13.2329 21.5449C13.2242 21.5449 13.2165 21.5449 13.2079 21.5459C13.2021 21.5459 13.1973 21.5468 13.1915 21.5468C13.1751 21.5478 13.1587 21.5497 13.1433 21.5517C13.1423 21.5517 13.1404 21.5517 13.1385 21.5517C13.1385 21.5517 13.1375 21.5517 13.1366 21.5517C13.1366 21.5517 13.1356 21.5517 13.1346 21.5517C13.1231 21.5536 13.1115 21.5555 13.0999 21.5575C13.0845 21.5604 13.0691 21.5633 13.0537 21.5671C13.047 21.5681 13.0402 21.57 13.0335 21.5719C13.0123 21.5768 12.9911 21.5835 12.9708 21.5913C12.9602 21.5951 12.9496 21.599 12.94 21.6028C12.9323 21.6057 12.9246 21.6086 12.9169 21.6115C12.9092 21.6144 12.9015 21.6183 12.8947 21.6212C12.887 21.6241 12.8793 21.6279 12.8726 21.6318C12.8649 21.6347 12.8581 21.6386 12.8504 21.6424C12.836 21.6501 12.8215 21.6579 12.8071 21.6666C12.8032 21.6695 12.7984 21.6714 12.7945 21.6743C12.7936 21.6743 12.7926 21.6743 12.7916 21.6752C12.7849 21.6791 12.7781 21.683 12.7724 21.6878C12.7666 21.6917 12.7608 21.6955 12.755 21.6994C12.7464 21.7052 12.7377 21.711 12.729 21.7177C12.7232 21.7216 12.7184 21.7254 12.7126 21.7303C12.7001 21.7399 12.6876 21.7496 12.676 21.7602C12.6577 21.7747 12.6404 21.7911 12.624 21.8085C12.4631 21.9697 12.3687 22.184 12.3571 22.4128V22.5257C12.3571 22.5325 12.3571 22.5402 12.3581 22.547C12.3581 22.547 12.3581 22.5479 12.3581 22.5489C12.3793 23.3839 12.7146 24.1659 13.3032 24.7547C13.4237 24.8754 13.5509 24.9845 13.6857 25.083C14.2002 25.4604 14.812 25.6757 15.4576 25.7027C15.3988 25.7047 15.34 25.7056 15.2803 25.7056C14.6309 25.7056 13.9989 25.5859 13.4102 25.3581C12.7464 25.1013 12.1384 24.7055 11.621 24.1861C10.6325 23.1957 10.1286 21.9021 10.1084 20.6018V20.594C10.1084 20.594 10.1084 20.5863 10.1084 20.5825L10.1064 20.5854Z" fill="url(#paint2_linear_160_2540)"/>
<path d="M12.3564 22.5508C12.3584 22.6039 12.3651 22.6609 12.3757 22.7188C12.6147 24.0327 14.2487 24.5192 15.191 23.5751L15.4376 23.3279L20.5989 18.1565C20.6028 18.1536 20.6057 18.1517 20.6095 18.1488C21.2975 17.6507 22.2339 17.6507 22.9228 18.1488C22.9267 18.1517 22.9296 18.1536 22.9334 18.1565L25.9144 21.1433L28.0947 23.3279L28.3414 23.5751C29.2846 24.5202 30.9177 24.0327 31.1566 22.7188C31.1672 22.6599 31.174 22.6039 31.1759 22.5508C31.1547 23.3859 30.8194 24.1678 30.2307 24.7567C30.1103 24.8773 29.9831 24.9864 29.8482 25.0849C29.3338 25.4624 28.722 25.6776 28.0764 25.7047C27.638 25.6902 27.2103 25.6207 26.7989 25.501C26.7989 25.501 26.7989 25.501 26.7979 25.501C26.5686 25.4344 26.3431 25.3504 26.1254 25.2519C26.0377 25.2123 25.952 25.1698 25.8672 25.1254C25.5801 24.9758 25.3055 24.7982 25.0482 24.5935L23.7601 23.3028L23.736 23.2777L22.2205 21.7592C22.2205 21.7592 22.2176 21.7563 22.2166 21.7554C21.97 21.5102 21.5653 21.5102 21.3186 21.7554C21.3177 21.7563 21.3158 21.7583 21.3148 21.7592L19.7993 23.2777L19.7752 23.3019L18.487 24.5926C18.2298 24.7972 17.9552 24.9748 17.6681 25.1254C17.5833 25.1698 17.4966 25.2114 17.4098 25.2519C17.1921 25.3504 16.9667 25.4334 16.7373 25.501C16.7373 25.501 16.7373 25.501 16.7364 25.501C16.325 25.6207 15.8972 25.6902 15.4588 25.7047C14.8133 25.6786 14.2015 25.4624 13.687 25.0849C13.5521 24.9864 13.4249 24.8764 13.3045 24.7567C12.7168 24.1678 12.3815 23.3849 12.3593 22.5508H12.3564Z" fill="url(#paint3_radial_160_2540)"/>
<path d="M14.7422 33.3271V29.485H15.4291V31.2545H15.4802L16.9794 29.485H17.8234L16.3367 31.2091L17.8349 33.3271H17.0044L15.8579 31.6764L15.4291 32.1832V33.3271H14.7422Z" fill="white"/>
<path d="M18.2617 33.3271V29.485H19.7281C19.9979 29.485 20.2253 29.5275 20.4102 29.6115C20.5952 29.6955 20.7349 29.8132 20.8274 29.9638C20.9209 30.1144 20.9671 30.2872 20.9671 30.4822C20.9671 30.6319 20.9382 30.7631 20.8795 30.8751C20.8216 30.9871 20.7426 31.0779 20.6424 31.1483C20.5422 31.2188 20.4276 31.268 20.2975 31.298V31.3356C20.4372 31.3433 20.5702 31.3858 20.6954 31.463C20.8207 31.5403 20.9218 31.6493 20.9999 31.7903C21.077 31.9312 21.1155 32.0944 21.1155 32.2788C21.1155 32.4825 21.0664 32.663 20.9681 32.8213C20.8708 32.9786 20.7234 33.1022 20.5288 33.191C20.3332 33.2808 20.0933 33.3252 19.809 33.3252H18.2607L18.2617 33.3271ZM19.6424 31.1213C19.7628 31.1213 19.8726 31.0981 19.969 31.0528C20.0663 31.0074 20.1414 30.9437 20.1973 30.8606C20.2522 30.7786 20.2802 30.6811 20.2802 30.5701C20.2802 30.4706 20.2571 30.3818 20.2089 30.3046C20.1617 30.2274 20.0913 30.1675 19.9969 30.1231C19.9035 30.0797 19.7898 30.0575 19.6558 30.0575H18.9477V31.1213H19.6404H19.6424ZM19.7021 32.7489C19.8659 32.7489 20.0008 32.7267 20.1077 32.6832C20.2147 32.6398 20.2927 32.579 20.3438 32.5018C20.3948 32.4245 20.4189 32.3328 20.4189 32.2276C20.4189 32.1127 20.39 32.0094 20.3322 31.9168C20.2744 31.825 20.1925 31.7526 20.0875 31.6995C19.9825 31.6465 19.8611 31.6194 19.7223 31.6194H18.9487V32.7489H19.7011H19.7021Z" fill="white"/>
<path d="M24.248 30.712C24.2056 30.5749 24.143 30.4562 24.0601 30.3587C23.9772 30.2602 23.8751 30.1849 23.7537 30.1328C23.6333 30.0806 23.4965 30.0536 23.3442 30.0536C23.1361 30.0536 22.9511 30.1067 22.7902 30.2119C22.6294 30.3171 22.5031 30.4716 22.4126 30.6743C22.322 30.8771 22.2758 31.1203 22.2758 31.4022C22.2758 31.6841 22.321 31.9341 22.4106 32.1369C22.5002 32.3405 22.6274 32.495 22.7912 32.6002C22.955 32.7064 23.1448 32.7585 23.3597 32.7585C23.5543 32.7585 23.7239 32.7209 23.8664 32.6456C24.01 32.5703 24.1208 32.4622 24.1988 32.3241C24.2769 32.1851 24.3164 32.0229 24.3164 31.8366L24.4715 31.8608H23.429V31.3182H24.985V31.7777C24.985 32.1011 24.9157 32.385 24.7769 32.6263C24.6382 32.8686 24.4465 33.0539 24.1998 33.1843C23.9532 33.3146 23.6728 33.3793 23.3587 33.3793C23.007 33.3793 22.6968 33.2991 22.4289 33.1399C22.1611 32.9806 21.953 32.7518 21.8056 32.4545C21.6582 32.1571 21.584 31.8086 21.584 31.4099C21.584 31.0112 21.6591 30.655 21.8104 30.3567C21.9617 30.0584 22.1698 29.8296 22.4347 29.6704C22.6997 29.512 23.0003 29.4319 23.3356 29.4319C23.614 29.4319 23.8693 29.486 24.1006 29.5941C24.3318 29.7022 24.5216 29.8528 24.6709 30.0459C24.8193 30.239 24.9137 30.461 24.9542 30.711H24.2499L24.248 30.712Z" fill="white"/>
<path d="M25.9743 33.3271H25.2363L26.5881 29.485H27.4379L28.7896 33.3271H28.0535L27.0274 30.2698H26.9976L25.9734 33.3271H25.9743ZM26.0023 31.8212H28.0227V32.3763H26.0023V31.8212Z" fill="white"/>
<path d="M9.92063 30.1202L9.79056 30.211L9.54776 29.9725L7.80003 31.1908L7.93877 31.5016L7.8087 31.5924L7.23255 30.7622C7.09959 30.571 7.03889 30.3847 7.05141 30.2052C7.06394 30.0256 7.1468 29.8818 7.30095 29.7737C7.41657 29.6935 7.537 29.6568 7.66322 29.6646C7.78943 29.6723 7.91372 29.7206 8.03704 29.8094C7.99272 29.7041 7.97153 29.597 7.97153 29.4889C7.97153 29.3807 7.99465 29.2784 8.03897 29.1819C8.08425 29.0863 8.1517 29.0062 8.24323 28.9425C8.42147 28.8179 8.60549 28.7813 8.79433 28.8295C8.98317 28.8788 9.15852 29.0197 9.32038 29.2533L9.92159 30.1192L9.92063 30.1202ZM8.41376 30.4185L8.28658 30.2351C8.16518 30.0613 8.03512 29.9571 7.89445 29.9242C7.75378 29.8914 7.60733 29.9281 7.45511 30.0343C7.23736 30.1859 7.23447 30.4127 7.44451 30.7158C7.46859 30.7506 7.49846 30.7902 7.53411 30.8346C7.56976 30.879 7.60541 30.9195 7.64106 30.9562L8.41376 30.4175V30.4185ZM9.17008 29.3875C9.07181 29.2456 8.95812 29.1597 8.82805 29.1288C8.69895 29.0979 8.56502 29.1298 8.42821 29.2253C8.28465 29.3257 8.21143 29.4416 8.20758 29.5729C8.20372 29.7051 8.26828 29.8654 8.39931 30.0546L8.5737 30.3065L9.38205 29.7428C9.36278 29.7012 9.33291 29.6472 9.29244 29.5796C9.25198 29.512 9.21055 29.4483 9.16816 29.3875H9.17008Z" fill="white"/>
<path d="M8.90696 28.6654L8.76629 28.7397L8.55336 28.4743L6.67267 29.4754L6.77287 29.8007L6.6322 29.875L5.79688 28.3005L6.35087 28.0051L6.43277 28.1596L6.09073 28.4318L6.30848 28.843L6.53489 29.2273L7.36637 28.7851L7.04361 28.1769L6.82297 28.2358L6.75071 28.0987L7.30471 27.8033L7.37697 27.9404L7.20836 28.0891L7.53016 28.6973L8.38668 28.2416C8.37512 28.1847 8.35103 28.1132 8.31539 28.0273C8.27974 27.9414 8.24216 27.8603 8.20266 27.785L7.98973 27.3844L7.59086 27.506L7.50703 27.3477L8.05043 27.0581L8.90214 28.6644L8.90696 28.6654Z" fill="white"/>
<path d="M8.19729 27.4172L8.04506 27.4761L7.91692 27.2743L5.37817 27.3014L5.32422 27.1604L7.21262 25.4392L7.1683 25.192L7.32053 25.1332L7.63558 25.9547L7.48336 26.0136L7.32149 25.7259L6.89178 26.113L7.2579 27.0677L7.82635 27.0407L7.75795 26.7299L7.91017 26.671L8.19632 27.4182L8.19729 27.4172ZM7.04305 27.0726L6.73089 26.2588L5.91772 26.9895L5.78668 27.0909L5.79343 27.1093L5.95722 27.0928L7.04305 27.0716V27.0726Z" fill="white"/>
<path d="M7.23164 24.4169C7.28752 24.6543 7.28655 24.8465 7.22971 24.9922C7.17287 25.138 7.06592 25.2529 6.90791 25.3359C6.75087 25.4189 6.55239 25.4894 6.31249 25.5454L5.09466 25.8321L5.11489 26.1622L4.95592 26.1999L4.73914 25.2741L4.89811 25.2365L5.02818 25.5492L6.24601 25.2625C6.47531 25.2085 6.65066 25.1476 6.77013 25.0801C6.88961 25.0125 6.96379 24.9208 6.99173 24.8049C7.01967 24.6891 7.01004 24.5346 6.96476 24.3416C6.92333 24.1659 6.85781 24.0394 6.76821 23.9622C6.6786 23.8849 6.56299 23.8444 6.42329 23.8386C6.28358 23.8338 6.11787 23.8531 5.9271 23.8985L4.71698 24.1832L4.73432 24.5182L4.5715 24.5568L4.37109 23.7006L4.53392 23.6629L4.66688 23.967L5.877 23.6822C6.05717 23.6397 6.22096 23.6156 6.36644 23.6098C6.51192 23.604 6.64103 23.6253 6.75279 23.6726C6.86455 23.7199 6.95994 23.8039 7.03991 23.9236C7.11987 24.0442 7.18443 24.2083 7.23356 24.4178L7.23164 24.4169Z" fill="white"/>
<path d="M6.89492 22.879L6.73305 22.8945L6.64634 22.5711L4.50358 22.7777L4.56043 23.3723L4.9911 23.411L5.00748 23.5857L4.38315 23.6455L4.19238 21.6646L4.81671 21.6048L4.83405 21.7834L4.41783 21.8953L4.47564 22.4977L6.6184 22.2911L6.64249 21.9571L6.80435 21.9417L6.89492 22.881V22.879Z" fill="white"/>
<path d="M6.77638 21.1926L6.61356 21.1897L6.56346 20.8585L5.8688 20.847L4.40528 21.6588L4.33784 21.8683L4.19043 21.8654L4.20585 20.9541L4.35326 20.957L4.41106 21.3045H4.48622L5.64527 20.6761V20.6645L4.50356 20.0206H4.43226L4.36385 20.3411L4.21741 20.3382L4.22993 19.5466L4.37734 19.5495L4.43033 19.7291L5.84664 20.5602L6.56924 20.5718L6.62994 20.2465L6.79276 20.2494L6.77735 21.1926H6.77638Z" fill="white"/>
<path d="M7.05817 18.3418C6.99362 18.7048 6.84428 18.9684 6.61112 19.1315C6.37796 19.2947 6.03304 19.3352 5.57636 19.2541C5.39619 19.2223 5.23144 19.1634 5.08113 19.0784C4.93083 18.9935 4.80365 18.8873 4.6996 18.7598C4.59554 18.6324 4.52232 18.4867 4.47896 18.3225C4.43561 18.1584 4.43079 17.9808 4.46451 17.7906C4.50112 17.584 4.54448 17.419 4.59554 17.2944C4.64564 17.1699 4.68611 17.0917 4.71598 17.0589L5.29888 17.1631L5.26997 17.3234L4.81811 17.3678C4.79017 17.419 4.76126 17.4923 4.73043 17.5869C4.70056 17.6815 4.67744 17.7704 4.66299 17.8534C4.60711 18.169 4.65335 18.4094 4.80365 18.5716C4.95396 18.7347 5.21891 18.8496 5.59948 18.9182C5.83168 18.9597 6.0369 18.9684 6.21417 18.9433C6.39242 18.9182 6.53694 18.8516 6.64966 18.7425C6.76239 18.6334 6.83754 18.4712 6.87512 18.2569C6.89246 18.1604 6.90209 18.0802 6.90402 18.0156C6.90595 17.9509 6.90209 17.893 6.89342 17.8399C6.88379 17.7868 6.86837 17.7308 6.84717 17.67L6.1159 17.5396L5.99739 17.7974L5.84131 17.7694L5.96464 17.0763L6.15637 17.11L6.14866 17.2664L7.1815 17.4508L7.15934 17.5763L7.03794 17.6439L7.02734 17.7028C7.04565 17.7491 7.06396 17.8215 7.0813 17.919C7.09864 18.0165 7.09093 18.1584 7.05817 18.3438V18.3418Z" fill="white"/>
<path d="M7.18341 17.4576L7.03118 17.4103L7.06972 17.0724L5.03776 16.4353L4.87783 16.7355L4.72656 16.6882L5.25743 14.9863L5.85671 15.1745L5.80469 15.3415L5.37112 15.2894L5.23238 15.7334L5.11869 16.165L6.01761 16.4468L6.22283 15.7894L6.02628 15.6736L6.07253 15.5259L6.67181 15.7132L6.62556 15.8609L6.40204 15.8445L6.19682 16.5019L7.12175 16.7915C7.15354 16.7432 7.18727 16.6756 7.22388 16.5897C7.26049 16.5038 7.29132 16.4208 7.31637 16.3397L7.45126 15.9062L7.08417 15.7083L7.13717 15.5375L7.72488 15.7219L7.18341 17.4576Z" fill="white"/>
<path d="M7.66571 15.8203L7.5289 15.7557L7.58189 15.494L5.64243 14.576L5.48731 14.7748L5.34375 14.7073L5.56246 14.2429L8.02605 13.8906L8.14359 13.8848L8.14841 13.8742L6.36985 13.0333L6.20413 13.237L6.06732 13.1723L6.37755 12.514L6.51437 12.5786L6.4633 12.8364L8.59739 13.8462L8.4731 14.1087L6.03745 14.4572L5.9305 14.4592L5.92569 14.4698L7.67535 15.2971L7.84492 15.0867L7.98173 15.1513L7.66668 15.8213L7.66571 15.8203Z" fill="white"/>
<path d="M8.67092 13.7236L8.53796 13.6367L8.66707 13.322L6.88561 12.1539L6.64956 12.3991L6.5166 12.3122L7.49067 10.8198L8.01576 11.1644L7.92038 11.3111L7.51765 11.1422L7.26329 11.5322L7.03591 11.9164L7.82403 12.4329L8.20075 11.8566L8.04274 11.6915L8.12752 11.5612L8.65262 11.9058L8.56783 12.0361L8.35683 11.9598L7.98011 12.5362L8.79136 13.0681C8.83568 13.0304 8.88674 12.9754 8.94455 12.902C9.00332 12.8296 9.05535 12.7572 9.10159 12.6868L9.3492 12.3074L9.05053 12.0168L9.14784 11.8672L9.6633 12.2051L8.66899 13.7274L8.67092 13.7236Z" fill="white"/>
<path d="M9.60022 12.2832L9.47882 12.1809L9.6455 11.8846L8.0182 10.5089L7.75421 10.7232L7.63281 10.6209L8.35542 9.76366C8.43924 9.66422 8.53462 9.58603 8.64253 9.52714C8.75044 9.46922 8.8622 9.44219 8.97685 9.44509C9.09151 9.44895 9.20134 9.49432 9.30732 9.5841C9.41042 9.67098 9.48557 9.7569 9.53181 9.83896C9.57806 9.92198 9.60504 10.0031 9.61178 10.0842C9.61852 10.1643 9.61467 10.2434 9.60022 10.3197C9.58577 10.396 9.56842 10.4713 9.54915 10.5446L10.6205 10.7107L10.8547 10.5495L10.9761 10.6518L10.7708 10.8951C10.7352 10.9375 10.7015 10.9646 10.6687 10.9752C10.6369 10.9868 10.5955 10.9897 10.5444 10.9848L9.42872 10.7918L9.1628 11.1084L9.8276 11.6702L10.0916 11.4559L10.213 11.5592L9.60022 12.2861V12.2832ZM9.01058 10.9781L9.19556 10.7589C9.27746 10.6614 9.33141 10.5591 9.3555 10.452C9.38055 10.3448 9.37766 10.2405 9.34779 10.1401C9.31792 10.0398 9.26011 9.95383 9.17533 9.8824C9.08476 9.80517 8.99998 9.76076 8.92194 9.74821C8.8439 9.73566 8.77356 9.74435 8.70997 9.77235C8.64638 9.80034 8.5905 9.83702 8.54137 9.8824C8.49223 9.92777 8.4508 9.97121 8.41708 10.0118C8.38432 10.0504 8.34867 10.0957 8.31013 10.1479C8.27159 10.2 8.23594 10.2492 8.20415 10.2956L9.01154 10.9781H9.01058Z" fill="white"/>
<path d="M10.5898 11.0505L10.479 10.9308L10.6187 10.7367L9.65332 8.38319L9.76412 8.28086L12.0591 9.40164L12.272 9.26939L12.3828 9.3891L11.7383 9.98665L11.6275 9.86695L11.8346 9.61016L11.3163 9.35338L10.5667 10.0475L10.8018 10.5668L11.0648 10.3882L11.1756 10.5079L10.5898 11.0514V11.0505ZM10.4819 9.84957L11.1207 9.25781L10.1418 8.77126L9.99921 8.68631L9.98475 8.69983L10.0609 8.84656L10.4829 9.84861L10.4819 9.84957Z" fill="white"/>
<path d="M12.1336 9.62464L12.0392 9.49625L12.2704 9.24719L11.0112 7.52691L10.7048 7.67365L10.6104 7.54526L11.4081 6.95928L11.5141 7.10409L11.2462 7.37053L12.4939 9.07535L12.8687 8.8398L13.2281 8.57626L13.045 8.19205L13.1896 8.08586L13.5538 8.58302L12.1346 9.62561L12.1336 9.62464Z" fill="white"/>
<path d="M12.8906 9.00585L12.8078 8.86587L12.985 8.70466L12.5303 6.20148L12.6603 6.12425L14.6721 7.69875L14.9081 7.6138L14.991 7.75378L14.2366 8.20363L14.1537 8.06366L14.409 7.8561L13.9552 7.49699L13.0775 8.02022L13.1999 8.57723L13.4937 8.45752L13.5766 8.5975L12.8906 9.00681V9.00585ZM13.0351 7.80784L13.7828 7.36184L12.9263 6.68223L12.8039 6.57024L12.7866 6.5799L12.8299 6.73918L13.0342 7.80784H13.0351Z" fill="white"/>
<path d="M15.3812 7.6611C15.2896 7.70261 15.1943 7.73447 15.095 7.75571C14.9958 7.77694 14.9043 7.78853 14.8204 7.79046C14.7366 7.79142 14.6701 7.78467 14.6191 7.77019L14.3984 7.28075L14.569 7.20352L14.7954 7.55105C14.8657 7.56553 14.9486 7.5665 15.044 7.55201C15.1393 7.5385 15.2203 7.51533 15.2887 7.4854C15.4814 7.39852 15.6028 7.29716 15.6519 7.18421C15.701 7.0703 15.6953 6.94577 15.6336 6.81062C15.5893 6.71119 15.5295 6.64361 15.4544 6.60596C15.3792 6.56831 15.2945 6.54707 15.1991 6.54225C15.1037 6.53742 15.0035 6.53839 14.8994 6.54418C14.806 6.549 14.7096 6.55094 14.6123 6.54997C14.515 6.54997 14.4206 6.53839 14.33 6.51811C14.2395 6.49784 14.1576 6.46116 14.0843 6.40903C14.0111 6.35593 13.9523 6.2816 13.909 6.1841C13.8493 6.05088 13.829 5.92345 13.8473 5.80182C13.8666 5.68018 13.9206 5.5682 14.0102 5.46587C14.0998 5.36451 14.2202 5.27956 14.3724 5.21005C14.4495 5.1753 14.5314 5.14441 14.6181 5.11641C14.7048 5.08938 14.7838 5.06814 14.8551 5.0527C14.9264 5.03725 14.9784 5.03049 15.0102 5.03049L15.2424 5.546L15.0835 5.6184L14.858 5.30079C14.8156 5.29693 14.7549 5.30272 14.6759 5.3172C14.5969 5.33265 14.515 5.35872 14.4312 5.39733C14.2722 5.46973 14.1653 5.55565 14.1113 5.65508C14.0574 5.75548 14.0583 5.86649 14.1142 5.99006C14.1633 6.09915 14.2308 6.17155 14.3175 6.20823C14.4042 6.24492 14.5015 6.26229 14.6114 6.26133C14.7212 6.2594 14.8339 6.25554 14.9505 6.24974C15.069 6.24299 15.1866 6.24395 15.3002 6.25264C15.4149 6.26229 15.519 6.29318 15.6134 6.34724C15.7068 6.40034 15.7829 6.49205 15.8407 6.62044C15.8976 6.74594 15.9236 6.86275 15.9198 6.97087C15.9159 7.07899 15.8889 7.17649 15.8388 7.2653C15.7887 7.35315 15.7232 7.43134 15.6432 7.49795C15.5633 7.56456 15.4756 7.61959 15.3812 7.66207V7.6611Z" fill="white"/>
<path d="M16.7442 7.12243C16.6488 7.15429 16.5506 7.17649 16.4494 7.18711C16.3482 7.19869 16.2567 7.20062 16.1729 7.19387C16.0891 7.18711 16.0235 7.17359 15.9754 7.15332L15.8048 6.64361L15.9821 6.58472L16.1719 6.95349C16.2403 6.97473 16.3232 6.98438 16.4195 6.97956C16.5159 6.9757 16.5987 6.96121 16.6691 6.93805C16.8695 6.87047 17.0005 6.78262 17.0602 6.6745C17.12 6.56638 17.1267 6.44185 17.0795 6.30091C17.0448 6.19761 16.9928 6.12425 16.9215 6.07888C16.8512 6.03447 16.7683 6.00454 16.6739 5.99006C16.5795 5.97558 16.4802 5.96593 16.3752 5.96207C16.2818 5.95724 16.1864 5.94952 16.0891 5.9389C15.9918 5.92828 15.8993 5.90801 15.8116 5.87905C15.7239 5.85008 15.6459 5.80471 15.5784 5.74486C15.511 5.68501 15.4599 5.60488 15.4272 5.50449C15.3809 5.36644 15.3732 5.23708 15.405 5.11738C15.4358 4.99767 15.5013 4.89245 15.6006 4.79977C15.6998 4.70806 15.8289 4.63566 15.9869 4.58257C16.0669 4.55554 16.1517 4.53333 16.2403 4.51403C16.329 4.49472 16.4099 4.48217 16.4831 4.47445C16.5563 4.46672 16.6084 4.46479 16.6402 4.46769L16.8194 5.00346L16.6537 5.05945L16.461 4.72061C16.4195 4.71192 16.3579 4.71192 16.2779 4.71868C16.1979 4.7264 16.1141 4.74378 16.0264 4.77371C15.8607 4.8297 15.7461 4.90403 15.6825 4.99767C15.6189 5.09131 15.6083 5.20329 15.6516 5.33169C15.6892 5.44463 15.749 5.52379 15.8318 5.56916C15.9137 5.61454 16.0101 5.64157 16.1189 5.65122C16.2278 5.66087 16.3405 5.6686 16.4571 5.67439C16.5756 5.67922 16.6922 5.69177 16.8049 5.713C16.9176 5.73424 17.0188 5.77575 17.1065 5.8385C17.1942 5.90125 17.2606 5.99972 17.305 6.13293C17.3483 6.26422 17.3637 6.38296 17.3483 6.49012C17.3339 6.59727 17.2973 6.69188 17.2385 6.7749C17.1797 6.85792 17.1065 6.92839 17.0198 6.98631C16.9331 7.0452 16.8406 7.09057 16.7433 7.1234L16.7442 7.12243Z" fill="white"/>
<path d="M18.5375 6.65809C18.156 6.73435 17.8447 6.67933 17.6048 6.49012C17.3649 6.30187 17.205 6.01227 17.127 5.62226C17.0778 5.37513 17.0788 5.14054 17.1299 4.91948C17.1819 4.69841 17.2869 4.50823 17.4449 4.34895C17.6039 4.18966 17.8207 4.08251 18.0953 4.02748C18.3236 3.98115 18.5288 3.99273 18.7119 4.06224C18.8949 4.13174 19.0481 4.24952 19.1724 4.41845C19.2967 4.58739 19.3844 4.79881 19.4354 5.05366C19.4721 5.23611 19.4855 5.41374 19.4759 5.58751C19.4663 5.76127 19.4277 5.92152 19.3613 6.06729C19.2948 6.21306 19.1936 6.33759 19.0597 6.44089C18.9248 6.54418 18.7514 6.61658 18.5384 6.65906L18.5375 6.65809ZM18.576 6.44282C18.76 6.40613 18.8997 6.33276 18.9942 6.22271C19.0886 6.11363 19.1445 5.97075 19.1618 5.79506C19.1792 5.61936 19.1647 5.41664 19.1185 5.18495C19.0712 4.94844 19.0115 4.76116 18.9412 4.62408C18.8708 4.487 18.7909 4.38756 18.7013 4.32578C18.6117 4.264 18.5153 4.22924 18.4132 4.22152C18.3101 4.2138 18.2022 4.22152 18.0875 4.24469C18.0047 4.2611 17.9228 4.2833 17.8419 4.31033C17.7609 4.33736 17.6867 4.37694 17.6203 4.43004C17.5538 4.48217 17.5008 4.55554 17.4613 4.64821C17.4218 4.74089 17.3996 4.86156 17.3958 5.00829C17.3919 5.15503 17.4112 5.33651 17.4545 5.55275C17.5066 5.8134 17.5836 6.01516 17.6848 6.15803C17.786 6.30091 17.9122 6.39455 18.0606 6.43799C18.2099 6.48143 18.3814 6.48336 18.576 6.44378V6.44282Z" fill="white"/>
<path d="M20.6825 6.37717C20.2836 6.4013 19.983 6.30863 19.7826 6.10011C19.5822 5.89159 19.4685 5.57689 19.4434 5.15502C19.4328 4.98029 19.4502 4.80942 19.4964 4.64338C19.5427 4.47734 19.6149 4.32674 19.7142 4.19159C19.8134 4.05644 19.9387 3.94736 20.089 3.86434C20.2393 3.78132 20.4146 3.73305 20.616 3.72146C20.7557 3.71278 20.8925 3.71471 21.0245 3.72533C21.1565 3.73594 21.2702 3.75815 21.3646 3.7929L21.4002 4.39239L21.2297 4.40301L21.1199 3.96667C21.0524 3.95218 20.9696 3.94157 20.8694 3.93577C20.7692 3.92998 20.6709 3.92998 20.5726 3.93577C20.3819 3.94736 20.2258 4.00045 20.1025 4.09602C19.9791 4.19159 19.8905 4.32578 19.8365 4.50051C19.7816 4.67524 19.7623 4.88858 19.7768 5.14054C19.7874 5.31817 19.8153 5.47359 19.8606 5.60778C19.9059 5.74196 19.9676 5.85298 20.0456 5.94179C20.1236 6.03061 20.2181 6.09432 20.3279 6.1339C20.4377 6.17348 20.564 6.18989 20.7065 6.1812C20.826 6.17444 20.9224 6.15803 20.9985 6.1339C21.0736 6.10977 21.1324 6.08274 21.1748 6.05377C21.2172 6.02481 21.2471 6.00261 21.2644 5.9891L21.3164 5.59523L21.487 5.58461L21.5216 6.16093C21.4725 6.18506 21.4137 6.21306 21.3434 6.24299C21.2731 6.27388 21.1854 6.30187 21.0794 6.32697C20.9734 6.35207 20.8414 6.36945 20.6825 6.3791V6.37717Z" fill="white"/>
<path d="M21.4629 6.31539L21.4687 6.15224L21.8001 6.10784L21.8743 3.96763L21.5467 3.90006L21.5525 3.73691L22.4977 3.76973L22.4919 3.93288L22.1604 3.97728L22.0863 6.11749L22.4138 6.18506L22.4081 6.34821L21.4629 6.31539Z" fill="white"/>
<path d="M22.0771 6.28643L22.0974 6.12425L22.3354 6.10687L23.5166 3.85468L23.6659 3.87399L24.2816 6.3569L24.5195 6.43509L24.4993 6.59727L23.6283 6.48529L23.6486 6.32311L23.9781 6.31732L23.8422 5.75451L22.8296 5.62419L22.5839 6.13873L22.8894 6.22561L22.8691 6.38779L22.0771 6.28643ZM22.9269 5.43208L23.7902 5.5431L23.5339 4.47927L23.5069 4.31516L23.4867 4.31226L23.4231 4.46479L22.9269 5.43208Z" fill="white"/>
<path d="M24.4261 6.6243L24.4647 6.46598L24.798 6.48915L25.3048 4.39239L24.7258 4.25145L24.5485 4.64628L24.3789 4.60477L24.5263 3.99369L26.4571 4.46189L26.3097 5.07297L26.1363 5.03049L26.1671 4.59994L25.5804 4.45803L25.0736 6.5548L25.3809 6.68705L25.3424 6.84537L24.4271 6.62334L24.4261 6.6243Z" fill="white"/>
<path d="M25.627 6.92839L25.679 6.77393L26.0095 6.82606L26.6868 4.79494L26.3919 4.63759L26.444 4.48313L27.341 4.78336L27.2889 4.93782L26.9585 4.88569L26.2811 6.91681L26.576 7.07416L26.5239 7.22862L25.627 6.92839Z" fill="white"/>
<path d="M27.4902 7.6891C27.1366 7.52691 26.9169 7.29909 26.8321 7.00562C26.7473 6.71215 26.7878 6.38393 26.9535 6.02192C27.0576 5.79313 27.1963 5.60392 27.3668 5.45429C27.5383 5.30562 27.7349 5.21295 27.9565 5.17723C28.1781 5.14151 28.4161 5.18205 28.6714 5.29886C28.8833 5.3954 29.0433 5.52572 29.1512 5.68887C29.2591 5.85201 29.314 6.03833 29.3159 6.24781C29.3179 6.4573 29.2649 6.68029 29.157 6.91681C29.0799 7.08574 28.9864 7.23731 28.8766 7.37246C28.7668 7.50761 28.6425 7.61476 28.5028 7.69392C28.3631 7.77308 28.2089 7.81459 28.0393 7.81845C27.8698 7.82231 27.6867 7.77984 27.4892 7.6891H27.4902ZM27.6472 7.53753C27.8177 7.61573 27.9738 7.63793 28.1145 7.60511C28.2552 7.57132 28.3833 7.48927 28.4999 7.35701C28.6165 7.22572 28.7244 7.05196 28.8217 6.83765C28.9219 6.61755 28.9835 6.4322 29.0067 6.2787C29.0298 6.12618 29.023 5.99778 28.9874 5.89546C28.9508 5.79313 28.8939 5.70818 28.8149 5.64157C28.7359 5.57496 28.6434 5.51703 28.5375 5.46877C28.4604 5.43305 28.3814 5.40312 28.2995 5.37706C28.2176 5.35196 28.1347 5.34037 28.0499 5.34423C27.9651 5.3481 27.8794 5.37609 27.7937 5.42822C27.7069 5.48035 27.6193 5.5653 27.5297 5.68115C27.4401 5.79795 27.3495 5.95627 27.258 6.1561C27.1481 6.39744 27.0922 6.60596 27.0903 6.78166C27.0884 6.95735 27.1356 7.10698 27.231 7.22862C27.3264 7.35122 27.4651 7.45355 27.6453 7.53657L27.6472 7.53753Z" fill="white"/>
<path d="M28.4658 8.06945L28.5487 7.94299L28.7992 8.0318L29.9794 6.23719L29.8041 6.05474L29.8918 5.92152L30.3195 6.20437V8.6979L30.3099 8.81471L30.3195 8.82146L31.4015 7.17649L31.2242 6.98342L31.3071 6.85695L31.9141 7.25758L31.8312 7.38404L31.5836 7.29716L30.2849 9.27132L30.043 9.11107V6.64554L30.0555 6.53935L30.0459 6.53259L28.9813 8.15054L29.1653 8.34844L29.0824 8.4749L28.4658 8.06752V8.06945Z" fill="white"/>
<path d="M7.32133 32.3473L7.1479 32.4699L6.88102 32.2141L5.00611 33.5405L5.15737 33.8774L4.98395 34L4.30374 33.0356L4.47716 32.913L4.74404 33.1688L5.55914 32.5925L5.48302 32.4844L4.24785 32.411L4.2045 32.4419L4.29892 32.6678L4.12935 32.7875L3.58691 32.0181L3.76034 31.8955L3.96748 32.0905L5.28455 32.1871L5.81927 30.7149L5.68439 30.3934L5.85781 30.2708L6.13818 30.6685C6.18058 30.7284 6.2037 30.7796 6.20852 30.822C6.21333 30.8635 6.20177 30.9176 6.17576 30.9832L5.66994 32.3425L5.75183 32.4583L6.62088 31.8434L6.46962 31.5065L6.64304 31.3839L7.32325 32.3483L7.32133 32.3473Z" fill="white"/>
<path d="M5.65512 29.6704C5.86323 30.0507 5.90947 30.4011 5.79675 30.7216C5.68306 31.0421 5.42581 31.3134 5.02308 31.5345C4.76776 31.6744 4.51148 31.7517 4.25616 31.7652C4.00084 31.7797 3.76286 31.7256 3.54223 31.604C3.32159 31.4833 3.13757 31.2864 2.9892 31.0151C2.85913 30.7767 2.79747 30.5469 2.80421 30.3249C2.81095 30.1028 2.88321 29.8963 3.02099 29.7041C3.15973 29.512 3.36206 29.3441 3.62701 29.1973C3.81778 29.0931 4.00951 29.0187 4.20028 28.9763C4.39201 28.9338 4.57603 28.928 4.75427 28.9599C4.93252 28.9917 5.09823 29.0651 5.25239 29.1809C5.40654 29.2968 5.54047 29.4589 5.65416 29.6684L5.65512 29.6704ZM5.35644 29.7321C5.27069 29.5748 5.16375 29.4657 5.03561 29.4068C4.90747 29.3479 4.75427 29.3354 4.57603 29.3711C4.39779 29.4068 4.19257 29.4879 3.95941 29.6153C3.73974 29.736 3.56921 29.8509 3.44684 29.9619C3.32448 30.0729 3.24259 30.182 3.2002 30.2882C3.1578 30.3944 3.14528 30.5015 3.16069 30.6077C3.17611 30.7129 3.21465 30.822 3.27535 30.933C3.3187 31.0132 3.3688 31.0856 3.42468 31.1512C3.48057 31.2169 3.54512 31.269 3.61931 31.3095C3.69349 31.3501 3.78117 31.3713 3.8833 31.3742C3.98542 31.3771 4.10489 31.3568 4.24267 31.3134C4.38045 31.27 4.53942 31.1985 4.71959 31.1001C4.9778 30.9581 5.16857 30.8153 5.29285 30.6705C5.41714 30.5257 5.48169 30.376 5.48747 30.2206C5.49326 30.0662 5.4499 29.903 5.35644 29.7321Z" fill="white"/>
<path d="M5.13233 28.8768L4.93964 28.955L4.73442 28.6471L2.60804 29.512L2.67452 29.876L2.48279 29.9542L2.01454 28.7986C1.94613 28.6297 1.9076 28.4694 1.89892 28.3189C1.89025 28.1683 1.92012 28.0341 1.98853 27.9173C2.05693 27.8005 2.17448 27.7078 2.34116 27.6402C2.4587 27.5929 2.56468 27.5668 2.66007 27.563C2.75545 27.5591 2.84409 27.5717 2.92502 27.6006C3.00692 27.6296 3.08207 27.6692 3.1524 27.7203C3.22273 27.7715 3.28921 27.8304 3.35473 27.896L4.05132 26.9683L4.00892 26.6517L4.20162 26.5735L4.37601 27.004C4.40298 27.0697 4.41262 27.1247 4.40684 27.1681C4.40106 27.2116 4.37793 27.2599 4.33843 27.31L3.5927 28.2436L3.72374 28.567L4.56581 28.2242L4.49933 27.8603L4.69202 27.7821L5.13522 28.8759L5.13233 28.8768ZM3.46745 28.6712L3.37978 28.454C3.32968 28.3314 3.26416 28.2339 3.18323 28.1615C3.10134 28.0891 3.00788 28.0447 2.90286 28.0273C2.79784 28.0099 2.68897 28.0235 2.57721 28.0688C2.47315 28.1113 2.39704 28.1605 2.34694 28.2175C2.29684 28.2744 2.26601 28.3343 2.25348 28.399C2.24096 28.4627 2.24096 28.5293 2.25348 28.5969C2.26504 28.6654 2.28431 28.732 2.31129 28.7977C2.33152 28.8469 2.35368 28.8971 2.3797 28.9492C2.40571 29.0004 2.42883 29.0458 2.45099 29.0844L3.46938 28.6702L3.46745 28.6712Z" fill="white"/>
<path d="M4.40593 27.1237L4.20649 27.1826L4.0321 26.8554L1.82961 27.5031L1.85947 27.8729L1.66003 27.9317L1.07617 25.9412L1.8007 25.7278L1.86814 25.9566L1.43362 26.1864L1.58874 26.7173L1.71303 27.0629L2.6447 26.7888L2.46935 26.1902L2.18994 26.1941L2.13406 26.003L2.92122 25.7713L2.9771 25.9624L2.72274 26.1159L2.89809 26.7144L3.86831 26.4287C3.86831 26.3737 3.85964 26.308 3.84422 26.2308C3.82977 26.1536 3.81146 26.0802 3.79123 26.0097L3.64093 25.4961L3.13896 25.5425L3.07152 25.3137L3.80857 25.0965L4.40303 27.1247L4.40593 27.1237Z" fill="white"/>
<path d="M3.94687 25.7404L3.73876 25.78L3.63663 25.5251L0.888811 25.0743L0.827148 24.7441L3.20885 23.2884L3.21559 22.9901L3.4237 22.9505L3.6347 24.0761L3.42659 24.1157L3.30134 23.7614L2.80034 24.0587L2.99303 25.0888L3.56533 25.1698L3.55377 24.7982L3.76188 24.7586L3.9459 25.7413L3.94687 25.7404ZM2.69821 25.0444L2.54213 24.2103L1.58636 24.7683L1.41679 24.8455L1.42257 24.8754L1.60756 24.8812L2.69821 25.0453V25.0444Z" fill="white"/>
<path d="M3.52707 23.604L3.31993 23.6214L3.21587 23.2662L0.928593 23.4544L0.88331 23.8222L0.677128 23.8396L0.581744 22.6802C0.55573 22.3597 0.59716 22.1097 0.706032 21.9291C0.814904 21.7486 0.982548 21.6492 1.20896 21.6308C1.34385 21.6192 1.47006 21.6492 1.58568 21.7196C1.70226 21.7901 1.79764 21.9031 1.87279 22.0604C1.89206 21.9378 1.93157 21.8268 1.9913 21.7293C2.05104 21.6308 2.12715 21.5526 2.21772 21.4938C2.30925 21.4339 2.41137 21.4001 2.52603 21.3905C2.78135 21.3692 2.98753 21.4387 3.14554 21.599C3.30355 21.7592 3.39508 22.0006 3.42205 22.324L3.52707 23.6069V23.604ZM1.87665 22.9186L1.85738 22.685C1.84004 22.4736 1.77934 22.3211 1.67625 22.2274C1.57316 22.1338 1.43152 22.0942 1.25232 22.1097C0.959424 22.1338 0.827429 22.3326 0.85826 22.7053C0.862114 22.7497 0.866931 22.7989 0.874639 22.853C0.882347 22.907 0.891982 22.9563 0.904507 22.9997L1.87665 22.9196V22.9186ZM3.16192 22.489C3.14458 22.2776 3.08773 22.1212 2.99042 22.0199C2.89311 21.9185 2.75533 21.8751 2.57709 21.8895C2.40078 21.904 2.27649 21.9668 2.20326 22.0778C2.13004 22.1888 2.10306 22.3664 2.1233 22.6107L2.14642 22.8974L3.17155 22.8134C3.17444 22.7777 3.17541 22.7284 3.17252 22.6667C3.17059 22.6049 3.16673 22.546 3.16288 22.49L3.16192 22.489Z" fill="white"/>
<path d="M3.35958 21.7496L3.15243 21.7467L3.08306 21.3827L0.788078 21.3451L0.707146 21.7061L0.5 21.7023L0.533721 19.6287L1.28812 19.6412L1.28426 19.8797L0.801566 19.9694L0.792895 20.5226L0.809274 20.8904L1.78045 20.9058L1.79009 20.2822L1.52224 20.2031L1.52513 20.0042L2.34601 20.0177L2.34216 20.2166L2.05408 20.2871L2.04348 20.9107L3.05416 20.9271C3.06958 20.874 3.0821 20.8093 3.09077 20.7311C3.09944 20.6529 3.10426 20.5776 3.10522 20.5033L3.11389 19.9685L2.62156 19.8633L2.62542 19.6248L3.3933 19.6374L3.35862 21.7515L3.35958 21.7496Z" fill="white"/>
<path d="M3.33217 20.2899L3.12213 20.2658L3.10094 19.9917L0.611328 18.7425L0.649867 18.4085L3.35529 17.7279L3.45068 17.445L3.66071 17.4701L3.52775 18.6083L3.31772 18.5842L3.30326 18.2086L2.73674 18.3428L2.61535 19.3835L3.13755 19.6316L3.23678 19.2734L3.44682 19.2976L3.3312 20.2899H3.33217ZM2.34654 19.2532L2.44481 18.4094L1.36669 18.6575L1.1817 18.6807L1.17785 18.7116L1.3532 18.7724L2.34557 19.2541L2.34654 19.2532Z" fill="white"/>
<path d="M3.90021 16.9392C3.83565 17.2182 3.74124 17.4228 3.61502 17.5541C3.48977 17.6854 3.32694 17.7588 3.12654 17.7742C2.92614 17.7897 2.68334 17.7646 2.39623 17.698L1.08013 17.3929L0.930792 17.7259L0.724609 17.6777L0.9886 16.5357L1.19478 16.5839L1.18418 16.945L2.50029 17.25C2.75271 17.3089 2.95215 17.334 3.0986 17.3253C3.24505 17.3166 3.35681 17.2664 3.43292 17.1738C3.50904 17.0811 3.56877 16.9392 3.61213 16.75C3.65163 16.5772 3.65067 16.4372 3.60731 16.3291C3.56396 16.221 3.47724 16.1321 3.34525 16.0617C3.21325 15.9922 3.03694 15.9313 2.8163 15.8802L1.50502 15.5761L1.35568 15.9091L1.14468 15.8599L1.3817 14.8347L1.5927 14.883L1.58113 15.2479L2.89242 15.552C3.10149 15.6002 3.28166 15.6601 3.431 15.7296C3.5813 15.7991 3.69981 15.8869 3.78748 15.9912C3.87516 16.0964 3.92815 16.2258 3.94742 16.3802C3.96572 16.5347 3.95031 16.721 3.90021 16.9392Z" fill="white"/>
<path d="M4.19216 15.5713L3.99175 15.5008L4.04282 15.1388L1.87212 14.3781L1.67653 14.937L2.09275 15.1909L2.01375 15.4168L1.30078 15.1668L2.06385 12.9793L2.77585 13.2293L2.69589 13.4591L2.21511 13.3895L2.01953 13.9485L4.19023 14.7092L4.37522 14.3945L4.57562 14.465L4.18927 15.5713H4.19216Z" fill="white"/>
<path d="M4.77862 13.9697L4.58593 13.8809L4.67264 13.5218L3.97894 13.2023L2.20616 13.3596L2.03466 13.5633L1.85449 13.4803L2.32081 12.4638L2.50098 12.5468L2.42679 12.8779L2.4952 12.9088L3.82383 12.819L3.83539 12.7949L3.02029 11.734L2.96441 11.7079L2.75245 12.0004L2.57228 11.9174L2.9779 11.0331L3.15807 11.1161L3.11953 11.371L4.15719 12.7833L4.86341 13.1086L5.07634 12.8123L5.26903 12.9011L4.77862 13.9697Z" fill="white"/>
<path d="M5.98446 11.7378C5.76671 12.1056 5.49983 12.3248 5.18574 12.3962C4.87069 12.4676 4.50264 12.3779 4.08064 12.1259C3.88602 12.0101 3.72512 11.8739 3.59891 11.7175C3.47269 11.5612 3.38213 11.3942 3.3301 11.2146C3.27711 11.035 3.26458 10.8497 3.29349 10.6576C3.32239 10.4655 3.39272 10.2743 3.50545 10.0842C3.61625 9.89688 3.72223 9.75014 3.8205 9.64395C3.91974 9.53776 3.99586 9.46536 4.04981 9.42578L4.6645 9.79165L4.53829 10.005L4.07004 9.86019C4.01802 9.9017 3.96213 9.95673 3.9024 10.0253C3.84266 10.0938 3.78967 10.1672 3.74535 10.2425C3.57578 10.5292 3.53628 10.7811 3.62781 10.9984C3.71934 11.2156 3.94479 11.4318 4.30417 11.6461C4.54214 11.788 4.75218 11.8797 4.93428 11.9212C5.11637 11.9627 5.27727 11.9521 5.41697 11.8875C5.55668 11.8228 5.67807 11.7031 5.78213 11.5283C5.82549 11.455 5.85921 11.3913 5.88329 11.3362C5.90738 11.2822 5.92376 11.231 5.93339 11.1837C5.94303 11.1364 5.94977 11.0862 5.95363 11.0331L5.25222 10.6151L5.01713 10.8555L4.83889 10.7493L5.33508 9.91329L5.53259 10.0311L5.47478 10.2232L6.46812 10.8159L6.37755 10.9684L6.22725 10.9868L6.19835 11.036C6.19931 11.1084 6.18968 11.202 6.16848 11.316C6.14728 11.4299 6.08659 11.5708 5.98735 11.7378H5.98446Z" fill="white"/>
<path d="M6.30475 11.0621L6.13807 10.9375L6.29415 10.6016L4.45296 9.22885L4.17645 9.47501L4.00977 9.35048L5.2459 7.6862L5.85192 8.13799L5.70933 8.32913L5.26517 8.11965L4.93566 8.56275L4.7343 8.8707L5.51278 9.45185L5.88468 8.95179L5.71318 8.73072L5.83169 8.57144L6.4907 9.0628L6.3722 9.22209L6.09761 9.11107L5.72571 9.61113L6.53695 10.2154C6.5803 10.1817 6.62848 10.1353 6.68051 10.0774C6.73253 10.0195 6.78071 9.96059 6.82503 9.9017L7.14393 9.47212L6.80576 9.09852L6.94835 8.90738L7.56401 9.36689L6.30379 11.063L6.30475 11.0621Z" fill="white"/>
<path d="M7.2893 9.66712L7.14093 9.52811L7.2999 9.24719L5.61575 7.67172L5.38067 7.83294L5.22266 7.68524L5.7227 7.1485L8.1333 7.58194L8.29709 7.63311L8.30961 7.62056L6.8962 6.29898L6.62162 6.48336L6.47324 6.34435L7.12647 5.64253L7.27485 5.78154L7.11588 6.06246L9.00331 7.82811L8.71716 8.13509L6.2343 7.6891L6.08882 7.64372L6.07725 7.65627L7.52246 9.00778L7.79705 8.8234L7.94542 8.96241L7.2893 9.66712Z" fill="white"/>
<path d="M8.91029 7.92175L8.77541 7.76343L9.00182 7.47093L7.51037 5.72266L7.18664 5.90125L7.05176 5.74293L8.62511 4.39529L9.11551 4.97064L8.93438 5.12606L8.54803 4.82294L8.12892 5.18206L7.86493 5.43691L8.496 6.17638L8.96906 5.77093L8.85152 5.51704L9.00279 5.38768L9.53655 6.01323L9.38528 6.14259L9.14153 5.97269L8.66846 6.37814L9.32555 7.14753C9.37565 7.12436 9.43249 7.08961 9.49608 7.0452C9.55967 6.99983 9.62037 6.95349 9.67625 6.90522L10.0819 6.55769L9.83426 6.11749L10.0154 5.96207L10.5145 6.54708L8.91126 7.92078L8.91029 7.92175Z" fill="white"/>
<path d="M10.1956 6.78938L10.0771 6.61851L10.3314 6.35014L9.02209 4.46093L8.68198 4.60573L8.56348 4.43487L9.58572 3.7234C9.73602 3.61914 9.88247 3.54577 10.028 3.50426C10.1725 3.46275 10.3102 3.46275 10.4384 3.50426C10.5675 3.54577 10.6831 3.64037 10.7852 3.78807C10.8575 3.89233 10.9057 3.9908 10.9307 4.08251C10.9558 4.17518 10.9625 4.264 10.9529 4.34991C10.9423 4.43583 10.9201 4.51885 10.8864 4.59801C10.8517 4.67717 10.8093 4.75633 10.7602 4.83453L11.8162 5.31141L12.1148 5.2004L12.2333 5.37127L11.8528 5.63674C11.795 5.67729 11.7439 5.69949 11.6996 5.70238C11.6553 5.70625 11.6042 5.69466 11.5454 5.66667L10.4721 5.14248L10.186 5.34134L10.7043 6.08949L11.0444 5.94469L11.1629 6.11556L10.1946 6.78938H10.1956ZM10.0299 5.11641L10.2216 4.98319C10.3305 4.90789 10.4104 4.82198 10.4625 4.7264C10.5145 4.63083 10.5376 4.52947 10.5318 4.42232C10.5261 4.31516 10.4885 4.21187 10.4191 4.11244C10.3555 4.02073 10.29 3.95605 10.2235 3.91936C10.1571 3.88268 10.0915 3.86627 10.027 3.8682C9.96244 3.87013 9.89788 3.88461 9.83333 3.91068C9.76878 3.93771 9.70808 3.97053 9.65027 4.01107C9.60691 4.041 9.56259 4.07479 9.51828 4.11147C9.47396 4.14815 9.43445 4.18098 9.4017 4.2109L10.0289 5.11545L10.0299 5.11641Z" fill="white"/>
<path d="M11.5084 5.81533L11.4063 5.62902L11.6173 5.45236L11.1924 2.69529L11.4862 2.53407L13.6059 4.35088L13.8911 4.26496L13.9932 4.45128L12.9902 5.00153L12.8881 4.81522L13.1858 4.58643L12.7484 4.20125L11.8312 4.70517L11.9314 5.2757L12.2801 5.1502L12.3823 5.33651L11.5074 5.8163L11.5084 5.81533ZM11.782 4.40977L12.5249 4.00238L11.6992 3.26581L11.5739 3.12777L11.5469 3.14225L11.599 3.31987L11.782 4.40977Z" fill="white"/>
<path d="M13.4143 4.76019L13.3324 4.56905L13.635 4.35667L12.7274 2.24446L12.3651 2.3188L12.2832 2.12765L13.3864 1.6527L13.4731 1.85542L13.1484 2.07263L14.0435 4.15684L14.3961 4.0381L14.8586 3.83924L14.7632 3.36042L14.9857 3.26388L15.2825 3.95412L13.4134 4.76019H13.4143Z" fill="white"/>
<path d="M14.5226 4.22442L14.458 4.02266L14.6979 3.88944L14.7981 1.10148L15.117 0.998182L16.858 3.18183L17.1538 3.15094L17.2184 3.3527L16.1306 3.70409L16.066 3.50233L16.4013 3.33339L16.0439 2.87291L15.0486 3.19438L15.0399 3.77359L15.4061 3.71567L15.4706 3.91743L14.5216 4.22442H14.5226ZM15.0544 2.89608L15.8608 2.63543L15.1883 1.75599L15.091 1.59671L15.0621 1.60636L15.0794 1.79074L15.0544 2.89512V2.89608Z" fill="white"/>
<path d="M17.4747 3.40579C17.3427 3.43475 17.2155 3.4502 17.0941 3.45213C16.9727 3.45309 16.8668 3.44537 16.7772 3.42799C16.6876 3.41062 16.6191 3.39131 16.5729 3.372L16.4255 2.70687L16.6712 2.65184L16.8513 3.07853C16.9198 3.11522 17.0065 3.13742 17.1105 3.14804C17.2146 3.15769 17.3138 3.15287 17.4053 3.13259C17.6125 3.08626 17.7551 3.01289 17.8341 2.91249C17.9131 2.81209 17.9362 2.68949 17.9044 2.54566C17.8832 2.44815 17.8399 2.37286 17.7753 2.32073C17.7108 2.2686 17.6298 2.22805 17.5316 2.20006C17.4333 2.17206 17.3186 2.14696 17.1876 2.12476C17.0806 2.10642 16.9718 2.08518 16.8619 2.06104C16.7511 2.03691 16.6471 2.00409 16.5498 1.96065C16.4525 1.91721 16.3696 1.85639 16.3012 1.77819C16.2328 1.7 16.1846 1.59767 16.1567 1.47024C16.121 1.30903 16.1287 1.16133 16.1808 1.02811C16.2328 0.894889 16.3214 0.780011 16.4486 0.685406C16.5758 0.5908 16.7348 0.52226 16.9275 0.479784C17.0248 0.45758 17.1259 0.441169 17.231 0.43055C17.335 0.419931 17.4304 0.413174 17.5161 0.412209C17.6019 0.412209 17.6664 0.413174 17.7098 0.418966L17.862 1.10534L17.625 1.15843L17.4429 0.746223C17.389 0.734639 17.3225 0.727881 17.2425 0.727881C17.1625 0.727881 17.0749 0.737535 16.9804 0.758773C16.7993 0.799318 16.6721 0.862067 16.5999 0.947984C16.5267 1.0339 16.5045 1.14106 16.5334 1.27041C16.5584 1.3824 16.6076 1.46445 16.6808 1.51658C16.754 1.56871 16.8436 1.60539 16.9496 1.62663C17.0556 1.64787 17.1674 1.66911 17.2868 1.68745C17.44 1.71062 17.5845 1.74248 17.7214 1.78109C17.8582 1.8197 17.9748 1.88149 18.0721 1.96547C18.1684 2.04946 18.2359 2.17399 18.2725 2.3381C18.3071 2.49642 18.3081 2.6364 18.2754 2.759C18.2426 2.88064 18.1858 2.98489 18.1048 3.07081C18.0249 3.15673 17.9295 3.2272 17.8196 3.28416C17.7098 3.34015 17.5961 3.38166 17.4786 3.40772L17.4747 3.40579Z" fill="white"/>
<path d="M18.9228 3.14225C18.7889 3.16059 18.6608 3.16542 18.5394 3.15769C18.418 3.14997 18.313 3.13259 18.2253 3.10749C18.1376 3.08239 18.0711 3.05826 18.0258 3.03413L17.9333 2.35934L18.1829 2.32459L18.3284 2.76479C18.3939 2.8063 18.4777 2.83623 18.5818 2.85457C18.6849 2.87291 18.7831 2.87581 18.8766 2.86326C19.0866 2.8343 19.235 2.77251 19.3217 2.67887C19.4084 2.58523 19.4412 2.46553 19.4219 2.31879C19.4084 2.21936 19.3718 2.14117 19.3121 2.08421C19.2523 2.02726 19.1743 1.97995 19.0789 1.94423C18.9835 1.90852 18.8708 1.87376 18.7417 1.84094C18.6367 1.81391 18.5307 1.78398 18.4218 1.75116C18.313 1.71834 18.2128 1.67683 18.1193 1.62567C18.0258 1.5745 17.9488 1.50693 17.8861 1.42391C17.8245 1.33992 17.784 1.23373 17.7667 1.10534C17.7445 0.94219 17.7638 0.795456 17.8264 0.666097C17.889 0.536739 17.9873 0.430549 18.1212 0.346563C18.2551 0.262577 18.4199 0.207551 18.6155 0.180521C18.7147 0.167006 18.8168 0.158318 18.9219 0.156387C19.0269 0.153491 19.1223 0.156387 19.208 0.161214C19.2938 0.167006 19.3574 0.174729 19.4007 0.183417L19.4961 0.880407L19.2552 0.91323L19.1078 0.487506C19.0548 0.471095 18.9883 0.45951 18.9093 0.452753C18.8294 0.445995 18.7417 0.448891 18.6454 0.462406C18.4613 0.487506 18.3303 0.5406 18.2503 0.61976C18.1704 0.69892 18.1395 0.805109 18.1578 0.936398C18.1733 1.05031 18.2156 1.13623 18.284 1.19318C18.3525 1.25014 18.4392 1.29455 18.5432 1.32447C18.6473 1.3544 18.7571 1.38433 18.8737 1.41232C19.024 1.44804 19.1656 1.49148 19.2995 1.54071C19.4325 1.59091 19.5443 1.66138 19.6339 1.75309C19.7235 1.8448 19.7803 1.97416 19.8025 2.1402C19.8246 2.30142 19.814 2.44043 19.7707 2.56013C19.7273 2.67984 19.6628 2.77831 19.5751 2.85747C19.4874 2.93663 19.3872 2.99937 19.2735 3.04668C19.1598 3.09398 19.0433 3.12584 18.9238 3.14225H18.9228Z" fill="white"/>
<path d="M20.7796 2.99262C20.347 3.00806 20.0137 2.89222 19.7786 2.64702C19.5435 2.40182 19.4183 2.04849 19.4019 1.58898C19.3913 1.29744 19.4375 1.0339 19.5396 0.798353C19.6418 0.562805 19.7969 0.37456 20.004 0.230721C20.2112 0.0878477 20.4694 0.0106189 20.7777 -9.17353e-08C21.0484 -0.0096537 21.2806 0.0386143 21.4762 0.143839C21.6718 0.249063 21.8231 0.407382 21.9319 0.616865C22.0408 0.826348 22.1006 1.0841 22.1112 1.38722C22.1189 1.60539 22.0986 1.81005 22.0505 2.00023C22.0023 2.1904 21.9242 2.35838 21.8163 2.50415C21.7084 2.64895 21.5678 2.76479 21.3953 2.85071C21.2228 2.93663 21.0176 2.98296 20.7796 2.99165V2.99262ZM20.8577 2.69722C21.0369 2.69143 21.1824 2.64412 21.2922 2.55627C21.402 2.46843 21.482 2.33617 21.5302 2.16048C21.5784 1.98478 21.5986 1.76468 21.589 1.4992C21.5803 1.24918 21.5543 1.04355 21.5099 0.88427C21.4656 0.724986 21.4059 0.602385 21.3298 0.516468C21.2537 0.430551 21.1641 0.370698 21.0629 0.337876C20.9617 0.305054 20.848 0.289608 20.7218 0.294435C20.6303 0.297331 20.5436 0.309881 20.4607 0.330153C20.3779 0.350426 20.3018 0.385179 20.2324 0.433447C20.163 0.481715 20.1042 0.551221 20.0561 0.640999C20.0079 0.730778 19.9722 0.847586 19.9491 0.989494C19.926 1.1314 19.9183 1.30613 19.925 1.51272C19.9356 1.80715 19.9771 2.0427 20.0513 2.2184C20.1254 2.39409 20.2295 2.51959 20.3644 2.59489C20.4993 2.67019 20.664 2.70397 20.8586 2.69722H20.8577Z" fill="white"/>
<path d="M22.9985 3.03992C22.5553 3.00517 22.2373 2.85457 22.0446 2.58717C21.852 2.32073 21.7739 1.95389 21.8105 1.48666C21.8269 1.28103 21.8741 1.08893 21.9531 0.910335C22.0321 0.731743 22.1391 0.57632 22.273 0.445031C22.4069 0.313742 22.563 0.215276 22.7412 0.149631C22.9195 0.0839865 23.118 0.0598524 23.3376 0.0772289C23.5053 0.090744 23.6633 0.113913 23.8126 0.1477C23.962 0.181488 24.0853 0.220102 24.1816 0.263544L24.1248 0.986599L23.8695 0.966326L23.8145 0.48268C23.7461 0.456616 23.6642 0.432482 23.5698 0.410278C23.4754 0.388075 23.38 0.373595 23.2837 0.365872C23.0871 0.350426 22.9233 0.381318 22.7913 0.460477C22.6593 0.538671 22.5563 0.666099 22.4801 0.841795C22.404 1.01749 22.3559 1.24628 22.3327 1.52913C22.3163 1.74055 22.3212 1.92203 22.3472 2.07359C22.3732 2.22516 22.4194 2.34969 22.484 2.44815C22.5485 2.54662 22.6324 2.62095 22.7345 2.67212C22.8366 2.72328 22.9571 2.75417 23.0948 2.76479C23.1941 2.77252 23.2817 2.77155 23.3559 2.76093C23.4301 2.75031 23.4927 2.73583 23.5428 2.71556C23.5929 2.69529 23.6334 2.67984 23.6642 2.66729L23.7943 2.19813L24.0448 2.2184L23.9889 2.92794C23.9311 2.94725 23.8589 2.96752 23.7712 2.99069C23.6835 3.01386 23.5766 3.03123 23.4504 3.04282C23.3241 3.05537 23.1729 3.0544 22.9966 3.03992H22.9985Z" fill="white"/>
<path d="M23.6084 3.03606L23.6412 2.82658L24.0053 2.81113L24.3551 0.538671L24.0121 0.41414L24.0439 0.204657L25.2039 0.384214L25.1721 0.593697L24.8079 0.609143L24.4582 2.8816L24.8012 3.00613L24.7684 3.21562L23.6084 3.03606Z" fill="white"/>
<path d="M24.1543 3.06405L24.2025 2.85747L24.4771 2.86712L25.9945 0.529016L26.3211 0.60528L26.6921 3.37586L26.9618 3.50233L26.9137 3.70891L25.7999 3.44923L25.8481 3.24265L26.2219 3.27064L26.1525 2.69142L25.1341 2.45395L24.8297 2.94628L25.1736 3.08529L25.1255 3.29188L24.1543 3.06502V3.06405ZM25.2931 2.19909L26.1188 2.39216L25.9936 1.29165L25.9916 1.10534L25.9618 1.09858L25.8818 1.26655L25.2931 2.20102V2.19909Z" fill="white"/>
<path d="M26.5859 3.65582L26.6524 3.45406L27.0137 3.5004L27.7402 1.31482L27.1794 1.12754L26.9328 1.54844L26.7064 1.47314L26.9453 0.755877L29.1391 1.48859L28.9002 2.20585L28.6699 2.12862L28.7325 1.64594L28.1718 1.45866L27.4453 3.64424L27.7623 3.82476L27.6949 4.02652L26.585 3.65582H26.5859Z" fill="white"/>
<path d="M27.7227 4.03617L27.8026 3.8402L28.1601 3.91068L29.0311 1.78302L28.7266 1.58223L28.8066 1.38529L29.8934 1.83129L29.8134 2.02822L29.4559 1.95775L28.585 4.08541L28.8894 4.28717L28.8095 4.4841L27.7227 4.0381V4.03617Z" fill="white"/>
<path d="M29.6059 4.9494C29.2215 4.7515 28.9854 4.48796 28.8997 4.15877C28.8139 3.82958 28.8756 3.45985 29.0856 3.0515C29.2186 2.79182 29.3872 2.58427 29.5905 2.42885C29.7938 2.27342 30.0212 2.18364 30.2717 2.16048C30.5222 2.13634 30.7842 2.19523 31.0598 2.33714C31.3007 2.4607 31.4808 2.61709 31.5993 2.80341C31.7188 2.99069 31.7747 3.2021 31.767 3.43861C31.7602 3.67513 31.687 3.92902 31.5483 4.19932C31.449 4.39336 31.3315 4.56229 31.1976 4.70517C31.0627 4.84804 30.9133 4.95616 30.7476 5.03049C30.5819 5.10483 30.4037 5.13668 30.2119 5.12703C30.0202 5.11738 29.8179 5.05849 29.6059 4.9494ZM29.8169 4.73027C29.9769 4.81232 30.1262 4.84225 30.2649 4.81908C30.4037 4.79591 30.5376 4.71965 30.6648 4.59029C30.7929 4.45996 30.9172 4.27751 31.0376 4.041C31.1523 3.818 31.2284 3.62686 31.2679 3.46564C31.3074 3.30539 31.3141 3.16831 31.2891 3.05633C31.264 2.94435 31.2149 2.84878 31.1436 2.76962C31.0714 2.69142 30.9789 2.62288 30.8661 2.56496C30.7852 2.52345 30.7033 2.49063 30.6204 2.46843C30.5376 2.44622 30.4547 2.4385 30.3709 2.44719C30.2871 2.45588 30.2023 2.48677 30.1166 2.54276C30.0308 2.59778 29.9422 2.68177 29.8535 2.79472C29.7639 2.90767 29.6724 3.05633 29.578 3.23975C29.4431 3.50233 29.366 3.72822 29.3448 3.91743C29.3236 4.10664 29.3535 4.26786 29.4354 4.39915C29.5173 4.53044 29.6445 4.64049 29.8169 4.7293V4.73027Z" fill="white"/>
<path d="M30.4863 5.29404L30.601 5.12606L30.9016 5.24191L32.2071 3.33918L32.0134 3.13066L32.1358 2.95207L32.7399 3.36814L32.6696 5.82016L32.6435 5.99006L32.658 5.99972L33.7535 4.40397L33.5309 4.15877L33.6455 3.9908L34.4346 4.5343L34.32 4.70227L34.0194 4.58643L32.5568 6.71794L32.2109 6.4795L32.2842 3.95315L32.3073 3.80255L32.2928 3.7929L31.1723 5.42533L31.3949 5.67053L31.2802 5.8385L30.4873 5.29211L30.4863 5.29404Z" fill="white"/>
</g>
<defs>
<linearGradient id="paint0_linear_160_2540" x1="21.5842" y1="28.8247" x2="29.6745" y2="21.8589" gradientUnits="userSpaceOnUse">
<stop stop-color="#2E9BBE"/>
<stop offset="0.11" stop-color="#3993B9"/>
<stop offset="0.29" stop-color="#567FAC"/>
<stop offset="0.54" stop-color="#865F97"/>
<stop offset="0.55" stop-color="#895E96"/>
<stop offset="0.78" stop-color="#B7427E"/>
<stop offset="1" stop-color="#E62766"/>
</linearGradient>
<linearGradient id="paint1_linear_160_2540" x1="29.7637" y1="25.6043" x2="15.8011" y2="25.6043" gradientUnits="userSpaceOnUse">
<stop stop-color="#D92474"/>
<stop offset="0.07" stop-color="#C73175"/>
<stop offset="0.3" stop-color="#905F7B"/>
<stop offset="0.52" stop-color="#648280"/>
<stop offset="0.72" stop-color="#459C83"/>
<stop offset="0.89" stop-color="#31AC85"/>
<stop offset="1" stop-color="#2BB286"/>
</linearGradient>
<linearGradient id="paint2_linear_160_2540" x1="11.6971" y1="19.7995" x2="15.5052" y2="23.4595" gradientUnits="userSpaceOnUse">
<stop stop-color="#2E9BBE"/>
<stop offset="1" stop-color="#2BB286"/>
</linearGradient>
<radialGradient id="paint3_radial_160_2540" cx="0" cy="0" r="1" gradientUnits="userSpaceOnUse" gradientTransform="translate(21.7657 19.0832) scale(12.6465 12.6713)">
<stop stop-color="#F5DE48"/>
<stop offset="0.35" stop-color="#F4DB48"/>
<stop offset="0.5" stop-color="#F4D449"/>
<stop offset="0.61" stop-color="#F3C84B"/>
<stop offset="0.7" stop-color="#F1B64E"/>
<stop offset="0.78" stop-color="#EF9F52"/>
<stop offset="0.85" stop-color="#ED8356"/>
<stop offset="0.91" stop-color="#EA615C"/>
<stop offset="0.97" stop-color="#E73B62"/>
<stop offset="1" stop-color="#E62766"/>
</radialGradient>
<clipPath id="clip0_160_2540">
<rect width="164" height="34" fill="white" transform="translate(0.5)"/>
</clipPath>
</defs>
</svg>
