<svg width="19" height="15" viewBox="0 0 19 15" fill="none" xmlns="http://www.w3.org/2000/svg">
<g clip-path="url(#clip0_1025_1001)">
<path d="M9.50295 12.0833C9.16958 12.0833 8.89844 11.8026 8.89844 11.4576V0.625671C8.89844 0.280632 9.16958 0 9.50295 0C9.83633 0 10.1075 0.280632 10.1075 0.625671V11.4576C10.1075 11.8026 9.83633 12.0833 9.50295 12.0833Z" fill="url(#paint0_linear_1025_1001)"/>
<path d="M9.50059 12.1961C9.32279 12.1961 9.14722 12.1156 9.0272 11.9614C8.81829 11.6923 8.86051 11.2967 9.12277 11.0804L13.4833 7.46904C13.7433 7.25281 14.1256 7.29652 14.3345 7.56565C14.5434 7.83708 14.5012 8.23042 14.2389 8.44665L9.87841 12.0581C9.76729 12.1501 9.63394 12.1961 9.50059 12.1961Z" fill="url(#paint1_linear_1025_1001)"/>
<path d="M9.50009 12.1961C9.36674 12.1961 9.2334 12.1501 9.12227 12.058L4.76176 8.44664C4.50173 8.23041 4.4595 7.83707 4.66619 7.56564C4.87511 7.29651 5.25738 7.2505 5.51741 7.46903L9.87792 11.0804C10.1379 11.2967 10.1824 11.69 9.97126 11.9614C9.85125 12.1156 9.67567 12.1961 9.49787 12.1961H9.50009Z" fill="url(#paint2_linear_1025_1001)"/>
<path d="M18.3955 15H0.604515C0.271143 15 0 14.7194 0 14.3744V8.5639C0 8.21886 0.271143 7.93823 0.604515 7.93823C0.937887 7.93823 1.20903 8.21886 1.20903 8.5639V13.7487H17.7887V8.5639C17.7887 8.21886 18.0599 7.93823 18.3933 7.93823C18.7266 7.93823 18.9978 8.21886 18.9978 8.5639V14.3744C18.9978 14.7194 18.7266 15 18.3933 15H18.3955Z" fill="url(#paint3_linear_1025_1001)"/>
</g>
<defs>
<linearGradient id="paint0_linear_1025_1001" x1="1.03974" y1="-3.81153" x2="17.6611" y2="14.255" gradientUnits="userSpaceOnUse">
<stop stop-color="#798495"/>
<stop offset="1" stop-color="#686F71"/>
</linearGradient>
<linearGradient id="paint1_linear_1025_1001" x1="0.468421" y1="-3.28928" x2="17.0898" y2="14.7772" gradientUnits="userSpaceOnUse">
<stop stop-color="#798495"/>
<stop offset="1" stop-color="#686F71"/>
</linearGradient>
<linearGradient id="paint2_linear_1025_1001" x1="-1.96569" y1="-1.04654" x2="14.6556" y2="17.0177" gradientUnits="userSpaceOnUse">
<stop stop-color="#798495"/>
<stop offset="1" stop-color="#686F71"/>
</linearGradient>
<linearGradient id="paint3_linear_1025_1001" x1="-1.56463" y1="-1.41693" x2="15.0545" y2="16.6497" gradientUnits="userSpaceOnUse">
<stop stop-color="#798495"/>
<stop offset="1" stop-color="#686F71"/>
</linearGradient>
<clipPath id="clip0_1025_1001">
<rect width="19" height="15" fill="white"/>
</clipPath>
</defs>
</svg>
