<svg width="62" height="61" viewBox="0 0 62 61" fill="none" xmlns="http://www.w3.org/2000/svg">
<rect x="1.82176" y="0.983871" width="59.0323" height="59.0323" rx="29.5161" stroke="#6B6B6B" stroke-width="1.96774"/>
<path d="M44.2788 42.4532C43.3502 43.3818 41.8468 43.3818 40.9181 42.4532L36.7261 38.2599C35 39.3634 32.9637 40.0235 30.7623 40.0235C24.6394 40.0235 19.6738 35.0608 19.6738 28.9368C19.6738 22.8129 24.6374 17.8501 30.7623 17.8501C36.8872 17.8501 41.8488 22.8129 41.8488 28.9368C41.8488 31.1359 41.1885 33.1739 40.0849 34.8997L44.2769 39.091C45.2055 40.0196 45.2055 41.5227 44.2769 42.4493L44.2788 42.4532ZM30.7623 21.0194C26.3894 21.0194 22.8417 24.5666 22.8417 28.9388C22.8417 33.3111 26.3874 36.8562 30.7623 36.8562C35.1372 36.8562 38.6829 33.3111 38.6829 28.9388C38.6829 24.5666 35.1372 21.0194 30.7623 21.0194Z" fill="#6B6B6B"/>
</svg>
