<svg width="22" height="22" viewBox="0 0 22 22" fill="none" xmlns="http://www.w3.org/2000/svg">
<path d="M10.9989 16.3508C10.8825 16.3508 10.7686 16.3854 10.6718 16.4501C10.575 16.5147 10.4995 16.6067 10.455 16.7143C10.4104 16.8219 10.3988 16.9402 10.4215 17.0545C10.4442 17.1687 10.5003 17.2736 10.5826 17.3559C10.6649 17.4382 10.7698 17.4943 10.8841 17.517C10.9983 17.5398 11.1166 17.5281 11.2242 17.4835C11.3318 17.439 11.4238 17.3635 11.4885 17.2667C11.5531 17.1699 11.5877 17.056 11.5877 16.9396C11.5877 16.7834 11.5256 16.6337 11.4152 16.5233C11.3048 16.4129 11.1551 16.3508 10.9989 16.3508Z" fill="#909090" stroke="#909090" stroke-width="2" stroke-linecap="round" stroke-linejoin="round"/>
<path d="M11 13.6579V6.99121" stroke="#909090" stroke-width="2" stroke-linecap="round"/>
<path d="M12.441 1.89758C12.3087 1.62825 12.1036 1.4014 11.8489 1.24275C11.5942 1.0841 11.3002 1 11.0001 1C10.7001 1 10.406 1.0841 10.1513 1.24275C9.89663 1.4014 9.6915 1.62825 9.55921 1.89758L1.13868 19.0515C1.03732 19.2577 0.990174 19.4864 1.0017 19.7158C1.01323 19.9453 1.08305 20.168 1.20457 20.363C1.32609 20.558 1.49529 20.7189 1.69622 20.8303C1.89714 20.9417 2.12315 21.0002 2.35291 21H19.6473C19.8771 21.0002 20.1031 20.9417 20.304 20.8303C20.5049 20.7189 20.6741 20.558 20.7957 20.363C20.9172 20.168 20.987 19.9453 20.9985 19.7158C21.0101 19.4864 20.9629 19.2577 20.8616 19.0515L12.441 1.89758Z" stroke="#909090" stroke-width="2" stroke-linecap="round" stroke-linejoin="round"/>
</svg>
