<svg width="25" height="25" viewBox="0 0 25 25" fill="none" xmlns="http://www.w3.org/2000/svg">
<g clip-path="url(#clip0_986_943)">
<path d="M17.5176 1.88916V9.57818L15.7692 10.5383V3.15235H12.3169V1.88916H17.5176Z" fill="white"/>
<path d="M17.5176 15.135V23.1092H12.3169V21.5933H15.7692V14.1748L17.5176 15.135Z" fill="white"/>
<path d="M11.9155 0V25L0 23.2256L0.240208 1.77337L11.9155 0Z" fill="white"/>
<path d="M25.0002 11.5638V13.3323H19.5677V15.7509L17.9823 14.8803L17.7502 14.7526L17.5177 14.6249L15.7693 13.6647L15.5368 13.537L15.3043 13.4096L13.3882 12.3571L15.3043 11.3045L15.5368 11.1768L15.7693 11.0491L17.5177 10.0889L17.7502 9.9612L17.9823 9.83383L19.5677 8.96289V11.5638H25.0002Z" fill="white"/>
</g>
<defs>
<clipPath id="clip0_986_943">
<rect width="25" height="25" fill="white"/>
</clipPath>
</defs>
</svg>
