<svg width="25" height="25" viewBox="0 0 25 25" fill="none" xmlns="http://www.w3.org/2000/svg">
<path d="M16.0005 19.625L13.0005 20L13.5637 18" stroke="white" stroke-width="1.5" stroke-linecap="round" stroke-linejoin="round"/>
<path d="M16.2955 20L22.9006 13.4022C23.0338 13.2686 23.0338 13.0528 22.9006 12.9192L21.0871 11.1002C20.9539 10.9666 20.7387 10.9666 20.6056 11.1002L14.0005 17.698L16.2955 20Z" stroke="white" stroke-width="1.5" stroke-linecap="round" stroke-linejoin="round"/>
<path d="M5.99949 2V20.849C5.99949 20.849 6.11035 23 4.00049 23" stroke="white" stroke-width="1.5" stroke-linecap="round" stroke-linejoin="round"/>
<path d="M9.00049 8H17.0005" stroke="white" stroke-width="1.5" stroke-linecap="round" stroke-linejoin="round"/>
<path d="M9.00049 10H17.0005" stroke="white" stroke-width="1.5" stroke-linecap="round" stroke-linejoin="round"/>
<path d="M9.00049 13H13.0005" stroke="white" stroke-width="1.5" stroke-linecap="round" stroke-linejoin="round"/>
<path d="M9.00049 16H13.0005" stroke="white" stroke-width="1.5" stroke-linecap="round" stroke-linejoin="round"/>
<path d="M20.0005 11.45V2H5.80818L5.74587 16.35H2.00049V20.3715C2.00049 22.3315 3.60318 23 5.56241 23H16.4386C18.3978 23 20.0005 21.6315 20.0005 19.6715V16.35" stroke="white" stroke-width="1.5" stroke-linecap="round" stroke-linejoin="round"/>
</svg>
