<svg width="32" height="35" viewBox="0 0 32 35" fill="none" xmlns="http://www.w3.org/2000/svg">
<g clip-path="url(#clip0_986_109)">
<path d="M22.4225 3.06934V13.5264L20.1846 14.8322V4.78728H15.7656V3.06934H22.4225Z" fill="#318CE2"/>
<path d="M22.4225 21.0839V31.9288H15.7656V29.8673H20.1846V19.7781L22.4225 21.0839Z" fill="#318CE2"/>
<path d="M15.2518 0.5V34.5L0 32.0868L0.307466 2.91178L15.2518 0.5Z" fill="#318CE2"/>
<path d="M32.0001 16.2265V18.6316H25.0466V21.9209L23.0172 20.7369L22.7201 20.5632L22.4225 20.3895L20.1845 19.0837L19.887 18.91L19.5894 18.7367L17.1367 17.3053L19.5894 15.8738L19.887 15.7001L20.1845 15.5264L22.4225 14.2206L22.7201 14.0469L23.0172 13.8737L25.0466 12.6892V16.2265H32.0001Z" fill="#318CE2"/>
</g>
<defs>
<clipPath id="clip0_986_109">
<rect width="32" height="34" fill="white" transform="translate(0 0.5)"/>
</clipPath>
</defs>
</svg>
