<svg width="165" height="34" viewBox="0 0 165 34" fill="none" xmlns="http://www.w3.org/2000/svg">
<g clip-path="url(#clip0_183_820)">
<path d="M41.8701 30.5247V24.8252H42.7343V27.5446H42.8095L45.1873 24.8252H46.2732L43.9811 27.3911L46.2809 30.5247H45.2365L43.4088 27.981L42.7334 28.7571V30.5247H41.8691H41.8701Z" fill="black"/>
<path d="M48.4055 30.6116C48.0095 30.6116 47.6598 30.5199 47.3582 30.3365C47.0566 30.153 46.8225 29.8943 46.6578 29.5613C46.493 29.2282 46.4102 28.844 46.4102 28.4077C46.4102 27.9713 46.4921 27.5813 46.6578 27.2473C46.8225 26.9133 47.0557 26.6546 47.3582 26.4712C47.6598 26.2877 48.0095 26.196 48.4055 26.196C48.8015 26.196 49.1503 26.2877 49.4509 26.4712C49.7515 26.6546 49.9846 26.9133 50.1484 27.2473C50.3122 27.5813 50.3941 27.9684 50.3941 28.4077C50.3941 28.8469 50.3122 29.2282 50.1484 29.5613C49.9846 29.8943 49.7524 30.153 49.4509 30.3365C49.1503 30.5199 48.8015 30.6116 48.4055 30.6116ZM48.4074 29.9098C48.656 29.9098 48.8651 29.8432 49.0366 29.709C49.2081 29.5748 49.3362 29.3943 49.421 29.1664C49.5058 28.9386 49.5491 28.6838 49.5491 28.4038C49.5491 28.1239 49.5068 27.869 49.421 27.6412C49.3362 27.4133 49.2071 27.2309 49.0366 27.0957C48.866 26.9606 48.656 26.893 48.4074 26.893C48.1589 26.893 47.943 26.9606 47.7696 27.0957C47.5962 27.2309 47.4671 27.4133 47.3823 27.6412C47.2975 27.869 47.2542 28.1239 47.2542 28.4038C47.2542 28.6838 47.2965 28.9386 47.3823 29.1664C47.4671 29.3943 47.5962 29.5758 47.7696 29.709C47.943 29.8422 48.155 29.9098 48.4074 29.9098Z" fill="black"/>
<path d="M51.2256 30.5247V26.2501H52.0368V26.9316H52.0811C52.1332 26.7791 52.2122 26.6468 52.3182 26.5339C52.4241 26.421 52.5503 26.3341 52.6958 26.2752C52.8413 26.2163 52.9964 26.1864 53.1612 26.1864C53.22 26.1864 53.2816 26.1873 53.3462 26.1902C53.4098 26.1931 53.4676 26.198 53.5196 26.2057V27.0069C53.4714 26.9953 53.4059 26.9847 53.3221 26.9731C53.2392 26.9616 53.1593 26.9567 53.0831 26.9567C52.8885 26.9567 52.7141 26.9973 52.56 27.0793C52.4058 27.1614 52.2844 27.2753 52.1958 27.423C52.1081 27.5707 52.0638 27.7358 52.0638 27.9202V30.5257H51.2246L51.2256 30.5247Z" fill="black"/>
<path d="M55.8493 30.6116C55.4341 30.6116 55.0737 30.5218 54.7674 30.3413C54.461 30.1617 54.2259 29.9059 54.0621 29.5748C53.8983 29.2437 53.8164 28.8575 53.8164 28.4154C53.8164 27.9733 53.8983 27.5958 54.0621 27.2589C54.2259 26.922 54.4571 26.6604 54.7548 26.474C55.0525 26.2877 55.3975 26.1941 55.7886 26.1941C56.1335 26.1941 56.4486 26.2684 56.7348 26.4181C57.0209 26.5677 57.2512 26.8023 57.4246 27.1237C57.599 27.4452 57.6857 27.8507 57.6857 28.343V28.6403H54.2856V28.0109H56.861C56.861 27.7937 56.8167 27.6006 56.729 27.4317C56.6413 27.2628 56.516 27.1295 56.3551 27.0311C56.1942 26.9326 56.0093 26.8834 55.7992 26.8834C55.5728 26.8834 55.3734 26.9394 55.199 27.0504C55.0246 27.1614 54.8897 27.3091 54.7953 27.4925C54.6999 27.6759 54.6508 27.8758 54.6498 28.091V28.5785C54.6498 28.8585 54.6999 29.0998 54.8001 29.3026C54.9003 29.5053 55.041 29.6588 55.2221 29.763C55.4032 29.8683 55.6142 29.9204 55.8551 29.9204C56.0073 29.9204 56.1441 29.9001 56.2665 29.8596C56.3889 29.819 56.4929 29.763 56.5787 29.6926C56.6644 29.6221 56.7319 29.541 56.78 29.4503H57.6298C57.5672 29.6819 57.4535 29.8856 57.2907 30.0613C57.1279 30.237 56.9226 30.3722 56.6769 30.4677C56.4303 30.5633 56.1547 30.6106 55.8493 30.6106V30.6116Z" fill="black"/>
<path d="M61.0922 28.5911C61.072 28.5911 61.0363 28.593 60.9853 28.5969C60.9342 28.6007 60.8716 28.6046 60.7974 28.6085C60.6586 28.6181 60.5189 28.6268 60.3792 28.6365C60.2395 28.6461 60.1229 28.6538 60.0304 28.6616C59.7472 28.6818 59.5275 28.7475 59.3724 28.8575C59.2173 28.9676 59.1392 29.1249 59.1392 29.3296C59.1392 29.4628 59.1739 29.5767 59.2423 29.6694C59.3107 29.7621 59.4061 29.8325 59.5275 29.8798C59.6489 29.9271 59.7886 29.9513 59.9457 29.9513C60.1682 29.9513 60.3609 29.9069 60.5247 29.8181C60.6885 29.7292 60.8147 29.6105 60.9043 29.4628C60.993 29.3151 61.0373 29.1558 61.0373 28.9859L61.0344 27.6363C61.0344 27.4751 61.0016 27.3371 60.9361 27.2232C60.8706 27.1093 60.7723 27.0224 60.6432 26.9645C60.5131 26.9056 60.3542 26.8766 60.1653 26.8766C60.0064 26.8766 59.8657 26.8998 59.7433 26.9451C59.621 26.9905 59.5217 27.0542 59.4447 27.1353C59.3676 27.2174 59.3156 27.312 59.2876 27.4191H58.4513C58.4793 27.1836 58.5679 26.9731 58.7163 26.7878C58.8656 26.6024 59.067 26.4576 59.3204 26.3534C59.5738 26.2491 59.8657 26.198 60.1952 26.198C60.4688 26.198 60.7299 26.2395 60.9785 26.3235C61.2271 26.4065 61.4371 26.56 61.6105 26.783C61.784 27.006 61.8707 27.3081 61.8707 27.6904V30.5295H61.0537V29.9455H61.0199C60.9602 30.0642 60.8764 30.1743 60.7675 30.2766C60.6586 30.3789 60.518 30.462 60.3484 30.5266C60.1779 30.5913 59.9813 30.6241 59.7597 30.6241C59.4871 30.6241 59.2423 30.573 59.0236 30.4706C58.8049 30.3683 58.6325 30.2197 58.5072 30.0237C58.381 29.8277 58.3184 29.5941 58.3184 29.3209C58.3184 28.8807 58.4677 28.567 58.7673 28.3777C59.066 28.1885 59.4485 28.0775 59.9129 28.0437C60.043 28.0341 60.1952 28.0254 60.3696 28.0157C60.5449 28.0061 60.7087 27.9984 60.8629 27.9906C60.9168 27.9868 60.9621 27.9848 61.0007 27.9839C61.0382 27.9839 61.0662 27.9829 61.0826 27.9829L61.0941 28.5949L61.0922 28.5911Z" fill="black"/>
<path d="M64.9141 30.5247V24.8252H67.0029C67.3931 24.8252 67.7235 24.8899 67.9933 25.0183C68.2631 25.1476 68.4644 25.3253 68.5974 25.5512C68.7304 25.778 68.7978 26.0348 68.7978 26.3225C68.7978 26.5503 68.7554 26.7472 68.6716 26.9114C68.5868 27.0755 68.4741 27.2068 68.3315 27.3052C68.1889 27.4037 68.0241 27.4771 67.8372 27.5253V27.5813C68.0357 27.5929 68.2245 27.6547 68.4057 27.7696C68.5868 27.8844 68.7342 28.0457 68.8489 28.2571C68.9635 28.4675 69.0213 28.7127 69.0213 28.9936C69.0213 29.2939 68.951 29.5593 68.8113 29.7881C68.6716 30.0169 68.4577 30.1974 68.1706 30.3297C67.8835 30.462 67.526 30.5276 67.0982 30.5276H64.915L64.9141 30.5247ZM66.9258 27.2879C67.1185 27.2879 67.2929 27.2512 67.448 27.1768C67.6031 27.1025 67.7255 26.9982 67.8151 26.8621C67.9037 26.727 67.948 26.5687 67.948 26.3891C67.948 26.2298 67.9114 26.0879 67.8372 25.9634C67.763 25.8388 67.6513 25.7413 67.501 25.6709C67.3507 25.6004 67.1667 25.5647 66.9479 25.5647H65.7783V27.2879H66.9258ZM67.0144 29.7823C67.2794 29.7823 67.4971 29.7466 67.6667 29.6752C67.8372 29.6037 67.9625 29.5062 68.0415 29.3817C68.1205 29.2572 68.161 29.1133 68.161 28.9502C68.161 28.7687 68.1147 28.6027 68.0222 28.4521C67.9297 28.3015 67.7987 28.1827 67.6311 28.0959C67.4624 28.009 67.2669 27.9655 67.0453 27.9655H65.7783V29.7833H67.0144V29.7823Z" fill="black"/>
<path d="M71.7165 30.6116C71.3013 30.6116 70.9409 30.5218 70.6345 30.3413C70.3282 30.1617 70.0931 29.9059 69.9293 29.5748C69.7655 29.2437 69.6836 28.8575 69.6836 28.4154C69.6836 27.9733 69.7655 27.5958 69.9293 27.2589C70.0931 26.922 70.3243 26.6604 70.622 26.474C70.9197 26.2877 71.2647 26.1941 71.6549 26.1941C71.9998 26.1941 72.3148 26.2684 72.601 26.4181C72.8871 26.5677 73.1174 26.8023 73.2918 27.1237C73.4662 27.4452 73.5529 27.8507 73.5529 28.343V28.6403H70.1528V28.0109H72.7282C72.7282 27.7937 72.6838 27.6006 72.5962 27.4317C72.5085 27.2628 72.3832 27.1295 72.2223 27.0311C72.0614 26.9326 71.8765 26.8834 71.6664 26.8834C71.441 26.8834 71.2406 26.9394 71.0662 27.0504C70.8918 27.1614 70.7569 27.3091 70.6625 27.4925C70.5671 27.6759 70.518 27.8758 70.517 28.091V28.5785C70.517 28.8585 70.5671 29.0998 70.6673 29.3026C70.7675 29.5053 70.9082 29.6588 71.0893 29.763C71.2704 29.8683 71.4824 29.9204 71.7223 29.9204C71.8745 29.9204 72.0113 29.9001 72.1337 29.8596C72.2561 29.819 72.3601 29.763 72.4459 29.6926C72.5316 29.6221 72.5991 29.541 72.6472 29.4503H73.497C73.4344 29.6819 73.3207 29.8856 73.1579 30.0613C72.995 30.237 72.7898 30.3722 72.5441 30.4677C72.2975 30.5633 72.0219 30.6106 71.7165 30.6106V30.6116Z" fill="black"/>
<path d="M76.9574 28.5911C76.9372 28.5911 76.9015 28.593 76.8505 28.5969C76.7994 28.6007 76.7368 28.6046 76.6626 28.6085C76.5239 28.6181 76.3842 28.6268 76.2445 28.6365C76.1047 28.6461 75.9882 28.6538 75.8957 28.6616C75.6124 28.6818 75.3927 28.7475 75.2376 28.8575C75.0825 28.9676 75.0045 29.1249 75.0045 29.3296C75.0045 29.4628 75.0392 29.5767 75.1076 29.6694C75.176 29.7621 75.2714 29.8325 75.3927 29.8798C75.5141 29.9271 75.6538 29.9513 75.8109 29.9513C76.0335 29.9513 76.2261 29.9069 76.3899 29.8181C76.5537 29.7292 76.6799 29.6105 76.7695 29.4628C76.8582 29.3151 76.9025 29.1558 76.9025 28.9859L76.8996 27.6363C76.8996 27.4751 76.8669 27.3371 76.8013 27.2232C76.7358 27.1093 76.6375 27.0224 76.5084 26.9645C76.3784 26.9056 76.2194 26.8766 76.0306 26.8766C75.8716 26.8766 75.7309 26.8998 75.6086 26.9451C75.4862 26.9905 75.387 27.0542 75.3099 27.1353C75.2328 27.2174 75.1808 27.312 75.1528 27.4191H74.3165C74.3445 27.1836 74.4331 26.9731 74.5815 26.7878C74.7308 26.6024 74.9322 26.4576 75.1856 26.3534C75.439 26.2491 75.7309 26.198 76.0604 26.198C76.3341 26.198 76.5952 26.2395 76.8437 26.3235C77.0923 26.4065 77.3023 26.56 77.4758 26.783C77.6492 27.006 77.7359 27.3081 77.7359 27.6904V30.5295H76.9189V29.9455H76.8852C76.8254 30.0642 76.7416 30.1743 76.6327 30.2766C76.5239 30.3789 76.3842 30.462 76.2136 30.5266C76.0431 30.5913 75.8465 30.6241 75.6249 30.6241C75.3523 30.6241 75.1076 30.573 74.8888 30.4706C74.6701 30.3683 74.4977 30.2197 74.3724 30.0237C74.2462 29.8277 74.1836 29.5941 74.1836 29.3209C74.1836 28.8807 74.3329 28.567 74.6326 28.3777C74.9312 28.1885 75.3137 28.0775 75.7781 28.0437C75.9082 28.0341 76.0604 28.0254 76.2348 28.0157C76.4102 28.0061 76.574 27.9984 76.7281 27.9906C76.7821 27.9868 76.8274 27.9848 76.8659 27.9839C76.9035 27.9839 76.9314 27.9829 76.9478 27.9829L76.9594 28.5949L76.9574 28.5911Z" fill="black"/>
<path d="M81.4574 28.7494V26.2501H82.2908V30.5247H81.4718V29.7843H81.4275C81.361 29.9397 81.2675 30.0787 81.1481 30.1994C81.0286 30.32 80.8851 30.4137 80.7164 30.4803C80.5478 30.5469 80.36 30.5807 80.1528 30.5807C79.8753 30.5807 79.6306 30.5189 79.4196 30.3953C79.2086 30.2718 79.0439 30.0893 78.9263 29.847C78.8088 29.6047 78.75 29.3122 78.75 28.9685V26.2491H79.5892V28.8653C79.5892 29.0564 79.6258 29.2234 79.6971 29.3672C79.7694 29.5111 79.8715 29.6221 80.0025 29.7003C80.1335 29.7785 80.2848 29.8171 80.4553 29.8171C80.6259 29.8171 80.7791 29.7775 80.9332 29.6974C81.0864 29.6173 81.2126 29.4966 81.3109 29.3354C81.4092 29.1742 81.4583 28.9782 81.4583 28.7484L81.4574 28.7494Z" fill="black"/>
<path d="M85.3081 26.2501V26.921H82.9746V26.2501H85.3081ZM83.5999 25.2258H84.4391V29.2668C84.4391 29.4194 84.4612 29.5362 84.5056 29.6192C84.5499 29.7022 84.6096 29.7592 84.6838 29.7901C84.758 29.8219 84.8466 29.8374 84.9507 29.8374C84.995 29.8374 85.0451 29.8374 85.1019 29.8345C85.1588 29.8325 85.2137 29.8296 85.2667 29.8258C85.285 29.8238 85.3033 29.8229 85.3197 29.8219C85.3361 29.8219 85.3525 29.821 85.3669 29.821V30.545C85.2147 30.5691 85.0422 30.5817 84.8476 30.5817C84.6202 30.5817 84.4111 30.5392 84.2223 30.4552C84.0335 30.3712 83.8822 30.2428 83.7695 30.071C83.6567 29.8991 83.5999 29.6897 83.5999 29.4406V25.2268V25.2258Z" fill="black"/>
<path d="M86.6427 32.1282C86.556 32.1282 86.4722 32.1272 86.3932 32.1243C86.3142 32.1214 86.2467 32.1175 86.1928 32.1118L86.1986 31.408C86.2207 31.408 86.2438 31.408 86.267 31.4109C86.2901 31.4138 86.3151 31.4138 86.3402 31.4138C86.4308 31.4177 86.5088 31.4196 86.5734 31.4196C86.6803 31.4196 86.7699 31.4099 86.8402 31.3906C86.9106 31.3713 86.9809 31.3202 87.0503 31.2391C87.1196 31.157 87.1861 31.0325 87.2487 30.8635L87.3547 30.5855L85.791 26.252H86.688L87.7632 29.5671H87.8076L88.8876 26.252H89.7846L88.0263 31.0952C87.902 31.4389 87.7276 31.6967 87.5012 31.8704C87.2748 32.0442 86.9886 32.1311 86.6427 32.1311V32.1282Z" fill="black"/>
<path d="M96.3457 26.6256C96.2754 26.4007 96.1723 26.2076 96.0364 26.0454C95.9006 25.8832 95.7339 25.7578 95.5383 25.6699C95.3418 25.5821 95.1202 25.5377 94.8716 25.5377C94.5479 25.5377 94.2578 25.6216 94.0025 25.7877C93.7472 25.9547 93.5458 26.1989 93.3984 26.5194C93.251 26.8409 93.1778 27.2241 93.1778 27.6721C93.1778 28.12 93.251 28.509 93.3975 28.8295C93.5439 29.151 93.7482 29.3943 94.0102 29.5613C94.2723 29.7283 94.5719 29.8113 94.9092 29.8113C95.2127 29.8113 95.4805 29.7486 95.7117 29.6221C95.943 29.4956 96.1222 29.317 96.2474 29.0863C96.3736 28.8556 96.4363 28.5863 96.4363 28.2773L96.6588 28.3189H95.0334V27.6064H97.2754V28.2522C97.2754 28.7233 97.1752 29.1365 96.9739 29.4918C96.7725 29.847 96.4931 30.1212 96.1337 30.3123C95.7743 30.5044 95.3649 30.6 94.9063 30.6C94.3937 30.6 93.9418 30.4813 93.5507 30.2438C93.1595 30.0063 92.857 29.6675 92.6421 29.2263C92.4273 28.7861 92.3203 28.2687 92.3203 27.675C92.3203 27.0813 92.4292 26.56 92.6469 26.1178C92.8647 25.6757 93.1662 25.3359 93.5526 25.0994C93.9389 24.8629 94.3773 24.7441 94.8677 24.7441C95.2714 24.7441 95.6414 24.8233 95.9786 24.9806C96.3158 25.138 96.5933 25.36 96.812 25.6448C97.0307 25.9296 97.1723 26.2559 97.2369 26.6227H96.3476L96.3457 26.6256Z" fill="black"/>
<path d="M100.041 30.6116C99.6255 30.6116 99.2651 30.5218 98.9588 30.3413C98.6524 30.1617 98.4173 29.9059 98.2535 29.5748C98.0897 29.2437 98.0078 28.8575 98.0078 28.4154C98.0078 27.9733 98.0897 27.5958 98.2535 27.2589C98.4173 26.922 98.6485 26.6604 98.9462 26.474C99.2439 26.2877 99.5889 26.1941 99.9791 26.1941C100.324 26.1941 100.639 26.2684 100.925 26.4181C101.211 26.5677 101.442 26.8023 101.616 27.1237C101.79 27.4452 101.877 27.8507 101.877 28.343V28.6403H98.477V28.0109H101.052C101.052 27.7937 101.008 27.6006 100.92 27.4317C100.833 27.2628 100.707 27.1295 100.547 27.0311C100.386 26.9326 100.201 26.8834 99.9906 26.8834C99.7652 26.8834 99.5648 26.9394 99.3904 27.0504C99.216 27.1614 99.0811 27.3091 98.9867 27.4925C98.8913 27.6759 98.8422 27.8758 98.8412 28.091V28.5785C98.8412 28.8585 98.8913 29.0998 98.9915 29.3026C99.0917 29.5053 99.2324 29.6588 99.4135 29.763C99.5947 29.8683 99.8066 29.9204 100.047 29.9204C100.199 29.9204 100.336 29.9001 100.458 29.8596C100.58 29.819 100.684 29.763 100.77 29.6926C100.856 29.6221 100.923 29.541 100.971 29.4503H101.821C101.759 29.6819 101.645 29.8856 101.482 30.0613C101.319 30.237 101.114 30.3722 100.868 30.4677C100.622 30.5633 100.346 30.6106 100.041 30.6106V30.6116Z" fill="black"/>
<path d="M103.546 27.9897V30.5247H102.707V26.2501H103.512V26.949H103.565C103.634 26.7945 103.726 26.6613 103.842 26.5484C103.958 26.4354 104.098 26.3476 104.263 26.2868C104.428 26.226 104.615 26.1951 104.824 26.1951C105.117 26.1951 105.372 26.2568 105.591 26.3804C105.809 26.504 105.978 26.6864 106.097 26.9278C106.217 27.1691 106.277 27.4626 106.277 27.8072V30.5266H105.438V27.9105C105.438 27.7068 105.401 27.5302 105.33 27.3805C105.257 27.2309 105.154 27.1179 105.02 27.0398C104.886 26.9616 104.726 26.9229 104.539 26.9229C104.352 26.9229 104.172 26.9654 104.025 27.0494C103.877 27.1344 103.76 27.256 103.675 27.4172C103.591 27.5775 103.547 27.7696 103.547 27.9916L103.546 27.9897Z" fill="black"/>
<path d="M109.134 30.6116C108.719 30.6116 108.359 30.5218 108.053 30.3413C107.746 30.1617 107.511 29.9059 107.347 29.5748C107.183 29.2437 107.102 28.8575 107.102 28.4154C107.102 27.9733 107.183 27.5958 107.347 27.2589C107.511 26.922 107.742 26.6604 108.04 26.474C108.338 26.2877 108.683 26.1941 109.073 26.1941C109.418 26.1941 109.733 26.2684 110.019 26.4181C110.305 26.5677 110.535 26.8023 110.71 27.1237C110.884 27.4452 110.971 27.8507 110.971 28.343V28.6403H107.571V28.0109H110.146C110.146 27.7937 110.102 27.6006 110.014 27.4317C109.926 27.2628 109.801 27.1295 109.64 27.0311C109.479 26.9326 109.294 26.8834 109.084 26.8834C108.859 26.8834 108.659 26.9394 108.484 27.0504C108.31 27.1614 108.175 27.3091 108.08 27.4925C107.985 27.6759 107.936 27.8758 107.935 28.091V28.5785C107.935 28.8585 107.985 29.0998 108.085 29.3026C108.185 29.5053 108.326 29.6588 108.507 29.763C108.688 29.8683 108.9 29.9204 109.14 29.9204C109.292 29.9204 109.429 29.9001 109.552 29.8596C109.674 29.819 109.778 29.763 109.864 29.6926C109.95 29.6221 110.017 29.541 110.065 29.4503H110.915C110.852 29.6819 110.739 29.8856 110.576 30.0613C110.413 30.237 110.208 30.3722 109.962 30.4677C109.715 30.5633 109.44 30.6106 109.134 30.6106V30.6116Z" fill="black"/>
<path d="M111.802 30.5247V26.2501H112.613V26.9316H112.657C112.709 26.7791 112.788 26.6468 112.894 26.5339C113 26.421 113.127 26.3341 113.272 26.2752C113.417 26.2163 113.573 26.1864 113.737 26.1864C113.797 26.1864 113.858 26.1873 113.922 26.1902C113.986 26.1931 114.044 26.198 114.096 26.2057V27.0069C114.048 26.9953 113.982 26.9847 113.898 26.9731C113.814 26.9616 113.735 26.9567 113.659 26.9567C113.465 26.9567 113.29 26.9973 113.136 27.0793C112.981 27.1614 112.861 27.2753 112.772 27.423C112.684 27.5707 112.64 27.7358 112.64 27.9202V30.5257H111.801L111.802 30.5247Z" fill="black"/>
<path d="M117.254 28.5911C117.234 28.5911 117.198 28.593 117.147 28.5969C117.096 28.6007 117.034 28.6046 116.959 28.6085C116.821 28.6181 116.681 28.6268 116.541 28.6365C116.402 28.6461 116.285 28.6538 116.193 28.6616C115.909 28.6818 115.69 28.7475 115.534 28.8575C115.379 28.9676 115.301 29.1249 115.301 29.3296C115.301 29.4628 115.336 29.5767 115.404 29.6694C115.473 29.7621 115.568 29.8325 115.69 29.8798C115.811 29.9271 115.951 29.9513 116.108 29.9513C116.33 29.9513 116.523 29.9069 116.687 29.8181C116.851 29.7292 116.977 29.6105 117.066 29.4628C117.155 29.3151 117.199 29.1558 117.199 28.9859L117.196 27.6363C117.196 27.4751 117.164 27.3371 117.098 27.2232C117.033 27.1093 116.934 27.0224 116.805 26.9645C116.675 26.9056 116.516 26.8766 116.327 26.8766C116.168 26.8766 116.028 26.8998 115.905 26.9451C115.783 26.9905 115.684 27.0542 115.607 27.1353C115.53 27.2174 115.478 27.312 115.45 27.4191H114.613C114.641 27.1836 114.73 26.9731 114.878 26.7878C115.028 26.6024 115.229 26.4576 115.482 26.3534C115.736 26.2491 116.028 26.198 116.357 26.198C116.631 26.198 116.892 26.2395 117.141 26.3235C117.389 26.4065 117.599 26.56 117.773 26.783C117.946 27.006 118.033 27.3081 118.033 27.6904V30.5295H117.216V29.9455H117.182C117.122 30.0642 117.038 30.1743 116.93 30.2766C116.821 30.3789 116.681 30.462 116.51 30.5266C116.34 30.5913 116.143 30.6241 115.922 30.6241C115.649 30.6241 115.404 30.573 115.186 30.4706C114.967 30.3683 114.795 30.2197 114.669 30.0237C114.543 29.8277 114.48 29.5941 114.48 29.3209C114.48 28.8807 114.63 28.567 114.929 28.3777C115.228 28.1885 115.611 28.0775 116.075 28.0437C116.205 28.0341 116.357 28.0254 116.532 28.0157C116.707 28.0061 116.871 27.9984 117.025 27.9906C117.079 27.9868 117.124 27.9848 117.163 27.9839C117.2 27.9839 117.228 27.9829 117.245 27.9829L117.256 28.5949L117.254 28.5911Z" fill="black"/>
<path d="M119.886 24.8252V30.5247H119.047V24.8252H119.886Z" fill="black"/>
<path d="M123.422 30.5247H122.506L124.55 24.8252H125.553L127.598 30.5247H126.679L125.074 25.8659H125.029L123.424 30.5247H123.422ZM123.572 28.2928H126.531V29.0187H123.572V28.2928Z" fill="black"/>
<path d="M130.615 27.4162C130.575 27.2415 130.486 27.1054 130.35 27.006C130.214 26.9065 130.033 26.8573 129.807 26.8573C129.65 26.8573 129.509 26.8824 129.385 26.9336C129.261 26.9847 129.163 27.0533 129.092 27.1392C129.021 27.2251 128.986 27.3226 128.988 27.4298C128.986 27.5582 129.039 27.6672 129.148 27.757C129.256 27.8468 129.425 27.9192 129.655 27.9723L130.338 28.1277C130.729 28.2185 131.02 28.3594 131.213 28.5496C131.405 28.7398 131.502 28.985 131.502 29.2861C131.502 29.5439 131.431 29.7737 131.292 29.9754C131.152 30.1772 130.95 30.3326 130.687 30.4446C130.424 30.5556 130.114 30.6116 129.757 30.6116C129.42 30.6116 129.127 30.5633 128.879 30.4658C128.63 30.3683 128.435 30.2264 128.291 30.0382C128.148 29.8509 128.058 29.6231 128.023 29.3566H128.882C128.918 29.5516 129.007 29.6974 129.153 29.7939C129.298 29.8905 129.497 29.9387 129.748 29.9387C129.929 29.9387 130.087 29.9146 130.22 29.8663C130.353 29.8181 130.457 29.7495 130.531 29.6617C130.606 29.5738 130.642 29.4705 130.642 29.3537C130.642 29.2147 130.589 29.0998 130.482 29.0101C130.375 28.9203 130.21 28.8488 129.984 28.7967L129.317 28.649C128.936 28.565 128.646 28.4231 128.446 28.2233C128.247 28.0235 128.148 27.7744 128.148 27.4771C128.148 27.227 128.217 27.004 128.355 26.809C128.493 26.614 128.687 26.4634 128.937 26.3553C129.186 26.2472 129.474 26.1941 129.801 26.1941C130.128 26.1941 130.385 26.2443 130.621 26.3447C130.856 26.4451 131.042 26.587 131.178 26.7704C131.314 26.9538 131.395 27.1691 131.421 27.4162H130.615Z" fill="black"/>
<path d="M134.721 27.4162C134.68 27.2415 134.592 27.1054 134.456 27.006C134.32 26.9065 134.139 26.8573 133.912 26.8573C133.755 26.8573 133.615 26.8824 133.49 26.9336C133.366 26.9847 133.269 27.0533 133.197 27.1392C133.126 27.2251 133.091 27.3226 133.093 27.4298C133.091 27.5582 133.144 27.6672 133.253 27.757C133.361 27.8468 133.531 27.9192 133.76 27.9723L134.443 28.1277C134.834 28.2185 135.125 28.3594 135.318 28.5496C135.511 28.7398 135.607 28.985 135.607 29.2861C135.607 29.5439 135.537 29.7737 135.397 29.9754C135.257 30.1772 135.056 30.3326 134.793 30.4446C134.53 30.5556 134.22 30.6116 133.862 30.6116C133.525 30.6116 133.232 30.5633 132.984 30.4658C132.736 30.3683 132.54 30.2264 132.397 30.0382C132.253 29.8509 132.164 29.6231 132.129 29.3566H132.987C133.023 29.5516 133.113 29.6974 133.258 29.7939C133.404 29.8905 133.602 29.9387 133.854 29.9387C134.035 29.9387 134.193 29.9146 134.326 29.8663C134.459 29.8181 134.563 29.7495 134.637 29.6617C134.711 29.5738 134.748 29.4705 134.748 29.3537C134.748 29.2147 134.695 29.0998 134.588 29.0101C134.481 28.9203 134.315 28.8488 134.09 28.7967L133.423 28.649C133.041 28.565 132.751 28.4231 132.552 28.2233C132.352 28.0235 132.253 27.7744 132.253 27.4771C132.253 27.227 132.323 27.004 132.46 26.809C132.598 26.614 132.793 26.4634 133.042 26.3553C133.292 26.2472 133.58 26.1941 133.907 26.1941C134.233 26.1941 134.49 26.2443 134.726 26.3447C134.962 26.4451 135.147 26.587 135.283 26.7704C135.419 26.9538 135.5 27.1691 135.526 27.4162H134.721Z" fill="black"/>
<path d="M138.235 30.6116C137.839 30.6116 137.489 30.5199 137.187 30.3365C136.886 30.153 136.653 29.8943 136.488 29.5613C136.323 29.2282 136.24 28.844 136.24 28.4077C136.24 27.9713 136.323 27.5813 136.488 27.2473C136.653 26.9133 136.886 26.6546 137.187 26.4712C137.489 26.2877 137.839 26.196 138.235 26.196C138.631 26.196 138.979 26.2877 139.28 26.4712C139.581 26.6546 139.814 26.9133 139.978 27.2473C140.141 27.5813 140.223 27.9684 140.223 28.4077C140.223 28.8469 140.141 29.2282 139.978 29.5613C139.814 29.8943 139.582 30.153 139.28 30.3365C138.979 30.5199 138.631 30.6116 138.235 30.6116ZM138.237 29.9098C138.485 29.9098 138.694 29.8432 138.866 29.709C139.037 29.5758 139.165 29.3943 139.25 29.1664C139.335 28.9386 139.378 28.6838 139.378 28.4038C139.378 28.1239 139.336 27.869 139.25 27.6412C139.165 27.4133 139.037 27.2309 138.866 27.0957C138.694 26.9606 138.484 26.893 138.237 26.893C137.989 26.893 137.772 26.9606 137.599 27.0957C137.425 27.2309 137.296 27.4133 137.211 27.6412C137.127 27.869 137.083 28.1239 137.083 28.4038C137.083 28.6838 137.126 28.9386 137.211 29.1664C137.296 29.3943 137.425 29.5758 137.599 29.709C137.772 29.8422 137.984 29.9098 138.237 29.9098Z" fill="black"/>
<path d="M142.856 30.6116C142.45 30.6116 142.097 30.5179 141.796 30.3316C141.495 30.1453 141.264 29.8847 141.103 29.5507C140.942 29.2166 140.861 28.8353 140.861 28.4067C140.861 27.9781 140.943 27.591 141.107 27.256C141.271 26.921 141.503 26.6604 141.803 26.474C142.102 26.2877 142.451 26.1941 142.847 26.1941C143.167 26.1941 143.456 26.2539 143.714 26.3727C143.971 26.4914 144.178 26.6604 144.334 26.8795C144.489 27.0986 144.581 27.3496 144.608 27.6334H143.794C143.764 27.4964 143.708 27.3718 143.626 27.2618C143.544 27.1517 143.438 27.0629 143.309 26.9973C143.179 26.9316 143.029 26.8988 142.859 26.8988C142.629 26.8988 142.428 26.9596 142.255 27.0813C142.081 27.2029 141.946 27.3757 141.85 27.6006C141.754 27.8256 141.705 28.0881 141.705 28.3884C141.705 28.6886 141.753 28.9618 141.847 29.1886C141.941 29.4155 142.075 29.5912 142.25 29.7148C142.424 29.8383 142.626 29.9001 142.858 29.9001C143.017 29.9001 143.161 29.8712 143.289 29.8123C143.417 29.7534 143.525 29.6704 143.611 29.5622C143.697 29.4541 143.758 29.3238 143.793 29.1713H144.607C144.577 29.4493 144.487 29.6974 144.337 29.9156C144.186 30.1337 143.983 30.3046 143.73 30.4272C143.476 30.5508 143.184 30.6125 142.855 30.6125L142.856 30.6116Z" fill="black"/>
<path d="M145.832 25.5936C145.737 25.5936 145.649 25.5714 145.567 25.5251C145.484 25.4797 145.419 25.4189 145.372 25.3426C145.325 25.2664 145.301 25.1843 145.301 25.0946C145.301 25.0048 145.325 24.9198 145.372 24.8445C145.419 24.7683 145.484 24.7084 145.567 24.664C145.649 24.6196 145.737 24.5974 145.832 24.5974C145.926 24.5974 146.011 24.6196 146.093 24.664C146.175 24.7084 146.238 24.7692 146.285 24.8445C146.333 24.9208 146.357 25.0038 146.357 25.0946C146.357 25.1853 146.333 25.2664 146.285 25.3426C146.238 25.4189 146.174 25.4797 146.093 25.5251C146.011 25.5705 145.924 25.5936 145.832 25.5936ZM145.406 30.5247V26.2501H146.245V30.5247H145.406Z" fill="black"/>
<path d="M149.842 28.5911C149.822 28.5911 149.786 28.593 149.735 28.5969C149.684 28.6007 149.622 28.6046 149.547 28.6085C149.409 28.6181 149.269 28.6268 149.129 28.6365C148.99 28.6461 148.873 28.6538 148.78 28.6616C148.497 28.6818 148.278 28.7475 148.122 28.8575C147.967 28.9676 147.889 29.1249 147.889 29.3296C147.889 29.4628 147.924 29.5767 147.992 29.6694C148.061 29.7621 148.156 29.8325 148.278 29.8798C148.399 29.9271 148.539 29.9513 148.696 29.9513C148.918 29.9513 149.111 29.9069 149.275 29.8181C149.438 29.7292 149.565 29.6105 149.654 29.4628C149.743 29.3151 149.787 29.1558 149.787 28.9859L149.784 27.6363C149.784 27.4751 149.752 27.3371 149.686 27.2232C149.621 27.1093 149.522 27.0224 149.393 26.9645C149.263 26.9056 149.104 26.8766 148.915 26.8766C148.756 26.8766 148.616 26.8998 148.493 26.9451C148.371 26.9905 148.272 27.0542 148.195 27.1353C148.118 27.2174 148.066 27.312 148.038 27.4191H147.201C147.229 27.1836 147.318 26.9731 147.466 26.7878C147.616 26.6024 147.817 26.4576 148.07 26.3534C148.324 26.2491 148.616 26.198 148.945 26.198C149.219 26.198 149.48 26.2395 149.728 26.3235C149.977 26.4065 150.187 26.56 150.361 26.783C150.534 27.006 150.621 27.3081 150.621 27.6904V30.5295H149.804V29.9455H149.77C149.71 30.0642 149.626 30.1743 149.518 30.2766C149.409 30.3789 149.269 30.462 149.098 30.5266C148.928 30.5913 148.731 30.6241 148.51 30.6241C148.237 30.6241 147.992 30.573 147.774 30.4706C147.555 30.3683 147.382 30.2197 147.257 30.0237C147.131 29.8277 147.068 29.5941 147.068 29.3209C147.068 28.8807 147.218 28.567 147.517 28.3777C147.816 28.1885 148.199 28.0775 148.663 28.0437C148.793 28.0341 148.945 28.0254 149.12 28.0157C149.295 28.0061 149.459 27.9984 149.613 27.9906C149.667 27.9868 149.712 27.9848 149.751 27.9839C149.788 27.9839 149.816 27.9829 149.833 27.9829L149.844 28.5949L149.842 28.5911Z" fill="black"/>
<path d="M153.628 26.2501V26.921H151.295V26.2501H153.628ZM151.92 25.2258H152.759V29.2668C152.759 29.4194 152.782 29.5362 152.826 29.6192C152.87 29.7022 152.93 29.7592 153.004 29.7901C153.078 29.8219 153.167 29.8374 153.271 29.8374C153.315 29.8374 153.365 29.8374 153.422 29.8345C153.479 29.8325 153.534 29.8296 153.587 29.8258C153.605 29.8238 153.624 29.8229 153.64 29.8219C153.656 29.8219 153.673 29.821 153.687 29.821V30.545C153.535 30.5691 153.363 30.5817 153.168 30.5817C152.941 30.5817 152.731 30.5392 152.543 30.4552C152.354 30.3712 152.203 30.2428 152.09 30.071C151.977 29.8991 151.92 29.6897 151.92 29.4406V25.2268V25.2258Z" fill="black"/>
<path d="M154.873 25.5936C154.778 25.5936 154.69 25.5714 154.608 25.5251C154.525 25.4797 154.46 25.4189 154.413 25.3426C154.366 25.2664 154.342 25.1843 154.342 25.0946C154.342 25.0048 154.366 24.9198 154.413 24.8445C154.46 24.7683 154.525 24.7084 154.608 24.664C154.69 24.6196 154.778 24.5974 154.873 24.5974C154.967 24.5974 155.052 24.6196 155.134 24.664C155.216 24.7084 155.279 24.7692 155.326 24.8445C155.374 24.9208 155.398 25.0038 155.398 25.0946C155.398 25.1853 155.374 25.2664 155.326 25.3426C155.279 25.4189 155.215 25.4797 155.134 25.5251C155.052 25.5705 154.965 25.5936 154.873 25.5936ZM154.448 30.5247V26.2501H155.287V30.5247H154.448Z" fill="black"/>
<path d="M158.112 30.6116C157.716 30.6116 157.366 30.5199 157.064 30.3365C156.763 30.153 156.53 29.8943 156.365 29.5613C156.2 29.2282 156.117 28.844 156.117 28.4077C156.117 27.9713 156.2 27.5813 156.365 27.2473C156.53 26.9133 156.763 26.6546 157.064 26.4712C157.366 26.2877 157.716 26.196 158.112 26.196C158.508 26.196 158.856 26.2877 159.157 26.4712C159.458 26.6546 159.691 26.9133 159.854 27.2473C160.018 27.5813 160.1 27.9684 160.1 28.4077C160.1 28.8469 160.018 29.2282 159.854 29.5613C159.691 29.8943 159.458 30.153 159.157 30.3365C158.856 30.5199 158.508 30.6116 158.112 30.6116ZM158.114 29.9098C158.363 29.9098 158.572 29.8432 158.744 29.709C158.915 29.5758 159.043 29.3943 159.128 29.1664C159.213 28.9386 159.256 28.6838 159.256 28.4038C159.256 28.1239 159.214 27.869 159.128 27.6412C159.043 27.4133 158.915 27.2309 158.744 27.0957C158.572 26.9606 158.362 26.893 158.114 26.893C157.867 26.893 157.65 26.9606 157.477 27.0957C157.303 27.2309 157.174 27.4133 157.089 27.6412C157.005 27.869 156.961 28.1239 156.961 28.4038C156.961 28.6838 157.004 28.9386 157.089 29.1664C157.174 29.3943 157.303 29.5758 157.477 29.709C157.65 29.8422 157.862 29.9098 158.114 29.9098Z" fill="black"/>
<path d="M161.769 27.9897V30.5247H160.93V26.2501H161.735V26.949H161.788C161.857 26.7945 161.949 26.6613 162.065 26.5484C162.18 26.4354 162.321 26.3476 162.486 26.2868C162.65 26.226 162.837 26.1951 163.046 26.1951C163.339 26.1951 163.595 26.2568 163.813 26.3804C164.032 26.504 164.201 26.6864 164.32 26.9278C164.44 27.1691 164.499 27.4626 164.499 27.8072V30.5266H163.66V27.9105C163.66 27.7068 163.624 27.5302 163.552 27.3805C163.48 27.2309 163.377 27.1179 163.243 27.0398C163.109 26.9616 162.948 26.9229 162.761 26.9229C162.574 26.9229 162.395 26.9654 162.248 27.0494C162.099 27.1344 161.983 27.256 161.898 27.4172C161.813 27.5775 161.77 27.7696 161.77 27.9916L161.769 27.9897Z" fill="black"/>
<path d="M48.986 8.9238V10.2985H39.4062V8.9238H48.986ZM44.2024 11.0756C44.9693 11.0756 45.6457 11.202 46.2324 11.454C46.8192 11.7069 47.2768 12.0641 47.6044 12.5265C47.933 12.9889 48.0987 13.5237 48.1035 14.1309C48.0996 14.7295 47.933 15.2566 47.6044 15.7132C47.2759 16.1698 46.8192 16.5212 46.2324 16.7702C45.6457 17.0183 44.9693 17.1429 44.2024 17.1429C43.4355 17.1429 42.7437 17.0183 42.1502 16.7702C41.5577 16.5221 41.0981 16.1698 40.7715 15.7132C40.4449 15.2566 40.282 14.7295 40.282 14.1309C40.282 13.5324 40.4449 12.9899 40.7715 12.5265C41.0971 12.0641 41.5567 11.7069 42.1502 11.454C42.7427 11.202 43.4268 11.0756 44.2024 11.0756ZM43.5289 18.1536V22.017H41.8323V18.1536H43.5289ZM52.7214 21.4262V22.8269H41.8323V21.4262H52.7214ZM44.2024 12.4001C43.7496 12.4001 43.3488 12.4696 43.0019 12.6066C42.6551 12.7447 42.3882 12.9455 42.2013 13.2081C42.0144 13.4716 41.9238 13.7786 41.9277 14.1309C41.9238 14.4746 42.0144 14.7739 42.2013 15.0287C42.3872 15.2836 42.6541 15.4786 43.0019 15.6147C43.3488 15.7508 43.7496 15.8165 44.2024 15.8116C44.6552 15.8155 45.0541 15.7499 45.3971 15.6147C45.7401 15.4786 46.007 15.2836 46.1978 15.0287C46.3885 14.7739 46.4858 14.4746 46.4897 14.1309C46.4858 13.7786 46.3876 13.4716 46.1978 13.2081C46.007 12.9445 45.7401 12.7447 45.3971 12.6066C45.0541 12.4686 44.6562 12.4001 44.2024 12.4001ZM45.0541 7.03362V9.61789H43.3574V7.03362H45.0541ZM52.0354 7.04038V19.1151H50.3262V7.04038H52.0354ZM54.367 12.2282V13.6541H51.5209V12.2282H54.367Z" fill="black"/>
<path d="M70.0274 13.4755V14.8627H55.2949V13.4755H70.0274ZM68.2295 17.613V23.1571H66.5145V18.9877H56.8008V17.613H68.2295ZM67.5435 7.78467V9.1661H57.1371V7.78467H67.5435ZM63.4777 14.4235V18.1217H61.781V14.4235H63.4777ZM68.1592 8.98751V9.05122C68.1592 9.64492 68.1505 10.1768 68.1341 10.646C68.1168 11.1152 68.0696 11.648 67.9915 12.2466C67.9135 12.8451 67.7931 13.4813 67.6322 14.156L65.9615 13.9717C66.1137 13.3143 66.2274 12.6955 66.3016 12.1162C66.3758 11.537 66.4211 11.0244 66.4384 10.5794C66.4558 10.1334 66.4635 9.62078 66.4635 9.03867V7.78467H68.1592V8.98751Z" fill="black"/>
<path d="M79.6454 8.57433V19.173H72.0918V8.57433H79.6454ZM73.7817 9.9297V17.7974H77.9873V9.9297H73.7817ZM84.5369 7.02686V23.1889H82.822V7.02686H84.5369Z" fill="black"/>
<path d="M101.785 14.8945V16.2818H87.1094V14.8945H101.785ZM94.4346 7.30778C95.6081 7.31164 96.6265 7.43424 97.4908 7.67365C98.355 7.91306 99.0188 8.26059 99.4823 8.71431C99.9457 9.16803 100.178 9.71153 100.178 10.3438C100.178 10.9761 99.9457 11.5042 99.4823 11.9541C99.0188 12.4039 98.356 12.7466 97.4937 12.9822C96.6313 13.2177 95.612 13.3355 94.4346 13.3355C93.2573 13.3355 92.2302 13.2177 91.366 12.9822C90.5018 12.7466 89.8379 12.4039 89.3745 11.9541C88.9111 11.5042 88.6789 10.9675 88.6789 10.3438C88.6789 9.72022 88.9111 9.16803 89.3745 8.71431C89.8379 8.26059 90.5027 7.91306 91.3689 7.67365C92.235 7.43424 93.2563 7.31164 94.4346 7.30778ZM94.4289 17.39C95.585 17.3861 96.5793 17.4952 97.4118 17.7182C98.2442 17.9412 98.8811 18.2656 99.3242 18.6923C99.7665 19.119 99.99 19.6374 99.9948 20.2484C99.991 20.8634 99.7674 21.3856 99.3242 21.8143C98.882 22.2429 98.2442 22.5682 97.4118 22.7912C96.5793 23.0142 95.585 23.1252 94.4289 23.1252C93.2727 23.1252 92.2639 23.0142 91.4267 22.7912C90.5904 22.5682 89.9507 22.2429 89.5084 21.8143C89.0662 21.3856 88.8446 20.8634 88.8446 20.2484C88.8446 19.6335 89.0662 19.119 89.5084 18.6923C89.9507 18.2656 90.5904 17.9412 91.4267 17.7182C92.263 17.4952 93.264 17.3861 94.4289 17.39ZM94.4346 8.63805C93.6003 8.63805 92.8844 8.70466 92.2871 8.83884C91.6897 8.97303 91.233 9.16803 90.918 9.42481C90.602 9.6816 90.4468 9.98859 90.4507 10.3448C90.4468 10.701 90.602 11.0061 90.918 11.258C91.233 11.511 91.6888 11.7011 92.2842 11.8305C92.8796 11.9599 93.5964 12.0245 94.4346 12.0245C95.2729 12.0245 95.9849 11.9599 96.5822 11.8305C97.1796 11.7011 97.6372 11.51 97.9542 11.258C98.2721 11.0061 98.4311 10.701 98.4311 10.3448C98.4311 9.98859 98.2721 9.6816 97.9542 9.42481C97.6363 9.16803 97.1776 8.97303 96.5784 8.83884C95.9791 8.70562 95.2642 8.63805 94.4346 8.63805ZM94.4289 18.6884C93.6118 18.6923 92.9143 18.755 92.3391 18.8767C91.7629 18.9973 91.3246 19.174 91.024 19.4047C90.7234 19.6364 90.575 19.9173 90.5788 20.2484C90.575 20.5796 90.7224 20.8624 91.024 21.098C91.3246 21.3335 91.7629 21.5131 92.3391 21.6357C92.9152 21.7583 93.6118 21.8181 94.4289 21.8143C95.2382 21.8181 95.9299 21.7592 96.5061 21.6357C97.0823 21.5131 97.5226 21.3335 97.828 21.098C98.1334 20.8624 98.2876 20.5796 98.2914 20.2484C98.2876 19.9173 98.1324 19.6364 97.828 19.4047C97.5226 19.173 97.0832 18.9973 96.51 18.8767C95.9357 18.756 95.243 18.6932 94.4298 18.6884H94.4289ZM92.3449 12.4821V15.4931H90.6299V12.4821H92.3449ZM98.2278 12.4821V15.4931H96.5311V12.4821H98.2278Z" fill="black"/>
<path d="M117.693 15.2894V16.6834H103.018V15.2894H117.693ZM110.896 9.70091C110.896 10.5369 110.615 11.2744 110.051 11.9126C109.487 12.5516 108.712 13.0671 107.722 13.4591C106.734 13.852 105.599 14.1078 104.32 14.2265L103.793 12.9088C104.898 12.82 105.876 12.6279 106.725 12.3325C107.574 12.038 108.233 11.6625 108.701 11.2059C109.169 10.7503 109.403 10.2483 109.403 9.70091V9.4142H110.897V9.70091H110.896ZM116.219 8.56178V9.93067H104.492V8.56178H116.219ZM110.336 17.7462C111.505 17.7462 112.505 17.8505 113.334 18.058C114.165 18.2656 114.799 18.5706 115.237 18.9713C115.676 19.3719 115.897 19.8613 115.901 20.4386C115.897 21.0159 115.676 21.5063 115.237 21.9089C114.799 22.3114 114.165 22.6165 113.334 22.8221C112.504 23.0277 111.505 23.131 110.336 23.131C109.167 23.131 108.165 23.0277 107.331 22.8221C106.497 22.6165 105.858 22.3114 105.416 21.9089C104.973 21.5053 104.752 21.0159 104.752 20.4386C104.752 19.8613 104.973 19.3729 105.416 18.9713C105.858 18.5706 106.497 18.2656 107.331 18.058C108.165 17.8505 109.167 17.7462 110.336 17.7462ZM110.336 19.0263C109.51 19.0263 108.809 19.0794 108.233 19.1856C107.657 19.2918 107.22 19.452 106.924 19.6663C106.628 19.8806 106.482 20.1384 106.486 20.4396C106.482 20.7408 106.628 20.9966 106.924 21.207C107.221 21.4175 107.657 21.5748 108.233 21.681C108.809 21.7872 109.509 21.8384 110.336 21.8336C111.158 21.8374 111.855 21.7872 112.43 21.681C113.004 21.5748 113.44 21.4165 113.742 21.207C114.043 20.9966 114.195 20.7417 114.2 20.4396C114.196 20.1384 114.043 19.8806 113.742 19.6663C113.441 19.452 113.004 19.2918 112.43 19.1856C111.855 19.0794 111.158 19.0263 110.336 19.0263ZM111.181 7.02107V9.30608H109.504V7.02107H111.181ZM111.181 13.4311V15.9323H109.504V13.4311H111.181ZM111.283 9.70091C111.279 10.2483 111.51 10.7503 111.976 11.2059C112.442 11.6625 113.1 12.038 113.952 12.3325C114.804 12.6279 115.784 12.819 116.893 12.9088L116.379 14.2265C115.096 14.1078 113.959 13.852 112.967 13.4591C111.976 13.0662 111.199 12.5507 110.636 11.9126C110.072 11.2735 109.791 10.5369 109.791 9.70091V9.4142H111.284V9.70091H111.283Z" fill="black"/>
<path d="M123.374 8.02697C124.153 8.03083 124.861 8.20846 125.499 8.55889C126.137 8.90931 126.639 9.39489 127.008 10.0166C127.376 10.6383 127.563 11.3391 127.567 12.1201C127.563 12.8963 127.376 13.5961 127.008 14.2178C126.639 14.8395 126.137 15.3241 125.499 15.6726C124.861 16.0202 124.153 16.1949 123.374 16.1949C122.594 16.1949 121.857 16.0211 121.213 15.6726C120.57 15.3251 120.066 14.8395 119.702 14.2178C119.338 13.5961 119.157 12.8972 119.162 12.1201C119.158 11.3391 119.338 10.6383 119.702 10.0166C120.066 9.39489 120.57 8.90931 121.213 8.55889C121.857 8.20846 122.577 8.0318 123.374 8.02697ZM123.374 9.54838C122.878 9.55224 122.433 9.66326 122.039 9.8795C121.645 10.0957 121.337 10.3998 121.115 10.7898C120.893 11.1798 120.782 11.6239 120.782 12.1201C120.782 12.6163 120.893 13.0662 121.115 13.4571C121.338 13.8471 121.646 14.1503 122.039 14.3646C122.433 14.5789 122.877 14.686 123.374 14.686C123.87 14.686 124.292 14.5789 124.679 14.3646C125.066 14.1503 125.373 13.8481 125.597 13.4571C125.822 13.0671 125.934 12.6211 125.934 12.1201C125.934 11.6191 125.822 11.1798 125.597 10.7898C125.373 10.3998 125.066 10.0957 124.679 9.8795C124.292 9.66326 123.856 9.55321 123.374 9.54838ZM123.595 17.696V22.0623H121.893V17.696H123.595ZM132.769 21.4262V22.8269H121.893V21.4262H132.769ZM131.238 9.47791V10.8719H126.384V9.47791H131.238ZM131.238 13.3413V14.742H126.384V13.3413H131.238ZM132.343 7.04037V18.9182H130.641V7.04037H132.343Z" fill="black"/>
<path d="M144.431 8.61198V9.98666H134.852V8.61198H144.431ZM139.648 10.6431C140.415 10.6431 141.092 10.7599 141.681 10.9935C142.269 11.2271 142.727 11.5583 143.053 11.9869C143.378 12.4155 143.544 12.9117 143.548 13.4764C143.544 14.045 143.378 14.5422 143.053 14.9689C142.726 15.3956 142.269 15.7257 141.681 15.9584C141.092 16.192 140.415 16.3088 139.648 16.3088C138.881 16.3088 138.189 16.192 137.596 15.9584C137.003 15.7248 136.543 15.3946 136.217 14.9689C135.89 14.5432 135.727 14.045 135.727 13.4764C135.727 12.9078 135.89 12.4155 136.217 11.9869C136.542 11.5583 137.001 11.2271 137.593 10.9935C138.183 10.7599 138.868 10.6431 139.648 10.6431ZM138.866 17.0975V18.6633H145.772V17.0975H147.481V22.9534H137.176V17.0975H138.866ZM139.648 11.9222C139.195 11.9183 138.794 11.9792 138.447 12.1066C138.099 12.234 137.834 12.4165 137.647 12.6539C137.461 12.8914 137.369 13.1656 137.374 13.4755C137.37 13.7892 137.461 14.0643 137.647 14.2999C137.833 14.5354 138.099 14.7169 138.447 14.8444C138.794 14.9718 139.195 15.0355 139.648 15.0355C140.101 15.0355 140.499 14.9718 140.842 14.8444C141.185 14.7169 141.452 14.5354 141.643 14.2999C141.834 14.0643 141.931 13.7892 141.935 13.4755C141.931 13.1656 141.833 12.8924 141.643 12.6539C141.452 12.4165 141.185 12.234 140.842 12.1066C140.499 11.9792 140.102 11.9174 139.648 11.9222ZM140.498 6.88688V9.36979H138.802V6.88688H140.498ZM138.866 21.5845H145.772V19.9936H138.866V21.5845ZM147.481 7.02686V16.4217H145.772V7.02686H147.481ZM149.812 11.0756V12.514H146.77V11.0756H149.812Z" fill="black"/>
<path d="M150.823 18.7714H151.103C152.513 18.7627 153.731 18.7473 154.755 18.7241C155.78 18.701 156.875 18.6556 158.04 18.5871C159.204 18.5195 160.308 18.4152 161.349 18.2752L161.476 19.5611C160.371 19.7436 159.216 19.8826 158.011 19.9781C156.805 20.0737 155.658 20.1345 154.567 20.1596C153.477 20.1847 152.309 20.1982 151.063 20.1982L150.822 18.7724L150.823 18.7714ZM160.988 8.94986V10.3187H151.159V8.94986H160.988ZM156.065 11.1393C156.839 11.1393 157.527 11.2658 158.126 11.5177C158.726 11.7706 159.19 12.124 159.52 12.5777C159.851 13.0314 160.016 13.5575 160.016 14.156C160.016 14.7546 159.851 15.2672 159.52 15.719C159.19 16.1708 158.726 16.5212 158.126 16.7693C157.527 17.0174 156.84 17.1419 156.065 17.1419C155.289 17.1419 154.606 17.0174 154.012 16.7693C153.419 16.5212 152.961 16.1708 152.636 15.719C152.313 15.2672 152.153 14.7459 152.157 14.156C152.153 13.5575 152.313 13.0314 152.636 12.5777C152.96 12.124 153.419 11.7706 154.012 11.5177C154.605 11.2658 155.289 11.1393 156.065 11.1393ZM156.065 12.4638C155.616 12.4638 155.216 12.5342 154.864 12.6742C154.512 12.8142 154.241 13.0111 154.048 13.266C153.855 13.5208 153.761 13.8172 153.766 14.157C153.762 14.492 153.855 14.7855 154.048 15.0355C154.241 15.2855 154.512 15.4786 154.864 15.6147C155.216 15.7508 155.616 15.8165 156.065 15.8116C156.522 15.8155 156.926 15.7499 157.278 15.6147C157.629 15.4786 157.902 15.2855 158.097 15.0355C158.292 14.7855 158.389 14.492 158.389 14.157C158.389 13.822 158.292 13.5208 158.097 13.266C157.903 13.0111 157.629 12.8142 157.278 12.6742C156.926 12.5342 156.521 12.4638 156.065 12.4638ZM156.948 7.05872V9.69994H155.239V7.05872H156.948ZM156.941 16.7345V19.3893H155.239V16.7345H156.941ZM164.051 7.02686V23.1571H162.348V7.02686H164.051Z" fill="black"/>
<path d="M21.7657 16.0317C22.8357 16.0317 23.7032 15.1626 23.7032 14.0904C23.7032 13.0182 22.8357 12.1491 21.7657 12.1491C20.6956 12.1491 19.8281 13.0182 19.8281 14.0904C19.8281 15.1626 20.6956 16.0317 21.7657 16.0317Z" fill="#ECD531"/>
<path d="M30.7415 17.0285C31.6871 16.8832 32.3362 15.9972 32.1911 15.0497C32.0461 14.1022 31.1619 13.4519 30.2162 13.5972C29.2705 13.7425 28.6215 14.6285 28.7665 15.576C28.9116 16.5235 29.7958 17.1738 30.7415 17.0285Z" fill="#E62766"/>
<path d="M14.2783 16.5378C14.9548 15.8599 14.9548 14.7609 14.2783 14.0831C13.6018 13.4053 12.505 13.4053 11.8285 14.0831C11.1519 14.7609 11.1519 15.8599 11.8285 16.5378C12.505 17.2156 13.6018 17.2156 14.2783 16.5378Z" fill="#2BB286"/>
<path d="M25.9141 21.1443L25.9391 21.1202L26.5355 20.5236L28.554 18.5011C29.0935 17.9605 29.8103 17.6632 30.5724 17.6632C31.3345 17.6632 32.0523 17.9605 32.5919 18.5011C33.1276 19.0379 33.406 19.7368 33.4253 20.4415V20.4492C33.4253 20.4492 33.4253 20.457 33.4253 20.4608C33.4253 20.5023 33.4253 20.5438 33.4253 20.5854C33.4253 20.5892 33.4253 20.5931 33.4253 20.5969V20.6047C33.405 21.905 32.9012 23.1986 31.9126 24.189C31.3952 24.7084 30.7863 25.1032 30.1235 25.361C29.5357 25.5888 28.9037 25.7085 28.2534 25.7085C28.1936 25.7085 28.1349 25.7076 28.0761 25.7056C28.7216 25.6796 29.3334 25.4633 29.8479 25.0859C29.9828 24.9874 30.11 24.8773 30.2304 24.7576C30.8181 24.1688 31.1534 23.3859 31.1756 22.5518C31.1756 22.5518 31.1756 22.5508 31.1756 22.5499C31.1756 22.5421 31.1765 22.5354 31.1765 22.5286V22.4157C31.165 22.1869 31.0706 21.9735 30.9097 21.8114C30.8923 21.794 30.8759 21.7776 30.8576 21.7631C30.8461 21.7525 30.8335 21.7419 30.821 21.7332C30.8152 21.7283 30.8104 21.7245 30.8046 21.7206C30.796 21.7139 30.7873 21.7071 30.7786 21.7023C30.7728 21.6984 30.7671 21.6946 30.7613 21.6907C30.7545 21.6868 30.7488 21.682 30.742 21.6781C30.742 21.6781 30.7411 21.6772 30.7391 21.6772C30.7353 21.6743 30.7305 21.6723 30.7266 21.6695C30.7121 21.6608 30.6977 21.653 30.6832 21.6453C30.6765 21.6415 30.6688 21.6376 30.6611 21.6347C30.6534 21.6308 30.6466 21.627 30.6389 21.6241C30.6312 21.6202 30.6245 21.6173 30.6168 21.6144C30.6091 21.6115 30.6013 21.6086 30.5936 21.6057C30.583 21.6019 30.5724 21.598 30.5618 21.5942C30.5406 21.5864 30.5204 21.5806 30.4992 21.5748C30.4925 21.5729 30.4857 21.571 30.479 21.57C30.4636 21.5662 30.4482 21.5633 30.4327 21.5604C30.4212 21.5584 30.4096 21.5565 30.3981 21.5546C30.3981 21.5546 30.3971 21.5546 30.3961 21.5546C30.3961 21.5546 30.3952 21.5546 30.3942 21.5546C30.3932 21.5546 30.3913 21.5546 30.3894 21.5546C30.374 21.5526 30.3576 21.5507 30.3412 21.5497C30.3354 21.5497 30.3306 21.5488 30.3248 21.5488C30.3171 21.5488 30.3085 21.5478 30.2998 21.5478C30.2824 21.5469 30.2651 21.5468 30.2478 21.5468H30.24C30.24 21.5468 30.2323 21.5468 30.2285 21.5468C30.2131 21.5468 30.1986 21.5478 30.1842 21.5497C30.1726 21.5497 30.162 21.5517 30.1514 21.5526C29.9452 21.5758 29.7602 21.6656 29.6109 21.8152L28.0954 23.3328L25.915 21.1482L25.9141 21.1443Z" fill="url(#paint0_linear_183_820)"/>
<path d="M17.4082 25.2529C17.4959 25.2133 17.5816 25.1708 17.6664 25.1264C17.9535 24.9768 18.2281 24.7992 18.4854 24.5945L19.7735 23.3038L20.8497 24.3811C20.922 24.4536 21.001 24.5163 21.0848 24.5684C21.2929 24.6978 21.5299 24.7615 21.7669 24.7615C22.004 24.7615 22.24 24.6978 22.4491 24.5684C22.5329 24.5163 22.6119 24.4545 22.6842 24.3811L23.7604 23.3028L25.0485 24.5935C25.3058 24.7982 25.5804 24.9758 25.8675 25.1264C25.9523 25.1708 26.039 25.2123 26.1257 25.2529L24.6872 26.6942C23.8808 27.5022 22.8239 27.9057 21.7669 27.9047C20.71 27.9047 19.6531 27.5022 18.8467 26.6942L17.4082 25.2529Z" fill="url(#paint1_linear_183_820)"/>
<path d="M10.1074 20.5854C10.1074 20.5438 10.1074 20.5023 10.1074 20.4608C10.1074 20.457 10.1074 20.4531 10.1074 20.4492V20.4415C10.1267 19.7368 10.4051 19.0379 10.9408 18.5011C11.4794 17.9605 12.1972 17.6632 12.9603 17.6632C13.7233 17.6632 14.4401 17.9605 14.9787 18.5011L16.9972 20.5236L17.5936 21.1211L17.6186 21.1453L15.4383 23.3299L13.9228 21.8123C13.7725 21.6617 13.5875 21.5719 13.3823 21.5497C13.3717 21.5488 13.3601 21.5468 13.3495 21.5468C13.335 21.5459 13.3196 21.544 13.3052 21.544C13.3013 21.544 13.2975 21.544 13.2936 21.544H13.2859C13.2686 21.544 13.2503 21.544 13.2339 21.5449C13.2252 21.5449 13.2175 21.5449 13.2088 21.5459C13.2031 21.5459 13.1982 21.5468 13.1925 21.5468C13.1761 21.5478 13.1597 21.5497 13.1443 21.5517C13.1433 21.5517 13.1414 21.5517 13.1395 21.5517C13.1395 21.5517 13.1385 21.5517 13.1375 21.5517C13.1375 21.5517 13.1366 21.5517 13.1356 21.5517C13.124 21.5536 13.1125 21.5555 13.1009 21.5575C13.0855 21.5604 13.0701 21.5633 13.0547 21.5671C13.0479 21.5681 13.0412 21.57 13.0344 21.5719C13.0132 21.5768 12.9921 21.5835 12.9718 21.5913C12.9612 21.5951 12.9506 21.599 12.941 21.6028C12.9333 21.6057 12.9256 21.6086 12.9179 21.6115C12.9102 21.6144 12.9024 21.6183 12.8957 21.6212C12.888 21.6241 12.8803 21.6279 12.8735 21.6318C12.8658 21.6347 12.8591 21.6386 12.8514 21.6424C12.8369 21.6501 12.8225 21.6579 12.808 21.6666C12.8042 21.6695 12.7994 21.6714 12.7955 21.6743C12.7945 21.6743 12.7936 21.6743 12.7926 21.6752C12.7859 21.6791 12.7791 21.683 12.7733 21.6878C12.7676 21.6917 12.7618 21.6955 12.756 21.6994C12.7473 21.7052 12.7387 21.711 12.73 21.7177C12.7242 21.7216 12.7194 21.7254 12.7136 21.7303C12.7011 21.7399 12.6886 21.7496 12.677 21.7602C12.6587 21.7747 12.6413 21.7911 12.625 21.8085C12.4641 21.9697 12.3697 22.184 12.3581 22.4128V22.5257C12.3581 22.5325 12.3581 22.5402 12.3591 22.547C12.3591 22.547 12.3591 22.5479 12.3591 22.5489C12.3802 23.3839 12.7155 24.1659 13.3042 24.7547C13.4247 24.8754 13.5518 24.9845 13.6867 25.083C14.2012 25.4604 14.813 25.6757 15.4585 25.7027C15.3998 25.7047 15.341 25.7056 15.2813 25.7056C14.6319 25.7056 13.9998 25.5859 13.4112 25.3581C12.7473 25.1013 12.1394 24.7055 11.622 24.1861C10.6335 23.1957 10.1296 21.9021 10.1093 20.6018V20.594C10.1093 20.594 10.1093 20.5863 10.1093 20.5825L10.1074 20.5854Z" fill="url(#paint2_linear_183_820)"/>
<path d="M12.3574 22.5508C12.3593 22.6039 12.3661 22.6609 12.3767 22.7188C12.6156 24.0327 14.2497 24.5192 15.192 23.5751L15.4386 23.3279L20.5999 18.1565C20.6038 18.1536 20.6067 18.1517 20.6105 18.1488C21.2984 17.6507 22.2349 17.6507 22.9238 18.1488C22.9277 18.1517 22.9305 18.1536 22.9344 18.1565L25.9154 21.1433L28.0957 23.3279L28.3424 23.5751C29.2856 24.5202 30.9187 24.0327 31.1576 22.7188C31.1682 22.6599 31.175 22.6039 31.1769 22.5508C31.1557 23.3859 30.8204 24.1678 30.2317 24.7567C30.1113 24.8773 29.9841 24.9864 29.8492 25.0849C29.3347 25.4624 28.7229 25.6776 28.0774 25.7047C27.639 25.6902 27.2112 25.6207 26.7998 25.501C26.7998 25.501 26.7998 25.501 26.7989 25.501C26.5696 25.4344 26.3441 25.3504 26.1264 25.2519C26.0387 25.2123 25.953 25.1698 25.8682 25.1254C25.5811 24.9758 25.3065 24.7982 25.0492 24.5935L23.7611 23.3028L23.737 23.2777L22.2214 21.7592C22.2214 21.7592 22.2185 21.7563 22.2176 21.7554C21.9709 21.5102 21.5663 21.5102 21.3196 21.7554C21.3187 21.7563 21.3167 21.7583 21.3158 21.7592L19.8002 23.2777L19.7761 23.3019L18.488 24.5926C18.2307 24.7972 17.9561 24.9748 17.669 25.1254C17.5842 25.1698 17.4975 25.2114 17.4108 25.2519C17.1931 25.3504 16.9676 25.4334 16.7383 25.501C16.7383 25.501 16.7383 25.501 16.7374 25.501C16.326 25.6207 15.8982 25.6902 15.4598 25.7047C14.8143 25.6786 14.2025 25.4624 13.688 25.0849C13.5531 24.9864 13.4259 24.8764 13.3055 24.7567C12.7178 24.1678 12.3825 23.3849 12.3603 22.5508H12.3574Z" fill="url(#paint3_radial_183_820)"/>
<path d="M14.7422 33.3271V29.485H15.4291V31.2545H15.4802L16.9794 29.485H17.8234L16.3367 31.2091L17.8349 33.3271H17.0044L15.8579 31.6764L15.4291 32.1832V33.3271H14.7422Z" fill="black"/>
<path d="M18.2627 33.3271V29.485H19.7291C19.9989 29.485 20.2262 29.5275 20.4112 29.6115C20.5962 29.6955 20.7359 29.8132 20.8284 29.9638C20.9219 30.1144 20.9681 30.2872 20.9681 30.4822C20.9681 30.6319 20.9392 30.7631 20.8804 30.8751C20.8226 30.9871 20.7436 31.0779 20.6434 31.1483C20.5432 31.2188 20.4286 31.268 20.2985 31.298V31.3356C20.4382 31.3433 20.5712 31.3858 20.6964 31.463C20.8217 31.5403 20.9228 31.6493 21.0009 31.7903C21.0779 31.9312 21.1165 32.0944 21.1165 32.2788C21.1165 32.4825 21.0673 32.663 20.9691 32.8213C20.8718 32.9786 20.7243 33.1022 20.5297 33.191C20.3341 33.2808 20.0942 33.3252 19.81 33.3252H18.2617L18.2627 33.3271ZM19.6433 31.1213C19.7638 31.1213 19.8736 31.0981 19.97 31.0528C20.0673 31.0074 20.1424 30.9437 20.1983 30.8606C20.2532 30.7786 20.2812 30.6811 20.2812 30.5701C20.2812 30.4706 20.258 30.3818 20.2099 30.3046C20.1626 30.2274 20.0923 30.1675 19.9979 30.1231C19.9044 30.0797 19.7907 30.0575 19.6568 30.0575H18.9487V31.1213H19.6414H19.6433ZM19.7031 32.7489C19.8669 32.7489 20.0017 32.7267 20.1087 32.6832C20.2156 32.6398 20.2937 32.579 20.3447 32.5018C20.3958 32.4245 20.4199 32.3328 20.4199 32.2276C20.4199 32.1127 20.391 32.0094 20.3332 31.9168C20.2754 31.825 20.1935 31.7526 20.0885 31.6995C19.9834 31.6465 19.862 31.6194 19.7233 31.6194H18.9496V32.7489H19.7021H19.7031Z" fill="black"/>
<path d="M24.248 30.712C24.2056 30.5749 24.143 30.4562 24.0601 30.3587C23.9772 30.2602 23.8751 30.1849 23.7537 30.1328C23.6333 30.0806 23.4965 30.0536 23.3442 30.0536C23.1361 30.0536 22.9511 30.1067 22.7902 30.2119C22.6294 30.3171 22.5031 30.4716 22.4126 30.6743C22.322 30.8771 22.2758 31.1203 22.2758 31.4022C22.2758 31.6841 22.321 31.9341 22.4106 32.1369C22.5002 32.3405 22.6274 32.495 22.7912 32.6002C22.955 32.7064 23.1448 32.7585 23.3597 32.7585C23.5543 32.7585 23.7239 32.7209 23.8664 32.6456C24.01 32.5703 24.1208 32.4622 24.1988 32.3241C24.2769 32.1851 24.3164 32.0229 24.3164 31.8366L24.4715 31.8608H23.429V31.3182H24.985V31.7777C24.985 32.1011 24.9157 32.385 24.7769 32.6263C24.6382 32.8686 24.4465 33.0539 24.1998 33.1843C23.9532 33.3146 23.6728 33.3793 23.3587 33.3793C23.007 33.3793 22.6968 33.2991 22.4289 33.1399C22.1611 32.9806 21.953 32.7518 21.8056 32.4545C21.6582 32.1571 21.584 31.8086 21.584 31.4099C21.584 31.0112 21.6591 30.655 21.8104 30.3567C21.9617 30.0584 22.1698 29.8296 22.4347 29.6704C22.6997 29.512 23.0003 29.4319 23.3356 29.4319C23.614 29.4319 23.8693 29.486 24.1006 29.5941C24.3318 29.7022 24.5216 29.8528 24.6709 30.0459C24.8193 30.239 24.9137 30.461 24.9542 30.711H24.2499L24.248 30.712Z" fill="black"/>
<path d="M25.9743 33.3271H25.2363L26.5881 29.485H27.4379L28.7896 33.3271H28.0535L27.0274 30.2698H26.9976L25.9734 33.3271H25.9743ZM26.0023 31.8212H28.0227V32.3763H26.0023V31.8212Z" fill="black"/>
<path d="M9.91965 30.1202L9.78958 30.211L9.54679 29.9725L7.79905 31.1908L7.93779 31.5016L7.80772 31.5924L7.23157 30.7622C7.09861 30.571 7.03791 30.3847 7.05044 30.2052C7.06296 30.0256 7.14582 29.8818 7.29997 29.7737C7.41559 29.6935 7.53602 29.6568 7.66224 29.6646C7.78845 29.6723 7.91274 29.7206 8.03607 29.8094C7.99175 29.7041 7.97055 29.597 7.97055 29.4889C7.97055 29.3807 7.99367 29.2784 8.03799 29.1819C8.08328 29.0863 8.15072 29.0062 8.24225 28.9425C8.42049 28.8179 8.60451 28.7813 8.79335 28.8295C8.98219 28.8788 9.15755 29.0197 9.31941 29.2533L9.92061 30.1192L9.91965 30.1202ZM8.41278 30.4185L8.2856 30.2351C8.16421 30.0613 8.03414 29.9571 7.89347 29.9242C7.75281 29.8914 7.60636 29.9281 7.45413 30.0343C7.23639 30.1859 7.2335 30.4127 7.44353 30.7158C7.46762 30.7506 7.49749 30.7902 7.53313 30.8346C7.56878 30.879 7.60443 30.9195 7.64008 30.9562L8.41278 30.4175V30.4185ZM9.16911 29.3875C9.07083 29.2456 8.95714 29.1597 8.82708 29.1288C8.69797 29.0979 8.56405 29.1298 8.42723 29.2253C8.28368 29.3257 8.21045 29.4416 8.2066 29.5729C8.20275 29.7051 8.2673 29.8654 8.39833 30.0546L8.57272 30.3065L9.38107 29.7428C9.3618 29.7012 9.33193 29.6472 9.29147 29.5796C9.251 29.512 9.20957 29.4483 9.16718 29.3875H9.16911Z" fill="black"/>
<path d="M8.905 28.6654L8.76434 28.7397L8.55141 28.4743L6.67072 29.4754L6.77092 29.8007L6.63025 29.875L5.79492 28.3005L6.34892 28.0051L6.43081 28.1596L6.08878 28.4318L6.30652 28.843L6.53294 29.2273L7.36442 28.7851L7.04165 28.1769L6.82102 28.2358L6.74876 28.0987L7.30275 27.8033L7.37501 27.9404L7.20641 28.0891L7.5282 28.6973L8.38473 28.2416C8.37317 28.1847 8.34908 28.1132 8.31343 28.0273C8.27778 27.9414 8.24021 27.8603 8.20071 27.785L7.98778 27.3844L7.5889 27.506L7.50508 27.3477L8.04848 27.0581L8.90019 28.6644L8.905 28.6654Z" fill="black"/>
<path d="M8.19729 27.4172L8.04506 27.4761L7.91692 27.2743L5.37817 27.3014L5.32422 27.1604L7.21262 25.4392L7.1683 25.192L7.32053 25.1332L7.63558 25.9547L7.48336 26.0136L7.32149 25.7259L6.89178 26.113L7.2579 27.0677L7.82635 27.0407L7.75795 26.7299L7.91017 26.671L8.19632 27.4182L8.19729 27.4172ZM7.04305 27.0726L6.73089 26.2588L5.91772 26.9895L5.78668 27.0909L5.79343 27.1093L5.95722 27.0928L7.04305 27.0716V27.0726Z" fill="black"/>
<path d="M7.23164 24.4169C7.28752 24.6543 7.28655 24.8465 7.22971 24.9922C7.17287 25.138 7.06592 25.2529 6.90791 25.3359C6.75087 25.4189 6.55239 25.4894 6.31249 25.5454L5.09466 25.8321L5.11489 26.1622L4.95592 26.1999L4.73914 25.2741L4.89811 25.2365L5.02818 25.5492L6.24601 25.2625C6.47531 25.2085 6.65066 25.1476 6.77013 25.0801C6.88961 25.0125 6.96379 24.9208 6.99173 24.8049C7.01967 24.6891 7.01004 24.5346 6.96476 24.3416C6.92333 24.1659 6.85781 24.0394 6.76821 23.9622C6.6786 23.8849 6.56299 23.8444 6.42329 23.8386C6.28358 23.8338 6.11787 23.8531 5.9271 23.8985L4.71698 24.1832L4.73432 24.5182L4.5715 24.5568L4.37109 23.7006L4.53392 23.6629L4.66688 23.967L5.877 23.6822C6.05717 23.6397 6.22096 23.6156 6.36644 23.6098C6.51192 23.604 6.64103 23.6253 6.75279 23.6726C6.86455 23.7199 6.95994 23.8039 7.03991 23.9236C7.11987 24.0442 7.18443 24.2083 7.23356 24.4178L7.23164 24.4169Z" fill="black"/>
<path d="M6.89394 22.879L6.73208 22.8945L6.64537 22.5711L4.50261 22.7777L4.55945 23.3723L4.99012 23.411L5.0065 23.5857L4.38217 23.6455L4.19141 21.6646L4.81573 21.6048L4.83308 21.7834L4.41686 21.8953L4.47467 22.4977L6.61742 22.2911L6.64151 21.9571L6.80337 21.9417L6.89394 22.881V22.879Z" fill="black"/>
<path d="M6.77541 21.1926L6.61258 21.1897L6.56248 20.8585L5.86782 20.847L4.40431 21.6588L4.33686 21.8683L4.18945 21.8654L4.20487 20.9541L4.35228 20.957L4.41009 21.3045H4.48524L5.64429 20.6761V20.6645L4.50258 20.0206H4.43128L4.36288 20.3411L4.21643 20.3382L4.22896 19.5466L4.37637 19.5495L4.42936 19.7291L5.84566 20.5602L6.56826 20.5718L6.62896 20.2465L6.79179 20.2494L6.77637 21.1926H6.77541Z" fill="black"/>
<path d="M7.0572 18.3418C6.99265 18.7048 6.84331 18.9684 6.61015 19.1315C6.37699 19.2947 6.03207 19.3352 5.57538 19.2541C5.39521 19.2223 5.23046 19.1634 5.08016 19.0784C4.92986 18.9935 4.80268 18.8873 4.69862 18.7598C4.59457 18.6324 4.52134 18.4867 4.47799 18.3225C4.43463 18.1584 4.42981 17.9808 4.46354 17.7906C4.50015 17.584 4.5435 17.419 4.59457 17.2944C4.64467 17.1699 4.68513 17.0917 4.715 17.0589L5.2979 17.1631L5.269 17.3234L4.81713 17.3678C4.78919 17.419 4.76028 17.4923 4.72945 17.5869C4.69959 17.6815 4.67646 17.7704 4.66201 17.8534C4.60613 18.169 4.65238 18.4094 4.80268 18.5716C4.95298 18.7347 5.21793 18.8496 5.5985 18.9182C5.8307 18.9597 6.03592 18.9684 6.2132 18.9433C6.39144 18.9182 6.53596 18.8516 6.64869 18.7425C6.76141 18.6334 6.83656 18.4712 6.87414 18.2569C6.89148 18.1604 6.90112 18.0802 6.90304 18.0156C6.90497 17.9509 6.90112 17.893 6.89244 17.8399C6.88281 17.7868 6.86739 17.7308 6.8462 17.67L6.11492 17.5396L5.99642 17.7974L5.84034 17.7694L5.96366 17.0763L6.15539 17.11L6.14768 17.2664L7.18052 17.4508L7.15836 17.5763L7.03697 17.6439L7.02637 17.7028C7.04467 17.7491 7.06298 17.8215 7.08032 17.919C7.09766 18.0165 7.08996 18.1584 7.0572 18.3438V18.3418Z" fill="black"/>
<path d="M7.18146 17.4576L7.02923 17.4103L7.06777 17.0724L5.03581 16.4353L4.87587 16.7355L4.72461 16.6882L5.25548 14.9863L5.85476 15.1745L5.80273 15.3415L5.36917 15.2894L5.23043 15.7334L5.11674 16.165L6.01566 16.4468L6.22088 15.7894L6.02433 15.6736L6.07058 15.5259L6.66986 15.7132L6.62361 15.8609L6.40008 15.8445L6.19486 16.5019L7.1198 16.7915C7.15159 16.7432 7.18531 16.6756 7.22192 16.5897C7.25854 16.5038 7.28937 16.4208 7.31442 16.3397L7.4493 15.9062L7.08222 15.7083L7.13521 15.5375L7.72293 15.7219L7.18146 17.4576Z" fill="black"/>
<path d="M7.66376 15.8203L7.52695 15.7557L7.57994 15.494L5.64047 14.576L5.48535 14.7748L5.3418 14.7073L5.5605 14.2429L8.0241 13.8906L8.14164 13.8848L8.14646 13.8742L6.36789 13.0333L6.20218 13.237L6.06536 13.1723L6.3756 12.514L6.51241 12.5786L6.46135 12.8364L8.59544 13.8462L8.47115 14.1087L6.0355 14.4572L5.92855 14.4592L5.92373 14.4698L7.6734 15.2971L7.84297 15.0867L7.97978 15.1513L7.66472 15.8213L7.66376 15.8203Z" fill="black"/>
<path d="M8.66995 13.7236L8.53699 13.6367L8.66609 13.322L6.88463 12.1539L6.64858 12.3991L6.51562 12.3122L7.48969 10.8198L8.01478 11.1644L7.9194 11.3111L7.51667 11.1422L7.26231 11.5322L7.03494 11.9164L7.82305 12.4329L8.19977 11.8566L8.04176 11.6915L8.12655 11.5612L8.65164 11.9058L8.56685 12.0361L8.35585 11.9598L7.97914 12.5362L8.79038 13.0681C8.8347 13.0304 8.88576 12.9754 8.94357 12.902C9.00234 12.8296 9.05437 12.7572 9.10062 12.6868L9.34823 12.3074L9.04955 12.0168L9.14686 11.8672L9.66232 12.2051L8.66802 13.7274L8.66995 13.7236Z" fill="black"/>
<path d="M9.60022 12.2832L9.47882 12.1809L9.6455 11.8846L8.0182 10.5089L7.75421 10.7232L7.63281 10.6209L8.35542 9.76366C8.43924 9.66422 8.53462 9.58603 8.64253 9.52714C8.75044 9.46922 8.8622 9.44219 8.97685 9.44509C9.09151 9.44895 9.20134 9.49432 9.30732 9.5841C9.41042 9.67098 9.48557 9.7569 9.53181 9.83896C9.57806 9.92198 9.60504 10.0031 9.61178 10.0842C9.61852 10.1643 9.61467 10.2434 9.60022 10.3197C9.58577 10.396 9.56842 10.4713 9.54915 10.5446L10.6205 10.7107L10.8547 10.5495L10.9761 10.6518L10.7708 10.8951C10.7352 10.9375 10.7015 10.9646 10.6687 10.9752C10.6369 10.9868 10.5955 10.9897 10.5444 10.9848L9.42872 10.7918L9.1628 11.1084L9.8276 11.6702L10.0916 11.4559L10.213 11.5592L9.60022 12.2861V12.2832ZM9.01058 10.9781L9.19556 10.7589C9.27746 10.6614 9.33141 10.5591 9.3555 10.452C9.38055 10.3448 9.37766 10.2405 9.34779 10.1401C9.31792 10.0398 9.26011 9.95383 9.17533 9.8824C9.08476 9.80517 8.99998 9.76076 8.92194 9.74821C8.8439 9.73566 8.77356 9.74435 8.70997 9.77235C8.64638 9.80034 8.5905 9.83702 8.54137 9.8824C8.49223 9.92777 8.4508 9.97121 8.41708 10.0118C8.38432 10.0504 8.34867 10.0957 8.31013 10.1479C8.27159 10.2 8.23594 10.2492 8.20415 10.2956L9.01154 10.9781H9.01058Z" fill="black"/>
<path d="M10.5888 11.0505L10.478 10.9308L10.6177 10.7367L9.65234 8.38319L9.76314 8.28086L12.0581 9.40164L12.2711 9.26939L12.3819 9.3891L11.7373 9.98665L11.6265 9.86695L11.8336 9.61016L11.3153 9.35338L10.5657 10.0475L10.8008 10.5668L11.0638 10.3882L11.1746 10.5079L10.5888 11.0514V11.0505ZM10.4809 9.84957L11.1197 9.25781L10.1408 8.77126L9.99823 8.68631L9.98378 8.69983L10.0599 8.84656L10.4819 9.84861L10.4809 9.84957Z" fill="black"/>
<path d="M12.1326 9.62464L12.0382 9.49625L12.2694 9.24719L11.0102 7.52691L10.7038 7.67365L10.6094 7.54526L11.4071 6.95928L11.5131 7.10409L11.2453 7.37053L12.493 9.07535L12.8677 8.8398L13.2271 8.57626L13.0441 8.19205L13.1886 8.08586L13.5528 8.58302L12.1336 9.62561L12.1326 9.62464Z" fill="black"/>
<path d="M12.8896 9.00585L12.8068 8.86587L12.9841 8.70466L12.5293 6.20148L12.6594 6.12425L14.6711 7.69875L14.9071 7.6138L14.99 7.75378L14.2356 8.20363L14.1527 8.06366L14.4081 7.8561L13.9543 7.49699L13.0765 8.02022L13.1989 8.57723L13.4928 8.45752L13.5756 8.5975L12.8896 9.00681V9.00585ZM13.0342 7.80784L13.7818 7.36184L12.9253 6.68223L12.8029 6.57024L12.7856 6.5799L12.8289 6.73918L13.0332 7.80784H13.0342Z" fill="black"/>
<path d="M15.3802 7.6611C15.2887 7.70261 15.1933 7.73447 15.094 7.75571C14.9948 7.77694 14.9033 7.78853 14.8195 7.79046C14.7356 7.79142 14.6692 7.78467 14.6181 7.77019L14.3975 7.28075L14.568 7.20352L14.7944 7.55105C14.8647 7.56553 14.9476 7.5665 15.043 7.55201C15.1384 7.5385 15.2193 7.51533 15.2877 7.4854C15.4804 7.39852 15.6018 7.29716 15.6509 7.18421C15.7001 7.0703 15.6943 6.94577 15.6326 6.81062C15.5883 6.71119 15.5286 6.64361 15.4534 6.60596C15.3783 6.56831 15.2935 6.54707 15.1981 6.54225C15.1027 6.53742 15.0025 6.53839 14.8985 6.54418C14.805 6.549 14.7087 6.55094 14.6113 6.54997C14.514 6.54997 14.4196 6.53839 14.3291 6.51811C14.2385 6.49784 14.1566 6.46116 14.0834 6.40903C14.0101 6.35593 13.9514 6.2816 13.908 6.1841C13.8483 6.05088 13.828 5.92345 13.8464 5.80182C13.8656 5.68018 13.9196 5.5682 14.0092 5.46587C14.0988 5.36451 14.2192 5.27956 14.3714 5.21005C14.4485 5.1753 14.5304 5.14441 14.6171 5.11641C14.7038 5.08938 14.7828 5.06814 14.8541 5.0527C14.9254 5.03725 14.9775 5.03049 15.0093 5.03049L15.2415 5.546L15.0825 5.6184L14.857 5.30079C14.8146 5.29693 14.7539 5.30272 14.6749 5.3172C14.5959 5.33265 14.514 5.35872 14.4302 5.39733C14.2712 5.46973 14.1643 5.55565 14.1103 5.65508C14.0564 5.75548 14.0574 5.86649 14.1132 5.99006C14.1624 6.09915 14.2298 6.17155 14.3165 6.20823C14.4032 6.24492 14.5005 6.26229 14.6104 6.26133C14.7202 6.2594 14.8329 6.25554 14.9495 6.24974C15.068 6.24299 15.1856 6.24395 15.2993 6.25264C15.4139 6.26229 15.518 6.29318 15.6124 6.34724C15.7059 6.40034 15.782 6.49205 15.8398 6.62044C15.8966 6.74594 15.9226 6.86275 15.9188 6.97087C15.9149 7.07899 15.8879 7.17649 15.8378 7.2653C15.7877 7.35315 15.7222 7.43134 15.6423 7.49795C15.5623 7.56456 15.4746 7.61959 15.3802 7.66207V7.6611Z" fill="black"/>
<path d="M16.7432 7.12243C16.6479 7.15429 16.5496 7.17649 16.4484 7.18711C16.3473 7.19869 16.2557 7.20062 16.1719 7.19387C16.0881 7.18711 16.0226 7.17359 15.9744 7.15332L15.8039 6.64361L15.9811 6.58472L16.1709 6.95349C16.2394 6.97473 16.3222 6.98438 16.4186 6.97956C16.5149 6.9757 16.5978 6.96121 16.6681 6.93805C16.8685 6.87047 16.9995 6.78262 17.0593 6.6745C17.119 6.56638 17.1257 6.44185 17.0785 6.30091C17.0438 6.19761 16.9918 6.12425 16.9205 6.07888C16.8502 6.03447 16.7673 6.00454 16.6729 5.99006C16.5785 5.97558 16.4793 5.96593 16.3742 5.96207C16.2808 5.95724 16.1854 5.94952 16.0881 5.9389C15.9908 5.92828 15.8983 5.90801 15.8106 5.87905C15.7229 5.85008 15.6449 5.80471 15.5774 5.74486C15.51 5.68501 15.4589 5.60488 15.4262 5.50449C15.3799 5.36644 15.3722 5.23708 15.404 5.11738C15.4349 4.99767 15.5004 4.89245 15.5996 4.79977C15.6988 4.70806 15.8279 4.63566 15.986 4.58257C16.0659 4.55554 16.1507 4.53333 16.2394 4.51403C16.328 4.49472 16.4089 4.48217 16.4821 4.47445C16.5554 4.46672 16.6074 4.46479 16.6392 4.46769L16.8184 5.00346L16.6527 5.05945L16.46 4.72061C16.4186 4.71192 16.3569 4.71192 16.2769 4.71868C16.197 4.7264 16.1131 4.74378 16.0255 4.77371C15.8597 4.8297 15.7451 4.90403 15.6815 4.99767C15.6179 5.09131 15.6073 5.20329 15.6507 5.33169C15.6882 5.44463 15.748 5.52379 15.8308 5.56916C15.9127 5.61454 16.0091 5.64157 16.118 5.65122C16.2268 5.66087 16.3396 5.6686 16.4561 5.67439C16.5746 5.67922 16.6912 5.69177 16.8039 5.713C16.9167 5.73424 17.0178 5.77575 17.1055 5.8385C17.1932 5.90125 17.2597 5.99972 17.304 6.13293C17.3473 6.26422 17.3628 6.38296 17.3473 6.49012C17.3329 6.59727 17.2963 6.69188 17.2375 6.7749C17.1787 6.85792 17.1055 6.92839 17.0188 6.98631C16.9321 7.0452 16.8396 7.09057 16.7423 7.1234L16.7432 7.12243Z" fill="black"/>
<path d="M18.5365 6.65809C18.155 6.73435 17.8438 6.67933 17.6039 6.49012C17.364 6.30187 17.204 6.01227 17.126 5.62226C17.0769 5.37513 17.0778 5.14054 17.1289 4.91948C17.1809 4.69841 17.2859 4.50823 17.4439 4.34895C17.6029 4.18966 17.8197 4.08251 18.0943 4.02748C18.3226 3.98115 18.5278 3.99273 18.7109 4.06224C18.894 4.13174 19.0471 4.24952 19.1714 4.41845C19.2957 4.58739 19.3834 4.79881 19.4345 5.05366C19.4711 5.23611 19.4846 5.41374 19.4749 5.58751C19.4653 5.76127 19.4268 5.92152 19.3603 6.06729C19.2938 6.21306 19.1926 6.33759 19.0587 6.44089C18.9238 6.54418 18.7504 6.61658 18.5375 6.65906L18.5365 6.65809ZM18.575 6.44282C18.7591 6.40613 18.8988 6.33276 18.9932 6.22271C19.0876 6.11363 19.1435 5.97075 19.1608 5.79506C19.1782 5.61936 19.1637 5.41664 19.1175 5.18495C19.0703 4.94844 19.0105 4.76116 18.9402 4.62408C18.8699 4.487 18.7899 4.38756 18.7003 4.32578C18.6107 4.264 18.5143 4.22924 18.4122 4.22152C18.3091 4.2138 18.2012 4.22152 18.0866 4.24469C18.0037 4.2611 17.9218 4.2833 17.8409 4.31033C17.76 4.33736 17.6858 4.37694 17.6193 4.43004C17.5528 4.48217 17.4998 4.55554 17.4603 4.64821C17.4208 4.74089 17.3986 4.86156 17.3948 5.00829C17.3909 5.15503 17.4102 5.33651 17.4536 5.55275C17.5056 5.8134 17.5827 6.01516 17.6838 6.15803C17.785 6.30091 17.9112 6.39455 18.0596 6.43799C18.2089 6.48143 18.3804 6.48336 18.575 6.44378V6.44282Z" fill="black"/>
<path d="M20.6815 6.37717C20.2826 6.4013 19.982 6.30863 19.7816 6.10011C19.5812 5.89159 19.4675 5.57689 19.4425 5.15502C19.4319 4.98029 19.4492 4.80942 19.4955 4.64338C19.5417 4.47734 19.614 4.32674 19.7132 4.19159C19.8124 4.05644 19.9377 3.94736 20.088 3.86434C20.2383 3.78132 20.4136 3.73305 20.615 3.72146C20.7547 3.71278 20.8915 3.71471 21.0235 3.72533C21.1555 3.73594 21.2692 3.75815 21.3636 3.7929L21.3993 4.39239L21.2287 4.40301L21.1189 3.96667C21.0515 3.95218 20.9686 3.94157 20.8684 3.93577C20.7682 3.92998 20.6699 3.92998 20.5716 3.93577C20.3809 3.94736 20.2248 4.00045 20.1015 4.09602C19.9782 4.19159 19.8895 4.32578 19.8356 4.50051C19.7806 4.67524 19.7614 4.88858 19.7758 5.14054C19.7864 5.31817 19.8144 5.47359 19.8596 5.60778C19.9049 5.74196 19.9666 5.85298 20.0446 5.94179C20.1227 6.03061 20.2171 6.09432 20.3269 6.1339C20.4368 6.17348 20.563 6.18989 20.7056 6.1812C20.825 6.17444 20.9214 6.15803 20.9975 6.1339C21.0727 6.10977 21.1314 6.08274 21.1738 6.05377C21.2162 6.02481 21.2461 6.00261 21.2634 5.9891L21.3154 5.59523L21.486 5.58461L21.5207 6.16093C21.4715 6.18506 21.4128 6.21306 21.3424 6.24299C21.2721 6.27388 21.1844 6.30187 21.0784 6.32697C20.9725 6.35207 20.8405 6.36945 20.6815 6.3791V6.37717Z" fill="black"/>
<path d="M21.4609 6.31539L21.4667 6.15224L21.7982 6.10784L21.8723 3.96763L21.5448 3.90006L21.5505 3.73691L22.4957 3.76973L22.4899 3.93288L22.1585 3.97728L22.0843 6.11749L22.4119 6.18506L22.4061 6.34821L21.4609 6.31539Z" fill="black"/>
<path d="M22.0762 6.28643L22.0964 6.12425L22.3344 6.10687L23.5156 3.85468L23.6649 3.87399L24.2806 6.3569L24.5186 6.43509L24.4983 6.59727L23.6274 6.48529L23.6476 6.32311L23.9771 6.31732L23.8413 5.75451L22.8286 5.62419L22.583 6.13873L22.8884 6.22561L22.8681 6.38779L22.0762 6.28643ZM22.926 5.43208L23.7892 5.5431L23.5329 4.47927L23.506 4.31516L23.4857 4.31226L23.4221 4.46479L22.926 5.43208Z" fill="black"/>
<path d="M24.4261 6.6243L24.4647 6.46598L24.798 6.48915L25.3048 4.39239L24.7258 4.25145L24.5485 4.64628L24.3789 4.60477L24.5263 3.99369L26.4571 4.46189L26.3097 5.07297L26.1363 5.03049L26.1671 4.59994L25.5804 4.45803L25.0736 6.5548L25.3809 6.68705L25.3424 6.84537L24.4271 6.62334L24.4261 6.6243Z" fill="black"/>
<path d="M25.625 6.92839L25.677 6.77393L26.0075 6.82606L26.6848 4.79494L26.39 4.63759L26.442 4.48313L27.339 4.78336L27.287 4.93782L26.9565 4.88569L26.2792 6.91681L26.574 7.07416L26.522 7.22862L25.625 6.92839Z" fill="black"/>
<path d="M27.4882 7.6891C27.1346 7.52691 26.9149 7.29909 26.8302 7.00562C26.7454 6.71215 26.7858 6.38393 26.9516 6.02192C27.0556 5.79313 27.1943 5.60392 27.3649 5.45429C27.5364 5.30562 27.7329 5.21295 27.9545 5.17723C28.1761 5.14151 28.4141 5.18205 28.6694 5.29886C28.8814 5.3954 29.0413 5.52572 29.1492 5.68887C29.2571 5.85201 29.3121 6.03833 29.314 6.24781C29.3159 6.4573 29.2629 6.68029 29.155 6.91681C29.0779 7.08574 28.9845 7.23731 28.8746 7.37246C28.7648 7.50761 28.6405 7.61476 28.5008 7.69392C28.3611 7.77308 28.207 7.81459 28.0374 7.81845C27.8678 7.82231 27.6848 7.77984 27.4872 7.6891H27.4882ZM27.6453 7.53753C27.8158 7.61573 27.9719 7.63793 28.1125 7.60511C28.2532 7.57132 28.3813 7.48927 28.4979 7.35701C28.6145 7.22572 28.7224 7.05196 28.8197 6.83765C28.9199 6.61755 28.9816 6.4322 29.0047 6.2787C29.0278 6.12618 29.0211 5.99778 28.9854 5.89546C28.9488 5.79313 28.892 5.70818 28.813 5.64157C28.734 5.57496 28.6415 5.51703 28.5355 5.46877C28.4584 5.43305 28.3794 5.40312 28.2975 5.37706C28.2156 5.35196 28.1328 5.34037 28.048 5.34423C27.9632 5.3481 27.8774 5.37609 27.7917 5.42822C27.705 5.48035 27.6173 5.5653 27.5277 5.68115C27.4381 5.79795 27.3475 5.95627 27.256 6.1561C27.1462 6.39744 27.0903 6.60596 27.0884 6.78166C27.0864 6.95735 27.1336 7.10698 27.229 7.22862C27.3244 7.35122 27.4632 7.45355 27.6433 7.53657L27.6453 7.53753Z" fill="black"/>
<path d="M28.4648 8.06945L28.5477 7.94299L28.7982 8.0318L29.9785 6.23719L29.8031 6.05474L29.8908 5.92152L30.3186 6.20437V8.6979L30.3089 8.81471L30.3186 8.82146L31.4005 7.17649L31.2233 6.98342L31.3061 6.85695L31.9131 7.25758L31.8302 7.38404L31.5826 7.29716L30.2839 9.27132L30.042 9.11107V6.64554L30.0546 6.53935L30.0449 6.53259L28.9803 8.15054L29.1643 8.34844L29.0815 8.4749L28.4648 8.06752V8.06945Z" fill="black"/>
<path d="M7.3223 32.3473L7.14888 32.4699L6.882 32.2141L5.00708 33.5405L5.15835 33.8774L4.98492 34L4.30471 33.0356L4.47814 32.913L4.74502 33.1688L5.56011 32.5925L5.484 32.4844L4.24883 32.411L4.20548 32.4419L4.2999 32.6678L4.13032 32.7875L3.58789 32.0181L3.76132 31.8955L3.96846 32.0905L5.28553 32.1871L5.82025 30.7149L5.68537 30.3934L5.85879 30.2708L6.13916 30.6685C6.18155 30.7284 6.20468 30.7796 6.20949 30.822C6.21431 30.8635 6.20275 30.9176 6.17674 30.9832L5.67091 32.3425L5.75281 32.4583L6.62186 31.8434L6.47059 31.5065L6.64402 31.3839L7.32423 32.3483L7.3223 32.3473Z" fill="black"/>
<path d="M5.65609 29.6704C5.8642 30.0507 5.91045 30.4011 5.79772 30.7216C5.68404 31.0421 5.42679 31.3134 5.02406 31.5345C4.76874 31.6744 4.51246 31.7517 4.25714 31.7652C4.00182 31.7797 3.76384 31.7256 3.5432 31.604C3.32257 31.4833 3.13855 31.2864 2.99017 31.0151C2.8601 30.7767 2.79844 30.5469 2.80519 30.3249C2.81193 30.1028 2.88419 29.8963 3.02197 29.7041C3.16071 29.512 3.36304 29.3441 3.62799 29.1973C3.81876 29.0931 4.01049 29.0187 4.20125 28.9763C4.39299 28.9338 4.57701 28.928 4.75525 28.9599C4.93349 28.9917 5.09921 29.0651 5.25336 29.1809C5.40752 29.2968 5.54144 29.4589 5.65513 29.6684L5.65609 29.6704ZM5.35742 29.7321C5.27167 29.5748 5.16473 29.4657 5.03658 29.4068C4.90844 29.3479 4.75525 29.3354 4.57701 29.3711C4.39877 29.4068 4.19355 29.4879 3.96039 29.6153C3.74072 29.736 3.57018 29.8509 3.44782 29.9619C3.32546 30.0729 3.24357 30.182 3.20117 30.2882C3.15878 30.3944 3.14625 30.5015 3.16167 30.6077C3.17709 30.7129 3.21562 30.822 3.27632 30.933C3.31968 31.0132 3.36978 31.0856 3.42566 31.1512C3.48154 31.2169 3.54609 31.269 3.62028 31.3095C3.69447 31.3501 3.78214 31.3713 3.88427 31.3742C3.9864 31.3771 4.10587 31.3568 4.24365 31.3134C4.38142 31.27 4.5404 31.1985 4.72057 31.1001C4.97878 30.9581 5.16954 30.8153 5.29383 30.6705C5.41812 30.5257 5.48267 30.376 5.48845 30.2206C5.49423 30.0662 5.45088 29.903 5.35742 29.7321Z" fill="black"/>
<path d="M5.13331 28.8768L4.94061 28.955L4.73539 28.6471L2.60901 29.512L2.67549 29.876L2.48376 29.9542L2.01552 28.7986C1.94711 28.6297 1.90857 28.4694 1.8999 28.3189C1.89123 28.1683 1.9211 28.0341 1.9895 27.9173C2.05791 27.8005 2.17545 27.7078 2.34213 27.6402C2.45968 27.5929 2.56566 27.5668 2.66104 27.563C2.75643 27.5591 2.84507 27.5717 2.926 27.6006C3.00789 27.6296 3.08304 27.6692 3.15338 27.7203C3.22371 27.7715 3.29019 27.8304 3.3557 27.896L4.05229 26.9683L4.0099 26.6517L4.20259 26.5735L4.37698 27.004C4.40396 27.0697 4.41359 27.1247 4.40781 27.1681C4.40203 27.2116 4.37891 27.2599 4.33941 27.31L3.59368 28.2436L3.72471 28.567L4.56679 28.2242L4.50031 27.8603L4.693 27.7821L5.1362 28.8759L5.13331 28.8768ZM3.46843 28.6712L3.38075 28.454C3.33065 28.3314 3.26514 28.2339 3.18421 28.1615C3.10231 28.0891 3.00886 28.0447 2.90384 28.0273C2.79882 28.0099 2.68995 28.0235 2.57818 28.0688C2.47413 28.1113 2.39801 28.1605 2.34791 28.2175C2.29781 28.2744 2.26698 28.3343 2.25446 28.399C2.24193 28.4627 2.24193 28.5293 2.25446 28.5969C2.26602 28.6654 2.28529 28.732 2.31227 28.7977C2.3325 28.8469 2.35466 28.8971 2.38067 28.9492C2.40669 29.0004 2.42981 29.0458 2.45197 29.0844L3.47036 28.6702L3.46843 28.6712Z" fill="black"/>
<path d="M4.40593 27.1237L4.20649 27.1826L4.0321 26.8554L1.82961 27.5031L1.85947 27.8729L1.66003 27.9317L1.07617 25.9412L1.8007 25.7278L1.86814 25.9566L1.43362 26.1864L1.58874 26.7173L1.71303 27.0629L2.6447 26.7888L2.46935 26.1902L2.18994 26.1941L2.13406 26.003L2.92122 25.7713L2.9771 25.9624L2.72274 26.1159L2.89809 26.7144L3.86831 26.4287C3.86831 26.3737 3.85964 26.308 3.84422 26.2308C3.82977 26.1536 3.81146 26.0802 3.79123 26.0097L3.64093 25.4961L3.13896 25.5425L3.07152 25.3137L3.80857 25.0965L4.40303 27.1247L4.40593 27.1237Z" fill="black"/>
<path d="M3.94784 25.7404L3.73973 25.78L3.6376 25.5251L0.889787 25.0743L0.828125 24.7441L3.20982 23.2884L3.21657 22.9901L3.42468 22.9505L3.63568 24.0761L3.42757 24.1157L3.30232 23.7614L2.80131 24.0587L2.99401 25.0888L3.56631 25.1698L3.55475 24.7982L3.76286 24.7586L3.94688 25.7413L3.94784 25.7404ZM2.69918 25.0444L2.5431 24.2103L1.58734 24.7683L1.41777 24.8455L1.42355 24.8754L1.60854 24.8812L2.69918 25.0453V25.0444Z" fill="black"/>
<path d="M3.52707 23.604L3.31993 23.6214L3.21587 23.2662L0.928593 23.4544L0.88331 23.8222L0.677128 23.8396L0.581744 22.6802C0.55573 22.3597 0.59716 22.1097 0.706032 21.9291C0.814904 21.7486 0.982548 21.6492 1.20896 21.6308C1.34385 21.6192 1.47006 21.6492 1.58568 21.7196C1.70226 21.7901 1.79764 21.9031 1.87279 22.0604C1.89206 21.9378 1.93157 21.8268 1.9913 21.7293C2.05104 21.6308 2.12715 21.5526 2.21772 21.4938C2.30925 21.4339 2.41137 21.4001 2.52603 21.3905C2.78135 21.3692 2.98753 21.4387 3.14554 21.599C3.30355 21.7592 3.39508 22.0006 3.42205 22.324L3.52707 23.6069V23.604ZM1.87665 22.9186L1.85738 22.685C1.84004 22.4736 1.77934 22.3211 1.67625 22.2274C1.57316 22.1338 1.43152 22.0942 1.25232 22.1097C0.959424 22.1338 0.827429 22.3326 0.85826 22.7053C0.862114 22.7497 0.866931 22.7989 0.874639 22.853C0.882347 22.907 0.891982 22.9563 0.904507 22.9997L1.87665 22.9196V22.9186ZM3.16192 22.489C3.14458 22.2776 3.08773 22.1212 2.99042 22.0199C2.89311 21.9185 2.75533 21.8751 2.57709 21.8895C2.40078 21.904 2.27649 21.9668 2.20326 22.0778C2.13004 22.1888 2.10306 22.3664 2.1233 22.6107L2.14642 22.8974L3.17155 22.8134C3.17444 22.7777 3.17541 22.7284 3.17252 22.6667C3.17059 22.6049 3.16673 22.546 3.16288 22.49L3.16192 22.489Z" fill="black"/>
<path d="M3.35958 21.7496L3.15243 21.7467L3.08306 21.3827L0.788078 21.3451L0.707146 21.7061L0.5 21.7023L0.533721 19.6287L1.28812 19.6412L1.28426 19.8797L0.801566 19.9694L0.792895 20.5226L0.809274 20.8904L1.78045 20.9058L1.79009 20.2822L1.52224 20.2031L1.52513 20.0042L2.34601 20.0177L2.34216 20.2166L2.05408 20.2871L2.04348 20.9107L3.05416 20.9271C3.06958 20.874 3.0821 20.8093 3.09077 20.7311C3.09944 20.6529 3.10426 20.5776 3.10522 20.5033L3.11389 19.9685L2.62156 19.8633L2.62542 19.6248L3.3933 19.6374L3.35862 21.7515L3.35958 21.7496Z" fill="black"/>
<path d="M3.33217 20.2899L3.12213 20.2658L3.10094 19.9917L0.611328 18.7425L0.649867 18.4085L3.35529 17.7279L3.45068 17.445L3.66071 17.4701L3.52775 18.6083L3.31772 18.5842L3.30326 18.2086L2.73674 18.3428L2.61535 19.3835L3.13755 19.6316L3.23678 19.2734L3.44682 19.2976L3.3312 20.2899H3.33217ZM2.34654 19.2532L2.44481 18.4094L1.36669 18.6575L1.1817 18.6807L1.17785 18.7116L1.3532 18.7724L2.34557 19.2541L2.34654 19.2532Z" fill="black"/>
<path d="M3.90021 16.9392C3.83565 17.2182 3.74124 17.4228 3.61502 17.5541C3.48977 17.6854 3.32694 17.7588 3.12654 17.7742C2.92614 17.7897 2.68334 17.7646 2.39623 17.698L1.08013 17.3929L0.930792 17.7259L0.724609 17.6777L0.9886 16.5357L1.19478 16.5839L1.18418 16.945L2.50029 17.25C2.75271 17.3089 2.95215 17.334 3.0986 17.3253C3.24505 17.3166 3.35681 17.2664 3.43292 17.1738C3.50904 17.0811 3.56877 16.9392 3.61213 16.75C3.65163 16.5772 3.65067 16.4372 3.60731 16.3291C3.56396 16.221 3.47724 16.1321 3.34525 16.0617C3.21325 15.9922 3.03694 15.9313 2.8163 15.8802L1.50502 15.5761L1.35568 15.9091L1.14468 15.8599L1.3817 14.8347L1.5927 14.883L1.58113 15.2479L2.89242 15.552C3.10149 15.6002 3.28166 15.6601 3.431 15.7296C3.5813 15.7991 3.69981 15.8869 3.78748 15.9912C3.87516 16.0964 3.92815 16.2258 3.94742 16.3802C3.96572 16.5347 3.95031 16.721 3.90021 16.9392Z" fill="black"/>
<path d="M4.19216 15.5713L3.99175 15.5008L4.04282 15.1388L1.87212 14.3781L1.67653 14.937L2.09275 15.1909L2.01375 15.4168L1.30078 15.1668L2.06385 12.9793L2.77585 13.2293L2.69589 13.4591L2.21511 13.3895L2.01953 13.9485L4.19023 14.7092L4.37522 14.3945L4.57562 14.465L4.18927 15.5713H4.19216Z" fill="black"/>
<path d="M4.7796 13.9697L4.58691 13.8809L4.67362 13.5218L3.97992 13.2023L2.20714 13.3596L2.03564 13.5633L1.85547 13.4803L2.32179 12.4638L2.50196 12.5468L2.42777 12.8779L2.49618 12.9088L3.8248 12.819L3.83636 12.7949L3.02127 11.734L2.96539 11.7079L2.75342 12.0004L2.57325 11.9174L2.97888 11.0331L3.15904 11.1161L3.12051 11.371L4.15816 12.7833L4.86439 13.1086L5.07731 12.8123L5.27001 12.9011L4.7796 13.9697Z" fill="black"/>
<path d="M5.98348 11.7378C5.76574 12.1056 5.49886 12.3248 5.18476 12.3962C4.86971 12.4676 4.50166 12.3779 4.07966 12.1259C3.88504 12.0101 3.72414 11.8739 3.59793 11.7175C3.47171 11.5612 3.38115 11.3942 3.32912 11.2146C3.27613 11.035 3.26361 10.8497 3.29251 10.6576C3.32141 10.4655 3.39175 10.2743 3.50447 10.0842C3.61527 9.89688 3.72125 9.75014 3.81953 9.64395C3.91876 9.53776 3.99488 9.46536 4.04883 9.42578L4.66353 9.79165L4.53731 10.005L4.06907 9.86019C4.01704 9.9017 3.96116 9.95673 3.90142 10.0253C3.84169 10.0938 3.7887 10.1672 3.74438 10.2425C3.57481 10.5292 3.5353 10.7811 3.62683 10.9984C3.71836 11.2156 3.94382 11.4318 4.30319 11.6461C4.54117 11.788 4.7512 11.8797 4.9333 11.9212C5.1154 11.9627 5.27629 11.9521 5.416 11.8875C5.5557 11.8228 5.6771 11.7031 5.78115 11.5283C5.82451 11.455 5.85823 11.3913 5.88232 11.3362C5.9064 11.2822 5.92278 11.231 5.93242 11.1837C5.94205 11.1364 5.9488 11.0862 5.95265 11.0331L5.25124 10.6151L5.01616 10.8555L4.83792 10.7493L5.3341 9.91329L5.53161 10.0311L5.47381 10.2232L6.46714 10.8159L6.37658 10.9684L6.22628 10.9868L6.19737 11.036C6.19834 11.1084 6.1887 11.202 6.1675 11.316C6.14631 11.4299 6.08561 11.5708 5.98637 11.7378H5.98348Z" fill="black"/>
<path d="M6.30475 11.0621L6.13807 10.9375L6.29415 10.6016L4.45296 9.22885L4.17645 9.47501L4.00977 9.35048L5.2459 7.6862L5.85192 8.13799L5.70933 8.32913L5.26517 8.11965L4.93566 8.56275L4.7343 8.8707L5.51278 9.45185L5.88468 8.95179L5.71318 8.73072L5.83169 8.57144L6.4907 9.0628L6.3722 9.22209L6.09761 9.11107L5.72571 9.61113L6.53695 10.2154C6.5803 10.1817 6.62848 10.1353 6.68051 10.0774C6.73253 10.0195 6.78071 9.96059 6.82503 9.9017L7.14393 9.47212L6.80576 9.09852L6.94835 8.90738L7.56401 9.36689L6.30379 11.063L6.30475 11.0621Z" fill="black"/>
<path d="M7.2893 9.66712L7.14093 9.52811L7.2999 9.24719L5.61575 7.67172L5.38067 7.83294L5.22266 7.68524L5.7227 7.1485L8.1333 7.58194L8.29709 7.63311L8.30961 7.62056L6.8962 6.29898L6.62162 6.48336L6.47324 6.34435L7.12647 5.64253L7.27485 5.78154L7.11588 6.06246L9.00331 7.82811L8.71716 8.13509L6.2343 7.6891L6.08882 7.64372L6.07725 7.65627L7.52246 9.00778L7.79705 8.8234L7.94542 8.96241L7.2893 9.66712Z" fill="black"/>
<path d="M8.90932 7.92175L8.77443 7.76343L9.00084 7.47093L7.50939 5.72266L7.18567 5.90125L7.05078 5.74293L8.62413 4.39529L9.11453 4.97064L8.9334 5.12606L8.54705 4.82294L8.12794 5.18206L7.86395 5.43691L8.49502 6.17638L8.96809 5.77093L8.85054 5.51704L9.00181 5.38768L9.53557 6.01323L9.38431 6.14259L9.14055 5.97269L8.66748 6.37814L9.32457 7.14753C9.37467 7.12436 9.43152 7.08961 9.49511 7.0452C9.55869 6.99983 9.61939 6.95349 9.67527 6.90522L10.0809 6.55769L9.83328 6.11749L10.0144 5.96207L10.5135 6.54708L8.91028 7.92078L8.90932 7.92175Z" fill="black"/>
<path d="M10.1946 6.78938L10.0761 6.61851L10.3305 6.35014L9.02111 4.46093L8.68101 4.60573L8.5625 4.43487L9.58474 3.7234C9.73504 3.61914 9.88149 3.54577 10.027 3.50426C10.1715 3.46275 10.3093 3.46275 10.4374 3.50426C10.5665 3.54577 10.6821 3.64037 10.7843 3.78807C10.8565 3.89233 10.9047 3.9908 10.9297 4.08251C10.9548 4.17518 10.9615 4.264 10.9519 4.34991C10.9413 4.43583 10.9191 4.51885 10.8854 4.59801C10.8507 4.67717 10.8083 4.75633 10.7592 4.83453L11.8152 5.31141L12.1139 5.2004L12.2324 5.37127L11.8518 5.63674C11.794 5.67729 11.7429 5.69949 11.6986 5.70238C11.6543 5.70625 11.6032 5.69466 11.5444 5.66667L10.4711 5.14248L10.185 5.34134L10.7033 6.08949L11.0434 5.94469L11.1619 6.11556L10.1937 6.78938H10.1946ZM10.0289 5.11641L10.2206 4.98319C10.3295 4.90789 10.4095 4.82198 10.4615 4.7264C10.5135 4.63083 10.5367 4.52947 10.5309 4.42232C10.5251 4.31516 10.4875 4.21187 10.4181 4.11244C10.3546 4.02073 10.289 3.95605 10.2226 3.91936C10.1561 3.88268 10.0906 3.86627 10.026 3.8682C9.96146 3.87013 9.89691 3.88461 9.83235 3.91068C9.7678 3.93771 9.7071 3.97053 9.64929 4.01107C9.60594 4.041 9.56162 4.07479 9.5173 4.11147C9.47298 4.14815 9.43348 4.18098 9.40072 4.2109L10.0279 5.11545L10.0289 5.11641Z" fill="black"/>
<path d="M11.5094 5.81533L11.4072 5.62902L11.6182 5.45236L11.1934 2.69529L11.4872 2.53407L13.6069 4.35088L13.892 4.26496L13.9942 4.45128L12.9912 5.00153L12.8891 4.81522L13.1868 4.58643L12.7494 4.20125L11.8321 4.70517L11.9323 5.2757L12.2811 5.1502L12.3832 5.33651L11.5084 5.8163L11.5094 5.81533ZM11.783 4.40977L12.5258 4.00238L11.7001 3.26581L11.5749 3.12777L11.5479 3.14225L11.5999 3.31987L11.783 4.40977Z" fill="black"/>
<path d="M13.4143 4.76019L13.3324 4.56905L13.635 4.35667L12.7274 2.24446L12.3651 2.3188L12.2832 2.12765L13.3864 1.6527L13.4731 1.85542L13.1484 2.07263L14.0435 4.15684L14.3961 4.0381L14.8586 3.83924L14.7632 3.36042L14.9857 3.26388L15.2825 3.95412L13.4134 4.76019H13.4143Z" fill="black"/>
<path d="M14.5216 4.22442L14.457 4.02266L14.6969 3.88944L14.7971 1.10148L15.116 0.998182L16.857 3.18183L17.1528 3.15094L17.2174 3.3527L16.1296 3.70409L16.0651 3.50233L16.4004 3.33339L16.0429 2.87291L15.0476 3.19438L15.039 3.77359L15.4051 3.71567L15.4696 3.91743L14.5206 4.22442H14.5216ZM15.0534 2.89608L15.8598 2.63543L15.1873 1.75599L15.09 1.59671L15.0611 1.60636L15.0785 1.79074L15.0534 2.89512V2.89608Z" fill="black"/>
<path d="M17.4747 3.40579C17.3427 3.43475 17.2155 3.4502 17.0941 3.45213C16.9727 3.45309 16.8668 3.44537 16.7772 3.42799C16.6876 3.41062 16.6191 3.39131 16.5729 3.372L16.4255 2.70687L16.6712 2.65184L16.8513 3.07853C16.9198 3.11522 17.0065 3.13742 17.1105 3.14804C17.2146 3.15769 17.3138 3.15287 17.4053 3.13259C17.6125 3.08626 17.7551 3.01289 17.8341 2.91249C17.9131 2.81209 17.9362 2.68949 17.9044 2.54566C17.8832 2.44815 17.8399 2.37286 17.7753 2.32073C17.7108 2.2686 17.6298 2.22805 17.5316 2.20006C17.4333 2.17206 17.3186 2.14696 17.1876 2.12476C17.0806 2.10642 16.9718 2.08518 16.8619 2.06104C16.7511 2.03691 16.6471 2.00409 16.5498 1.96065C16.4525 1.91721 16.3696 1.85639 16.3012 1.77819C16.2328 1.7 16.1846 1.59767 16.1567 1.47024C16.121 1.30903 16.1287 1.16133 16.1808 1.02811C16.2328 0.894889 16.3214 0.780011 16.4486 0.685406C16.5758 0.5908 16.7348 0.52226 16.9275 0.479784C17.0248 0.45758 17.1259 0.441169 17.231 0.43055C17.335 0.419931 17.4304 0.413174 17.5161 0.412209C17.6019 0.412209 17.6664 0.413174 17.7098 0.418966L17.862 1.10534L17.625 1.15843L17.4429 0.746223C17.389 0.734639 17.3225 0.727881 17.2425 0.727881C17.1625 0.727881 17.0749 0.737535 16.9804 0.758773C16.7993 0.799318 16.6721 0.862067 16.5999 0.947984C16.5267 1.0339 16.5045 1.14106 16.5334 1.27041C16.5584 1.3824 16.6076 1.46445 16.6808 1.51658C16.754 1.56871 16.8436 1.60539 16.9496 1.62663C17.0556 1.64787 17.1674 1.66911 17.2868 1.68745C17.44 1.71062 17.5845 1.74248 17.7214 1.78109C17.8582 1.8197 17.9748 1.88149 18.0721 1.96547C18.1684 2.04946 18.2359 2.17399 18.2725 2.3381C18.3071 2.49642 18.3081 2.6364 18.2754 2.759C18.2426 2.88064 18.1858 2.98489 18.1048 3.07081C18.0249 3.15673 17.9295 3.2272 17.8196 3.28416C17.7098 3.34015 17.5961 3.38166 17.4786 3.40772L17.4747 3.40579Z" fill="black"/>
<path d="M18.9228 3.14225C18.7889 3.16059 18.6608 3.16542 18.5394 3.15769C18.418 3.14997 18.313 3.13259 18.2253 3.10749C18.1376 3.08239 18.0711 3.05826 18.0258 3.03413L17.9333 2.35934L18.1829 2.32459L18.3284 2.76479C18.3939 2.8063 18.4777 2.83623 18.5818 2.85457C18.6849 2.87291 18.7831 2.87581 18.8766 2.86326C19.0866 2.8343 19.235 2.77251 19.3217 2.67887C19.4084 2.58523 19.4412 2.46553 19.4219 2.31879C19.4084 2.21936 19.3718 2.14117 19.3121 2.08421C19.2523 2.02726 19.1743 1.97995 19.0789 1.94423C18.9835 1.90852 18.8708 1.87376 18.7417 1.84094C18.6367 1.81391 18.5307 1.78398 18.4218 1.75116C18.313 1.71834 18.2128 1.67683 18.1193 1.62567C18.0258 1.5745 17.9488 1.50693 17.8861 1.42391C17.8245 1.33992 17.784 1.23373 17.7667 1.10534C17.7445 0.94219 17.7638 0.795456 17.8264 0.666097C17.889 0.536739 17.9873 0.430549 18.1212 0.346563C18.2551 0.262577 18.4199 0.207551 18.6155 0.180521C18.7147 0.167006 18.8168 0.158318 18.9219 0.156387C19.0269 0.153491 19.1223 0.156387 19.208 0.161214C19.2938 0.167006 19.3574 0.174729 19.4007 0.183417L19.4961 0.880407L19.2552 0.91323L19.1078 0.487506C19.0548 0.471095 18.9883 0.45951 18.9093 0.452753C18.8294 0.445995 18.7417 0.448891 18.6454 0.462406C18.4613 0.487506 18.3303 0.5406 18.2503 0.61976C18.1704 0.69892 18.1395 0.805109 18.1578 0.936398C18.1733 1.05031 18.2156 1.13623 18.284 1.19318C18.3525 1.25014 18.4392 1.29455 18.5432 1.32447C18.6473 1.3544 18.7571 1.38433 18.8737 1.41232C19.024 1.44804 19.1656 1.49148 19.2995 1.54071C19.4325 1.59091 19.5443 1.66138 19.6339 1.75309C19.7235 1.8448 19.7803 1.97416 19.8025 2.1402C19.8246 2.30142 19.814 2.44043 19.7707 2.56013C19.7273 2.67984 19.6628 2.77831 19.5751 2.85747C19.4874 2.93663 19.3872 2.99937 19.2735 3.04668C19.1598 3.09398 19.0433 3.12584 18.9238 3.14225H18.9228Z" fill="black"/>
<path d="M20.7796 2.99262C20.347 3.00806 20.0137 2.89222 19.7786 2.64702C19.5435 2.40182 19.4183 2.04849 19.4019 1.58898C19.3913 1.29744 19.4375 1.0339 19.5396 0.798353C19.6418 0.562805 19.7969 0.37456 20.004 0.230721C20.2112 0.0878477 20.4694 0.0106189 20.7777 -9.17353e-08C21.0484 -0.0096537 21.2806 0.0386143 21.4762 0.143839C21.6718 0.249063 21.8231 0.407382 21.9319 0.616865C22.0408 0.826348 22.1006 1.0841 22.1112 1.38722C22.1189 1.60539 22.0986 1.81005 22.0505 2.00023C22.0023 2.1904 21.9242 2.35838 21.8163 2.50415C21.7084 2.64895 21.5678 2.76479 21.3953 2.85071C21.2228 2.93663 21.0176 2.98296 20.7796 2.99165V2.99262ZM20.8577 2.69722C21.0369 2.69143 21.1824 2.64412 21.2922 2.55627C21.402 2.46843 21.482 2.33617 21.5302 2.16048C21.5784 1.98478 21.5986 1.76468 21.589 1.4992C21.5803 1.24918 21.5543 1.04355 21.5099 0.88427C21.4656 0.724986 21.4059 0.602385 21.3298 0.516468C21.2537 0.430551 21.1641 0.370698 21.0629 0.337876C20.9617 0.305054 20.848 0.289608 20.7218 0.294435C20.6303 0.297331 20.5436 0.309881 20.4607 0.330153C20.3779 0.350426 20.3018 0.385179 20.2324 0.433447C20.163 0.481715 20.1042 0.551221 20.0561 0.640999C20.0079 0.730778 19.9722 0.847586 19.9491 0.989494C19.926 1.1314 19.9183 1.30613 19.925 1.51272C19.9356 1.80715 19.9771 2.0427 20.0513 2.2184C20.1254 2.39409 20.2295 2.51959 20.3644 2.59489C20.4993 2.67019 20.664 2.70397 20.8586 2.69722H20.8577Z" fill="black"/>
<path d="M22.9995 3.03992C22.5563 3.00517 22.2383 2.85457 22.0456 2.58717C21.8529 2.32073 21.7749 1.95389 21.8115 1.48666C21.8279 1.28103 21.8751 1.08893 21.9541 0.910335C22.0331 0.731743 22.14 0.57632 22.274 0.445031C22.4079 0.313742 22.564 0.215276 22.7422 0.149631C22.9205 0.0839865 23.1189 0.0598524 23.3386 0.0772289C23.5062 0.090744 23.6643 0.113913 23.8136 0.1477C23.9629 0.181488 24.0863 0.220102 24.1826 0.263544L24.1258 0.986599L23.8704 0.966326L23.8155 0.48268C23.7471 0.456616 23.6652 0.432482 23.5708 0.410278C23.4764 0.388075 23.381 0.373595 23.2846 0.365872C23.0881 0.350426 22.9243 0.381318 22.7923 0.460477C22.6603 0.538671 22.5572 0.666099 22.4811 0.841795C22.405 1.01749 22.3568 1.24628 22.3337 1.52913C22.3173 1.74055 22.3221 1.92203 22.3482 2.07359C22.3742 2.22516 22.4204 2.34969 22.485 2.44815C22.5495 2.54662 22.6333 2.62095 22.7355 2.67212C22.8376 2.72328 22.958 2.75417 23.0958 2.76479C23.195 2.77252 23.2827 2.77155 23.3569 2.76093C23.4311 2.75031 23.4937 2.73583 23.5438 2.71556C23.5939 2.69529 23.6344 2.67984 23.6652 2.66729L23.7953 2.19813L24.0458 2.2184L23.9899 2.92794C23.9321 2.94725 23.8598 2.96752 23.7722 2.99069C23.6845 3.01386 23.5775 3.03123 23.4513 3.04282C23.3251 3.05537 23.1738 3.0544 22.9975 3.03992H22.9995Z" fill="black"/>
<path d="M23.6094 3.03606L23.6421 2.82658L24.0063 2.81113L24.3561 0.538671L24.0131 0.41414L24.0449 0.204657L25.2049 0.384214L25.1731 0.593697L24.8089 0.609143L24.4592 2.8816L24.8022 3.00613L24.7694 3.21562L23.6094 3.03606Z" fill="black"/>
<path d="M24.1543 3.06405L24.2025 2.85747L24.4771 2.86712L25.9945 0.529016L26.3211 0.60528L26.6921 3.37586L26.9618 3.50233L26.9137 3.70891L25.7999 3.44923L25.8481 3.24265L26.2219 3.27064L26.1525 2.69142L25.1341 2.45395L24.8297 2.94628L25.1736 3.08529L25.1255 3.29188L24.1543 3.06502V3.06405ZM25.2931 2.19909L26.1188 2.39216L25.9936 1.29165L25.9916 1.10534L25.9618 1.09858L25.8818 1.26655L25.2931 2.20102V2.19909Z" fill="black"/>
<path d="M26.5869 3.65582L26.6534 3.45406L27.0147 3.5004L27.7411 1.31482L27.1804 1.12754L26.9338 1.54844L26.7073 1.47314L26.9463 0.755877L29.1401 1.48859L28.9012 2.20585L28.6709 2.12862L28.7335 1.64594L28.1728 1.45866L27.4463 3.64424L27.7633 3.82476L27.6959 4.02652L26.5859 3.65582H26.5869Z" fill="black"/>
<path d="M27.7227 4.03617L27.8026 3.8402L28.1601 3.91068L29.0311 1.78302L28.7266 1.58223L28.8066 1.38529L29.8934 1.83129L29.8134 2.02822L29.4559 1.95775L28.585 4.08541L28.8894 4.28717L28.8095 4.4841L27.7227 4.0381V4.03617Z" fill="black"/>
<path d="M29.6049 4.9494C29.2205 4.7515 28.9845 4.48796 28.8987 4.15877C28.813 3.82958 28.8746 3.45985 29.0847 3.0515C29.2176 2.79182 29.3862 2.58427 29.5895 2.42885C29.7928 2.27342 30.0202 2.18364 30.2707 2.16048C30.5212 2.13634 30.7833 2.19523 31.0588 2.33714C31.2997 2.4607 31.4799 2.61709 31.5984 2.80341C31.7178 2.99069 31.7737 3.2021 31.766 3.43861C31.7593 3.67513 31.686 3.92902 31.5473 4.19932C31.4481 4.39336 31.3305 4.56229 31.1966 4.70517C31.0617 4.84804 30.9124 4.95616 30.7467 5.03049C30.5809 5.10483 30.4027 5.13668 30.211 5.12703C30.0192 5.11738 29.8169 5.05849 29.6049 4.9494ZM29.8159 4.73027C29.9759 4.81232 30.1252 4.84225 30.264 4.81908C30.4027 4.79591 30.5366 4.71965 30.6638 4.59029C30.7919 4.45996 30.9162 4.27751 31.0367 4.041C31.1513 3.818 31.2274 3.62686 31.2669 3.46564C31.3064 3.30539 31.3132 3.16831 31.2881 3.05633C31.2631 2.94435 31.2139 2.84878 31.1426 2.76962C31.0704 2.69142 30.9779 2.62288 30.8652 2.56496C30.7842 2.52345 30.7023 2.49063 30.6195 2.46843C30.5366 2.44622 30.4538 2.4385 30.3699 2.44719C30.2861 2.45588 30.2013 2.48677 30.1156 2.54276C30.0298 2.59778 29.9412 2.68177 29.8525 2.79472C29.7629 2.90767 29.6714 3.05633 29.577 3.23975C29.4421 3.50233 29.365 3.72822 29.3438 3.91743C29.3226 4.10664 29.3525 4.26786 29.4344 4.39915C29.5163 4.53044 29.6435 4.64049 29.8159 4.7293V4.73027Z" fill="black"/>
<path d="M30.4863 5.29404L30.601 5.12606L30.9016 5.24191L32.2071 3.33918L32.0134 3.13066L32.1358 2.95207L32.7399 3.36814L32.6696 5.82016L32.6435 5.99006L32.658 5.99972L33.7535 4.40397L33.5309 4.15877L33.6455 3.9908L34.4346 4.5343L34.32 4.70227L34.0194 4.58643L32.5568 6.71794L32.2109 6.4795L32.2842 3.95315L32.3073 3.80255L32.2928 3.7929L31.1723 5.42533L31.3949 5.67053L31.2802 5.8385L30.4873 5.29211L30.4863 5.29404Z" fill="black"/>
</g>
<defs>
<linearGradient id="paint0_linear_183_820" x1="21.5852" y1="28.8247" x2="29.6755" y2="21.8589" gradientUnits="userSpaceOnUse">
<stop stop-color="#2E9BBE"/>
<stop offset="0.11" stop-color="#3993B9"/>
<stop offset="0.29" stop-color="#567FAC"/>
<stop offset="0.54" stop-color="#865F97"/>
<stop offset="0.55" stop-color="#895E96"/>
<stop offset="0.78" stop-color="#B7427E"/>
<stop offset="1" stop-color="#E62766"/>
</linearGradient>
<linearGradient id="paint1_linear_183_820" x1="29.7647" y1="25.6043" x2="15.8021" y2="25.6043" gradientUnits="userSpaceOnUse">
<stop stop-color="#D92474"/>
<stop offset="0.07" stop-color="#C73175"/>
<stop offset="0.3" stop-color="#905F7B"/>
<stop offset="0.52" stop-color="#648280"/>
<stop offset="0.72" stop-color="#459C83"/>
<stop offset="0.89" stop-color="#31AC85"/>
<stop offset="1" stop-color="#2BB286"/>
</linearGradient>
<linearGradient id="paint2_linear_183_820" x1="11.6981" y1="19.7995" x2="15.5062" y2="23.4595" gradientUnits="userSpaceOnUse">
<stop stop-color="#2E9BBE"/>
<stop offset="1" stop-color="#2BB286"/>
</linearGradient>
<radialGradient id="paint3_radial_183_820" cx="0" cy="0" r="1" gradientUnits="userSpaceOnUse" gradientTransform="translate(21.7667 19.0832) scale(12.6465 12.6713)">
<stop stop-color="#F5DE48"/>
<stop offset="0.35" stop-color="#F4DB48"/>
<stop offset="0.5" stop-color="#F4D449"/>
<stop offset="0.61" stop-color="#F3C84B"/>
<stop offset="0.7" stop-color="#F1B64E"/>
<stop offset="0.78" stop-color="#EF9F52"/>
<stop offset="0.85" stop-color="#ED8356"/>
<stop offset="0.91" stop-color="#EA615C"/>
<stop offset="0.97" stop-color="#E73B62"/>
<stop offset="1" stop-color="#E62766"/>
</radialGradient>
<clipPath id="clip0_183_820">
<rect width="164" height="34" fill="white" transform="translate(0.5)"/>
</clipPath>
</defs>
</svg>
